<?xml version="1.0" encoding="UTF-8"?> <svg xmlns="http://www.w3.org/2000/svg" width="340" height="110" viewBox="0 0 340 110" fill="none"> <rect x="0.374899" y="0.374899" width="339.25" height="109.25" rx="14.621" fill="black" fill-opacity="0.14"></rect> <rect x="0.374899" y="0.374899" width="339.25" height="109.25" rx="14.621" stroke="white" stroke-width="0.749797"></rect> <path d="M21.5337 17.9017H22.4825V25.4403L28.3054 17.9017H29.1763V27H28.2275V19.4744L22.4046 27H21.5337V17.9017ZM34.8851 27.065C34.2092 27.065 33.6026 26.9177 33.0654 26.6231C32.5368 26.3285 32.1209 25.9169 31.8176 25.3883C31.5144 24.8511 31.3627 24.2488 31.3627 23.5816C31.3627 22.9144 31.5144 22.3165 31.8176 21.788C32.1209 21.2594 32.5368 20.8478 33.0654 20.5532C33.6026 20.2586 34.2092 20.1113 34.8851 20.1113C35.4743 20.1113 35.9985 20.2283 36.4578 20.4622C36.9257 20.6875 37.2939 21.0211 37.5626 21.463L36.8737 21.9309C36.6484 21.593 36.3625 21.3417 36.0158 21.1771C35.6692 21.0038 35.2923 20.9171 34.8851 20.9171C34.3912 20.9171 33.9449 21.0298 33.5463 21.2551C33.1564 21.4717 32.8488 21.7836 32.6235 22.1909C32.4069 22.5982 32.2985 23.0617 32.2985 23.5816C32.2985 24.1102 32.4069 24.5781 32.6235 24.9854C32.8488 25.384 33.1564 25.6959 33.5463 25.9212C33.9449 26.1378 34.3912 26.2461 34.8851 26.2461C35.2923 26.2461 35.6692 26.1638 36.0158 25.9992C36.3625 25.8346 36.6484 25.5833 36.8737 25.2453L37.5626 25.7132C37.2939 26.1552 36.9257 26.4931 36.4578 26.7271C35.9899 26.9523 35.4656 27.065 34.8851 27.065ZM45.4843 20.1633V27H44.5614V20.9821H40.2722V27H39.3494V20.1633H45.4843ZM50.928 27.065C50.2695 27.065 49.6759 26.9177 49.1474 26.6231C48.6188 26.3198 48.2029 25.9039 47.8996 25.3753C47.5963 24.8467 47.4447 24.2488 47.4447 23.5816C47.4447 22.9144 47.5963 22.3165 47.8996 21.788C48.2029 21.2594 48.6188 20.8478 49.1474 20.5532C49.6759 20.2586 50.2695 20.1113 50.928 20.1113C51.5866 20.1113 52.1801 20.2586 52.7087 20.5532C53.2373 20.8478 53.6488 21.2594 53.9435 21.788C54.2467 22.3165 54.3984 22.9144 54.3984 23.5816C54.3984 24.2488 54.2467 24.8467 53.9435 25.3753C53.6488 25.9039 53.2373 26.3198 52.7087 26.6231C52.1801 26.9177 51.5866 27.065 50.928 27.065ZM50.928 26.2461C51.4133 26.2461 51.8465 26.1378 52.2278 25.9212C52.6177 25.6959 52.921 25.3796 53.1376 24.9724C53.3542 24.5651 53.4625 24.1015 53.4625 23.5816C53.4625 23.0617 53.3542 22.5982 53.1376 22.1909C52.921 21.7836 52.6177 21.4717 52.2278 21.2551C51.8465 21.0298 51.4133 20.9171 50.928 20.9171C50.4428 20.9171 50.0052 21.0298 49.6153 21.2551C49.234 21.4717 48.9307 21.7836 48.7054 22.1909C48.4888 22.5982 48.3805 23.0617 48.3805 23.5816C48.3805 24.1015 48.4888 24.5651 48.7054 24.9724C48.9307 25.3796 49.234 25.6959 49.6153 25.9212C50.0052 26.1378 50.4428 26.2461 50.928 26.2461ZM61.9215 20.1633V27H60.9987V20.9821H57.7233L57.6323 22.6718C57.563 24.0929 57.3984 25.1847 57.1384 25.9472C56.8785 26.7097 56.4149 27.091 55.7477 27.091C55.5657 27.091 55.3448 27.0563 55.0848 26.987L55.1498 26.1942C55.3058 26.2288 55.4141 26.2461 55.4747 26.2461C55.83 26.2461 56.0986 26.0815 56.2806 25.7522C56.4625 25.423 56.5839 25.0157 56.6445 24.5305C56.7052 24.0452 56.7572 23.404 56.8005 22.6068L56.9175 20.1633H61.9215ZM64.5449 20.1633H65.4677V23.1917H69.7699V20.1633H70.6928V27H69.7699V23.9846H65.4677V27H64.5449V20.1633ZM79.2946 23.8676H73.5757C73.6277 24.5781 73.9006 25.1543 74.3945 25.5963C74.8884 26.0295 75.5123 26.2461 76.2662 26.2461C76.6908 26.2461 77.0807 26.1725 77.436 26.0252C77.7912 25.8692 78.0988 25.6439 78.3588 25.3493L78.8787 25.9472C78.5754 26.3111 78.1941 26.5884 77.7349 26.779C77.2843 26.9697 76.7861 27.065 76.2402 27.065C75.5383 27.065 74.9144 26.9177 74.3685 26.6231C73.8313 26.3198 73.411 25.9039 73.1078 25.3753C72.8045 24.8467 72.6528 24.2488 72.6528 23.5816C72.6528 22.9144 72.7958 22.3165 73.0818 21.788C73.3764 21.2594 73.775 20.8478 74.2775 20.5532C74.7888 20.2586 75.3607 20.1113 75.9932 20.1113C76.6258 20.1113 77.1933 20.2586 77.6959 20.5532C78.1985 20.8478 78.5927 21.2594 78.8787 21.788C79.1646 22.3079 79.3076 22.9058 79.3076 23.5816L79.2946 23.8676ZM75.9932 20.9041C75.3347 20.9041 74.7801 21.1164 74.3295 21.541C73.8876 21.9569 73.6363 22.5028 73.5757 23.1787H78.4238C78.3631 22.5028 78.1075 21.9569 77.6569 21.541C77.215 21.1164 76.6604 20.9041 75.9932 20.9041ZM81.3504 20.1633H82.2732V23.1917H86.5754V20.1633H87.4982V27H86.5754V23.9846H82.2732V27H81.3504V20.1633ZM92.9416 27.065C92.2831 27.065 91.6895 26.9177 91.161 26.6231C90.6324 26.3198 90.2165 25.9039 89.9132 25.3753C89.6099 24.8467 89.4583 24.2488 89.4583 23.5816C89.4583 22.9144 89.6099 22.3165 89.9132 21.788C90.2165 21.2594 90.6324 20.8478 91.161 20.5532C91.6895 20.2586 92.2831 20.1113 92.9416 20.1113C93.6002 20.1113 94.1937 20.2586 94.7223 20.5532C95.2509 20.8478 95.6625 21.2594 95.9571 21.788C96.2604 22.3165 96.412 22.9144 96.412 23.5816C96.412 24.2488 96.2604 24.8467 95.9571 25.3753C95.6625 25.9039 95.2509 26.3198 94.7223 26.6231C94.1937 26.9177 93.6002 27.065 92.9416 27.065ZM92.9416 26.2461C93.4269 26.2461 93.8601 26.1378 94.2414 25.9212C94.6313 25.6959 94.9346 25.3796 95.1512 24.9724C95.3679 24.5651 95.4762 24.1015 95.4762 23.5816C95.4762 23.0617 95.3679 22.5982 95.1512 22.1909C94.9346 21.7836 94.6313 21.4717 94.2414 21.2551C93.8601 21.0298 93.4269 20.9171 92.9416 20.9171C92.4564 20.9171 92.0188 21.0298 91.6289 21.2551C91.2476 21.4717 90.9444 21.7836 90.7191 22.1909C90.5024 22.5982 90.3941 23.0617 90.3941 23.5816C90.3941 24.1015 90.5024 24.5651 90.7191 24.9724C90.9444 25.3796 91.2476 25.6959 91.6289 25.9212C92.0188 26.1378 92.4564 26.2461 92.9416 26.2461ZM104.269 23.9586H102.709V27H101.786V20.1633H102.709V23.1657H104.282L106.686 20.1633H107.687L104.996 23.4777L107.882 27H106.79L104.269 23.9586ZM111.918 27.065C111.259 27.065 110.665 26.9177 110.137 26.6231C109.608 26.3198 109.192 25.9039 108.889 25.3753C108.586 24.8467 108.434 24.2488 108.434 23.5816C108.434 22.9144 108.586 22.3165 108.889 21.788C109.192 21.2594 109.608 20.8478 110.137 20.5532C110.665 20.2586 111.259 20.1113 111.918 20.1113C112.576 20.1113 113.17 20.2586 113.698 20.5532C114.227 20.8478 114.638 21.2594 114.933 21.788C115.236 22.3165 115.388 22.9144 115.388 23.5816C115.388 24.2488 115.236 24.8467 114.933 25.3753C114.638 25.9039 114.227 26.3198 113.698 26.6231C113.17 26.9177 112.576 27.065 111.918 27.065ZM111.918 26.2461C112.403 26.2461 112.836 26.1378 113.217 25.9212C113.607 25.6959 113.911 25.3796 114.127 24.9724C114.344 24.5651 114.452 24.1015 114.452 23.5816C114.452 23.0617 114.344 22.5982 114.127 22.1909C113.911 21.7836 113.607 21.4717 113.217 21.2551C112.836 21.0298 112.403 20.9171 111.918 20.9171C111.432 20.9171 110.995 21.0298 110.605 21.2551C110.224 21.4717 109.92 21.7836 109.695 22.1909C109.478 22.5982 109.37 23.0617 109.37 23.5816C109.37 24.1015 109.478 24.5651 109.695 24.9724C109.92 25.3796 110.224 25.6959 110.605 25.9212C110.995 26.1378 111.432 26.2461 111.918 26.2461ZM117.36 20.1633H118.283V23.1917H122.585V20.1633H123.508V27H122.585V23.9846H118.283V27H117.36V20.1633ZM130.94 20.9821H128.354V27H127.431V20.9821H124.844V20.1633H130.94V20.9821ZM135.797 20.1113C136.438 20.1113 137.019 20.2586 137.538 20.5532C138.058 20.8392 138.466 21.2464 138.76 21.775C139.055 22.3035 139.202 22.9058 139.202 23.5816C139.202 24.2662 139.055 24.8727 138.76 25.4013C138.466 25.9299 138.058 26.3415 137.538 26.6361C137.027 26.922 136.447 27.065 135.797 27.065C135.242 27.065 134.74 26.9523 134.289 26.7271C133.847 26.4931 133.483 26.1552 133.197 25.7132V29.5215H132.274V20.1633H133.158V21.515C133.436 21.0644 133.799 20.7178 134.25 20.4752C134.709 20.2326 135.225 20.1113 135.797 20.1113ZM135.732 26.2461C136.208 26.2461 136.642 26.1378 137.032 25.9212C137.421 25.6959 137.725 25.3796 137.941 24.9724C138.167 24.5651 138.279 24.1015 138.279 23.5816C138.279 23.0617 138.167 22.6025 137.941 22.2039C137.725 21.7966 137.421 21.4804 137.032 21.2551C136.642 21.0298 136.208 20.9171 135.732 20.9171C135.247 20.9171 134.809 21.0298 134.419 21.2551C134.038 21.4804 133.734 21.7966 133.509 22.2039C133.293 22.6025 133.184 23.0617 133.184 23.5816C133.184 24.1015 133.293 24.5651 133.509 24.9724C133.734 25.3796 134.038 25.6959 134.419 25.9212C134.809 26.1378 135.247 26.2461 135.732 26.2461ZM143.499 20.1113C144.392 20.1113 145.076 20.3366 145.553 20.7872C146.03 21.2291 146.268 21.8876 146.268 22.7628V27H145.384V25.9342C145.176 26.2895 144.868 26.5667 144.461 26.766C144.063 26.9653 143.586 27.065 143.031 27.065C142.269 27.065 141.662 26.883 141.212 26.5191C140.761 26.1552 140.536 25.6742 140.536 25.0764C140.536 24.4958 140.744 24.0279 141.16 23.6726C141.584 23.3174 142.256 23.1397 143.174 23.1397H145.345V22.7238C145.345 22.1346 145.18 21.6883 144.851 21.3851C144.522 21.0731 144.041 20.9171 143.408 20.9171C142.975 20.9171 142.559 20.9908 142.161 21.1381C141.762 21.2767 141.42 21.4717 141.134 21.723L140.718 21.0341C141.064 20.7395 141.48 20.5142 141.966 20.3582C142.451 20.1936 142.962 20.1113 143.499 20.1113ZM143.174 26.3371C143.694 26.3371 144.141 26.2201 144.513 25.9862C144.886 25.7436 145.163 25.397 145.345 24.9464V23.8286H143.2C142.031 23.8286 141.446 24.2359 141.446 25.0504C141.446 25.449 141.597 25.7652 141.901 25.9992C142.204 26.2245 142.629 26.3371 143.174 26.3371ZM151.207 23.9586H149.647V27H148.724V20.1633H149.647V23.1657H151.22L153.625 20.1633H154.625L151.935 23.4777L154.82 27H153.729L151.207 23.9586ZM160.946 20.9821H158.36V27H157.437V20.9821H154.85V20.1633H160.946V20.9821ZM164.784 27.065C164.125 27.065 163.532 26.9177 163.003 26.6231C162.474 26.3198 162.059 25.9039 161.755 25.3753C161.452 24.8467 161.3 24.2488 161.3 23.5816C161.3 22.9144 161.452 22.3165 161.755 21.788C162.059 21.2594 162.474 20.8478 163.003 20.5532C163.532 20.2586 164.125 20.1113 164.784 20.1113C165.442 20.1113 166.036 20.2586 166.564 20.5532C167.093 20.8478 167.505 21.2594 167.799 21.788C168.102 22.3165 168.254 22.9144 168.254 23.5816C168.254 24.2488 168.102 24.8467 167.799 25.3753C167.505 25.9039 167.093 26.3198 166.564 26.6231C166.036 26.9177 165.442 27.065 164.784 27.065ZM164.784 26.2461C165.269 26.2461 165.702 26.1378 166.083 25.9212C166.473 25.6959 166.777 25.3796 166.993 24.9724C167.21 24.5651 167.318 24.1015 167.318 23.5816C167.318 23.0617 167.21 22.5982 166.993 22.1909C166.777 21.7836 166.473 21.4717 166.083 21.2551C165.702 21.0298 165.269 20.9171 164.784 20.9171C164.298 20.9171 163.861 21.0298 163.471 21.2551C163.09 21.4717 162.786 21.7836 162.561 22.1909C162.344 22.5982 162.236 23.0617 162.236 23.5816C162.236 24.1015 162.344 24.5651 162.561 24.9724C162.786 25.3796 163.09 25.6959 163.471 25.9212C163.861 26.1378 164.298 26.2461 164.784 26.2461ZM174.58 23.4647C175.508 23.6813 175.971 24.2402 175.971 25.1413C175.971 25.7392 175.75 26.1985 175.308 26.5191C174.866 26.8397 174.208 27 173.333 27H170.226V20.1633H173.242C174.022 20.1633 174.632 20.3149 175.074 20.6182C175.516 20.9215 175.737 21.3547 175.737 21.918C175.737 22.2905 175.633 22.6112 175.425 22.8798C175.226 23.1397 174.944 23.3347 174.58 23.4647ZM171.123 23.2047H173.177C173.705 23.2047 174.108 23.1051 174.386 22.9058C174.671 22.7065 174.814 22.4162 174.814 22.0349C174.814 21.6537 174.671 21.3677 174.386 21.1771C174.108 20.9865 173.705 20.8911 173.177 20.8911H171.123V23.2047ZM173.294 26.2721C173.883 26.2721 174.325 26.1768 174.619 25.9862C174.914 25.7956 175.061 25.4966 175.061 25.0894C175.061 24.6821 174.927 24.3832 174.658 24.1925C174.39 23.9932 173.965 23.8936 173.385 23.8936H171.123V26.2721H173.294ZM184.863 23.4387C185.348 23.5513 185.721 23.7463 185.981 24.0236C186.25 24.3008 186.384 24.6388 186.384 25.0374C186.384 25.436 186.245 25.7912 185.968 26.1032C185.699 26.4151 185.331 26.6577 184.863 26.831C184.395 26.9957 183.88 27.078 183.316 27.078C182.822 27.078 182.337 27.0087 181.861 26.87C181.384 26.7227 180.968 26.5104 180.613 26.2331L180.925 25.5443C181.237 25.7782 181.601 25.9602 182.017 26.0902C182.433 26.2201 182.853 26.2851 183.277 26.2851C183.91 26.2851 184.426 26.1682 184.824 25.9342C185.231 25.6916 185.435 25.3666 185.435 24.9594C185.435 24.5954 185.27 24.3138 184.941 24.1145C184.612 23.9066 184.161 23.8026 183.589 23.8026H182.42V23.1267H183.537C184.049 23.1267 184.46 23.0314 184.772 22.8408C185.084 22.6415 185.24 22.3772 185.24 22.0479C185.24 21.684 185.062 21.398 184.707 21.1901C184.361 20.9821 183.906 20.8781 183.342 20.8781C182.606 20.8781 181.878 21.0644 181.159 21.437L180.899 20.7222C181.713 20.2976 182.558 20.0853 183.433 20.0853C183.953 20.0853 184.421 20.1633 184.837 20.3192C185.262 20.4666 185.591 20.6788 185.825 20.9561C186.068 21.2334 186.189 21.554 186.189 21.918C186.189 22.2646 186.068 22.5722 185.825 22.8408C185.591 23.1094 185.27 23.3087 184.863 23.4387ZM190.831 20.1113C191.724 20.1113 192.408 20.3366 192.885 20.7872C193.362 21.2291 193.6 21.8876 193.6 22.7628V27H192.716V25.9342C192.508 26.2895 192.2 26.5667 191.793 26.766C191.395 26.9653 190.918 27.065 190.363 27.065C189.601 27.065 188.994 26.883 188.544 26.5191C188.093 26.1552 187.868 25.6742 187.868 25.0764C187.868 24.4958 188.076 24.0279 188.492 23.6726C188.916 23.3174 189.588 23.1397 190.506 23.1397H192.677V22.7238C192.677 22.1346 192.512 21.6883 192.183 21.3851C191.854 21.0731 191.373 20.9171 190.74 20.9171C190.307 20.9171 189.891 20.9908 189.493 21.1381C189.094 21.2767 188.752 21.4717 188.466 21.723L188.05 21.0341C188.396 20.7395 188.812 20.5142 189.298 20.3582C189.783 20.1936 190.294 20.1113 190.831 20.1113ZM190.506 26.3371C191.026 26.3371 191.473 26.2201 191.845 25.9862C192.218 25.7436 192.495 25.397 192.677 24.9464V23.8286H190.532C189.363 23.8286 188.778 24.2359 188.778 25.0504C188.778 25.449 188.929 25.7652 189.233 25.9992C189.536 26.2245 189.96 26.3371 190.506 26.3371ZM205.593 20.1633V27H204.67V20.9821H200.381V27H199.458V20.1633H205.593ZM211.037 27.065C210.378 27.065 209.785 26.9177 209.256 26.6231C208.728 26.3198 208.312 25.9039 208.008 25.3753C207.705 24.8467 207.553 24.2488 207.553 23.5816C207.553 22.9144 207.705 22.3165 208.008 21.788C208.312 21.2594 208.728 20.8478 209.256 20.5532C209.785 20.2586 210.378 20.1113 211.037 20.1113C211.695 20.1113 212.289 20.2586 212.817 20.5532C213.346 20.8478 213.758 21.2594 214.052 21.788C214.355 22.3165 214.507 22.9144 214.507 23.5816C214.507 24.2488 214.355 24.8467 214.052 25.3753C213.758 25.9039 213.346 26.3198 212.817 26.6231C212.289 26.9177 211.695 27.065 211.037 27.065ZM211.037 26.2461C211.522 26.2461 211.955 26.1378 212.337 25.9212C212.726 25.6959 213.03 25.3796 213.246 24.9724C213.463 24.5651 213.571 24.1015 213.571 23.5816C213.571 23.0617 213.463 22.5982 213.246 22.1909C213.03 21.7836 212.726 21.4717 212.337 21.2551C211.955 21.0298 211.522 20.9171 211.037 20.9171C210.552 20.9171 210.114 21.0298 209.724 21.2551C209.343 21.4717 209.039 21.7836 208.814 22.1909C208.598 22.5982 208.489 23.0617 208.489 23.5816C208.489 24.1015 208.598 24.5651 208.814 24.9724C209.039 25.3796 209.343 25.6959 209.724 25.9212C210.114 26.1378 210.552 26.2461 211.037 26.2461ZM219.339 27.065C218.663 27.065 218.056 26.9177 217.519 26.6231C216.991 26.3285 216.575 25.9169 216.271 25.3883C215.968 24.8511 215.817 24.2488 215.817 23.5816C215.817 22.9144 215.968 22.3165 216.271 21.788C216.575 21.2594 216.991 20.8478 217.519 20.5532C218.056 20.2586 218.663 20.1113 219.339 20.1113C219.928 20.1113 220.452 20.2283 220.912 20.4622C221.379 20.6875 221.748 21.0211 222.016 21.463L221.327 21.9309C221.102 21.593 220.816 21.3417 220.47 21.1771C220.123 21.0038 219.746 20.9171 219.339 20.9171C218.845 20.9171 218.399 21.0298 218 21.2551C217.61 21.4717 217.303 21.7836 217.077 22.1909C216.861 22.5982 216.752 23.0617 216.752 23.5816C216.752 24.1102 216.861 24.5781 217.077 24.9854C217.303 25.384 217.61 25.6959 218 25.9212C218.399 26.1378 218.845 26.2461 219.339 26.2461C219.746 26.2461 220.123 26.1638 220.47 25.9992C220.816 25.8346 221.102 25.5833 221.327 25.2453L222.016 25.7132C221.748 26.1552 221.379 26.4931 220.912 26.7271C220.444 26.9523 219.919 27.065 219.339 27.065ZM229.164 20.1633V27H228.241V20.9821H224.965L224.874 22.6718C224.805 24.0929 224.641 25.1847 224.381 25.9472C224.121 26.7097 223.657 27.091 222.99 27.091C222.808 27.091 222.587 27.0563 222.327 26.987L222.392 26.1942C222.548 26.2288 222.656 26.2461 222.717 26.2461C223.072 26.2461 223.341 26.0815 223.523 25.7522C223.705 25.423 223.826 25.0157 223.887 24.5305C223.947 24.0452 223.999 23.404 224.043 22.6068L224.16 20.1633H229.164ZM237.766 23.8676H232.047C232.099 24.5781 232.372 25.1543 232.866 25.5963C233.36 26.0295 233.984 26.2461 234.738 26.2461C235.162 26.2461 235.552 26.1725 235.907 26.0252C236.263 25.8692 236.57 25.6439 236.83 25.3493L237.35 25.9472C237.047 26.3111 236.665 26.5884 236.206 26.779C235.756 26.9697 235.257 27.065 234.712 27.065C234.01 27.065 233.386 26.9177 232.84 26.6231C232.303 26.3198 231.882 25.9039 231.579 25.3753C231.276 24.8467 231.124 24.2488 231.124 23.5816C231.124 22.9144 231.267 22.3165 231.553 21.788C231.848 21.2594 232.246 20.8478 232.749 20.5532C233.26 20.2586 233.832 20.1113 234.465 20.1113C235.097 20.1113 235.665 20.2586 236.167 20.5532C236.67 20.8478 237.064 21.2594 237.35 21.788C237.636 22.3079 237.779 22.9058 237.779 23.5816L237.766 23.8676ZM234.465 20.9041C233.806 20.9041 233.251 21.1164 232.801 21.541C232.359 21.9569 232.108 22.5028 232.047 23.1787H236.895C236.834 22.5028 236.579 21.9569 236.128 21.541C235.686 21.1164 235.132 20.9041 234.465 20.9041ZM246.35 26.1942V28.6507H245.479V27H239.357V28.6507H238.486V26.1942H238.876C239.335 26.1682 239.647 25.8302 239.812 25.1803C239.977 24.5305 240.089 23.6206 240.15 22.4509L240.241 20.1633H245.284V26.1942H246.35ZM240.995 22.5028C240.951 23.4733 240.869 24.2748 240.748 24.9074C240.627 25.5313 240.41 25.9602 240.098 26.1942H244.361V20.9821H241.073L240.995 22.5028ZM248.148 20.1633H249.071V23.1917H253.373V20.1633H254.296V27H253.373V23.9846H249.071V27H248.148V20.1633ZM256.919 20.1633H257.842V25.5963L262.404 20.1633H263.223V27H262.3V21.567L257.751 27H256.919V20.1633ZM271.846 23.8676H266.128C266.18 24.5781 266.452 25.1543 266.946 25.5963C267.44 26.0295 268.064 26.2461 268.818 26.2461C269.243 26.2461 269.633 26.1725 269.988 26.0252C270.343 25.8692 270.651 25.6439 270.911 25.3493L271.431 25.9472C271.127 26.3111 270.746 26.5884 270.287 26.779C269.836 26.9697 269.338 27.065 268.792 27.065C268.09 27.065 267.466 26.9177 266.92 26.6231C266.383 26.3198 265.963 25.9039 265.66 25.3753C265.356 24.8467 265.205 24.2488 265.205 23.5816C265.205 22.9144 265.348 22.3165 265.634 21.788C265.928 21.2594 266.327 20.8478 266.829 20.5532C267.341 20.2586 267.913 20.1113 268.545 20.1113C269.178 20.1113 269.745 20.2586 270.248 20.5532C270.75 20.8478 271.145 21.2594 271.431 21.788C271.717 22.3079 271.859 22.9058 271.859 23.5816L271.846 23.8676ZM268.545 20.9041C267.887 20.9041 267.332 21.1164 266.881 21.541C266.439 21.9569 266.188 22.5028 266.128 23.1787H270.976C270.915 22.5028 270.659 21.9569 270.209 21.541C269.767 21.1164 269.212 20.9041 268.545 20.9041ZM282.88 26.1682V27H276.498V26.3371L280.28 22.6328C280.757 22.1649 281.078 21.762 281.242 21.424C281.415 21.0774 281.502 20.7308 281.502 20.3842C281.502 19.847 281.316 19.4311 280.943 19.1365C280.579 18.8332 280.055 18.6816 279.371 18.6816C278.305 18.6816 277.477 19.0195 276.888 19.6954L276.225 19.1235C276.58 18.7076 277.031 18.3869 277.577 18.1617C278.131 17.9364 278.755 17.8237 279.449 17.8237C280.376 17.8237 281.108 18.0447 281.645 18.4866C282.191 18.9198 282.464 19.5177 282.464 20.2803C282.464 20.7482 282.36 21.1988 282.152 21.632C281.944 22.0653 281.55 22.5635 280.969 23.1267L277.876 26.1682H282.88ZM292.928 20.9821H289.016V27H288.093V20.1633H292.928V20.9821ZM296.765 27.065C296.106 27.065 295.513 26.9177 294.984 26.6231C294.456 26.3198 294.04 25.9039 293.736 25.3753C293.433 24.8467 293.282 24.2488 293.282 23.5816C293.282 22.9144 293.433 22.3165 293.736 21.788C294.04 21.2594 294.456 20.8478 294.984 20.5532C295.513 20.2586 296.106 20.1113 296.765 20.1113C297.423 20.1113 298.017 20.2586 298.546 20.5532C299.074 20.8478 299.486 21.2594 299.78 21.788C300.084 22.3165 300.235 22.9144 300.235 23.5816C300.235 24.2488 300.084 24.8467 299.78 25.3753C299.486 25.9039 299.074 26.3198 298.546 26.6231C298.017 26.9177 297.423 27.065 296.765 27.065ZM296.765 26.2461C297.25 26.2461 297.683 26.1378 298.065 25.9212C298.455 25.6959 298.758 25.3796 298.974 24.9724C299.191 24.5651 299.299 24.1015 299.299 23.5816C299.299 23.0617 299.191 22.5982 298.974 22.1909C298.758 21.7836 298.455 21.4717 298.065 21.2551C297.683 21.0298 297.25 20.9171 296.765 20.9171C296.28 20.9171 295.842 21.0298 295.452 21.2551C295.071 21.4717 294.768 21.7836 294.542 22.1909C294.326 22.5982 294.217 23.0617 294.217 23.5816C294.217 24.1015 294.326 24.5651 294.542 24.9724C294.768 25.3796 295.071 25.6959 295.452 25.9212C295.842 26.1378 296.28 26.2461 296.765 26.2461ZM308.837 26.1942V28.6507H307.966V27H301.844V28.6507H300.974V26.1942H301.364C301.823 26.1682 302.135 25.8302 302.299 25.1803C302.464 24.5305 302.577 23.6206 302.637 22.4509L302.728 20.1633H307.771V26.1942H308.837ZM303.482 22.5028C303.439 23.4733 303.357 24.2748 303.235 24.9074C303.114 25.5313 302.897 25.9602 302.585 26.1942H306.849V20.9821H303.56L303.482 22.5028ZM312.988 20.1113C313.881 20.1113 314.565 20.3366 315.042 20.7872C315.518 21.2291 315.757 21.8876 315.757 22.7628V27H314.873V25.9342C314.665 26.2895 314.357 26.5667 313.95 26.766C313.551 26.9653 313.075 27.065 312.52 27.065C311.758 27.065 311.151 26.883 310.701 26.5191C310.25 26.1552 310.025 25.6742 310.025 25.0764C310.025 24.4958 310.233 24.0279 310.649 23.6726C311.073 23.3174 311.745 23.1397 312.663 23.1397H314.834V22.7238C314.834 22.1346 314.669 21.6883 314.34 21.3851C314.011 21.0731 313.53 20.9171 312.897 20.9171C312.464 20.9171 312.048 20.9908 311.649 21.1381C311.251 21.2767 310.909 21.4717 310.623 21.723L310.207 21.0341C310.553 20.7395 310.969 20.5142 311.454 20.3582C311.94 20.1936 312.451 20.1113 312.988 20.1113ZM312.663 26.3371C313.183 26.3371 313.629 26.2201 314.002 25.9862C314.375 25.7436 314.652 25.397 314.834 24.9464V23.8286H312.689C311.519 23.8286 310.935 24.2359 310.935 25.0504C310.935 25.449 311.086 25.7652 311.389 25.9992C311.693 26.2245 312.117 26.3371 312.663 26.3371ZM318.278 21.528C318.088 21.528 317.923 21.4587 317.784 21.3201C317.654 21.1814 317.589 21.0125 317.589 20.8132C317.589 20.6139 317.654 20.4492 317.784 20.3192C317.923 20.1806 318.088 20.1113 318.278 20.1113C318.469 20.1113 318.634 20.1806 318.772 20.3192C318.911 20.4492 318.98 20.6139 318.98 20.8132C318.98 21.0125 318.911 21.1814 318.772 21.3201C318.634 21.4587 318.469 21.528 318.278 21.528ZM318.278 27.065C318.088 27.065 317.923 26.9957 317.784 26.857C317.654 26.7184 317.589 26.5494 317.589 26.3501C317.589 26.1508 317.654 25.9862 317.784 25.8562C317.923 25.7176 318.088 25.6483 318.278 25.6483C318.469 25.6483 318.634 25.7176 318.772 25.8562C318.911 25.9862 318.98 26.1508 318.98 26.3501C318.98 26.5494 318.911 26.7184 318.772 26.857C318.634 26.9957 318.469 27.065 318.278 27.065Z" fill="white"></path> <path d="M23.8314 90.045C25.0472 90.045 25.931 90.265 26.4829 90.7049C27.0428 91.1368 27.3227 91.7447 27.3227 92.5285C27.3227 93.0164 27.2067 93.4523 26.9748 93.8362C26.7508 94.2202 26.4109 94.5241 25.955 94.7481C25.4991 94.964 24.9392 95.072 24.2753 95.072C23.6755 95.072 23.1036 94.976 22.5597 94.784C22.0238 94.5841 21.5919 94.3201 21.2639 93.9922L21.6839 93.3083C21.9638 93.5963 22.3317 93.8322 22.7876 94.0162C23.2435 94.1922 23.7354 94.2801 24.2633 94.2801C24.9592 94.2801 25.4951 94.1242 25.871 93.8122C26.2549 93.5003 26.4469 93.0844 26.4469 92.5645C26.4469 91.9886 26.2309 91.5527 25.799 91.2568C25.3751 90.9608 24.6553 90.8128 23.6395 90.8128H21.8518L22.2837 86.6017H26.8788V87.3695H23.0396L22.7516 90.045H23.8314Z" fill="white"></path> <path d="M297.769 90.201C298.649 90.249 299.317 90.4889 299.772 90.9208C300.236 91.3447 300.468 91.9006 300.468 92.5885C300.468 93.0684 300.352 93.4963 300.12 93.8722C299.888 94.2402 299.544 94.5321 299.089 94.7481C298.633 94.964 298.077 95.072 297.421 95.072C296.813 95.072 296.237 94.976 295.693 94.784C295.157 94.5841 294.725 94.3201 294.398 93.9922L294.817 93.3083C295.097 93.5963 295.469 93.8322 295.933 94.0162C296.397 94.1922 296.893 94.2801 297.421 94.2801C298.109 94.2801 298.641 94.1322 299.017 93.8362C299.393 93.5323 299.58 93.1164 299.58 92.5885C299.58 92.0686 299.393 91.6607 299.017 91.3647C298.641 91.0688 298.073 90.9208 297.313 90.9208H296.713V90.285L299.041 87.3695H294.745V86.6017H300.144V87.2136L297.769 90.201ZM305.033 95.072C304.385 95.072 303.805 94.9 303.293 94.5561C302.789 94.2122 302.393 93.7203 302.105 93.0804C301.825 92.4325 301.685 91.6727 301.685 90.8009C301.685 89.929 301.825 89.1732 302.105 88.5333C302.393 87.8854 302.789 87.3895 303.293 87.0456C303.805 86.7017 304.385 86.5297 305.033 86.5297C305.681 86.5297 306.257 86.7017 306.76 87.0456C307.272 87.3895 307.672 87.8854 307.96 88.5333C308.248 89.1732 308.392 89.929 308.392 90.8009C308.392 91.6727 308.248 92.4325 307.96 93.0804C307.672 93.7203 307.272 94.2122 306.76 94.5561C306.257 94.9 305.681 95.072 305.033 95.072ZM305.033 94.2801C305.521 94.2801 305.949 94.1442 306.317 93.8722C306.692 93.6003 306.984 93.2044 307.192 92.6845C307.4 92.1646 307.504 91.5367 307.504 90.8009C307.504 90.065 307.4 89.4371 307.192 88.9172C306.984 88.3973 306.692 88.0014 306.317 87.7295C305.949 87.4575 305.521 87.3216 305.033 87.3216C304.545 87.3216 304.113 87.4575 303.737 87.7295C303.369 88.0014 303.081 88.3973 302.873 88.9172C302.665 89.4371 302.561 90.065 302.561 90.8009C302.561 91.5367 302.665 92.1646 302.873 92.6845C303.081 93.2044 303.369 93.6003 303.737 93.8722C304.113 94.1442 304.545 94.2801 305.033 94.2801ZM315.158 91.1608H312.926V93.3443H312.17V91.1608H309.939V90.4529H312.17V88.2574H312.926V90.4529H315.158V91.1608Z" fill="white"></path> </svg> 