<?xml version="1.0" encoding="UTF-8"?> <svg xmlns="http://www.w3.org/2000/svg" width="380" height="542" viewBox="0 0 380 542" fill="none"> <g clip-path="url(#clip0)"> <path d="M340 0H40C17.9086 0 0 17.9086 0 40V502C0 524.091 17.9086 542 40 542H340C362.091 542 380 524.091 380 502V40C380 17.9086 362.091 0 340 0Z" fill="#384E59" fill-opacity="0.48"></path> <path d="M31.74 109H34.96V118.12L41.64 109H44.68V123H41.48V113.9L34.8 123H31.74V109ZM47.9258 112.24H51.0258V116.44H55.7058V112.24H58.8258V123H55.7058V118.98H51.0258V123H47.9258V112.24ZM70.0325 117.38C71.2992 117.807 71.9325 118.66 71.9325 119.94C71.9325 120.913 71.5658 121.667 70.8325 122.2C70.0992 122.733 69.0058 123 67.5525 123H61.8125V112.24H67.3125C68.6592 112.24 69.7125 112.487 70.4725 112.98C71.2325 113.46 71.6125 114.14 71.6125 115.02C71.6125 115.553 71.4725 116.027 71.1925 116.44C70.9258 116.84 70.5392 117.153 70.0325 117.38ZM64.6725 116.66H67.0325C68.1258 116.66 68.6725 116.273 68.6725 115.5C68.6725 114.74 68.1258 114.36 67.0325 114.36H64.6725V116.66ZM67.2925 120.88C68.4392 120.88 69.0125 120.487 69.0125 119.7C69.0125 119.287 68.8792 118.987 68.6125 118.8C68.3458 118.6 67.9258 118.5 67.3525 118.5H64.6725V120.88H67.2925ZM84.7139 117.66C84.7139 117.7 84.6939 117.98 84.6539 118.5H76.5139C76.6606 119.167 77.0072 119.693 77.5539 120.08C78.1006 120.467 78.7806 120.66 79.5939 120.66C80.1539 120.66 80.6472 120.58 81.0739 120.42C81.5139 120.247 81.9206 119.98 82.2939 119.62L83.9539 121.42C82.9406 122.58 81.4606 123.16 79.5139 123.16C78.3006 123.16 77.2272 122.927 76.2939 122.46C75.3606 121.98 74.6406 121.32 74.1339 120.48C73.6272 119.64 73.3739 118.687 73.3739 117.62C73.3739 116.567 73.6206 115.62 74.1139 114.78C74.6206 113.927 75.3072 113.267 76.1739 112.8C77.0539 112.32 78.0339 112.08 79.1139 112.08C80.1672 112.08 81.1206 112.307 81.9739 112.76C82.8272 113.213 83.4939 113.867 83.9739 114.72C84.4672 115.56 84.7139 116.54 84.7139 117.66ZM79.1339 114.44C78.4272 114.44 77.8339 114.64 77.3539 115.04C76.8739 115.44 76.5806 115.987 76.4739 116.68H81.7739C81.6672 116 81.3739 115.46 80.8939 115.06C80.4139 114.647 79.8272 114.44 79.1339 114.44ZM92.2255 123.16C91.0788 123.16 90.0455 122.927 89.1255 122.46C88.2188 121.98 87.5055 121.32 86.9855 120.48C86.4788 119.64 86.2255 118.687 86.2255 117.62C86.2255 116.553 86.4788 115.6 86.9855 114.76C87.5055 113.92 88.2188 113.267 89.1255 112.8C90.0455 112.32 91.0788 112.08 92.2255 112.08C93.3588 112.08 94.3455 112.32 95.1855 112.8C96.0388 113.267 96.6588 113.94 97.0455 114.82L94.6255 116.12C94.0655 115.133 93.2588 114.64 92.2055 114.64C91.3921 114.64 90.7188 114.907 90.1855 115.44C89.6521 115.973 89.3855 116.7 89.3855 117.62C89.3855 118.54 89.6521 119.267 90.1855 119.8C90.7188 120.333 91.3921 120.6 92.2055 120.6C93.2721 120.6 94.0788 120.107 94.6255 119.12L97.0455 120.44C96.6588 121.293 96.0388 121.96 95.1855 122.44C94.3455 122.92 93.3588 123.16 92.2255 123.16ZM107.942 114.8H104.302V123H101.202V114.8H97.5623V112.24H107.942V114.8ZM114.196 123.16C113.063 123.16 112.043 122.927 111.136 122.46C110.243 121.98 109.543 121.32 109.036 120.48C108.53 119.64 108.276 118.687 108.276 117.62C108.276 116.553 108.53 115.6 109.036 114.76C109.543 113.92 110.243 113.267 111.136 112.8C112.043 112.32 113.063 112.08 114.196 112.08C115.33 112.08 116.343 112.32 117.236 112.8C118.13 113.267 118.83 113.92 119.336 114.76C119.843 115.6 120.096 116.553 120.096 117.62C120.096 118.687 119.843 119.64 119.336 120.48C118.83 121.32 118.13 121.98 117.236 122.46C116.343 122.927 115.33 123.16 114.196 123.16ZM114.196 120.6C114.996 120.6 115.65 120.333 116.156 119.8C116.676 119.253 116.936 118.527 116.936 117.62C116.936 116.713 116.676 115.993 116.156 115.46C115.65 114.913 114.996 114.64 114.196 114.64C113.396 114.64 112.736 114.913 112.216 115.46C111.696 115.993 111.436 116.713 111.436 117.62C111.436 118.527 111.696 119.253 112.216 119.8C112.736 120.333 113.396 120.6 114.196 120.6ZM128.582 112.08C129.582 112.08 130.489 112.313 131.302 112.78C132.129 113.233 132.776 113.88 133.242 114.72C133.709 115.547 133.942 116.513 133.942 117.62C133.942 118.727 133.709 119.7 133.242 120.54C132.776 121.367 132.129 122.013 131.302 122.48C130.489 122.933 129.582 123.16 128.582 123.16C127.209 123.16 126.129 122.727 125.342 121.86V126.88H122.222V112.24H125.202V113.48C125.976 112.547 127.102 112.08 128.582 112.08ZM128.042 120.6C128.842 120.6 129.496 120.333 130.002 119.8C130.522 119.253 130.782 118.527 130.782 117.62C130.782 116.713 130.522 115.993 130.002 115.46C129.496 114.913 128.842 114.64 128.042 114.64C127.242 114.64 126.582 114.913 126.062 115.46C125.556 115.993 125.302 116.713 125.302 117.62C125.302 118.527 125.556 119.253 126.062 119.8C126.582 120.333 127.242 120.6 128.042 120.6ZM141.789 115.68C143.189 115.693 144.249 116.007 144.969 116.62C145.689 117.233 146.049 118.113 146.049 119.26C146.049 120.46 145.642 121.387 144.829 122.04C144.016 122.693 142.862 123.02 141.369 123.02L136.129 123V112.24H139.229V115.68H141.789ZM147.209 112.24H150.309V123H147.209V112.24ZM141.089 120.8C141.689 120.813 142.149 120.687 142.469 120.42C142.789 120.153 142.949 119.753 142.949 119.22C142.949 118.7 142.789 118.32 142.469 118.08C142.162 117.84 141.702 117.713 141.089 117.7L139.229 117.68V120.8H141.089ZM158.98 112.24H162.08V116.44H166.76V112.24H169.88V123H166.76V118.98H162.08V123H158.98V112.24ZM177.047 112.08C178.714 112.08 179.994 112.48 180.887 113.28C181.781 114.067 182.227 115.26 182.227 116.86V123H179.307V121.66C178.721 122.66 177.627 123.16 176.027 123.16C175.201 123.16 174.481 123.02 173.867 122.74C173.267 122.46 172.807 122.073 172.487 121.58C172.167 121.087 172.007 120.527 172.007 119.9C172.007 118.9 172.381 118.113 173.127 117.54C173.887 116.967 175.054 116.68 176.627 116.68H179.107C179.107 116 178.901 115.48 178.487 115.12C178.074 114.747 177.454 114.56 176.627 114.56C176.054 114.56 175.487 114.653 174.927 114.84C174.381 115.013 173.914 115.253 173.527 115.56L172.407 113.38C172.994 112.967 173.694 112.647 174.507 112.42C175.334 112.193 176.181 112.08 177.047 112.08ZM176.807 121.06C177.341 121.06 177.814 120.94 178.227 120.7C178.641 120.447 178.934 120.08 179.107 119.6V118.5H176.967C175.687 118.5 175.047 118.92 175.047 119.76C175.047 120.16 175.201 120.48 175.507 120.72C175.827 120.947 176.261 121.06 176.807 121.06ZM194.618 112.24V123H191.498V119C190.591 119.453 189.591 119.68 188.498 119.68C187.044 119.68 185.944 119.353 185.198 118.7C184.464 118.033 184.097 117.007 184.097 115.62V112.24H187.218V115.42C187.218 116.073 187.384 116.547 187.718 116.84C188.064 117.133 188.558 117.28 189.198 117.28C190.011 117.28 190.778 117.107 191.498 116.76V112.24H194.618ZM197.613 112.24H200.713V118.64L205.953 112.24H208.813V123H205.713V116.6L200.493 123H197.613V112.24ZM211.813 112.24H214.913V116.44H219.593V112.24H222.713V123H219.593V118.98H214.913V123H211.813V112.24ZM229.879 112.08C231.546 112.08 232.826 112.48 233.719 113.28C234.613 114.067 235.059 115.26 235.059 116.86V123H232.139V121.66C231.553 122.66 230.459 123.16 228.859 123.16C228.033 123.16 227.313 123.02 226.699 122.74C226.099 122.46 225.639 122.073 225.319 121.58C224.999 121.087 224.839 120.527 224.839 119.9C224.839 118.9 225.213 118.113 225.959 117.54C226.719 116.967 227.886 116.68 229.459 116.68H231.939C231.939 116 231.733 115.48 231.319 115.12C230.906 114.747 230.286 114.56 229.459 114.56C228.886 114.56 228.319 114.653 227.759 114.84C227.213 115.013 226.746 115.253 226.359 115.56L225.239 113.38C225.826 112.967 226.526 112.647 227.339 112.42C228.166 112.193 229.013 112.08 229.879 112.08ZM229.639 121.06C230.173 121.06 230.646 120.94 231.059 120.7C231.473 120.447 231.766 120.08 231.939 119.6V118.5H229.799C228.519 118.5 227.879 118.92 227.879 119.76C227.879 120.16 228.033 120.48 228.339 120.72C228.659 120.947 229.093 121.06 229.639 121.06ZM247.95 112.08C249.043 112.08 250.023 112.32 250.89 112.8C251.756 113.267 252.436 113.92 252.93 114.76C253.423 115.6 253.67 116.553 253.67 117.62C253.67 118.687 253.423 119.64 252.93 120.48C252.436 121.32 251.756 121.98 250.89 122.46C250.023 122.927 249.043 123.16 247.95 123.16C247.003 123.16 246.136 122.987 245.35 122.64C244.563 122.28 243.91 121.78 243.39 121.14C242.87 120.487 242.523 119.74 242.35 118.9H240.87V123H237.77V112.24H240.87V116.2H242.37C242.676 114.947 243.33 113.947 244.33 113.2C245.33 112.453 246.536 112.08 247.95 112.08ZM247.95 120.6C248.71 120.6 249.336 120.333 249.83 119.8C250.336 119.253 250.59 118.527 250.59 117.62C250.59 116.7 250.336 115.973 249.83 115.44C249.336 114.907 248.71 114.64 247.95 114.64C247.176 114.64 246.536 114.907 246.03 115.44C245.536 115.973 245.29 116.7 245.29 117.62C245.29 118.527 245.536 119.253 246.03 119.8C246.536 120.333 247.176 120.6 247.95 120.6ZM264.485 114.8H260.845V123H257.745V114.8H254.105V112.24H264.485V114.8ZM39.72 149.38C40.9867 149.807 41.62 150.66 41.62 151.94C41.62 152.913 41.2533 153.667 40.52 154.2C39.7867 154.733 38.6933 155 37.24 155H31.5V144.24H37C38.3467 144.24 39.4 144.487 40.16 144.98C40.92 145.46 41.3 146.14 41.3 147.02C41.3 147.553 41.16 148.027 40.88 148.44C40.6133 148.84 40.2267 149.153 39.72 149.38ZM34.36 148.66H36.72C37.8133 148.66 38.36 148.273 38.36 147.5C38.36 146.74 37.8133 146.36 36.72 146.36H34.36V148.66ZM36.98 152.88C38.1267 152.88 38.7 152.487 38.7 151.7C38.7 151.287 38.5667 150.987 38.3 150.8C38.0333 150.6 37.6133 150.5 37.04 150.5H34.36V152.88H36.98ZM48.6814 150.92H47.0614V155H43.9414V144.24H47.0614V148.42H48.7414L51.6614 144.24H54.9814L51.2214 149.4L55.2414 155H51.5614L48.6814 150.92ZM67.0934 144.24V155H63.9734V146.8H60.5734L60.4734 148.7C60.4201 150.113 60.2868 151.287 60.0734 152.22C59.8601 153.153 59.5134 153.887 59.0334 154.42C58.5534 154.953 57.8868 155.22 57.0334 155.22C56.5801 155.22 56.0401 155.14 55.4134 154.98L55.5734 152.42C55.7868 152.447 55.9401 152.46 56.0334 152.46C56.5001 152.46 56.8468 152.293 57.0734 151.96C57.3134 151.613 57.4734 151.18 57.5534 150.66C57.6334 150.127 57.6934 149.427 57.7334 148.56L57.8934 144.24H67.0934ZM74.2738 144.08C75.9404 144.08 77.2204 144.48 78.1138 145.28C79.0071 146.067 79.4538 147.26 79.4538 148.86V155H76.5338V153.66C75.9471 154.66 74.8538 155.16 73.2538 155.16C72.4271 155.16 71.7071 155.02 71.0938 154.74C70.4938 154.46 70.0338 154.073 69.7138 153.58C69.3938 153.087 69.2338 152.527 69.2338 151.9C69.2338 150.9 69.6071 150.113 70.3538 149.54C71.1138 148.967 72.2804 148.68 73.8538 148.68H76.3338C76.3338 148 76.1271 147.48 75.7138 147.12C75.3004 146.747 74.6804 146.56 73.8538 146.56C73.2804 146.56 72.7138 146.653 72.1538 146.84C71.6071 147.013 71.1404 147.253 70.7538 147.56L69.6338 145.38C70.2204 144.967 70.9204 144.647 71.7338 144.42C72.5604 144.193 73.4071 144.08 74.2738 144.08ZM74.0338 153.06C74.5671 153.06 75.0404 152.94 75.4538 152.7C75.8671 152.447 76.1604 152.08 76.3338 151.6V150.5H74.1938C72.9138 150.5 72.2738 150.92 72.2738 151.76C72.2738 152.16 72.4271 152.48 72.7338 152.72C73.0538 152.947 73.4871 153.06 74.0338 153.06ZM94.2241 152.44V157.32H91.3241V155H83.7641V157.32H80.8641V152.44H81.3041C81.9707 152.427 82.4307 152.033 82.6841 151.26C82.9374 150.487 83.0974 149.387 83.1641 147.96L83.3041 144.24H92.6841V152.44H94.2241ZM85.9841 148.18C85.9441 149.273 85.8574 150.167 85.7241 150.86C85.6041 151.553 85.3707 152.08 85.0241 152.44H89.5641V146.8H86.0441L85.9841 148.18ZM101.848 147.68C103.248 147.693 104.308 148.007 105.028 148.62C105.748 149.233 106.108 150.113 106.108 151.26C106.108 152.46 105.701 153.387 104.888 154.04C104.074 154.693 102.921 155.02 101.428 155.02L96.1875 155V144.24H99.2875V147.68H101.848ZM107.268 144.24H110.368V155H107.268V144.24ZM101.148 152.8C101.748 152.813 102.208 152.687 102.528 152.42C102.848 152.153 103.008 151.753 103.008 151.22C103.008 150.7 102.848 150.32 102.528 150.08C102.221 149.84 101.761 149.713 101.148 149.7L99.2875 149.68V152.8H101.148ZM121.595 149.38C122.862 149.807 123.495 150.66 123.495 151.94C123.495 152.913 123.128 153.667 122.395 154.2C121.662 154.733 120.568 155 119.115 155H113.375V144.24H118.875C120.222 144.24 121.275 144.487 122.035 144.98C122.795 145.46 123.175 146.14 123.175 147.02C123.175 147.553 123.035 148.027 122.755 148.44C122.488 148.84 122.102 149.153 121.595 149.38ZM116.235 148.66H118.595C119.688 148.66 120.235 148.273 120.235 147.5C120.235 146.74 119.688 146.36 118.595 146.36H116.235V148.66ZM118.855 152.88C120.002 152.88 120.575 152.487 120.575 151.7C120.575 151.287 120.442 150.987 120.175 150.8C119.908 150.6 119.488 150.5 118.915 150.5H116.235V152.88H118.855ZM129.996 144.08C131.663 144.08 132.943 144.48 133.836 145.28C134.73 146.067 135.176 147.26 135.176 148.86V155H132.256V153.66C131.67 154.66 130.576 155.16 128.976 155.16C128.15 155.16 127.43 155.02 126.816 154.74C126.216 154.46 125.756 154.073 125.436 153.58C125.116 153.087 124.956 152.527 124.956 151.9C124.956 150.9 125.33 150.113 126.076 149.54C126.836 148.967 128.003 148.68 129.576 148.68H132.056C132.056 148 131.85 147.48 131.436 147.12C131.023 146.747 130.403 146.56 129.576 146.56C129.003 146.56 128.436 146.653 127.876 146.84C127.33 147.013 126.863 147.253 126.476 147.56L125.356 145.38C125.943 144.967 126.643 144.647 127.456 144.42C128.283 144.193 129.13 144.08 129.996 144.08ZM129.756 153.06C130.29 153.06 130.763 152.94 131.176 152.7C131.59 152.447 131.883 152.08 132.056 151.6V150.5H129.916C128.636 150.5 127.996 150.92 127.996 151.76C127.996 152.16 128.15 152.48 128.456 152.72C128.776 152.947 129.21 153.06 129.756 153.06ZM146.927 146.8H143.287V155H140.187V146.8H136.547V144.24H146.927V146.8ZM154.41 147.68C155.81 147.693 156.883 148.013 157.63 148.64C158.377 149.253 158.75 150.127 158.75 151.26C158.75 152.447 158.33 153.373 157.49 154.04C156.663 154.693 155.497 155.02 153.99 155.02L148.59 155V144.24H151.69V147.68H154.41ZM153.71 152.8C154.31 152.813 154.77 152.687 155.09 152.42C155.41 152.153 155.57 151.753 155.57 151.22C155.57 150.7 155.41 150.32 155.09 150.08C154.783 149.84 154.323 149.713 153.71 149.7L151.69 149.68V152.8H153.71ZM178.423 152.44V157.32H175.523V155H167.963V157.32H165.063V152.44H165.503C166.17 152.427 166.63 152.033 166.883 151.26C167.137 150.487 167.297 149.387 167.363 147.96L167.503 144.24H176.883V152.44H178.423ZM170.183 148.18C170.143 149.273 170.057 150.167 169.923 150.86C169.803 151.553 169.57 152.08 169.223 152.44H173.763V146.8H170.243L170.183 148.18ZM190.847 149.66C190.847 149.7 190.827 149.98 190.787 150.5H182.647C182.793 151.167 183.14 151.693 183.687 152.08C184.233 152.467 184.913 152.66 185.727 152.66C186.287 152.66 186.78 152.58 187.207 152.42C187.647 152.247 188.053 151.98 188.427 151.62L190.087 153.42C189.073 154.58 187.593 155.16 185.647 155.16C184.433 155.16 183.36 154.927 182.427 154.46C181.493 153.98 180.773 153.32 180.267 152.48C179.76 151.64 179.507 150.687 179.507 149.62C179.507 148.567 179.753 147.62 180.247 146.78C180.753 145.927 181.44 145.267 182.307 144.8C183.187 144.32 184.167 144.08 185.247 144.08C186.3 144.08 187.253 144.307 188.107 144.76C188.96 145.213 189.627 145.867 190.107 146.72C190.6 147.56 190.847 148.54 190.847 149.66ZM185.267 146.44C184.56 146.44 183.967 146.64 183.487 147.04C183.007 147.44 182.713 147.987 182.607 148.68H187.907C187.8 148 187.507 147.46 187.027 147.06C186.547 146.647 185.96 146.44 185.267 146.44ZM193.238 144.24H196.338V148.44H201.018V144.24H204.138V155H201.018V150.98H196.338V155H193.238V144.24ZM212.945 147.68C214.345 147.693 215.418 148.013 216.165 148.64C216.912 149.253 217.285 150.127 217.285 151.26C217.285 152.447 216.865 153.373 216.025 154.04C215.198 154.693 214.032 155.02 212.525 155.02L207.125 155V144.24H210.225V147.68H212.945ZM212.245 152.8C212.845 152.813 213.305 152.687 213.625 152.42C213.945 152.153 214.105 151.753 214.105 151.22C214.105 150.7 213.945 150.32 213.625 150.08C213.318 149.84 212.858 149.713 212.245 149.7L210.225 149.68V152.8H212.245ZM227.854 146.8H222.334V155H219.234V144.24H227.854V146.8ZM229.508 144.24H232.608V150.64L237.848 144.24H240.708V155H237.608V148.6L232.388 155H229.508V144.24Z" fill="white"></path> <path d="M330 204H50C33.4315 204 20 217.431 20 234V492C20 508.569 33.4315 522 50 522H330C346.569 522 360 508.569 360 492V234C360 217.431 346.569 204 330 204Z" fill="white" fill-opacity="0.04"></path> <g filter="url(#filter0_i)"> <path d="M65 30H45C36.7157 30 30 36.7157 30 45V65C30 73.2843 36.7157 80 45 80H65C73.2843 80 80 73.2843 80 65V45C80 36.7157 73.2843 30 65 30Z" fill="#384E59" fill-opacity="0.48"></path> <path d="M65 30H45C36.7157 30 30 36.7157 30 45V65C30 73.2843 36.7157 80 45 80H65C73.2843 80 80 73.2843 80 65V45C80 36.7157 73.2843 30 65 30Z" fill="url(#paint0_linear)" fill-opacity="0.1"></path> <path d="M56.4176 53.455C57.8283 53.685 58.9093 54.214 59.6606 55.042C60.4119 55.8547 60.7876 56.8667 60.7876 58.078C60.7876 59.0133 60.5423 59.8797 60.0516 60.677C59.5609 61.459 58.8096 62.0877 57.7976 62.563C56.8009 63.0383 55.5743 63.276 54.1176 63.276C52.9829 63.276 51.8636 63.1303 50.7596 62.839C49.6709 62.5323 48.7433 62.103 47.9766 61.551L49.4256 58.699C50.0389 59.159 50.7443 59.5193 51.5416 59.78C52.3543 60.0253 53.1823 60.148 54.0256 60.148C54.9609 60.148 55.6969 59.9717 56.2336 59.619C56.7703 59.251 57.0386 58.7373 57.0386 58.078C57.0386 56.7593 56.0343 56.1 54.0256 56.1H52.3236V53.639L55.6356 49.89H48.7816V46.9H60.0516V49.315L56.4176 53.455Z" fill="#26A2FC"></path> </g> <g opacity="0.7" filter="url(#filter1_f)"> <path opacity="0.7" d="M190 276L202.35 291.319L219.505 278.947L226.21 296.17L247 287.589L247.601 305.541L270.61 301.335L265.067 318.794L288.727 319.25L277.417 335.025L300.116 340.112L283.811 353.129L304 362.5L283.811 371.871L300.116 384.888L277.417 389.975L288.727 405.75L265.067 406.206L270.61 423.665L247.601 419.459L247 437.411L226.21 428.83L219.505 446.053L202.35 433.681L190 449L177.65 433.681L160.495 446.053L153.79 428.83L133 437.411L132.399 419.459L109.39 423.665L114.933 406.206L91.2731 405.75L102.583 389.975L79.8845 384.888L96.1895 371.871L76 362.5L96.1895 353.129L79.8845 340.112L102.583 335.025L91.2731 319.25L114.933 318.794L109.39 301.335L132.399 305.541L133 287.589L153.79 296.17L160.495 278.947L177.65 291.319L190 276Z" fill="#0089D7"></path> </g> </g> <defs> <filter id="filter0_i" x="30" y="30" width="51" height="51" filterUnits="userSpaceOnUse" color-interpolation-filters="sRGB"> <feFlood flood-opacity="0" result="BackgroundImageFix"></feFlood> <feBlend mode="normal" in="SourceGraphic" in2="BackgroundImageFix" result="shape"></feBlend> <feColorMatrix in="SourceAlpha" type="matrix" values="0 0 0 0 0 0 0 0 0 0 0 0 0 0 0 0 0 0 127 0" result="hardAlpha"></feColorMatrix> <feOffset dx="1" dy="1"></feOffset> <feGaussianBlur stdDeviation="2"></feGaussianBlur> <feComposite in2="hardAlpha" operator="arithmetic" k2="-1" k3="1"></feComposite> <feColorMatrix type="matrix" values="0 0 0 0 1 0 0 0 0 1 0 0 0 0 1 0 0 0 0.05 0"></feColorMatrix> <feBlend mode="normal" in2="shape" result="effect1_innerShadow"></feBlend> </filter> <filter id="filter1_f" x="-24" y="176" width="428" height="373" filterUnits="userSpaceOnUse" color-interpolation-filters="sRGB"> <feFlood flood-opacity="0" result="BackgroundImageFix"></feFlood> <feBlend mode="normal" in="SourceGraphic" in2="BackgroundImageFix" result="shape"></feBlend> <feGaussianBlur stdDeviation="50" result="effect1_foregroundBlur"></feGaussianBlur> </filter> <linearGradient id="paint0_linear" x1="55" y1="30" x2="55" y2="80" gradientUnits="userSpaceOnUse"> <stop stop-color="#00A3FF"></stop> <stop offset="1" stop-color="#26A2FC" stop-opacity="0"></stop> </linearGradient> <clipPath id="clip0"> <rect width="380" height="542" fill="white"></rect> </clipPath> </defs> </svg> 