<?xml version="1.0" encoding="UTF-8"?> <svg xmlns="http://www.w3.org/2000/svg" width="300" height="110" viewBox="0 0 300 110" fill="none"> <rect x="0.374899" y="0.374899" width="299.25" height="109.25" rx="14.621" fill="black" fill-opacity="0.14"></rect> <rect x="0.374899" y="0.374899" width="299.25" height="109.25" rx="14.621" stroke="white" stroke-width="0.749797"></rect> <path d="M27.462 21.946C28.1433 22.086 28.6613 22.3613 29.016 22.772C29.3707 23.1733 29.548 23.7007 29.548 24.354C29.548 25.2033 29.2447 25.8567 28.638 26.314C28.0407 26.7713 27.1587 27 25.992 27H21.652V17.2H25.726C26.7713 17.2 27.588 17.4147 28.176 17.844C28.764 18.2733 29.058 18.894 29.058 19.706C29.058 20.2567 28.918 20.7233 28.638 21.106C28.358 21.4793 27.966 21.7593 27.462 21.946ZM22.674 21.638H25.67C26.426 21.638 27.0047 21.484 27.406 21.176C27.8167 20.868 28.022 20.42 28.022 19.832C28.022 19.244 27.8167 18.796 27.406 18.488C27.0047 18.18 26.426 18.026 25.67 18.026H22.674V21.638ZM25.992 26.174C27.6813 26.174 28.526 25.544 28.526 24.284C28.526 23.052 27.6813 22.436 25.992 22.436H22.674V26.174H25.992ZM34.9383 27.07C34.229 27.07 33.5897 26.9113 33.0203 26.594C32.451 26.2673 32.003 25.8193 31.6763 25.25C31.3497 24.6807 31.1863 24.0367 31.1863 23.318C31.1863 22.5993 31.3497 21.9553 31.6763 21.386C32.003 20.8167 32.451 20.3733 33.0203 20.056C33.5897 19.7387 34.229 19.58 34.9383 19.58C35.6477 19.58 36.287 19.7387 36.8563 20.056C37.4257 20.3733 37.869 20.8167 38.1863 21.386C38.513 21.9553 38.6763 22.5993 38.6763 23.318C38.6763 24.0367 38.513 24.6807 38.1863 25.25C37.869 25.8193 37.4257 26.2673 36.8563 26.594C36.287 26.9113 35.6477 27.07 34.9383 27.07ZM34.9383 26.188C35.461 26.188 35.9277 26.0713 36.3383 25.838C36.7583 25.5953 37.085 25.2547 37.3183 24.816C37.5517 24.3773 37.6683 23.878 37.6683 23.318C37.6683 22.758 37.5517 22.2587 37.3183 21.82C37.085 21.3813 36.7583 21.0453 36.3383 20.812C35.9277 20.5693 35.461 20.448 34.9383 20.448C34.4157 20.448 33.9443 20.5693 33.5243 20.812C33.1137 21.0453 32.787 21.3813 32.5443 21.82C32.311 22.2587 32.1943 22.758 32.1943 23.318C32.1943 23.878 32.311 24.3773 32.5443 24.816C32.787 25.2547 33.1137 25.5953 33.5243 25.838C33.9443 26.0713 34.4157 26.188 34.9383 26.188ZM44.33 23.164C44.8527 23.2853 45.254 23.4953 45.534 23.794C45.8234 24.0927 45.968 24.4567 45.968 24.886C45.968 25.3153 45.8187 25.698 45.52 26.034C45.2307 26.37 44.834 26.6313 44.33 26.818C43.826 26.9953 43.2707 27.084 42.664 27.084C42.132 27.084 41.6094 27.0093 41.096 26.86C40.5827 26.7013 40.1347 26.4727 39.752 26.174L40.088 25.432C40.424 25.684 40.816 25.88 41.264 26.02C41.712 26.16 42.1647 26.23 42.622 26.23C43.3034 26.23 43.8587 26.104 44.288 25.852C44.7267 25.5907 44.946 25.2407 44.946 24.802C44.946 24.41 44.7687 24.1067 44.414 23.892C44.0594 23.668 43.574 23.556 42.958 23.556H41.698V22.828H42.902C43.4527 22.828 43.896 22.7253 44.232 22.52C44.568 22.3053 44.736 22.0207 44.736 21.666C44.736 21.274 44.5447 20.966 44.162 20.742C43.7887 20.518 43.2987 20.406 42.692 20.406C41.8987 20.406 41.1147 20.6067 40.34 21.008L40.06 20.238C40.9374 19.7807 41.8474 19.552 42.79 19.552C43.35 19.552 43.854 19.636 44.302 19.804C44.7594 19.9627 45.114 20.1913 45.366 20.49C45.6274 20.7887 45.758 21.134 45.758 21.526C45.758 21.8993 45.6274 22.2307 45.366 22.52C45.114 22.8093 44.7687 23.024 44.33 23.164ZM52.0185 19.58C52.7092 19.58 53.3345 19.7387 53.8945 20.056C54.4545 20.364 54.8932 20.8027 55.2105 21.372C55.5279 21.9413 55.6865 22.59 55.6865 23.318C55.6865 24.0553 55.5279 24.7087 55.2105 25.278C54.8932 25.8473 54.4545 26.2907 53.8945 26.608C53.3439 26.916 52.7185 27.07 52.0185 27.07C51.4212 27.07 50.8799 26.9487 50.3945 26.706C49.9185 26.454 49.5265 26.09 49.2185 25.614V29.716H48.2245V19.636H49.1765V21.092C49.4752 20.6067 49.8672 20.2333 50.3525 19.972C50.8472 19.7107 51.4025 19.58 52.0185 19.58ZM51.9485 26.188C52.4619 26.188 52.9285 26.0713 53.3485 25.838C53.7685 25.5953 54.0952 25.2547 54.3285 24.816C54.5712 24.3773 54.6925 23.878 54.6925 23.318C54.6925 22.758 54.5712 22.2633 54.3285 21.834C54.0952 21.3953 53.7685 21.0547 53.3485 20.812C52.9285 20.5693 52.4619 20.448 51.9485 20.448C51.4259 20.448 50.9545 20.5693 50.5345 20.812C50.1239 21.0547 49.7972 21.3953 49.5545 21.834C49.3212 22.2633 49.2045 22.758 49.2045 23.318C49.2045 23.878 49.3212 24.3773 49.5545 24.816C49.7972 25.2547 50.1239 25.5953 50.5345 25.838C50.9545 26.0713 51.4259 26.188 51.9485 26.188ZM60.3152 19.58C61.2765 19.58 62.0139 19.8227 62.5272 20.308C63.0405 20.784 63.2972 21.4933 63.2972 22.436V27H62.3452V25.852C62.1212 26.2347 61.7899 26.5333 61.3512 26.748C60.9219 26.9627 60.4085 27.07 59.8112 27.07C58.9899 27.07 58.3365 26.874 57.8512 26.482C57.3659 26.09 57.1232 25.572 57.1232 24.928C57.1232 24.3027 57.3472 23.7987 57.7952 23.416C58.2525 23.0333 58.9759 22.842 59.9652 22.842H62.3032V22.394C62.3032 21.7593 62.1259 21.2787 61.7712 20.952C61.4165 20.616 60.8985 20.448 60.2172 20.448C59.7505 20.448 59.3025 20.5273 58.8732 20.686C58.4439 20.8353 58.0752 21.0453 57.7672 21.316L57.3192 20.574C57.6925 20.2567 58.1405 20.014 58.6632 19.846C59.1859 19.6687 59.7365 19.58 60.3152 19.58ZM59.9652 26.286C60.5252 26.286 61.0059 26.16 61.4072 25.908C61.8085 25.6467 62.1072 25.2733 62.3032 24.788V23.584H59.9932C58.7332 23.584 58.1032 24.0227 58.1032 24.9C58.1032 25.3293 58.2665 25.67 58.5932 25.922C58.9199 26.1647 59.3772 26.286 59.9652 26.286ZM69.0233 27.07C68.2953 27.07 67.642 26.9113 67.0633 26.594C66.494 26.2767 66.046 25.8333 65.7193 25.264C65.3926 24.6853 65.2293 24.0367 65.2293 23.318C65.2293 22.5993 65.3926 21.9553 65.7193 21.386C66.046 20.8167 66.494 20.3733 67.0633 20.056C67.642 19.7387 68.2953 19.58 69.0233 19.58C69.658 19.58 70.2226 19.706 70.7173 19.958C71.2213 20.2007 71.618 20.56 71.9073 21.036L71.1653 21.54C70.9226 21.176 70.6146 20.9053 70.2413 20.728C69.868 20.5413 69.462 20.448 69.0233 20.448C68.4913 20.448 68.0106 20.5693 67.5813 20.812C67.1613 21.0453 66.83 21.3813 66.5873 21.82C66.354 22.2587 66.2373 22.758 66.2373 23.318C66.2373 23.8873 66.354 24.3913 66.5873 24.83C66.83 25.2593 67.1613 25.5953 67.5813 25.838C68.0106 26.0713 68.4913 26.188 69.0233 26.188C69.462 26.188 69.868 26.0993 70.2413 25.922C70.6146 25.7447 70.9226 25.474 71.1653 25.11L71.9073 25.614C71.618 26.09 71.2213 26.454 70.7173 26.706C70.2133 26.9487 69.6486 27.07 69.0233 27.07ZM78.8753 20.518H76.0893V27H75.0953V20.518H72.3093V19.636H78.8753V20.518ZM86.6505 23.724H84.9705V27H83.9765V19.636H84.9705V22.87H86.6645L89.2545 19.636H90.3325L87.4345 23.206L90.5425 27H89.3665L86.6505 23.724ZM94.8895 27.07C94.1802 27.07 93.5408 26.9113 92.9715 26.594C92.4022 26.2673 91.9542 25.8193 91.6275 25.25C91.3008 24.6807 91.1375 24.0367 91.1375 23.318C91.1375 22.5993 91.3008 21.9553 91.6275 21.386C91.9542 20.8167 92.4022 20.3733 92.9715 20.056C93.5408 19.7387 94.1802 19.58 94.8895 19.58C95.5988 19.58 96.2382 19.7387 96.8075 20.056C97.3768 20.3733 97.8202 20.8167 98.1375 21.386C98.4642 21.9553 98.6275 22.5993 98.6275 23.318C98.6275 24.0367 98.4642 24.6807 98.1375 25.25C97.8202 25.8193 97.3768 26.2673 96.8075 26.594C96.2382 26.9113 95.5988 27.07 94.8895 27.07ZM94.8895 26.188C95.4122 26.188 95.8788 26.0713 96.2895 25.838C96.7095 25.5953 97.0362 25.2547 97.2695 24.816C97.5028 24.3773 97.6195 23.878 97.6195 23.318C97.6195 22.758 97.5028 22.2587 97.2695 21.82C97.0362 21.3813 96.7095 21.0453 96.2895 20.812C95.8788 20.5693 95.4122 20.448 94.8895 20.448C94.3668 20.448 93.8955 20.5693 93.4755 20.812C93.0648 21.0453 92.7382 21.3813 92.4955 21.82C92.2622 22.2587 92.1455 22.758 92.1455 23.318C92.1455 23.878 92.2622 24.3773 92.4955 24.816C92.7382 25.2547 93.0648 25.5953 93.4755 25.838C93.8955 26.0713 94.3668 26.188 94.8895 26.188ZM108.984 19.636V27H108.074V21.176L105.092 26.104H104.644L101.662 21.162V27H100.752V19.636H101.76L104.882 24.942L108.06 19.636H108.984ZM118.42 19.636V27H117.426V20.518H112.806V27H111.812V19.636H118.42ZM123.78 19.58C124.741 19.58 125.479 19.8227 125.992 20.308C126.505 20.784 126.762 21.4933 126.762 22.436V27H125.81V25.852C125.586 26.2347 125.255 26.5333 124.816 26.748C124.387 26.9627 123.873 27.07 123.276 27.07C122.455 27.07 121.801 26.874 121.316 26.482C120.831 26.09 120.588 25.572 120.588 24.928C120.588 24.3027 120.812 23.7987 121.26 23.416C121.717 23.0333 122.441 22.842 123.43 22.842H125.768V22.394C125.768 21.7593 125.591 21.2787 125.236 20.952C124.881 20.616 124.363 20.448 123.682 20.448C123.215 20.448 122.767 20.5273 122.338 20.686C121.909 20.8353 121.54 21.0453 121.232 21.316L120.784 20.574C121.157 20.2567 121.605 20.014 122.128 19.846C122.651 19.6687 123.201 19.58 123.78 19.58ZM123.43 26.286C123.99 26.286 124.471 26.16 124.872 25.908C125.273 25.6467 125.572 25.2733 125.768 24.788V23.584H123.458C122.198 23.584 121.568 24.0227 121.568 24.9C121.568 25.3293 121.731 25.67 122.058 25.922C122.385 26.1647 122.842 26.286 123.43 26.286ZM129.408 19.636H130.402V22.898H135.036V19.636H136.03V27H135.036V23.752H130.402V27H129.408V19.636ZM138.855 19.636H139.849V25.488L144.763 19.636H145.645V27H144.651V21.148L139.751 27H138.855V19.636ZM148.494 19.636H149.488V25.488L154.402 19.636H155.284V27H154.29V21.148L149.39 27H148.494V19.636ZM158.203 21.106C157.997 21.106 157.82 21.0313 157.671 20.882C157.531 20.7327 157.461 20.5507 157.461 20.336C157.461 20.1213 157.531 19.944 157.671 19.804C157.82 19.6547 157.997 19.58 158.203 19.58C158.408 19.58 158.585 19.6547 158.735 19.804C158.884 19.944 158.959 20.1213 158.959 20.336C158.959 20.5507 158.884 20.7327 158.735 20.882C158.585 21.0313 158.408 21.106 158.203 21.106ZM158.203 27.07C157.997 27.07 157.82 26.9953 157.671 26.846C157.531 26.6967 157.461 26.5147 157.461 26.3C157.461 26.0853 157.531 25.908 157.671 25.768C157.82 25.6187 157.997 25.544 158.203 25.544C158.408 25.544 158.585 25.6187 158.735 25.768C158.884 25.908 158.959 26.0853 158.959 26.3C158.959 26.5147 158.884 26.6967 158.735 26.846C158.585 26.9953 158.408 27.07 158.203 27.07Z" fill="white"></path> <path d="M23.9514 86.6017V95H23.0876V87.3695H21.108V86.6017H23.9514ZM34.1499 89.4451H30.5386V95H29.6868V88.6893H34.1499V89.4451ZM37.6915 95.06C37.0836 95.06 36.5358 94.924 36.0479 94.6521C35.56 94.3721 35.176 93.9882 34.8961 93.5003C34.6161 93.0124 34.4762 92.4605 34.4762 91.8446C34.4762 91.2288 34.6161 90.6769 34.8961 90.189C35.176 89.7011 35.56 89.3212 36.0479 89.0492C36.5358 88.7773 37.0836 88.6413 37.6915 88.6413C38.2994 88.6413 38.8473 88.7773 39.3352 89.0492C39.8231 89.3212 40.203 89.7011 40.475 90.189C40.7549 90.6769 40.8949 91.2288 40.8949 91.8446C40.8949 92.4605 40.7549 93.0124 40.475 93.5003C40.203 93.9882 39.8231 94.3721 39.3352 94.6521C38.8473 94.924 38.2994 95.06 37.6915 95.06ZM37.6915 94.3041C38.1394 94.3041 38.5394 94.2042 38.8913 94.0042C39.2512 93.7962 39.5312 93.5043 39.7311 93.1284C39.9311 92.7525 40.0311 92.3245 40.0311 91.8446C40.0311 91.3647 39.9311 90.9368 39.7311 90.5609C39.5312 90.185 39.2512 89.897 38.8913 89.6971C38.5394 89.4891 38.1394 89.3851 37.6915 89.3851C37.2436 89.3851 36.8397 89.4891 36.4798 89.6971C36.1278 89.897 35.8479 90.185 35.6399 90.5609C35.44 90.9368 35.34 91.3647 35.34 91.8446C35.34 92.3245 35.44 92.7525 35.6399 93.1284C35.8479 93.5043 36.1278 93.7962 36.4798 94.0042C36.8397 94.2042 37.2436 94.3041 37.6915 94.3041ZM48.835 94.2562V96.5237H48.0312V95H42.3803V96.5237H41.5765V94.2562H41.9364C42.3603 94.2322 42.6483 93.9202 42.8002 93.3203C42.9522 92.7205 43.0562 91.8806 43.1122 90.8009L43.1962 88.6893H47.8512V94.2562H48.835ZM43.892 90.8488C43.852 91.7447 43.776 92.4845 43.6641 93.0684C43.5521 93.6443 43.3521 94.0402 43.0642 94.2562H46.9994V89.4451H43.964L43.892 90.8488Z" fill="white"></path> <path d="M245.951 86.6017V95H245.088V87.3695H243.108V86.6017H245.951ZM251.306 95.072C250.658 95.072 250.079 94.9 249.567 94.5561C249.063 94.2122 248.667 93.7203 248.379 93.0804C248.099 92.4325 247.959 91.6727 247.959 90.8009C247.959 89.929 248.099 89.1732 248.379 88.5333C248.667 87.8854 249.063 87.3895 249.567 87.0456C250.079 86.7017 250.658 86.5297 251.306 86.5297C251.954 86.5297 252.53 86.7017 253.034 87.0456C253.546 87.3895 253.946 87.8854 254.234 88.5333C254.522 89.1732 254.666 89.929 254.666 90.8009C254.666 91.6727 254.522 92.4325 254.234 93.0804C253.946 93.7203 253.546 94.2122 253.034 94.5561C252.53 94.9 251.954 95.072 251.306 95.072ZM251.306 94.2801C251.794 94.2801 252.222 94.1442 252.59 93.8722C252.966 93.6003 253.258 93.2044 253.466 92.6845C253.674 92.1646 253.778 91.5367 253.778 90.8009C253.778 90.065 253.674 89.4371 253.466 88.9172C253.258 88.3973 252.966 88.0014 252.59 87.7295C252.222 87.4575 251.794 87.3216 251.306 87.3216C250.818 87.3216 250.386 87.4575 250.011 87.7295C249.643 88.0014 249.355 88.3973 249.147 88.9172C248.939 89.4371 248.835 90.065 248.835 90.8009C248.835 91.5367 248.939 92.1646 249.147 92.6845C249.355 93.2044 249.643 93.6003 250.011 93.8722C250.386 94.1442 250.818 94.2801 251.306 94.2801ZM261.431 91.1608H259.2V93.3443H258.444V91.1608H256.212V90.4529H258.444V88.2574H259.2V90.4529H261.431V91.1608ZM271.784 88.6893V95H270.932V89.4451H267.909L267.825 91.0048C267.761 92.3165 267.609 93.3243 267.369 94.0282C267.129 94.7321 266.701 95.084 266.085 95.084C265.917 95.084 265.713 95.052 265.473 94.988L265.533 94.2562C265.677 94.2881 265.777 94.3041 265.833 94.3041C266.161 94.3041 266.409 94.1522 266.577 93.8482C266.745 93.5443 266.857 93.1684 266.913 92.7205C266.969 92.2726 267.017 91.6807 267.057 90.9448L267.165 88.6893H271.784ZM279.725 92.1086H274.446C274.494 92.7645 274.746 93.2963 275.201 93.7043C275.657 94.1042 276.233 94.3041 276.929 94.3041C277.321 94.3041 277.681 94.2362 278.009 94.1002C278.337 93.9562 278.621 93.7483 278.861 93.4763L279.341 94.0282C279.061 94.3641 278.709 94.6201 278.285 94.796C277.869 94.972 277.409 95.06 276.905 95.06C276.257 95.06 275.681 94.924 275.177 94.6521C274.682 94.3721 274.294 93.9882 274.014 93.5003C273.734 93.0124 273.594 92.4605 273.594 91.8446C273.594 91.2288 273.726 90.6769 273.99 90.189C274.262 89.7011 274.63 89.3212 275.093 89.0492C275.565 88.7773 276.093 88.6413 276.677 88.6413C277.261 88.6413 277.785 88.7773 278.249 89.0492C278.713 89.3212 279.077 89.7011 279.341 90.189C279.605 90.6689 279.737 91.2208 279.737 91.8446L279.725 92.1086ZM276.677 89.3731C276.069 89.3731 275.557 89.5691 275.141 89.961C274.734 90.3449 274.502 90.8488 274.446 91.4727H278.921C278.865 90.8488 278.629 90.3449 278.213 89.961C277.805 89.5691 277.293 89.3731 276.677 89.3731ZM285.78 89.4451H283.393V95H282.541V89.4451H280.153V88.6893H285.78V89.4451Z" fill="white"></path> </svg> 