<?xml version="1.0" encoding="UTF-8"?> <svg xmlns="http://www.w3.org/2000/svg" width="380" height="542" viewBox="0 0 380 542" fill="none"> <g clip-path="url(#clip0)"> <path d="M340 0H40C17.9086 0 0 17.9086 0 40V502C0 524.091 17.9086 542 40 542H340C362.091 542 380 524.091 380 502V40C380 17.9086 362.091 0 340 0Z" fill="#384E59" fill-opacity="0.48"></path> <path d="M38.3606 123.24C36.9339 123.24 35.6406 122.933 34.4806 122.32C33.3339 121.693 32.4273 120.833 31.7606 119.74C31.1073 118.633 30.7806 117.387 30.7806 116C30.7806 114.613 31.1073 113.373 31.7606 112.28C32.4273 111.173 33.3339 110.313 34.4806 109.7C35.6406 109.073 36.9406 108.76 38.3806 108.76C39.5939 108.76 40.6873 108.973 41.6606 109.4C42.6473 109.827 43.4739 110.44 44.1406 111.24L42.0606 113.16C41.1139 112.067 39.9406 111.52 38.5406 111.52C37.6739 111.52 36.9006 111.713 36.2206 112.1C35.5406 112.473 35.0073 113 34.6206 113.68C34.2473 114.36 34.0606 115.133 34.0606 116C34.0606 116.867 34.2473 117.64 34.6206 118.32C35.0073 119 35.5406 119.533 36.2206 119.92C36.9006 120.293 37.6739 120.48 38.5406 120.48C39.9406 120.48 41.1139 119.927 42.0606 118.82L44.1406 120.74C43.4739 121.553 42.6473 122.173 41.6606 122.6C40.6739 123.027 39.5739 123.24 38.3606 123.24ZM51.9394 112.98C52.966 112.98 53.866 113.193 54.6394 113.62C55.4127 114.033 56.006 114.62 56.4194 115.38C56.846 116.14 57.0594 117.02 57.0594 118.02C57.0594 119.047 56.806 119.96 56.2994 120.76C55.806 121.547 55.1127 122.16 54.2194 122.6C53.326 123.027 52.3127 123.24 51.1794 123.24C49.2994 123.24 47.8194 122.64 46.7394 121.44C45.6727 120.227 45.1394 118.453 45.1394 116.12C45.1394 113.96 45.606 112.24 46.5394 110.96C47.486 109.667 48.9327 108.82 50.8794 108.42L55.9994 107.4L56.4194 110.08L51.8994 110.98C50.6727 111.22 49.7594 111.62 49.1594 112.18C48.5727 112.74 48.226 113.533 48.1194 114.56C48.586 114.053 49.146 113.667 49.7994 113.4C50.4527 113.12 51.166 112.98 51.9394 112.98ZM51.1994 120.82C51.9994 120.82 52.6394 120.56 53.1194 120.04C53.6127 119.52 53.8594 118.86 53.8594 118.06C53.8594 117.247 53.6127 116.6 53.1194 116.12C52.6394 115.64 51.9994 115.4 51.1994 115.4C50.386 115.4 49.7327 115.64 49.2394 116.12C48.746 116.6 48.4994 117.247 48.4994 118.06C48.4994 118.873 48.7527 119.54 49.2594 120.06C49.766 120.567 50.4127 120.82 51.1994 120.82ZM64.2164 123.16C63.083 123.16 62.063 122.927 61.1564 122.46C60.263 121.98 59.563 121.32 59.0564 120.48C58.5497 119.64 58.2964 118.687 58.2964 117.62C58.2964 116.553 58.5497 115.6 59.0564 114.76C59.563 113.92 60.263 113.267 61.1564 112.8C62.063 112.32 63.083 112.08 64.2164 112.08C65.3497 112.08 66.363 112.32 67.2564 112.8C68.1497 113.267 68.8497 113.92 69.3564 114.76C69.863 115.6 70.1164 116.553 70.1164 117.62C70.1164 118.687 69.863 119.64 69.3564 120.48C68.8497 121.32 68.1497 121.98 67.2564 122.46C66.363 122.927 65.3497 123.16 64.2164 123.16ZM64.2164 120.6C65.0164 120.6 65.6697 120.333 66.1764 119.8C66.6964 119.253 66.9564 118.527 66.9564 117.62C66.9564 116.713 66.6964 115.993 66.1764 115.46C65.6697 114.913 65.0164 114.64 64.2164 114.64C63.4164 114.64 62.7564 114.913 62.2364 115.46C61.7164 115.993 61.4564 116.713 61.4564 117.62C61.4564 118.527 61.7164 119.253 62.2364 119.8C62.7564 120.333 63.4164 120.6 64.2164 120.6ZM78.6023 112.08C79.6023 112.08 80.509 112.313 81.3223 112.78C82.149 113.233 82.7957 113.88 83.2623 114.72C83.729 115.547 83.9623 116.513 83.9623 117.62C83.9623 118.727 83.729 119.7 83.2623 120.54C82.7957 121.367 82.149 122.013 81.3223 122.48C80.509 122.933 79.6023 123.16 78.6023 123.16C77.229 123.16 76.149 122.727 75.3623 121.86V126.88H72.2423V112.24H75.2223V113.48C75.9957 112.547 77.1223 112.08 78.6023 112.08ZM78.0623 120.6C78.8623 120.6 79.5157 120.333 80.0223 119.8C80.5423 119.253 80.8023 118.527 80.8023 117.62C80.8023 116.713 80.5423 115.993 80.0223 115.46C79.5157 114.913 78.8623 114.64 78.0623 114.64C77.2623 114.64 76.6023 114.913 76.0823 115.46C75.5757 115.993 75.3223 116.713 75.3223 117.62C75.3223 118.527 75.5757 119.253 76.0823 119.8C76.6023 120.333 77.2623 120.6 78.0623 120.6ZM96.9331 123.16C95.7864 123.16 94.7531 122.927 93.8331 122.46C92.9264 121.98 92.2131 121.32 91.6931 120.48C91.1864 119.64 90.9331 118.687 90.9331 117.62C90.9331 116.553 91.1864 115.6 91.6931 114.76C92.2131 113.92 92.9264 113.267 93.8331 112.8C94.7531 112.32 95.7864 112.08 96.9331 112.08C98.0664 112.08 99.0531 112.32 99.8931 112.8C100.747 113.267 101.367 113.94 101.754 114.82L99.3331 116.12C98.7731 115.133 97.9664 114.64 96.9131 114.64C96.0998 114.64 95.4264 114.907 94.8931 115.44C94.3598 115.973 94.0931 116.7 94.0931 117.62C94.0931 118.54 94.3598 119.267 94.8931 119.8C95.4264 120.333 96.0998 120.6 96.9131 120.6C97.9798 120.6 98.7864 120.107 99.3331 119.12L101.754 120.44C101.367 121.293 100.747 121.96 99.8931 122.44C99.0531 122.92 98.0664 123.16 96.9331 123.16ZM109.989 112.08C110.989 112.08 111.896 112.313 112.709 112.78C113.536 113.233 114.183 113.88 114.649 114.72C115.116 115.547 115.349 116.513 115.349 117.62C115.349 118.727 115.116 119.7 114.649 120.54C114.183 121.367 113.536 122.013 112.709 122.48C111.896 122.933 110.989 123.16 109.989 123.16C108.616 123.16 107.536 122.727 106.749 121.86V126.88H103.629V112.24H106.609V113.48C107.383 112.547 108.509 112.08 109.989 112.08ZM109.449 120.6C110.249 120.6 110.903 120.333 111.409 119.8C111.929 119.253 112.189 118.527 112.189 117.62C112.189 116.713 111.929 115.993 111.409 115.46C110.903 114.913 110.249 114.64 109.449 114.64C108.649 114.64 107.989 114.913 107.469 115.46C106.963 115.993 106.709 116.713 106.709 117.62C106.709 118.527 106.963 119.253 107.469 119.8C107.989 120.333 108.649 120.6 109.449 120.6ZM127.996 117.66C127.996 117.7 127.976 117.98 127.936 118.5H119.796C119.943 119.167 120.289 119.693 120.836 120.08C121.383 120.467 122.063 120.66 122.876 120.66C123.436 120.66 123.929 120.58 124.356 120.42C124.796 120.247 125.203 119.98 125.576 119.62L127.236 121.42C126.223 122.58 124.743 123.16 122.796 123.16C121.583 123.16 120.509 122.927 119.576 122.46C118.643 121.98 117.923 121.32 117.416 120.48C116.909 119.64 116.656 118.687 116.656 117.62C116.656 116.567 116.903 115.62 117.396 114.78C117.903 113.927 118.589 113.267 119.456 112.8C120.336 112.32 121.316 112.08 122.396 112.08C123.449 112.08 124.403 112.307 125.256 112.76C126.109 113.213 126.776 113.867 127.256 114.72C127.749 115.56 127.996 116.54 127.996 117.66ZM122.416 114.44C121.709 114.44 121.116 114.64 120.636 115.04C120.156 115.44 119.863 115.987 119.756 116.68H125.056C124.949 116 124.656 115.46 124.176 115.06C123.696 114.647 123.109 114.44 122.416 114.44ZM142.35 120.44V125.32H139.45V123H131.89V125.32H128.99V120.44H129.43C130.097 120.427 130.557 120.033 130.81 119.26C131.063 118.487 131.223 117.387 131.29 115.96L131.43 112.24H140.81V120.44H142.35ZM134.11 116.18C134.07 117.273 133.983 118.167 133.85 118.86C133.73 119.553 133.497 120.08 133.15 120.44H137.69V114.8H134.17L134.11 116.18ZM149.434 123.16C148.287 123.16 147.254 122.927 146.334 122.46C145.427 121.98 144.714 121.32 144.194 120.48C143.687 119.64 143.434 118.687 143.434 117.62C143.434 116.553 143.687 115.6 144.194 114.76C144.714 113.92 145.427 113.267 146.334 112.8C147.254 112.32 148.287 112.08 149.434 112.08C150.567 112.08 151.554 112.32 152.394 112.8C153.247 113.267 153.867 113.94 154.254 114.82L151.834 116.12C151.274 115.133 150.467 114.64 149.414 114.64C148.6 114.64 147.927 114.907 147.394 115.44C146.86 115.973 146.594 116.7 146.594 117.62C146.594 118.54 146.86 119.267 147.394 119.8C147.927 120.333 148.6 120.6 149.414 120.6C150.48 120.6 151.287 120.107 151.834 119.12L154.254 120.44C153.867 121.293 153.247 121.96 152.394 122.44C151.554 122.92 150.567 123.16 149.434 123.16ZM165.15 114.8H161.51V123H158.41V114.8H154.77V112.24H165.15V114.8ZM175.034 117.38C176.3 117.807 176.934 118.66 176.934 119.94C176.934 120.913 176.567 121.667 175.834 122.2C175.1 122.733 174.007 123 172.554 123H166.814V112.24H172.314C173.66 112.24 174.714 112.487 175.474 112.98C176.234 113.46 176.613 114.14 176.613 115.02C176.613 115.553 176.474 116.027 176.194 116.44C175.927 116.84 175.54 117.153 175.034 117.38ZM169.674 116.66H172.034C173.127 116.66 173.674 116.273 173.674 115.5C173.674 114.74 173.127 114.36 172.034 114.36H169.674V116.66ZM172.294 120.88C173.44 120.88 174.014 120.487 174.014 119.7C174.014 119.287 173.88 118.987 173.614 118.8C173.347 118.6 172.927 118.5 172.354 118.5H169.674V120.88H172.294ZM191.899 117.4C192.539 117.6 193.032 117.907 193.379 118.32C193.739 118.733 193.919 119.227 193.919 119.8C193.919 120.48 193.686 121.08 193.219 121.6C192.752 122.107 192.112 122.5 191.299 122.78C190.486 123.06 189.566 123.2 188.539 123.2C187.699 123.2 186.872 123.113 186.059 122.94C185.246 122.767 184.492 122.507 183.799 122.16L184.639 119.98C185.772 120.527 187.026 120.8 188.399 120.8C189.132 120.8 189.706 120.693 190.119 120.48C190.546 120.253 190.759 119.94 190.759 119.54C190.759 119.193 190.612 118.933 190.319 118.76C190.026 118.573 189.599 118.48 189.039 118.48H186.839V116.54H188.759C189.306 116.54 189.726 116.453 190.019 116.28C190.312 116.107 190.459 115.853 190.459 115.52C190.459 115.173 190.272 114.907 189.899 114.72C189.539 114.533 189.019 114.44 188.339 114.44C187.299 114.44 186.166 114.687 184.939 115.18L184.179 113.02C185.672 112.367 187.126 112.04 188.539 112.04C189.512 112.04 190.379 112.16 191.139 112.4C191.912 112.64 192.519 112.993 192.959 113.46C193.399 113.913 193.619 114.447 193.619 115.06C193.619 115.567 193.466 116.027 193.159 116.44C192.852 116.84 192.432 117.16 191.899 117.4ZM200.369 112.08C202.035 112.08 203.315 112.48 204.209 113.28C205.102 114.067 205.549 115.26 205.549 116.86V123H202.629V121.66C202.042 122.66 200.949 123.16 199.349 123.16C198.522 123.16 197.802 123.02 197.189 122.74C196.589 122.46 196.129 122.073 195.809 121.58C195.489 121.087 195.329 120.527 195.329 119.9C195.329 118.9 195.702 118.113 196.449 117.54C197.209 116.967 198.375 116.68 199.949 116.68H202.429C202.429 116 202.222 115.48 201.809 115.12C201.395 114.747 200.775 114.56 199.949 114.56C199.375 114.56 198.809 114.653 198.249 114.84C197.702 115.013 197.235 115.253 196.849 115.56L195.729 113.38C196.315 112.967 197.015 112.647 197.829 112.42C198.655 112.193 199.502 112.08 200.369 112.08ZM200.129 121.06C200.662 121.06 201.135 120.94 201.549 120.7C201.962 120.447 202.255 120.08 202.429 119.6V118.5H200.289C199.009 118.5 198.369 118.92 198.369 119.76C198.369 120.16 198.522 120.48 198.829 120.72C199.149 120.947 199.582 121.06 200.129 121.06ZM208.259 112.24H211.359V118.64L216.599 112.24H219.459V123H216.359V116.6L211.139 123H208.259V112.24ZM213.659 111.08C211.312 111.08 210.132 110.047 210.119 107.98H212.159C212.172 108.447 212.299 108.813 212.539 109.08C212.792 109.333 213.159 109.46 213.639 109.46C214.119 109.46 214.485 109.333 214.739 109.08C215.005 108.813 215.139 108.447 215.139 107.98H217.219C217.205 110.047 216.019 111.08 213.659 111.08ZM232.958 123V116.56L229.738 121.96H228.418L225.278 116.54V123H222.458V112.24H225.718L229.158 118.46L232.818 112.24H235.738L235.778 123H232.958ZM249.227 117.66C249.227 117.7 249.207 117.98 249.167 118.5H241.027C241.173 119.167 241.52 119.693 242.067 120.08C242.613 120.467 243.293 120.66 244.107 120.66C244.667 120.66 245.16 120.58 245.587 120.42C246.027 120.247 246.433 119.98 246.807 119.62L248.467 121.42C247.453 122.58 245.973 123.16 244.027 123.16C242.813 123.16 241.74 122.927 240.807 122.46C239.873 121.98 239.153 121.32 238.647 120.48C238.14 119.64 237.887 118.687 237.887 117.62C237.887 116.567 238.133 115.62 238.627 114.78C239.133 113.927 239.82 113.267 240.687 112.8C241.567 112.32 242.547 112.08 243.627 112.08C244.68 112.08 245.633 112.307 246.487 112.76C247.34 113.213 248.007 113.867 248.487 114.72C248.98 115.56 249.227 116.54 249.227 117.66ZM243.647 114.44C242.94 114.44 242.347 114.64 241.867 115.04C241.387 115.44 241.093 115.987 240.987 116.68H246.287C246.18 116 245.887 115.46 245.407 115.06C244.927 114.647 244.34 114.44 243.647 114.44ZM260.287 114.8H256.647V123H253.547V114.8H249.907V112.24H260.287V114.8ZM36.1806 141V155H32.9406V143.6H30.1406V141H36.1806ZM38.8726 148.12H44.5326V150.62H38.8726V148.12ZM52.4769 146.7C53.7035 146.9 54.6435 147.36 55.2969 148.08C55.9502 148.787 56.2769 149.667 56.2769 150.72C56.2769 151.533 56.0635 152.287 55.6369 152.98C55.2102 153.66 54.5569 154.207 53.6769 154.62C52.8102 155.033 51.7435 155.24 50.4769 155.24C49.4902 155.24 48.5169 155.113 47.5569 154.86C46.6102 154.593 45.8035 154.22 45.1368 153.74L46.3969 151.26C46.9302 151.66 47.5435 151.973 48.2369 152.2C48.9435 152.413 49.6635 152.52 50.3969 152.52C51.2102 152.52 51.8502 152.367 52.3169 152.06C52.7835 151.74 53.0169 151.293 53.0169 150.72C53.0169 149.573 52.1435 149 50.3969 149H48.9169V146.86L51.7969 143.6H45.8369V141H55.6369V143.1L52.4769 146.7ZM76.2169 152.44V157.32H73.3169V155H65.7569V157.32H62.8569V152.44H63.2969C63.9635 152.427 64.4235 152.033 64.6769 151.26C64.9302 150.487 65.0902 149.387 65.1568 147.96L65.2968 144.24H74.6769V152.44H76.2169ZM67.9769 148.18C67.9369 149.273 67.8502 150.167 67.7169 150.86C67.5969 151.553 67.3635 152.08 67.0169 152.44H71.5569V146.8H68.0369L67.9769 148.18ZM78.1803 144.24H81.2803V148.44H85.9603V144.24H89.0803V155H85.9603V150.98H81.2803V155H78.1803V144.24ZM101.627 144.24V155H98.847V151.92H96.547L94.507 155H91.187L93.647 151.48C92.9003 151.187 92.327 150.767 91.927 150.22C91.5403 149.66 91.347 148.987 91.347 148.2C91.347 146.933 91.8003 145.96 92.707 145.28C93.627 144.587 94.887 144.24 96.487 144.24H101.627ZM96.547 146.78C95.8803 146.78 95.3737 146.9 95.027 147.14C94.6937 147.38 94.527 147.767 94.527 148.3C94.527 148.833 94.687 149.227 95.007 149.48C95.3403 149.72 95.8403 149.84 96.507 149.84H98.847V146.78H96.547Z" fill="white"></path> <path d="M330 204H50C33.4315 204 20 217.431 20 234V492C20 508.569 33.4315 522 50 522H330C346.569 522 360 508.569 360 492V234C360 217.431 346.569 204 330 204Z" fill="white" fill-opacity="0.04"></path> <g filter="url(#filter0_i)"> <path d="M64 30H44C35.7157 30 29 36.7157 29 45V65C29 73.2843 35.7157 80 44 80H64C72.2843 80 79 73.2843 79 65V45C79 36.7157 72.2843 30 64 30Z" fill="#384E59" fill-opacity="0.48"></path> <path d="M64 30H44C35.7157 30 29 36.7157 29 45V65C29 73.2843 35.7157 80 44 80H64C72.2843 80 79 73.2843 79 65V45C79 36.7157 72.2843 30 64 30Z" fill="url(#paint0_linear)" fill-opacity="0.1"></path> <path d="M61.6399 59.619H59.0179V63H55.3839V59.619H46.7129V57.112L54.3029 46.9H58.2129L51.1749 56.583H55.4989V53.57H59.0179V56.583H61.6399V59.619Z" fill="#26A2FC"></path> </g> <g opacity="0.7" filter="url(#filter1_f)"> <path opacity="0.7" d="M182 299L194.35 313.434L211.505 301.777L218.21 318.004L239 309.919L239.601 326.834L262.61 322.871L257.067 339.32L280.727 339.75L269.417 354.613L292.116 359.406L275.811 371.671L296 380.5L275.811 389.329L292.116 401.594L269.417 406.387L280.727 421.25L257.067 421.68L262.61 438.129L239.601 434.166L239 451.081L218.21 442.996L211.505 459.223L194.35 447.566L182 462L169.65 447.566L152.495 459.223L145.79 442.996L125 451.081L124.399 434.166L101.39 438.129L106.933 421.68L83.2731 421.25L94.5825 406.387L71.8845 401.594L88.1895 389.329L68 380.5L88.1895 371.671L71.8845 359.406L94.5825 354.613L83.2731 339.75L106.933 339.32L101.39 322.871L124.399 326.834L125 309.919L145.79 318.004L152.495 301.777L169.65 313.434L182 299Z" fill="#0089D7"></path> </g> </g> <defs> <filter id="filter0_i" x="29" y="30" width="51" height="51" filterUnits="userSpaceOnUse" color-interpolation-filters="sRGB"> <feFlood flood-opacity="0" result="BackgroundImageFix"></feFlood> <feBlend mode="normal" in="SourceGraphic" in2="BackgroundImageFix" result="shape"></feBlend> <feColorMatrix in="SourceAlpha" type="matrix" values="0 0 0 0 0 0 0 0 0 0 0 0 0 0 0 0 0 0 127 0" result="hardAlpha"></feColorMatrix> <feOffset dx="1" dy="1"></feOffset> <feGaussianBlur stdDeviation="2"></feGaussianBlur> <feComposite in2="hardAlpha" operator="arithmetic" k2="-1" k3="1"></feComposite> <feColorMatrix type="matrix" values="0 0 0 0 1 0 0 0 0 1 0 0 0 0 1 0 0 0 0.05 0"></feColorMatrix> <feBlend mode="normal" in2="shape" result="effect1_innerShadow"></feBlend> </filter> <filter id="filter1_f" x="-32" y="199" width="428" height="363" filterUnits="userSpaceOnUse" color-interpolation-filters="sRGB"> <feFlood flood-opacity="0" result="BackgroundImageFix"></feFlood> <feBlend mode="normal" in="SourceGraphic" in2="BackgroundImageFix" result="shape"></feBlend> <feGaussianBlur stdDeviation="50" result="effect1_foregroundBlur"></feGaussianBlur> </filter> <linearGradient id="paint0_linear" x1="54" y1="30" x2="54" y2="80" gradientUnits="userSpaceOnUse"> <stop stop-color="#00A3FF"></stop> <stop offset="1" stop-color="#26A2FC" stop-opacity="0"></stop> </linearGradient> <clipPath id="clip0"> <rect width="380" height="542" fill="white"></rect> </clipPath> </defs> </svg> 