<?xml version="1.0" encoding="UTF-8"?> <svg xmlns="http://www.w3.org/2000/svg" width="340" height="110" viewBox="0 0 340 110" fill="none"> <rect x="0.374899" y="0.374899" width="339.25" height="109.25" rx="14.621" fill="black" fill-opacity="0.14"></rect> <rect x="0.374899" y="0.374899" width="339.25" height="109.25" rx="14.621" stroke="white" stroke-width="0.749797"></rect> <path d="M27.9937 22.5859C28.7236 22.7359 29.2785 23.0308 29.6584 23.4707C30.0384 23.9007 30.2283 24.4656 30.2283 25.1655C30.2283 26.0753 29.9034 26.7752 29.2535 27.2651C28.6136 27.755 27.6688 28 26.419 28H21.7697V17.5017H26.134C27.2538 17.5017 28.1287 17.7317 28.7586 18.1916C29.3885 18.6515 29.7034 19.3164 29.7034 20.1863C29.7034 20.7762 29.5535 21.2761 29.2535 21.686C28.9535 22.086 28.5336 22.3859 27.9937 22.5859ZM22.8645 22.2559H26.074C26.8839 22.2559 27.5038 22.091 27.9337 21.761C28.3736 21.4311 28.5936 20.9511 28.5936 20.3212C28.5936 19.6913 28.3736 19.2114 27.9337 18.8815C27.5038 18.5515 26.8839 18.3866 26.074 18.3866H22.8645V22.2559ZM26.419 27.1151C28.2287 27.1151 29.1335 26.4403 29.1335 25.0905C29.1335 23.7707 28.2287 23.1108 26.419 23.1108H22.8645V27.1151H26.419ZM36.0028 28.075C35.2429 28.075 34.558 27.905 33.9481 27.5651C33.3382 27.2151 32.8583 26.7352 32.5083 26.1253C32.1584 25.5154 31.9834 24.8255 31.9834 24.0556C31.9834 23.2858 32.1584 22.5959 32.5083 21.986C32.8583 21.3761 33.3382 20.9012 33.9481 20.5612C34.558 20.2213 35.2429 20.0513 36.0028 20.0513C36.7626 20.0513 37.4475 20.2213 38.0574 20.5612C38.6673 20.9012 39.1422 21.3761 39.4822 21.986C39.8321 22.5959 40.0071 23.2858 40.0071 24.0556C40.0071 24.8255 39.8321 25.5154 39.4822 26.1253C39.1422 26.7352 38.6673 27.2151 38.0574 27.5651C37.4475 27.905 36.7626 28.075 36.0028 28.075ZM36.0028 27.1301C36.5627 27.1301 37.0626 27.0052 37.5025 26.7552C37.9524 26.4952 38.3024 26.1303 38.5523 25.6604C38.8023 25.1905 38.9273 24.6555 38.9273 24.0556C38.9273 23.4557 38.8023 22.9208 38.5523 22.4509C38.3024 21.981 37.9524 21.621 37.5025 21.3711C37.0626 21.1111 36.5627 20.9811 36.0028 20.9811C35.4428 20.9811 34.9379 21.1111 34.488 21.3711C34.0481 21.621 33.6981 21.981 33.4382 22.4509C33.1882 22.9208 33.0632 23.4557 33.0632 24.0556C33.0632 24.6555 33.1882 25.1905 33.4382 25.6604C33.6981 26.1303 34.0481 26.4952 34.488 26.7552C34.9379 27.0052 35.4428 27.1301 36.0028 27.1301ZM46.0637 23.8907C46.6236 24.0206 47.0535 24.2456 47.3535 24.5656C47.6634 24.8855 47.8184 25.2754 47.8184 25.7354C47.8184 26.1953 47.6584 26.6052 47.3385 26.9652C47.0285 27.3251 46.6036 27.6051 46.0637 27.805C45.5238 27.995 44.9288 28.09 44.279 28.09C43.709 28.09 43.1491 28.01 42.5992 27.85C42.0493 27.6801 41.5694 27.4351 41.1595 27.1151L41.5194 26.3203C41.8793 26.5902 42.2993 26.8002 42.7792 26.9502C43.2591 27.1001 43.744 27.1751 44.234 27.1751C44.9638 27.1751 45.5587 27.0402 46.0187 26.7702C46.4886 26.4902 46.7236 26.1153 46.7236 25.6454C46.7236 25.2254 46.5336 24.9005 46.1537 24.6705C45.7737 24.4306 45.2538 24.3106 44.5939 24.3106H43.2441V23.5307H44.5339C45.1238 23.5307 45.5987 23.4207 45.9587 23.2008C46.3186 22.9708 46.4986 22.6659 46.4986 22.2859C46.4986 21.866 46.2936 21.536 45.8837 21.2961C45.4838 21.0561 44.9588 20.9361 44.309 20.9361C43.4591 20.9361 42.6192 21.1511 41.7894 21.581L41.4894 20.7562C42.4293 20.2663 43.4041 20.0213 44.4139 20.0213C45.0138 20.0213 45.5537 20.1113 46.0337 20.2912C46.5236 20.4612 46.9035 20.7062 47.1735 21.0261C47.4534 21.3461 47.5934 21.716 47.5934 22.136C47.5934 22.5359 47.4534 22.8908 47.1735 23.2008C46.9035 23.5107 46.5336 23.7407 46.0637 23.8907ZM55.2599 23.9207C56.3297 24.1706 56.8646 24.8155 56.8646 25.8553C56.8646 26.5452 56.6097 27.0751 56.0997 27.4451C55.5898 27.815 54.8299 28 53.8201 28H50.2357V20.1113H53.7151C54.615 20.1113 55.3199 20.2862 55.8298 20.6362C56.3397 20.9861 56.5947 21.4861 56.5947 22.136C56.5947 22.5659 56.4747 22.9358 56.2347 23.2458C56.0047 23.5457 55.6798 23.7707 55.2599 23.9207ZM51.2705 23.6207H53.6401C54.25 23.6207 54.715 23.5057 55.0349 23.2758C55.3649 23.0458 55.5298 22.7109 55.5298 22.2709C55.5298 21.831 55.3649 21.5011 55.0349 21.2811C54.715 21.0611 54.25 20.9511 53.6401 20.9511H51.2705V23.6207ZM53.7751 27.1601C54.455 27.1601 54.9649 27.0502 55.3049 26.8302C55.6448 26.6102 55.8148 26.2653 55.8148 25.7954C55.8148 25.3254 55.6598 24.9805 55.3499 24.7605C55.0399 24.5306 54.55 24.4156 53.8801 24.4156H51.2705V27.1601H53.7751ZM63.4245 20.0513C64.1644 20.0513 64.8343 20.2213 65.4342 20.5612C66.0341 20.8912 66.504 21.3611 66.844 21.971C67.1839 22.5809 67.3539 23.2758 67.3539 24.0556C67.3539 24.8455 67.1839 25.5454 66.844 26.1553C66.504 26.7652 66.0341 27.2401 65.4342 27.5801C64.8443 27.91 64.1744 28.075 63.4245 28.075C62.7846 28.075 62.2047 27.945 61.6848 27.6851C61.1749 27.4151 60.755 27.0252 60.425 26.5152V30.9095H59.3602V20.1113H60.38V21.671C60.7 21.1511 61.1199 20.7512 61.6398 20.4712C62.1697 20.1913 62.7646 20.0513 63.4245 20.0513ZM63.3495 27.1301C63.8994 27.1301 64.3994 27.0052 64.8493 26.7552C65.2992 26.4952 65.6492 26.1303 65.8991 25.6604C66.1591 25.1905 66.2891 24.6555 66.2891 24.0556C66.2891 23.4557 66.1591 22.9258 65.8991 22.4659C65.6492 21.996 65.2992 21.631 64.8493 21.3711C64.3994 21.1111 63.8994 20.9811 63.3495 20.9811C62.7896 20.9811 62.2847 21.1111 61.8348 21.3711C61.3949 21.631 61.0449 21.996 60.785 22.4659C60.535 22.9258 60.41 23.4557 60.41 24.0556C60.41 24.6555 60.535 25.1905 60.785 25.6604C61.0449 26.1303 61.3949 26.4952 61.8348 26.7552C62.2847 27.0052 62.7896 27.1301 63.3495 27.1301ZM72.3123 20.0513C73.3422 20.0513 74.132 20.3112 74.682 20.8312C75.2319 21.3411 75.5068 22.101 75.5068 23.1108V28H74.487V26.7702C74.247 27.1801 73.8921 27.5001 73.4222 27.73C72.9622 27.96 72.4123 28.075 71.7724 28.075C70.8926 28.075 70.1927 27.865 69.6728 27.4451C69.1529 27.0252 68.8929 26.4702 68.8929 25.7804C68.8929 25.1105 69.1329 24.5706 69.6128 24.1606C70.1027 23.7507 70.8776 23.5457 71.9374 23.5457H74.442V23.0658C74.442 22.3859 74.252 21.871 73.8721 21.521C73.4922 21.1611 72.9372 20.9811 72.2074 20.9811C71.7074 20.9811 71.2275 21.0661 70.7676 21.2361C70.3077 21.3961 69.9127 21.621 69.5828 21.911L69.1029 21.1161C69.5028 20.7762 69.9827 20.5162 70.5426 20.3362C71.1025 20.1463 71.6924 20.0513 72.3123 20.0513ZM71.9374 27.2351C72.5373 27.2351 73.0522 27.1001 73.4822 26.8302C73.9121 26.5502 74.232 26.1503 74.442 25.6304V24.3406H71.9674C70.6176 24.3406 69.9427 24.8105 69.9427 25.7504C69.9427 26.2103 70.1177 26.5752 70.4676 26.8452C70.8176 27.1051 71.3075 27.2351 71.9374 27.2351ZM89.2297 20.1113V28H78.3415V20.1113H79.4063V27.0702H83.2757V20.1113H84.3405V27.0702H88.1649V20.1113H89.2297ZM90.4445 27.0702V29.7247H89.4397V28H88.1049V27.0702H90.4445ZM99.1688 24.3856H92.5698C92.6298 25.2055 92.9448 25.8703 93.5147 26.3803C94.0846 26.8802 94.8045 27.1301 95.6743 27.1301C96.1643 27.1301 96.6142 27.0452 97.0241 26.8752C97.4341 26.6952 97.789 26.4353 98.0889 26.0953L98.6888 26.7852C98.3389 27.2051 97.899 27.5251 97.3691 27.745C96.8491 27.965 96.2742 28.075 95.6443 28.075C94.8345 28.075 94.1146 27.905 93.4847 27.5651C92.8648 27.2151 92.3799 26.7352 92.0299 26.1253C91.68 25.5154 91.505 24.8255 91.505 24.0556C91.505 23.2858 91.67 22.5959 91.9999 21.986C92.3399 21.3761 92.7998 20.9012 93.3797 20.5612C93.9696 20.2213 94.6295 20.0513 95.3594 20.0513C96.0893 20.0513 96.7442 20.2213 97.3241 20.5612C97.904 20.9012 98.3589 21.3761 98.6888 21.986C99.0188 22.5859 99.1838 23.2758 99.1838 24.0556L99.1688 24.3856ZM95.3594 20.9661C94.5995 20.9661 93.9596 21.2111 93.4397 21.701C92.9298 22.1809 92.6398 22.8108 92.5698 23.5907H98.1639C98.0939 22.8108 97.799 22.1809 97.2791 21.701C96.7692 21.2111 96.1293 20.9661 95.3594 20.9661ZM101.541 20.1113H102.606V23.6057H107.57V20.1113H108.635V28H107.57V24.5206H102.606V28H101.541V20.1113ZM114.916 28.075C114.156 28.075 113.471 27.905 112.861 27.5651C112.251 27.2151 111.771 26.7352 111.421 26.1253C111.071 25.5154 110.896 24.8255 110.896 24.0556C110.896 23.2858 111.071 22.5959 111.421 21.986C111.771 21.3761 112.251 20.9012 112.861 20.5612C113.471 20.2213 114.156 20.0513 114.916 20.0513C115.676 20.0513 116.361 20.2213 116.97 20.5612C117.58 20.9012 118.055 21.3761 118.395 21.986C118.745 22.5959 118.92 23.2858 118.92 24.0556C118.92 24.8255 118.745 25.5154 118.395 26.1253C118.055 26.7352 117.58 27.2151 116.97 27.5651C116.361 27.905 115.676 28.075 114.916 28.075ZM114.916 27.1301C115.476 27.1301 115.976 27.0052 116.416 26.7552C116.865 26.4952 117.215 26.1303 117.465 25.6604C117.715 25.1905 117.84 24.6555 117.84 24.0556C117.84 23.4557 117.715 22.9208 117.465 22.4509C117.215 21.981 116.865 21.621 116.416 21.3711C115.976 21.1111 115.476 20.9811 114.916 20.9811C114.356 20.9811 113.851 21.1111 113.401 21.3711C112.961 21.621 112.611 21.981 112.351 22.4509C112.101 22.9208 111.976 23.4557 111.976 24.0556C111.976 24.6555 112.101 25.1905 112.351 25.6604C112.611 26.1303 112.961 26.4952 113.401 26.7552C113.851 27.0052 114.356 27.1301 114.916 27.1301ZM128.96 23.8907C129.52 24.0206 129.95 24.2456 130.25 24.5656C130.56 24.8855 130.715 25.2754 130.715 25.7354C130.715 26.1953 130.555 26.6052 130.235 26.9652C129.925 27.3251 129.5 27.6051 128.96 27.805C128.42 27.995 127.826 28.09 127.176 28.09C126.606 28.09 126.046 28.01 125.496 27.85C124.946 27.6801 124.466 27.4351 124.056 27.1151L124.416 26.3203C124.776 26.5902 125.196 26.8002 125.676 26.9502C126.156 27.1001 126.641 27.1751 127.131 27.1751C127.861 27.1751 128.455 27.0402 128.915 26.7702C129.385 26.4902 129.62 26.1153 129.62 25.6454C129.62 25.2254 129.43 24.9005 129.05 24.6705C128.67 24.4306 128.151 24.3106 127.491 24.3106H126.141V23.5307H127.431C128.021 23.5307 128.495 23.4207 128.855 23.2008C129.215 22.9708 129.395 22.6659 129.395 22.2859C129.395 21.866 129.19 21.536 128.78 21.2961C128.38 21.0561 127.856 20.9361 127.206 20.9361C126.356 20.9361 125.516 21.1511 124.686 21.581L124.386 20.7562C125.326 20.2663 126.301 20.0213 127.311 20.0213C127.911 20.0213 128.45 20.1113 128.93 20.2912C129.42 20.4612 129.8 20.7062 130.07 21.0261C130.35 21.3461 130.49 21.716 130.49 22.136C130.49 22.5359 130.35 22.8908 130.07 23.2008C129.8 23.5107 129.43 23.7407 128.96 23.8907ZM135.847 20.0513C136.877 20.0513 137.667 20.3112 138.217 20.8312C138.766 21.3411 139.041 22.101 139.041 23.1108V28H138.022V26.7702C137.782 27.1801 137.427 27.5001 136.957 27.73C136.497 27.96 135.947 28.075 135.307 28.075C134.427 28.075 133.727 27.865 133.207 27.4451C132.687 27.0252 132.428 26.4702 132.428 25.7804C132.428 25.1105 132.667 24.5706 133.147 24.1606C133.637 23.7507 134.412 23.5457 135.472 23.5457H137.977V23.0658C137.977 22.3859 137.787 21.871 137.407 21.521C137.027 21.1611 136.472 20.9811 135.742 20.9811C135.242 20.9811 134.762 21.0661 134.302 21.2361C133.842 21.3961 133.447 21.621 133.117 21.911L132.637 21.1161C133.037 20.7762 133.517 20.5162 134.077 20.3362C134.637 20.1463 135.227 20.0513 135.847 20.0513ZM135.472 27.2351C136.072 27.2351 136.587 27.1001 137.017 26.8302C137.447 26.5502 137.767 26.1503 137.977 25.6304V24.3406H135.502C134.152 24.3406 133.477 24.8105 133.477 25.7504C133.477 26.2103 133.652 26.5752 134.002 26.8452C134.352 27.1051 134.842 27.2351 135.472 27.2351ZM141.876 20.1113H142.941V26.3803L148.205 20.1113H149.15V28H148.085V21.731L142.836 28H141.876V20.1113ZM145.461 18.9715C144.781 18.9715 144.241 18.8015 143.841 18.4615C143.441 18.1216 143.236 17.6417 143.226 17.0218H143.991C144.001 17.4117 144.141 17.7267 144.411 17.9666C144.681 18.1966 145.031 18.3116 145.461 18.3116C145.89 18.3116 146.24 18.1966 146.51 17.9666C146.79 17.7267 146.935 17.4117 146.945 17.0218H147.71C147.7 17.6417 147.49 18.1216 147.08 18.4615C146.68 18.8015 146.14 18.9715 145.461 18.9715ZM161.02 20.1113V28H160.045V21.761L156.851 27.0402H156.371L153.176 21.746V28H152.202V20.1113H153.281L156.626 25.7954L160.03 20.1113H161.02ZM167.305 28.075C166.545 28.075 165.86 27.905 165.25 27.5651C164.64 27.2151 164.16 26.7352 163.81 26.1253C163.46 25.5154 163.285 24.8255 163.285 24.0556C163.285 23.2858 163.46 22.5959 163.81 21.986C164.16 21.3761 164.64 20.9012 165.25 20.5612C165.86 20.2213 166.545 20.0513 167.305 20.0513C168.065 20.0513 168.749 20.2213 169.359 20.5612C169.969 20.9012 170.444 21.3761 170.784 21.986C171.134 22.5959 171.309 23.2858 171.309 24.0556C171.309 24.8255 171.134 25.5154 170.784 26.1253C170.444 26.7352 169.969 27.2151 169.359 27.5651C168.749 27.905 168.065 28.075 167.305 28.075ZM167.305 27.1301C167.865 27.1301 168.365 27.0052 168.804 26.7552C169.254 26.4952 169.604 26.1303 169.854 25.6604C170.104 25.1905 170.229 24.6555 170.229 24.0556C170.229 23.4557 170.104 22.9208 169.854 22.4509C169.604 21.981 169.254 21.621 168.804 21.3711C168.365 21.1111 167.865 20.9811 167.305 20.9811C166.745 20.9811 166.24 21.1111 165.79 21.3711C165.35 21.621 165 21.981 164.74 22.4509C164.49 22.9208 164.365 23.4557 164.365 24.0556C164.365 24.6555 164.49 25.1905 164.74 25.6604C165 26.1303 165.35 26.4952 165.79 26.7552C166.24 27.0052 166.745 27.1301 167.305 27.1301ZM178.609 23.9207C179.679 24.1706 180.214 24.8155 180.214 25.8553C180.214 26.5452 179.959 27.0751 179.449 27.4451C178.939 27.815 178.179 28 177.169 28H173.585V20.1113H177.064C177.964 20.1113 178.669 20.2862 179.179 20.6362C179.689 20.9861 179.944 21.4861 179.944 22.136C179.944 22.5659 179.824 22.9358 179.584 23.2458C179.354 23.5457 179.029 23.7707 178.609 23.9207ZM174.62 23.6207H176.989C177.599 23.6207 178.064 23.5057 178.384 23.2758C178.714 23.0458 178.879 22.7109 178.879 22.2709C178.879 21.831 178.714 21.5011 178.384 21.2811C178.064 21.0611 177.599 20.9511 176.989 20.9511H174.62V23.6207ZM177.124 27.1601C177.804 27.1601 178.314 27.0502 178.654 26.8302C178.994 26.6102 179.164 26.2653 179.164 25.7954C179.164 25.3254 179.009 24.9805 178.699 24.7605C178.389 24.5306 177.899 24.4156 177.229 24.4156H174.62V27.1601H177.124ZM186.634 20.1113H187.699V23.6057H192.663V20.1113H193.728V28H192.663V24.5206H187.699V28H186.634V20.1113ZM199.469 20.0513C200.499 20.0513 201.289 20.3112 201.839 20.8312C202.389 21.3411 202.664 22.101 202.664 23.1108V28H201.644V26.7702C201.404 27.1801 201.049 27.5001 200.579 27.73C200.119 27.96 199.569 28.075 198.93 28.075C198.05 28.075 197.35 27.865 196.83 27.4451C196.31 27.0252 196.05 26.4702 196.05 25.7804C196.05 25.1105 196.29 24.5706 196.77 24.1606C197.26 23.7507 198.035 23.5457 199.095 23.5457H201.599V23.0658C201.599 22.3859 201.409 21.871 201.029 21.521C200.649 21.1611 200.094 20.9811 199.364 20.9811C198.865 20.9811 198.385 21.0661 197.925 21.2361C197.465 21.3961 197.07 21.621 196.74 21.911L196.26 21.1161C196.66 20.7762 197.14 20.5162 197.7 20.3362C198.26 20.1463 198.85 20.0513 199.469 20.0513ZM199.095 27.2351C199.694 27.2351 200.209 27.1001 200.639 26.8302C201.069 26.5502 201.389 26.1503 201.599 25.6304V24.3406H199.125C197.775 24.3406 197.1 24.8105 197.1 25.7504C197.1 26.2103 197.275 26.5752 197.625 26.8452C197.975 27.1051 198.465 27.2351 199.095 27.2351ZM216.503 20.1113V28H215.438V21.0561H210.489V28H209.424V20.1113H216.503ZM225.978 20.1113V28H224.914V21.0561H221.134L221.029 23.0058C220.949 24.6455 220.759 25.9053 220.459 26.7852C220.159 27.6651 219.625 28.105 218.855 28.105C218.645 28.105 218.39 28.065 218.09 27.985L218.165 27.0702C218.345 27.1101 218.47 27.1301 218.54 27.1301C218.95 27.1301 219.26 26.9402 219.47 26.5602C219.68 26.1803 219.819 25.7104 219.889 25.1505C219.959 24.5906 220.019 23.8507 220.069 22.9308L220.204 20.1113H225.978ZM231.72 20.0513C232.75 20.0513 233.54 20.3112 234.09 20.8312C234.64 21.3411 234.915 22.101 234.915 23.1108V28H233.895V26.7702C233.655 27.1801 233.3 27.5001 232.83 27.73C232.37 27.96 231.82 28.075 231.18 28.075C230.3 28.075 229.6 27.865 229.081 27.4451C228.561 27.0252 228.301 26.4702 228.301 25.7804C228.301 25.1105 228.541 24.5706 229.021 24.1606C229.51 23.7507 230.285 23.5457 231.345 23.5457H233.85V23.0658C233.85 22.3859 233.66 21.871 233.28 21.521C232.9 21.1611 232.345 20.9811 231.615 20.9811C231.115 20.9811 230.635 21.0661 230.175 21.2361C229.715 21.3961 229.32 21.621 228.991 21.911L228.511 21.1161C228.911 20.7762 229.39 20.5162 229.95 20.3362C230.51 20.1463 231.1 20.0513 231.72 20.0513ZM231.345 27.2351C231.945 27.2351 232.46 27.1001 232.89 26.8302C233.32 26.5502 233.64 26.1503 233.85 25.6304V24.3406H231.375C230.025 24.3406 229.35 24.8105 229.35 25.7504C229.35 26.2103 229.525 26.5752 229.875 26.8452C230.225 27.1051 230.715 27.2351 231.345 27.2351ZM243.298 21.0561H240.314V28H239.249V21.0561H236.264V20.1113H243.298V21.0561ZM253.995 24.0406C253.995 25.2704 253.59 26.2353 252.78 26.9352C251.971 27.6351 250.826 28.015 249.346 28.075V30.9095H248.311V28.09C246.841 28.03 245.702 27.6501 244.892 26.9502C244.092 26.2403 243.692 25.2704 243.692 24.0406C243.692 22.8208 244.092 21.866 244.892 21.1761C245.702 20.4862 246.841 20.1113 248.311 20.0513V16.8718H249.346V20.0513C250.826 20.1213 251.971 20.5012 252.78 21.1911C253.59 21.881 253.995 22.8308 253.995 24.0406ZM244.742 24.0406C244.742 24.9805 245.042 25.7154 245.642 26.2453C246.251 26.7752 247.141 27.0751 248.311 27.1451V20.9961C247.151 21.0561 246.266 21.3511 245.657 21.881C245.047 22.4009 244.742 23.1208 244.742 24.0406ZM249.346 27.1451C250.516 27.0851 251.406 26.7902 252.016 26.2603C252.635 25.7304 252.945 24.9905 252.945 24.0406C252.945 23.1108 252.635 22.3859 252.016 21.866C251.406 21.3461 250.516 21.0561 249.346 20.9961V27.1451ZM259.502 28.075C258.742 28.075 258.057 27.905 257.447 27.5651C256.837 27.2151 256.357 26.7352 256.007 26.1253C255.657 25.5154 255.482 24.8255 255.482 24.0556C255.482 23.2858 255.657 22.5959 256.007 21.986C256.357 21.3761 256.837 20.9012 257.447 20.5612C258.057 20.2213 258.742 20.0513 259.502 20.0513C260.262 20.0513 260.946 20.2213 261.556 20.5612C262.166 20.9012 262.641 21.3761 262.981 21.986C263.331 22.5959 263.506 23.2858 263.506 24.0556C263.506 24.8255 263.331 25.5154 262.981 26.1253C262.641 26.7352 262.166 27.2151 261.556 27.5651C260.946 27.905 260.262 28.075 259.502 28.075ZM259.502 27.1301C260.062 27.1301 260.562 27.0052 261.001 26.7552C261.451 26.4952 261.801 26.1303 262.051 25.6604C262.301 25.1905 262.426 24.6555 262.426 24.0556C262.426 23.4557 262.301 22.9208 262.051 22.4509C261.801 21.981 261.451 21.621 261.001 21.3711C260.562 21.1111 260.062 20.9811 259.502 20.9811C258.942 20.9811 258.437 21.1111 257.987 21.3711C257.547 21.621 257.197 21.981 256.937 22.4509C256.687 22.9208 256.562 23.4557 256.562 24.0556C256.562 24.6555 256.687 25.1905 256.937 25.6604C257.197 26.1303 257.547 26.4952 257.987 26.7552C258.437 27.0052 258.942 27.1301 259.502 27.1301ZM269.846 20.0513C270.586 20.0513 271.256 20.2213 271.856 20.5612C272.456 20.8912 272.926 21.3611 273.266 21.971C273.606 22.5809 273.776 23.2758 273.776 24.0556C273.776 24.8455 273.606 25.5454 273.266 26.1553C272.926 26.7652 272.456 27.2401 271.856 27.5801C271.266 27.91 270.596 28.075 269.846 28.075C269.206 28.075 268.626 27.945 268.106 27.6851C267.597 27.4151 267.177 27.0252 266.847 26.5152V30.9095H265.782V20.1113H266.802V21.671C267.122 21.1511 267.542 20.7512 268.061 20.4712C268.591 20.1913 269.186 20.0513 269.846 20.0513ZM269.771 27.1301C270.321 27.1301 270.821 27.0052 271.271 26.7552C271.721 26.4952 272.071 26.1303 272.321 25.6604C272.581 25.1905 272.711 24.6555 272.711 24.0556C272.711 23.4557 272.581 22.9258 272.321 22.4659C272.071 21.996 271.721 21.631 271.271 21.3711C270.821 21.1111 270.321 20.9811 269.771 20.9811C269.211 20.9811 268.706 21.1111 268.256 21.3711C267.816 21.631 267.467 21.996 267.207 22.4659C266.957 22.9258 266.832 23.4557 266.832 24.0556C266.832 24.6555 266.957 25.1905 267.207 25.6604C267.467 26.1303 267.816 26.4952 268.256 26.7552C268.706 27.0052 269.211 27.1301 269.771 27.1301ZM284.882 20.1113V28H283.907V21.761L280.713 27.0402H280.233L277.038 21.746V28H276.063V20.1113H277.143L280.488 25.7954L283.892 20.1113H284.882ZM294.811 24.3856H288.212C288.272 25.2055 288.587 25.8703 289.157 26.3803C289.727 26.8802 290.447 27.1301 291.316 27.1301C291.806 27.1301 292.256 27.0452 292.666 26.8752C293.076 26.6952 293.431 26.4353 293.731 26.0953L294.331 26.7852C293.981 27.2051 293.541 27.5251 293.011 27.745C292.491 27.965 291.916 28.075 291.286 28.075C290.477 28.075 289.757 27.905 289.127 27.5651C288.507 27.2151 288.022 26.7352 287.672 26.1253C287.322 25.5154 287.147 24.8255 287.147 24.0556C287.147 23.2858 287.312 22.5959 287.642 21.986C287.982 21.3761 288.442 20.9012 289.022 20.5612C289.612 20.2213 290.272 20.0513 291.002 20.0513C291.731 20.0513 292.386 20.2213 292.966 20.5612C293.546 20.9012 294.001 21.3761 294.331 21.986C294.661 22.5859 294.826 23.2758 294.826 24.0556L294.811 24.3856ZM291.002 20.9661C290.242 20.9661 289.602 21.2111 289.082 21.701C288.572 22.1809 288.282 22.8108 288.212 23.5907H293.806C293.736 22.8108 293.441 22.1809 292.921 21.701C292.411 21.2111 291.771 20.9661 291.002 20.9661ZM297.258 21.686C297.038 21.686 296.848 21.606 296.688 21.4461C296.538 21.2861 296.463 21.0911 296.463 20.8612C296.463 20.6312 296.538 20.4412 296.688 20.2912C296.848 20.1313 297.038 20.0513 297.258 20.0513C297.478 20.0513 297.668 20.1313 297.828 20.2912C297.988 20.4412 298.068 20.6312 298.068 20.8612C298.068 21.0911 297.988 21.2861 297.828 21.4461C297.668 21.606 297.478 21.686 297.258 21.686ZM297.258 28.075C297.038 28.075 296.848 27.995 296.688 27.835C296.538 27.6751 296.463 27.4801 296.463 27.2501C296.463 27.0202 296.538 26.8302 296.688 26.6802C296.848 26.5202 297.038 26.4403 297.258 26.4403C297.478 26.4403 297.668 26.5202 297.828 26.6802C297.988 26.8302 298.068 27.0202 298.068 27.2501C298.068 27.4801 297.988 27.6751 297.828 27.835C297.668 27.995 297.478 28.075 297.258 28.075Z" fill="white"></path> <path d="M24.9712 95.072C24.3233 95.072 23.7434 94.9 23.2315 94.5561C22.7276 94.2122 22.3317 93.7203 22.0438 93.0804C21.7638 92.4325 21.6239 91.6727 21.6239 90.8009C21.6239 89.929 21.7638 89.1732 22.0438 88.5333C22.3317 87.8854 22.7276 87.3895 23.2315 87.0456C23.7434 86.7017 24.3233 86.5297 24.9712 86.5297C25.6191 86.5297 26.1949 86.7017 26.6988 87.0456C27.2107 87.3895 27.6107 87.8854 27.8986 88.5333C28.1865 89.1732 28.3305 89.929 28.3305 90.8009C28.3305 91.6727 28.1865 92.4325 27.8986 93.0804C27.6107 93.7203 27.2107 94.2122 26.6988 94.5561C26.1949 94.9 25.6191 95.072 24.9712 95.072ZM24.9712 94.2801C25.4591 94.2801 25.887 94.1442 26.2549 93.8722C26.6309 93.6003 26.9228 93.2044 27.1308 92.6845C27.3387 92.1646 27.4427 91.5367 27.4427 90.8009C27.4427 90.065 27.3387 89.4371 27.1308 88.9172C26.9228 88.3973 26.6309 88.0014 26.2549 87.7295C25.887 87.4575 25.4591 87.3216 24.9712 87.3216C24.4833 87.3216 24.0514 87.4575 23.6755 87.7295C23.3075 88.0014 23.0196 88.3973 22.8116 88.9172C22.6037 89.4371 22.4997 90.065 22.4997 90.8009C22.4997 91.5367 22.6037 92.1646 22.8116 92.6845C23.0196 93.2044 23.3075 93.6003 23.6755 93.8722C24.0514 94.1442 24.4833 94.2801 24.9712 94.2801Z" fill="white"></path> <path d="M302.951 86.6017V95H302.088V87.3695H300.108V86.6017H302.951ZM308.306 95.072C307.658 95.072 307.079 94.9 306.567 94.5561C306.063 94.2122 305.667 93.7203 305.379 93.0804C305.099 92.4325 304.959 91.6727 304.959 90.8009C304.959 89.929 305.099 89.1732 305.379 88.5333C305.667 87.8854 306.063 87.3895 306.567 87.0456C307.079 86.7017 307.658 86.5297 308.306 86.5297C308.954 86.5297 309.53 86.7017 310.034 87.0456C310.546 87.3895 310.946 87.8854 311.234 88.5333C311.522 89.1732 311.666 89.929 311.666 90.8009C311.666 91.6727 311.522 92.4325 311.234 93.0804C310.946 93.7203 310.546 94.2122 310.034 94.5561C309.53 94.9 308.954 95.072 308.306 95.072ZM308.306 94.2801C308.794 94.2801 309.222 94.1442 309.59 93.8722C309.966 93.6003 310.258 93.2044 310.466 92.6845C310.674 92.1646 310.778 91.5367 310.778 90.8009C310.778 90.065 310.674 89.4371 310.466 88.9172C310.258 88.3973 309.966 88.0014 309.59 87.7295C309.222 87.4575 308.794 87.3216 308.306 87.3216C307.818 87.3216 307.386 87.4575 307.011 87.7295C306.643 88.0014 306.355 88.3973 306.147 88.9172C305.939 89.4371 305.835 90.065 305.835 90.8009C305.835 91.5367 305.939 92.1646 306.147 92.6845C306.355 93.2044 306.643 93.6003 307.011 93.8722C307.386 94.1442 307.818 94.2801 308.306 94.2801ZM318.431 91.1608H316.2V93.3443H315.444V91.1608H313.212V90.4529H315.444V88.2574H316.2V90.4529H318.431V91.1608Z" fill="white"></path> </svg> 