<?xml version="1.0" encoding="UTF-8"?> <svg xmlns="http://www.w3.org/2000/svg" width="300" height="110" viewBox="0 0 300 110" fill="none"> <rect x="0.374899" y="0.374899" width="299.25" height="109.25" rx="14.621" fill="black" fill-opacity="0.14"></rect> <rect x="0.374899" y="0.374899" width="299.25" height="109.25" rx="14.621" stroke="white" stroke-width="0.749797"></rect> <path d="M21.416 17.6H22.292V24.56L27.668 17.6H28.472V26H27.596V19.052L22.22 26H21.416V17.6ZM33.3826 26.06C32.7586 26.06 32.1986 25.924 31.7026 25.652C31.2146 25.38 30.8306 25 30.5506 24.512C30.2706 24.016 30.1306 23.46 30.1306 22.844C30.1306 22.228 30.2706 21.676 30.5506 21.188C30.8306 20.7 31.2146 20.32 31.7026 20.048C32.1986 19.776 32.7586 19.64 33.3826 19.64C33.9266 19.64 34.4106 19.748 34.8346 19.964C35.2666 20.172 35.6066 20.48 35.8546 20.888L35.2186 21.32C35.0106 21.008 34.7466 20.776 34.4266 20.624C34.1066 20.464 33.7586 20.384 33.3826 20.384C32.9266 20.384 32.5146 20.488 32.1466 20.696C31.7866 20.896 31.5026 21.184 31.2946 21.56C31.0946 21.936 30.9946 22.364 30.9946 22.844C30.9946 23.332 31.0946 23.764 31.2946 24.14C31.5026 24.508 31.7866 24.796 32.1466 25.004C32.5146 25.204 32.9266 25.304 33.3826 25.304C33.7586 25.304 34.1066 25.228 34.4266 25.076C34.7466 24.924 35.0106 24.692 35.2186 24.38L35.8546 24.812C35.6066 25.22 35.2666 25.532 34.8346 25.748C34.4026 25.956 33.9186 26.06 33.3826 26.06ZM42.8083 19.688V26H41.9563V20.444H37.9963V26H37.1443V19.688H42.8083ZM47.4743 26.06C46.8663 26.06 46.3183 25.924 45.8303 25.652C45.3423 25.372 44.9583 24.988 44.6783 24.5C44.3983 24.012 44.2583 23.46 44.2583 22.844C44.2583 22.228 44.3983 21.676 44.6783 21.188C44.9583 20.7 45.3423 20.32 45.8303 20.048C46.3183 19.776 46.8663 19.64 47.4743 19.64C48.0823 19.64 48.6303 19.776 49.1183 20.048C49.6063 20.32 49.9863 20.7 50.2583 21.188C50.5383 21.676 50.6783 22.228 50.6783 22.844C50.6783 23.46 50.5383 24.012 50.2583 24.5C49.9863 24.988 49.6063 25.372 49.1183 25.652C48.6303 25.924 48.0823 26.06 47.4743 26.06ZM47.4743 25.304C47.9223 25.304 48.3223 25.204 48.6743 25.004C49.0343 24.796 49.3143 24.504 49.5143 24.128C49.7143 23.752 49.8143 23.324 49.8143 22.844C49.8143 22.364 49.7143 21.936 49.5143 21.56C49.3143 21.184 49.0343 20.896 48.6743 20.696C48.3223 20.488 47.9223 20.384 47.4743 20.384C47.0263 20.384 46.6223 20.488 46.2623 20.696C45.9103 20.896 45.6303 21.184 45.4223 21.56C45.2223 21.936 45.1223 22.364 45.1223 22.844C45.1223 23.324 45.2223 23.752 45.4223 24.128C45.6303 24.504 45.9103 24.796 46.2623 25.004C46.6223 25.204 47.0263 25.304 47.4743 25.304ZM57.264 19.688V26H56.412V20.444H53.388L53.304 22.004C53.24 23.316 53.088 24.324 52.848 25.028C52.608 25.732 52.18 26.084 51.564 26.084C51.396 26.084 51.192 26.052 50.952 25.988L51.012 25.256C51.156 25.288 51.256 25.304 51.312 25.304C51.64 25.304 51.888 25.152 52.056 24.848C52.224 24.544 52.336 24.168 52.392 23.72C52.448 23.272 52.496 22.68 52.536 21.944L52.644 19.688H57.264ZM59.3261 19.688H60.1781V22.484H64.1501V19.688H65.0021V26H64.1501V23.216H60.1781V26H59.3261V19.688ZM72.5837 23.108H67.3037C67.3517 23.764 67.6037 24.296 68.0597 24.704C68.5157 25.104 69.0917 25.304 69.7877 25.304C70.1797 25.304 70.5397 25.236 70.8677 25.1C71.1957 24.956 71.4797 24.748 71.7197 24.476L72.1997 25.028C71.9197 25.364 71.5677 25.62 71.1437 25.796C70.7277 25.972 70.2677 26.06 69.7637 26.06C69.1157 26.06 68.5397 25.924 68.0357 25.652C67.5397 25.372 67.1517 24.988 66.8717 24.5C66.5917 24.012 66.4517 23.46 66.4517 22.844C66.4517 22.228 66.5837 21.676 66.8477 21.188C67.1197 20.7 67.4877 20.32 67.9517 20.048C68.4237 19.776 68.9517 19.64 69.5357 19.64C70.1197 19.64 70.6437 19.776 71.1077 20.048C71.5717 20.32 71.9357 20.7 72.1997 21.188C72.4637 21.668 72.5957 22.22 72.5957 22.844L72.5837 23.108ZM69.5357 20.372C68.9277 20.372 68.4157 20.568 67.9997 20.96C67.5917 21.344 67.3597 21.848 67.3037 22.472H71.7797C71.7237 21.848 71.4877 21.344 71.0717 20.96C70.6637 20.568 70.1517 20.372 69.5357 20.372ZM74.1217 19.688H74.9737V22.484H78.9457V19.688H79.7977V26H78.9457V23.216H74.9737V26H74.1217V19.688ZM84.4633 26.06C83.8553 26.06 83.3073 25.924 82.8193 25.652C82.3313 25.372 81.9473 24.988 81.6673 24.5C81.3873 24.012 81.2473 23.46 81.2473 22.844C81.2473 22.228 81.3873 21.676 81.6673 21.188C81.9473 20.7 82.3313 20.32 82.8193 20.048C83.3073 19.776 83.8553 19.64 84.4633 19.64C85.0713 19.64 85.6193 19.776 86.1073 20.048C86.5953 20.32 86.9753 20.7 87.2473 21.188C87.5273 21.676 87.6673 22.228 87.6673 22.844C87.6673 23.46 87.5273 24.012 87.2473 24.5C86.9753 24.988 86.5953 25.372 86.1073 25.652C85.6193 25.924 85.0713 26.06 84.4633 26.06ZM84.4633 25.304C84.9113 25.304 85.3113 25.204 85.6633 25.004C86.0233 24.796 86.3033 24.504 86.5033 24.128C86.7033 23.752 86.8033 23.324 86.8033 22.844C86.8033 22.364 86.7033 21.936 86.5033 21.56C86.3033 21.184 86.0233 20.896 85.6633 20.696C85.3113 20.488 84.9113 20.384 84.4633 20.384C84.0153 20.384 83.6113 20.488 83.2513 20.696C82.8993 20.896 82.6193 21.184 82.4113 21.56C82.2113 21.936 82.1113 22.364 82.1113 22.844C82.1113 23.324 82.2113 23.752 82.4113 24.128C82.6193 24.504 82.8993 24.796 83.2513 25.004C83.6113 25.204 84.0153 25.304 84.4633 25.304ZM94.2009 23.192H92.7609V26H91.9089V19.688H92.7609V22.46H94.2129L96.4329 19.688H97.3569L94.8729 22.748L97.5369 26H96.5289L94.2009 23.192ZM100.903 26.06C100.295 26.06 99.7469 25.924 99.2589 25.652C98.7709 25.372 98.3869 24.988 98.1069 24.5C97.8269 24.012 97.6869 23.46 97.6869 22.844C97.6869 22.228 97.8269 21.676 98.1069 21.188C98.3869 20.7 98.7709 20.32 99.2589 20.048C99.7469 19.776 100.295 19.64 100.903 19.64C101.511 19.64 102.059 19.776 102.547 20.048C103.035 20.32 103.415 20.7 103.687 21.188C103.967 21.676 104.107 22.228 104.107 22.844C104.107 23.46 103.967 24.012 103.687 24.5C103.415 24.988 103.035 25.372 102.547 25.652C102.059 25.924 101.511 26.06 100.903 26.06ZM100.903 25.304C101.351 25.304 101.751 25.204 102.103 25.004C102.463 24.796 102.743 24.504 102.943 24.128C103.143 23.752 103.243 23.324 103.243 22.844C103.243 22.364 103.143 21.936 102.943 21.56C102.743 21.184 102.463 20.896 102.103 20.696C101.751 20.488 101.351 20.384 100.903 20.384C100.455 20.384 100.051 20.488 99.6909 20.696C99.3389 20.896 99.0589 21.184 98.8509 21.56C98.6509 21.936 98.5509 22.364 98.5509 22.844C98.5509 23.324 98.6509 23.752 98.8509 24.128C99.0589 24.504 99.3389 24.796 99.6909 25.004C100.051 25.204 100.455 25.304 100.903 25.304ZM105.568 19.688H106.42V22.484H110.392V19.688H111.244V26H110.392V23.216H106.42V26H105.568V19.688ZM117.745 20.444H115.357V26H114.505V20.444H112.117V19.688H117.745V20.444ZM121.869 19.64C122.461 19.64 122.997 19.776 123.477 20.048C123.957 20.312 124.333 20.688 124.605 21.176C124.877 21.664 125.013 22.22 125.013 22.844C125.013 23.476 124.877 24.036 124.605 24.524C124.333 25.012 123.957 25.392 123.477 25.664C123.005 25.928 122.469 26.06 121.869 26.06C121.357 26.06 120.893 25.956 120.477 25.748C120.069 25.532 119.733 25.22 119.469 24.812V28.328H118.617V19.688H119.433V20.936C119.689 20.52 120.025 20.2 120.441 19.976C120.865 19.752 121.341 19.64 121.869 19.64ZM121.809 25.304C122.249 25.304 122.649 25.204 123.009 25.004C123.369 24.796 123.649 24.504 123.849 24.128C124.057 23.752 124.161 23.324 124.161 22.844C124.161 22.364 124.057 21.94 123.849 21.572C123.649 21.196 123.369 20.904 123.009 20.696C122.649 20.488 122.249 20.384 121.809 20.384C121.361 20.384 120.957 20.488 120.597 20.696C120.245 20.904 119.965 21.196 119.757 21.572C119.557 21.94 119.457 22.364 119.457 22.844C119.457 23.324 119.557 23.752 119.757 24.128C119.965 24.504 120.245 24.796 120.597 25.004C120.957 25.204 121.361 25.304 121.809 25.304ZM128.621 19.64C129.445 19.64 130.077 19.848 130.517 20.264C130.957 20.672 131.177 21.28 131.177 22.088V26H130.361V25.016C130.169 25.344 129.885 25.6 129.509 25.784C129.141 25.968 128.701 26.06 128.189 26.06C127.485 26.06 126.925 25.892 126.509 25.556C126.093 25.22 125.885 24.776 125.885 24.224C125.885 23.688 126.077 23.256 126.461 22.928C126.853 22.6 127.473 22.436 128.321 22.436H130.325V22.052C130.325 21.508 130.173 21.096 129.869 20.816C129.565 20.528 129.121 20.384 128.537 20.384C128.137 20.384 127.753 20.452 127.385 20.588C127.017 20.716 126.701 20.896 126.437 21.128L126.053 20.492C126.373 20.22 126.757 20.012 127.205 19.868C127.653 19.716 128.125 19.64 128.621 19.64ZM128.321 25.388C128.801 25.388 129.213 25.28 129.557 25.064C129.901 24.84 130.157 24.52 130.325 24.104V23.072H128.345C127.265 23.072 126.725 23.448 126.725 24.2C126.725 24.568 126.865 24.86 127.145 25.076C127.425 25.284 127.817 25.388 128.321 25.388ZM135.377 23.192H133.937V26H133.085V19.688H133.937V22.46H135.389L137.609 19.688H138.533L136.049 22.748L138.713 26H137.705L135.377 23.192ZM144.009 20.444H141.621V26H140.769V20.444H138.381V19.688H144.009V20.444ZM147.191 26.06C146.583 26.06 146.035 25.924 145.547 25.652C145.059 25.372 144.675 24.988 144.395 24.5C144.115 24.012 143.975 23.46 143.975 22.844C143.975 22.228 144.115 21.676 144.395 21.188C144.675 20.7 145.059 20.32 145.547 20.048C146.035 19.776 146.583 19.64 147.191 19.64C147.799 19.64 148.347 19.776 148.835 20.048C149.323 20.32 149.703 20.7 149.975 21.188C150.255 21.676 150.395 22.228 150.395 22.844C150.395 23.46 150.255 24.012 149.975 24.5C149.703 24.988 149.323 25.372 148.835 25.652C148.347 25.924 147.799 26.06 147.191 26.06ZM147.191 25.304C147.639 25.304 148.039 25.204 148.391 25.004C148.751 24.796 149.031 24.504 149.231 24.128C149.431 23.752 149.531 23.324 149.531 22.844C149.531 22.364 149.431 21.936 149.231 21.56C149.031 21.184 148.751 20.896 148.391 20.696C148.039 20.488 147.639 20.384 147.191 20.384C146.743 20.384 146.339 20.488 145.979 20.696C145.627 20.896 145.347 21.184 145.139 21.56C144.939 21.936 144.839 22.364 144.839 22.844C144.839 23.324 144.939 23.752 145.139 24.128C145.347 24.504 145.627 24.796 145.979 25.004C146.339 25.204 146.743 25.304 147.191 25.304ZM155.876 22.736C156.732 22.936 157.16 23.452 157.16 24.284C157.16 24.836 156.956 25.26 156.548 25.556C156.14 25.852 155.532 26 154.724 26H151.856V19.688H154.64C155.36 19.688 155.924 19.828 156.332 20.108C156.74 20.388 156.944 20.788 156.944 21.308C156.944 21.652 156.848 21.948 156.656 22.196C156.472 22.436 156.212 22.616 155.876 22.736ZM152.684 22.496H154.58C155.068 22.496 155.44 22.404 155.696 22.22C155.96 22.036 156.092 21.768 156.092 21.416C156.092 21.064 155.96 20.8 155.696 20.624C155.44 20.448 155.068 20.36 154.58 20.36H152.684V22.496ZM154.688 25.328C155.232 25.328 155.64 25.24 155.912 25.064C156.184 24.888 156.32 24.612 156.32 24.236C156.32 23.86 156.196 23.584 155.948 23.408C155.7 23.224 155.308 23.132 154.772 23.132H152.684V25.328H154.688ZM164.65 22.712C165.098 22.816 165.442 22.996 165.682 23.252C165.93 23.508 166.054 23.82 166.054 24.188C166.054 24.556 165.926 24.884 165.67 25.172C165.422 25.46 165.082 25.684 164.65 25.844C164.218 25.996 163.742 26.072 163.222 26.072C162.766 26.072 162.318 26.008 161.878 25.88C161.438 25.744 161.054 25.548 160.726 25.292L161.014 24.656C161.302 24.872 161.638 25.04 162.022 25.16C162.406 25.28 162.794 25.34 163.186 25.34C163.77 25.34 164.246 25.232 164.614 25.016C164.99 24.792 165.178 24.492 165.178 24.116C165.178 23.78 165.026 23.52 164.722 23.336C164.418 23.144 164.002 23.048 163.474 23.048H162.394V22.424H163.426C163.898 22.424 164.278 22.336 164.566 22.16C164.854 21.976 164.998 21.732 164.998 21.428C164.998 21.092 164.834 20.828 164.506 20.636C164.186 20.444 163.766 20.348 163.246 20.348C162.566 20.348 161.894 20.52 161.23 20.864L160.99 20.204C161.742 19.812 162.522 19.616 163.33 19.616C163.81 19.616 164.242 19.688 164.626 19.832C165.018 19.968 165.322 20.164 165.538 20.42C165.762 20.676 165.874 20.972 165.874 21.308C165.874 21.628 165.762 21.912 165.538 22.16C165.322 22.408 165.026 22.592 164.65 22.712ZM169.8 19.64C170.624 19.64 171.256 19.848 171.696 20.264C172.136 20.672 172.356 21.28 172.356 22.088V26H171.54V25.016C171.348 25.344 171.064 25.6 170.688 25.784C170.32 25.968 169.88 26.06 169.368 26.06C168.664 26.06 168.104 25.892 167.688 25.556C167.272 25.22 167.064 24.776 167.064 24.224C167.064 23.688 167.256 23.256 167.64 22.928C168.032 22.6 168.652 22.436 169.5 22.436H171.504V22.052C171.504 21.508 171.352 21.096 171.048 20.816C170.744 20.528 170.3 20.384 169.716 20.384C169.316 20.384 168.932 20.452 168.564 20.588C168.196 20.716 167.88 20.896 167.616 21.128L167.232 20.492C167.552 20.22 167.936 20.012 168.384 19.868C168.832 19.716 169.304 19.64 169.8 19.64ZM169.5 25.388C169.98 25.388 170.392 25.28 170.736 25.064C171.08 24.84 171.336 24.52 171.504 24.104V23.072H169.524C168.444 23.072 167.904 23.448 167.904 24.2C167.904 24.568 168.044 24.86 168.324 25.076C168.604 25.284 168.996 25.388 169.5 25.388ZM182.709 19.688V26H181.857V20.444H177.897V26H177.045V19.688H182.709ZM187.375 26.06C186.767 26.06 186.219 25.924 185.731 25.652C185.243 25.372 184.859 24.988 184.579 24.5C184.299 24.012 184.159 23.46 184.159 22.844C184.159 22.228 184.299 21.676 184.579 21.188C184.859 20.7 185.243 20.32 185.731 20.048C186.219 19.776 186.767 19.64 187.375 19.64C187.983 19.64 188.531 19.776 189.019 20.048C189.507 20.32 189.887 20.7 190.159 21.188C190.439 21.676 190.579 22.228 190.579 22.844C190.579 23.46 190.439 24.012 190.159 24.5C189.887 24.988 189.507 25.372 189.019 25.652C188.531 25.924 187.983 26.06 187.375 26.06ZM187.375 25.304C187.823 25.304 188.223 25.204 188.575 25.004C188.935 24.796 189.215 24.504 189.415 24.128C189.615 23.752 189.715 23.324 189.715 22.844C189.715 22.364 189.615 21.936 189.415 21.56C189.215 21.184 188.935 20.896 188.575 20.696C188.223 20.488 187.823 20.384 187.375 20.384C186.927 20.384 186.523 20.488 186.163 20.696C185.811 20.896 185.531 21.184 185.323 21.56C185.123 21.936 185.023 22.364 185.023 22.844C185.023 23.324 185.123 23.752 185.323 24.128C185.531 24.504 185.811 24.796 186.163 25.004C186.523 25.204 186.927 25.304 187.375 25.304ZM194.679 26.06C194.055 26.06 193.495 25.924 192.999 25.652C192.511 25.38 192.127 25 191.847 24.512C191.567 24.016 191.427 23.46 191.427 22.844C191.427 22.228 191.567 21.676 191.847 21.188C192.127 20.7 192.511 20.32 192.999 20.048C193.495 19.776 194.055 19.64 194.679 19.64C195.223 19.64 195.707 19.748 196.131 19.964C196.563 20.172 196.903 20.48 197.151 20.888L196.515 21.32C196.307 21.008 196.043 20.776 195.723 20.624C195.403 20.464 195.055 20.384 194.679 20.384C194.223 20.384 193.811 20.488 193.443 20.696C193.083 20.896 192.799 21.184 192.591 21.56C192.391 21.936 192.291 22.364 192.291 22.844C192.291 23.332 192.391 23.764 192.591 24.14C192.799 24.508 193.083 24.796 193.443 25.004C193.811 25.204 194.223 25.304 194.679 25.304C195.055 25.304 195.403 25.228 195.723 25.076C196.043 24.924 196.307 24.692 196.515 24.38L197.151 24.812C196.903 25.22 196.563 25.532 196.131 25.748C195.699 25.956 195.215 26.06 194.679 26.06ZM203.39 19.688V26H202.538V20.444H199.514L199.43 22.004C199.366 23.316 199.214 24.324 198.974 25.028C198.734 25.732 198.306 26.084 197.69 26.084C197.522 26.084 197.318 26.052 197.078 25.988L197.138 25.256C197.282 25.288 197.382 25.304 197.438 25.304C197.766 25.304 198.014 25.152 198.182 24.848C198.35 24.544 198.462 24.168 198.518 23.72C198.574 23.272 198.622 22.68 198.662 21.944L198.77 19.688H203.39ZM210.972 23.108H205.692C205.74 23.764 205.992 24.296 206.448 24.704C206.904 25.104 207.48 25.304 208.176 25.304C208.568 25.304 208.928 25.236 209.256 25.1C209.584 24.956 209.868 24.748 210.108 24.476L210.588 25.028C210.308 25.364 209.956 25.62 209.532 25.796C209.116 25.972 208.656 26.06 208.152 26.06C207.504 26.06 206.928 25.924 206.424 25.652C205.928 25.372 205.54 24.988 205.26 24.5C204.98 24.012 204.84 23.46 204.84 22.844C204.84 22.228 204.972 21.676 205.236 21.188C205.508 20.7 205.876 20.32 206.34 20.048C206.812 19.776 207.34 19.64 207.924 19.64C208.508 19.64 209.032 19.776 209.496 20.048C209.96 20.32 210.324 20.7 210.588 21.188C210.852 21.668 210.984 22.22 210.984 22.844L210.972 23.108ZM207.924 20.372C207.316 20.372 206.804 20.568 206.388 20.96C205.98 21.344 205.748 21.848 205.692 22.472H210.168C210.112 21.848 209.876 21.344 209.46 20.96C209.052 20.568 208.54 20.372 207.924 20.372ZM218.537 25.256V27.524H217.733V26H212.081V27.524H211.277V25.256H211.637C212.061 25.232 212.349 24.92 212.501 24.32C212.653 23.72 212.757 22.88 212.813 21.8L212.897 19.688H217.553V25.256H218.537ZM213.593 21.848C213.553 22.744 213.477 23.484 213.365 24.068C213.253 24.644 213.053 25.04 212.765 25.256H216.701V20.444H213.665L213.593 21.848ZM219.838 19.688H220.69V22.484H224.662V19.688H225.514V26H224.662V23.216H220.69V26H219.838V19.688ZM227.575 19.688H228.427V24.704L232.639 19.688H233.395V26H232.543V20.984L228.343 26H227.575V19.688ZM240.997 23.108H235.717C235.765 23.764 236.017 24.296 236.473 24.704C236.929 25.104 237.505 25.304 238.201 25.304C238.593 25.304 238.953 25.236 239.281 25.1C239.609 24.956 239.893 24.748 240.133 24.476L240.613 25.028C240.333 25.364 239.981 25.62 239.557 25.796C239.141 25.972 238.681 26.06 238.177 26.06C237.529 26.06 236.953 25.924 236.449 25.652C235.953 25.372 235.565 24.988 235.285 24.5C235.005 24.012 234.865 23.46 234.865 22.844C234.865 22.228 234.997 21.676 235.261 21.188C235.533 20.7 235.901 20.32 236.365 20.048C236.837 19.776 237.365 19.64 237.949 19.64C238.533 19.64 239.057 19.776 239.521 20.048C239.985 20.32 240.349 20.7 240.613 21.188C240.877 21.668 241.009 22.22 241.009 22.844L240.997 23.108ZM237.949 20.372C237.341 20.372 236.829 20.568 236.413 20.96C236.005 21.344 235.773 21.848 235.717 22.472H240.193C240.137 21.848 239.901 21.344 239.485 20.96C239.077 20.568 238.565 20.372 237.949 20.372ZM250.464 25.232V26H244.572V25.388L248.064 21.968C248.504 21.536 248.8 21.164 248.952 20.852C249.112 20.532 249.192 20.212 249.192 19.892C249.192 19.396 249.02 19.012 248.676 18.74C248.34 18.46 247.856 18.32 247.224 18.32C246.24 18.32 245.476 18.632 244.932 19.256L244.32 18.728C244.648 18.344 245.064 18.048 245.568 17.84C246.08 17.632 246.656 17.528 247.296 17.528C248.152 17.528 248.828 17.732 249.324 18.14C249.828 18.54 250.08 19.092 250.08 19.796C250.08 20.228 249.984 20.644 249.792 21.044C249.6 21.444 249.236 21.904 248.7 22.424L245.844 25.232H250.464ZM259.021 20.444H255.409V26H254.557V19.688H259.021V20.444ZM262.203 26.06C261.595 26.06 261.047 25.924 260.559 25.652C260.071 25.372 259.687 24.988 259.407 24.5C259.127 24.012 258.987 23.46 258.987 22.844C258.987 22.228 259.127 21.676 259.407 21.188C259.687 20.7 260.071 20.32 260.559 20.048C261.047 19.776 261.595 19.64 262.203 19.64C262.811 19.64 263.359 19.776 263.847 20.048C264.335 20.32 264.715 20.7 264.987 21.188C265.267 21.676 265.407 22.228 265.407 22.844C265.407 23.46 265.267 24.012 264.987 24.5C264.715 24.988 264.335 25.372 263.847 25.652C263.359 25.924 262.811 26.06 262.203 26.06ZM262.203 25.304C262.651 25.304 263.051 25.204 263.403 25.004C263.763 24.796 264.043 24.504 264.243 24.128C264.443 23.752 264.543 23.324 264.543 22.844C264.543 22.364 264.443 21.936 264.243 21.56C264.043 21.184 263.763 20.896 263.403 20.696C263.051 20.488 262.651 20.384 262.203 20.384C261.755 20.384 261.351 20.488 260.991 20.696C260.639 20.896 260.359 21.184 260.151 21.56C259.951 21.936 259.851 22.364 259.851 22.844C259.851 23.324 259.951 23.752 260.151 24.128C260.359 24.504 260.639 24.796 260.991 25.004C261.351 25.204 261.755 25.304 262.203 25.304ZM272.989 25.256V27.524H272.185V26H266.533V27.524H265.729V25.256H266.089C266.513 25.232 266.801 24.92 266.953 24.32C267.105 23.72 267.209 22.88 267.265 21.8L267.349 19.688H272.005V25.256H272.989ZM268.045 21.848C268.005 22.744 267.929 23.484 267.817 24.068C267.705 24.644 267.505 25.04 267.217 25.256H271.153V20.444H268.117L268.045 21.848ZM276.461 19.64C277.285 19.64 277.917 19.848 278.357 20.264C278.797 20.672 279.017 21.28 279.017 22.088V26H278.201V25.016C278.009 25.344 277.725 25.6 277.349 25.784C276.981 25.968 276.541 26.06 276.029 26.06C275.325 26.06 274.765 25.892 274.349 25.556C273.933 25.22 273.725 24.776 273.725 24.224C273.725 23.688 273.917 23.256 274.301 22.928C274.693 22.6 275.313 22.436 276.161 22.436H278.165V22.052C278.165 21.508 278.013 21.096 277.709 20.816C277.405 20.528 276.961 20.384 276.377 20.384C275.977 20.384 275.593 20.452 275.225 20.588C274.857 20.716 274.541 20.896 274.277 21.128L273.893 20.492C274.213 20.22 274.597 20.012 275.045 19.868C275.493 19.716 275.965 19.64 276.461 19.64ZM276.161 25.388C276.641 25.388 277.053 25.28 277.397 25.064C277.741 24.84 277.997 24.52 278.165 24.104V23.072H276.185C275.105 23.072 274.565 23.448 274.565 24.2C274.565 24.568 274.705 24.86 274.985 25.076C275.265 25.284 275.657 25.388 276.161 25.388ZM280.985 20.948C280.809 20.948 280.657 20.884 280.529 20.756C280.409 20.628 280.349 20.472 280.349 20.288C280.349 20.104 280.409 19.952 280.529 19.832C280.657 19.704 280.809 19.64 280.985 19.64C281.161 19.64 281.313 19.704 281.441 19.832C281.569 19.952 281.633 20.104 281.633 20.288C281.633 20.472 281.569 20.628 281.441 20.756C281.313 20.884 281.161 20.948 280.985 20.948ZM280.985 26.06C280.809 26.06 280.657 25.996 280.529 25.868C280.409 25.74 280.349 25.584 280.349 25.4C280.349 25.216 280.409 25.064 280.529 24.944C280.657 24.816 280.809 24.752 280.985 24.752C281.161 24.752 281.313 24.816 281.441 24.944C281.569 25.064 281.633 25.216 281.633 25.4C281.633 25.584 281.569 25.74 281.441 25.868C281.313 25.996 281.161 26.06 280.985 26.06Z" fill="white"></path> <path d="M23.8314 90.045C25.0472 90.045 25.931 90.265 26.4829 90.7049C27.0428 91.1368 27.3227 91.7447 27.3227 92.5285C27.3227 93.0164 27.2067 93.4523 26.9748 93.8362C26.7508 94.2202 26.4109 94.5241 25.955 94.7481C25.4991 94.964 24.9392 95.072 24.2753 95.072C23.6755 95.072 23.1036 94.976 22.5597 94.784C22.0238 94.5841 21.5919 94.3201 21.2639 93.9922L21.6839 93.3083C21.9638 93.5963 22.3317 93.8322 22.7876 94.0162C23.2435 94.1922 23.7354 94.2801 24.2633 94.2801C24.9592 94.2801 25.4951 94.1242 25.871 93.8122C26.2549 93.5003 26.4469 93.0844 26.4469 92.5645C26.4469 91.9886 26.2309 91.5527 25.799 91.2568C25.3751 90.9608 24.6553 90.8128 23.6395 90.8128H21.8518L22.2837 86.6017H26.8788V87.3695H23.0396L22.7516 90.045H23.8314Z" fill="white"></path> <path d="M267.769 90.201C268.649 90.249 269.317 90.4889 269.772 90.9208C270.236 91.3447 270.468 91.9006 270.468 92.5885C270.468 93.0684 270.352 93.4963 270.12 93.8722C269.888 94.2402 269.544 94.5321 269.089 94.7481C268.633 94.964 268.077 95.072 267.421 95.072C266.813 95.072 266.237 94.976 265.693 94.784C265.157 94.5841 264.725 94.3201 264.398 93.9922L264.817 93.3083C265.097 93.5963 265.469 93.8322 265.933 94.0162C266.397 94.1922 266.893 94.2801 267.421 94.2801C268.109 94.2801 268.641 94.1322 269.017 93.8362C269.393 93.5323 269.58 93.1164 269.58 92.5885C269.58 92.0686 269.393 91.6607 269.017 91.3647C268.641 91.0688 268.073 90.9208 267.313 90.9208H266.713V90.285L269.041 87.3695H264.745V86.6017H270.144V87.2136L267.769 90.201ZM275.033 95.072C274.385 95.072 273.805 94.9 273.293 94.5561C272.789 94.2122 272.393 93.7203 272.105 93.0804C271.825 92.4325 271.685 91.6727 271.685 90.8009C271.685 89.929 271.825 89.1732 272.105 88.5333C272.393 87.8854 272.789 87.3895 273.293 87.0456C273.805 86.7017 274.385 86.5297 275.033 86.5297C275.681 86.5297 276.257 86.7017 276.76 87.0456C277.272 87.3895 277.672 87.8854 277.96 88.5333C278.248 89.1732 278.392 89.929 278.392 90.8009C278.392 91.6727 278.248 92.4325 277.96 93.0804C277.672 93.7203 277.272 94.2122 276.76 94.5561C276.257 94.9 275.681 95.072 275.033 95.072ZM275.033 94.2801C275.521 94.2801 275.949 94.1442 276.317 93.8722C276.692 93.6003 276.984 93.2044 277.192 92.6845C277.4 92.1646 277.504 91.5367 277.504 90.8009C277.504 90.065 277.4 89.4371 277.192 88.9172C276.984 88.3973 276.692 88.0014 276.317 87.7295C275.949 87.4575 275.521 87.3216 275.033 87.3216C274.545 87.3216 274.113 87.4575 273.737 87.7295C273.369 88.0014 273.081 88.3973 272.873 88.9172C272.665 89.4371 272.561 90.065 272.561 90.8009C272.561 91.5367 272.665 92.1646 272.873 92.6845C273.081 93.2044 273.369 93.6003 273.737 93.8722C274.113 94.1442 274.545 94.2801 275.033 94.2801ZM285.158 91.1608H282.926V93.3443H282.17V91.1608H279.939V90.4529H282.17V88.2574H282.926V90.4529H285.158V91.1608Z" fill="white"></path> </svg> 