<?xml version="1.0" encoding="UTF-8"?> <svg xmlns="http://www.w3.org/2000/svg" width="340" height="110" viewBox="0 0 340 110" fill="none"> <rect x="0.374899" y="0.374899" width="339.25" height="109.25" rx="14.621" fill="black" fill-opacity="0.14"></rect> <rect x="0.374899" y="0.374899" width="339.25" height="109.25" rx="14.621" stroke="white" stroke-width="0.749797"></rect> <path d="M26.359 28.09C25.3191 28.09 24.3793 27.86 23.5394 27.4001C22.7096 26.9402 22.0547 26.3053 21.5747 25.4954C21.1048 24.6755 20.8699 23.7607 20.8699 22.7509C20.8699 21.741 21.1048 20.8312 21.5747 20.0213C22.0547 19.2014 22.7146 18.5615 23.5544 18.1016C24.3943 17.6417 25.3341 17.4117 26.374 17.4117C27.1538 17.4117 27.8737 17.5417 28.5336 17.8017C29.1935 18.0616 29.7534 18.4415 30.2133 18.9415L29.5085 19.6464C28.6886 18.8165 27.6538 18.4016 26.404 18.4016C25.5741 18.4016 24.8192 18.5915 24.1393 18.9715C23.4594 19.3514 22.9245 19.8713 22.5346 20.5312C22.1547 21.1911 21.9647 21.931 21.9647 22.7509C21.9647 23.5707 22.1547 24.3106 22.5346 24.9705C22.9245 25.6304 23.4594 26.1503 24.1393 26.5302C24.8192 26.9102 25.5741 27.1001 26.404 27.1001C27.6638 27.1001 28.6986 26.6802 29.5085 25.8403L30.2133 26.5452C29.7534 27.0452 29.1885 27.4301 28.5186 27.7C27.8587 27.96 27.1388 28.09 26.359 28.09ZM36.3147 20.0513C37.0545 20.0513 37.7244 20.2213 38.3243 20.5612C38.9242 20.8912 39.3942 21.3611 39.7341 21.971C40.0741 22.5809 40.244 23.2758 40.244 24.0556C40.244 24.8455 40.0741 25.5454 39.7341 26.1553C39.3942 26.7652 38.9242 27.2401 38.3243 27.5801C37.7344 27.91 37.0645 28.075 36.3147 28.075C35.6748 28.075 35.0949 27.945 34.5749 27.6851C34.065 27.4151 33.6451 27.0252 33.3151 26.5152V30.9095H32.2503V20.1113H33.2702V21.671C33.5901 21.1511 34.01 20.7512 34.5299 20.4712C35.0599 20.1913 35.6548 20.0513 36.3147 20.0513ZM36.2397 27.1301C36.7896 27.1301 37.2895 27.0052 37.7394 26.7552C38.1894 26.4952 38.5393 26.1303 38.7893 25.6604C39.0492 25.1905 39.1792 24.6555 39.1792 24.0556C39.1792 23.4557 39.0492 22.9258 38.7893 22.4659C38.5393 21.996 38.1894 21.631 37.7394 21.3711C37.2895 21.1111 36.7896 20.9811 36.2397 20.9811C35.6798 20.9811 35.1748 21.1111 34.7249 21.3711C34.285 21.631 33.935 21.996 33.6751 22.4659C33.4251 22.9258 33.3001 23.4557 33.3001 24.0556C33.3001 24.6555 33.4251 25.1905 33.6751 25.6604C33.935 26.1303 34.285 26.4952 34.7249 26.7552C35.1748 27.0052 35.6798 27.1301 36.2397 27.1301ZM45.7863 28.075C45.0265 28.075 44.3416 27.905 43.7317 27.5651C43.1218 27.2151 42.6418 26.7352 42.2919 26.1253C41.942 25.5154 41.767 24.8255 41.767 24.0556C41.767 23.2858 41.942 22.5959 42.2919 21.986C42.6418 21.3761 43.1218 20.9012 43.7317 20.5612C44.3416 20.2213 45.0265 20.0513 45.7863 20.0513C46.5462 20.0513 47.2311 20.2213 47.841 20.5612C48.4509 20.9012 48.9258 21.3761 49.2658 21.986C49.6157 22.5959 49.7907 23.2858 49.7907 24.0556C49.7907 24.8255 49.6157 25.5154 49.2658 26.1253C48.9258 26.7352 48.4509 27.2151 47.841 27.5651C47.2311 27.905 46.5462 28.075 45.7863 28.075ZM45.7863 27.1301C46.3462 27.1301 46.8462 27.0052 47.2861 26.7552C47.736 26.4952 48.086 26.1303 48.3359 25.6604C48.5859 25.1905 48.7109 24.6555 48.7109 24.0556C48.7109 23.4557 48.5859 22.9208 48.3359 22.4509C48.086 21.981 47.736 21.621 47.2861 21.3711C46.8462 21.1111 46.3462 20.9811 45.7863 20.9811C45.2264 20.9811 44.7215 21.1111 44.2716 21.3711C43.8316 21.621 43.4817 21.981 43.2217 22.4509C42.9718 22.9208 42.8468 23.4557 42.8468 24.0556C42.8468 24.6555 42.9718 25.1905 43.2217 25.6604C43.4817 26.1303 43.8316 26.4952 44.2716 26.7552C44.7215 27.0052 45.2264 27.1301 45.7863 27.1301ZM54.931 24.4906H53.1313V28H52.0664V20.1113H53.1313V23.5757H54.946L57.7205 20.1113H58.8753L55.7708 23.9357L59.1003 28H57.8405L54.931 24.4906ZM68.5454 23.8907C69.1053 24.0206 69.5352 24.2456 69.8352 24.5656C70.1451 24.8855 70.3001 25.2754 70.3001 25.7354C70.3001 26.1953 70.1401 26.6052 69.8202 26.9652C69.5102 27.3251 69.0853 27.6051 68.5454 27.805C68.0055 27.995 67.4106 28.09 66.7607 28.09C66.1908 28.09 65.6308 28.01 65.0809 27.85C64.531 27.6801 64.0511 27.4351 63.6412 27.1151L64.0011 26.3203C64.3611 26.5902 64.781 26.8002 65.2609 26.9502C65.7408 27.1001 66.2258 27.1751 66.7157 27.1751C67.4456 27.1751 68.0405 27.0402 68.5004 26.7702C68.9703 26.4902 69.2053 26.1153 69.2053 25.6454C69.2053 25.2254 69.0153 24.9005 68.6354 24.6705C68.2554 24.4306 67.7355 24.3106 67.0756 24.3106H65.7258V23.5307H67.0156C67.6055 23.5307 68.0804 23.4207 68.4404 23.2008C68.8003 22.9708 68.9803 22.6659 68.9803 22.2859C68.9803 21.866 68.7753 21.536 68.3654 21.2961C67.9655 21.0561 67.4406 20.9361 66.7907 20.9361C65.9408 20.9361 65.1009 21.1511 64.2711 21.581L63.9711 20.7562C64.911 20.2663 65.8858 20.0213 66.8956 20.0213C67.4955 20.0213 68.0355 20.1113 68.5154 20.2912C69.0053 20.4612 69.3852 20.7062 69.6552 21.0261C69.9351 21.3461 70.0751 21.716 70.0751 22.136C70.0751 22.5359 69.9351 22.8908 69.6552 23.2008C69.3852 23.5107 69.0153 23.7407 68.5454 23.8907ZM75.432 20.0513C76.4618 20.0513 77.2517 20.3112 77.8016 20.8312C78.3515 21.3411 78.6264 22.101 78.6264 23.1108V28H77.6066V26.7702C77.3666 27.1801 77.0117 27.5001 76.5418 27.73C76.0818 27.96 75.5319 28.075 74.892 28.075C74.0122 28.075 73.3123 27.865 72.7924 27.4451C72.2725 27.0252 72.0125 26.4702 72.0125 25.7804C72.0125 25.1105 72.2525 24.5706 72.7324 24.1606C73.2223 23.7507 73.9972 23.5457 75.057 23.5457H77.5616V23.0658C77.5616 22.3859 77.3716 21.871 76.9917 21.521C76.6118 21.1611 76.0569 20.9811 75.327 20.9811C74.827 20.9811 74.3471 21.0661 73.8872 21.2361C73.4273 21.3961 73.0323 21.621 72.7024 21.911L72.2225 21.1161C72.6224 20.7762 73.1023 20.5162 73.6622 20.3362C74.2221 20.1463 74.8121 20.0513 75.432 20.0513ZM75.057 27.2351C75.6569 27.2351 76.1718 27.1001 76.6018 26.8302C77.0317 26.5502 77.3516 26.1503 77.5616 25.6304V24.3406H75.087C73.7372 24.3406 73.0623 24.8105 73.0623 25.7504C73.0623 26.2103 73.2373 26.5752 73.5873 26.8452C73.9372 27.1051 74.4271 27.2351 75.057 27.2351ZM81.4611 20.1113H82.5259V26.3803L87.7901 20.1113H88.7349V28H87.6701V21.731L82.4209 28H81.4611V20.1113ZM85.0455 18.9715C84.3656 18.9715 83.8257 18.8015 83.4258 18.4615C83.0258 18.1216 82.8209 17.6417 82.8109 17.0218H83.5758C83.5857 17.4117 83.7257 17.7267 83.9957 17.9666C84.2656 18.1966 84.6156 18.3116 85.0455 18.3116C85.4754 18.3116 85.8254 18.1966 86.0953 17.9666C86.3753 17.7267 86.5203 17.4117 86.5303 17.0218H87.2951C87.2851 17.6417 87.0752 18.1216 86.6652 18.4615C86.2653 18.8015 85.7254 18.9715 85.0455 18.9715ZM100.605 20.1113V28H99.6303V21.761L96.4358 27.0402H95.9559L92.7614 21.746V28H91.7866V20.1113H92.8664L96.2109 25.7954L99.6153 20.1113H100.605ZM106.35 20.0513C107.38 20.0513 108.169 20.3112 108.719 20.8312C109.269 21.3411 109.544 22.101 109.544 23.1108V28H108.524V26.7702C108.284 27.1801 107.93 27.5001 107.46 27.73C107 27.96 106.45 28.075 105.81 28.075C104.93 28.075 104.23 27.865 103.71 27.4451C103.19 27.0252 102.93 26.4702 102.93 25.7804C102.93 25.1105 103.17 24.5706 103.65 24.1606C104.14 23.7507 104.915 23.5457 105.975 23.5457H108.479V23.0658C108.479 22.3859 108.289 21.871 107.91 21.521C107.53 21.1611 106.975 20.9811 106.245 20.9811C105.745 20.9811 105.265 21.0661 104.805 21.2361C104.345 21.3961 103.95 21.621 103.62 21.911L103.14 21.1161C103.54 20.7762 104.02 20.5162 104.58 20.3362C105.14 20.1463 105.73 20.0513 106.35 20.0513ZM105.975 27.2351C106.575 27.2351 107.09 27.1001 107.52 26.8302C107.95 26.5502 108.269 26.1503 108.479 25.6304V24.3406H106.005C104.655 24.3406 103.98 24.8105 103.98 25.7504C103.98 26.2103 104.155 26.5752 104.505 26.8452C104.855 27.1051 105.345 27.2351 105.975 27.2351Z" fill="white"></path> <path d="M23.9514 86.6017V95H23.0876V87.3695H21.108V86.6017H23.9514ZM36.7414 88.6893V95H35.9615V90.009L33.406 94.2322H33.0221L30.4666 89.997V95H29.6868V88.6893H30.5506L33.2261 93.2364L35.9495 88.6893H36.7414ZM44.6842 92.1086H39.4053C39.4533 92.7645 39.7052 93.2963 40.1611 93.7043C40.6171 94.1042 41.1929 94.3041 41.8888 94.3041C42.2807 94.3041 42.6406 94.2362 42.9686 94.1002C43.2965 93.9562 43.5805 93.7483 43.8204 93.4763L44.3003 94.0282C44.0204 94.3641 43.6684 94.6201 43.2445 94.796C42.8286 94.972 42.3687 95.06 41.8648 95.06C41.2169 95.06 40.6411 94.924 40.1372 94.6521C39.6413 94.3721 39.2533 93.9882 38.9734 93.5003C38.6934 93.0124 38.5535 92.4605 38.5535 91.8446C38.5535 91.2288 38.6854 90.6769 38.9494 90.189C39.2213 89.7011 39.5893 89.3212 40.0532 89.0492C40.5251 88.7773 41.053 88.6413 41.6368 88.6413C42.2207 88.6413 42.7446 88.7773 43.2085 89.0492C43.6724 89.3212 44.0364 89.7011 44.3003 90.189C44.5643 90.6689 44.6962 91.2208 44.6962 91.8446L44.6842 92.1086ZM41.6368 89.3731C41.029 89.3731 40.5171 89.5691 40.1012 89.961C39.6932 90.3449 39.4613 90.8488 39.4053 91.4727H43.8804C43.8244 90.8488 43.5885 90.3449 43.1725 89.961C42.7646 89.5691 42.2527 89.3731 41.6368 89.3731ZM49.2213 95.06C48.5974 95.06 48.0375 94.924 47.5416 94.6521C47.0537 94.3801 46.6698 94.0002 46.3899 93.5123C46.1099 93.0164 45.9699 92.4605 45.9699 91.8446C45.9699 91.2288 46.1099 90.6769 46.3899 90.189C46.6698 89.7011 47.0537 89.3212 47.5416 89.0492C48.0375 88.7773 48.5974 88.6413 49.2213 88.6413C49.7652 88.6413 50.2491 88.7493 50.673 88.9652C51.1049 89.1732 51.4448 89.4811 51.6928 89.889L51.0569 90.3209C50.849 90.009 50.585 89.7771 50.2651 89.6251C49.9451 89.4651 49.5972 89.3851 49.2213 89.3851C48.7654 89.3851 48.3535 89.4891 47.9855 89.6971C47.6256 89.897 47.3417 90.185 47.1337 90.5609C46.9337 90.9368 46.8338 91.3647 46.8338 91.8446C46.8338 92.3325 46.9337 92.7645 47.1337 93.1404C47.3417 93.5083 47.6256 93.7962 47.9855 94.0042C48.3535 94.2042 48.7654 94.3041 49.2213 94.3041C49.5972 94.3041 49.9451 94.2282 50.2651 94.0762C50.585 93.9242 50.849 93.6923 51.0569 93.3803L51.6928 93.8122C51.4448 94.2202 51.1049 94.5321 50.673 94.7481C50.2411 94.956 49.7572 95.06 49.2213 95.06ZM53.6365 95.06C53.4605 95.06 53.3085 94.996 53.1806 94.868C53.0606 94.7401 53.0006 94.5841 53.0006 94.4001C53.0006 94.2162 53.0606 94.0642 53.1806 93.9442C53.3085 93.8162 53.4605 93.7523 53.6365 93.7523C53.8124 93.7523 53.9644 93.8162 54.0924 93.9442C54.2204 94.0642 54.2843 94.2162 54.2843 94.4001C54.2843 94.5841 54.2204 94.7401 54.0924 94.868C53.9644 94.996 53.8124 95.06 53.6365 95.06Z" fill="white"></path> <path d="M275.951 86.6017V95H275.088V87.3695H273.108V86.6017H275.951ZM283.694 94.2322V95H277.803V94.3881L281.294 90.9688C281.734 90.5369 282.03 90.165 282.182 89.853C282.342 89.5331 282.422 89.2132 282.422 88.8932C282.422 88.3973 282.25 88.0134 281.906 87.7415C281.57 87.4615 281.086 87.3216 280.454 87.3216C279.471 87.3216 278.707 87.6335 278.163 88.2574L277.551 87.7295C277.879 87.3456 278.295 87.0496 278.799 86.8417C279.311 86.6337 279.887 86.5297 280.526 86.5297C281.382 86.5297 282.058 86.7337 282.554 87.1416C283.058 87.5415 283.31 88.0934 283.31 88.7973C283.31 89.2292 283.214 89.6451 283.022 90.045C282.83 90.4449 282.466 90.9048 281.93 91.4247L279.075 94.2322H283.694ZM295.56 88.6893V95H294.78V90.009L292.225 94.2322H291.841L289.286 89.997V95H288.506V88.6893H289.37L292.045 93.2364L294.768 88.6893H295.56ZM303.503 92.1086H298.224C298.272 92.7645 298.524 93.2963 298.98 93.7043C299.436 94.1042 300.012 94.3041 300.708 94.3041C301.1 94.3041 301.46 94.2362 301.788 94.1002C302.115 93.9562 302.399 93.7483 302.639 93.4763L303.119 94.0282C302.839 94.3641 302.487 94.6201 302.063 94.796C301.648 94.972 301.188 95.06 300.684 95.06C300.036 95.06 299.46 94.924 298.956 94.6521C298.46 94.3721 298.072 93.9882 297.792 93.5003C297.512 93.0124 297.372 92.4605 297.372 91.8446C297.372 91.2288 297.504 90.6769 297.768 90.189C298.04 89.7011 298.408 89.3212 298.872 89.0492C299.344 88.7773 299.872 88.6413 300.456 88.6413C301.04 88.6413 301.564 88.7773 302.027 89.0492C302.491 89.3212 302.855 89.7011 303.119 90.189C303.383 90.6689 303.515 91.2208 303.515 91.8446L303.503 92.1086ZM300.456 89.3731C299.848 89.3731 299.336 89.5691 298.92 89.961C298.512 90.3449 298.28 90.8488 298.224 91.4727H302.699C302.643 90.8488 302.407 90.3449 301.991 89.961C301.584 89.5691 301.072 89.3731 300.456 89.3731ZM308.04 95.06C307.416 95.06 306.856 94.924 306.361 94.6521C305.873 94.3801 305.489 94.0002 305.209 93.5123C304.929 93.0164 304.789 92.4605 304.789 91.8446C304.789 91.2288 304.929 90.6769 305.209 90.189C305.489 89.7011 305.873 89.3212 306.361 89.0492C306.856 88.7773 307.416 88.6413 308.04 88.6413C308.584 88.6413 309.068 88.7493 309.492 88.9652C309.924 89.1732 310.264 89.4811 310.512 89.889L309.876 90.3209C309.668 90.009 309.404 89.7771 309.084 89.6251C308.764 89.4651 308.416 89.3851 308.04 89.3851C307.584 89.3851 307.172 89.4891 306.804 89.6971C306.445 89.897 306.161 90.185 305.953 90.5609C305.753 90.9368 305.653 91.3647 305.653 91.8446C305.653 92.3325 305.753 92.7645 305.953 93.1404C306.161 93.5083 306.445 93.7962 306.804 94.0042C307.172 94.2042 307.584 94.3041 308.04 94.3041C308.416 94.3041 308.764 94.2282 309.084 94.0762C309.404 93.9242 309.668 93.6923 309.876 93.3803L310.512 93.8122C310.264 94.2202 309.924 94.5321 309.492 94.7481C309.06 94.956 308.576 95.06 308.04 95.06ZM312.455 95.06C312.279 95.06 312.127 94.996 312 94.868C311.88 94.7401 311.82 94.5841 311.82 94.4001C311.82 94.2162 311.88 94.0642 312 93.9442C312.127 93.8162 312.279 93.7523 312.455 93.7523C312.631 93.7523 312.783 93.8162 312.911 93.9442C313.039 94.0642 313.103 94.2162 313.103 94.4001C313.103 94.5841 313.039 94.7401 312.911 94.868C312.783 94.996 312.631 95.06 312.455 95.06Z" fill="white"></path> </svg> 