<?xml version="1.0" encoding="UTF-8"?> <svg xmlns="http://www.w3.org/2000/svg" width="120" height="120" viewBox="0 0 120 120" fill="none"> <g filter="url(#filter0_i)"> <path d="M105 0H15C6.71573 0 0 6.71573 0 15V105C0 113.284 6.71573 120 15 120H105C113.284 120 120 113.284 120 105V15C120 6.71573 113.284 0 105 0Z" fill="#384E59" fill-opacity="0.48"></path> <path d="M105 0H15C6.71573 0 0 6.71573 0 15V105C0 113.284 6.71573 120 15 120H105C113.284 120 120 113.284 120 105V15C120 6.71573 113.284 0 105 0Z" fill="url(#paint0_linear)" fill-opacity="0.1"></path> </g> <g filter="url(#filter1_d)"> <path d="M41 34H75C77.7614 34 80 36.2386 80 39V81C80 83.7614 77.7614 86 75 86H41V34Z" fill="white"></path> </g> <path d="M59.6538 71.5081C59.5615 71.2543 59.5154 70.5389 59.5385 69.9389C59.6077 68.3466 59.5846 68.3235 59.0769 69.085C58.8231 69.4773 58.6154 70.1235 58.6154 70.5389C58.6154 71.485 58.0846 71.4389 57.9692 70.4927C57.9 70.0312 58.1077 69.5697 58.6154 68.9466C59.1231 68.3004 59.2385 68.0466 58.9846 68.0466C58.5923 68.0466 57.4385 69.085 57.0462 69.8004C56.8154 70.2158 56.7923 70.2158 56.6308 69.8235C56.3769 69.1312 56.9769 68.3697 58.1769 67.862C59.4692 67.285 59.6538 66.662 58.8462 65.785C58.2692 65.185 58.1769 65.162 57.5077 65.6466C57.1615 65.8773 57 66.2235 57 66.7773C57 67.6543 56.6077 68.0004 55.0385 68.3927C54.3692 68.5543 54.0923 68.762 54 69.1773C53.8846 69.662 53.8385 69.685 53.5385 69.385C53.3538 69.2004 53.0077 68.9927 52.7769 68.9004C52.4769 68.785 52.3846 68.5312 52.4077 68.0004C52.4769 67.1466 50.2385 62.2773 49.8 62.2773C49.4538 62.2773 48 61.1466 48 60.8697C48 60.7543 48.1385 60.662 48.3231 60.662C48.4846 60.662 48.6923 60.4543 48.7615 60.2004C48.8538 59.8312 49.0385 59.762 49.7308 59.8312C50.5615 59.9004 51.0923 60.3158 50.8615 60.7081C50.7923 60.8004 50.7 61.0773 50.6538 61.285C50.6077 61.5158 50.5385 61.8158 50.5154 61.9312C50.4 62.2543 52.8923 67.3543 53.1692 67.3543C53.2846 67.3543 53.5846 67.5158 53.7923 67.7235C54.1615 68.0466 54.3231 68.0697 54.9231 67.8158C55.7308 67.4697 55.7538 67.4235 55.1538 66.662C54.3462 65.6466 54.7385 64.3773 55.8692 64.3543C56.7 64.3543 56.6538 61.7235 55.8231 61.4697C55.2 61.262 54.9231 61.5158 54.9231 62.2543C54.9231 62.9466 54.3 63.662 53.7 63.662C53.4923 63.662 53.3077 63.5004 53.3077 63.3158C53.3077 63.1312 53.4 62.9697 53.5154 62.9697C53.7923 62.9697 54.4154 62.0004 54.6 61.262C54.8077 60.385 54.2769 60.4773 53.3308 61.4697C52.4769 62.3697 51.6923 62.5543 51.6923 61.8158C51.6923 61.562 51.8308 61.3543 51.9923 61.3543C52.4308 61.3543 53.1231 60.4312 52.9846 60.062C52.8923 59.785 52.7538 59.785 52.3846 59.9697C52.1308 60.1081 51.8077 60.1543 51.6923 60.085C51.2769 59.8312 51.4615 59.3004 51.9923 59.2312C52.2692 59.185 52.5 59.0004 52.5 58.8158C52.5 58.562 52.1538 58.4466 51.1154 58.4004C49.5462 58.3312 48.8538 58.0543 48.3462 57.2697C47.9769 56.7389 48 56.7389 48.6231 56.8773C48.9692 56.9697 49.3846 57.1312 49.5462 57.2466C49.6846 57.362 50.4 57.5235 51.0923 57.5927C52.8923 57.7773 52.8462 57.2235 51.0231 56.6466C49.5692 56.185 48 54.985 48 54.362C48 53.762 48.4846 53.9004 49.5 54.7773C50.0077 55.2158 50.5385 55.585 50.7 55.585C50.8385 55.585 51 55.6543 51.0462 55.7697C51.0923 55.862 51.4385 56.1158 51.8538 56.3235C52.4538 56.6235 52.6385 56.6466 52.8462 56.3927C53.0308 56.185 52.9385 56.0004 52.4769 55.7004C50.6538 54.5004 48.6923 52.4004 48.6923 51.6389C48.6923 50.6697 49.2231 50.6927 50.1 51.7312C50.5385 52.262 51.5538 53.3927 52.3615 54.2466C54.5308 56.5543 54.5538 56.5773 54.1846 57.5697C53.9308 58.3081 53.9308 58.4235 54.3462 58.7235C54.5769 58.9081 55.1308 59.0466 55.5462 59.0466C56.2615 59.0466 56.2846 59.0004 56.1692 58.3543C56.0308 57.7543 56.1 57.662 56.4923 57.662C57.6692 57.662 58.0385 56.3004 57.2308 55.0081C56.6769 54.1312 56.1462 53.8543 55.7077 54.2235C55.4538 54.4312 55.3846 54.4081 55.3846 54.085C55.3846 53.785 55.2462 53.7389 54.6923 53.8543C54.1385 53.9697 54 53.9235 54 53.6466C54 53.4158 54.2769 53.2081 54.6692 53.1389C55.0615 53.0466 55.4077 52.862 55.4769 52.6773C55.5692 52.4466 56.0308 52.3543 57.0923 52.3543C58.3615 52.3543 58.5692 52.4004 58.4538 52.7235C58.3846 52.9081 58.5462 53.3697 58.8 53.7389C59.0769 54.085 59.4 54.8697 59.5615 55.4466C59.8615 56.6697 60.1154 56.6466 60.4846 55.3081C60.6231 54.8004 60.9462 54.085 61.2 53.7158C61.4538 53.3697 61.6154 52.9081 61.5462 52.7235C61.4308 52.4004 61.6154 52.3543 62.8615 52.3543C63.8308 52.3543 64.4077 52.4697 64.5923 52.6773C64.7538 52.862 65.1231 53.0697 65.4231 53.1389C65.7462 53.2312 66 53.4389 66 53.6466C66 53.9235 65.8385 53.9697 65.3077 53.8543C64.7538 53.7389 64.6154 53.785 64.6154 54.085C64.6154 54.4081 64.5462 54.4312 64.2923 54.2235C63.8538 53.8543 63.3231 54.1312 62.7692 55.0081C61.9615 56.3004 62.3308 57.662 63.5077 57.662C63.9 57.662 63.9692 57.7543 63.8538 58.3543C63.7154 59.0004 63.7385 59.0466 64.4538 59.0466C64.8692 59.0466 65.4231 58.9081 65.6538 58.7235C66.0692 58.4235 66.0692 58.3081 65.8154 57.5466C65.4692 56.6004 65.4462 56.6466 67.0385 55.0081C68.0769 53.9697 69.9692 51.7773 70.4538 51.1081C70.8462 50.5773 71.3077 50.8081 71.3077 51.5004C71.3077 52.3312 70.5923 53.2081 68.3769 55.0773C67.3615 55.9081 67.0154 56.7158 67.8 56.3927C68.0077 56.3004 68.3769 56.162 68.6077 56.1158C68.8154 56.0466 69 55.9081 69 55.7927C69 55.6773 69.1385 55.585 69.3 55.585C69.4615 55.585 69.9923 55.2158 70.5 54.7773C71.5154 53.9004 72 53.762 72 54.362C72 54.985 70.4308 56.185 68.9769 56.6466C67.1538 57.2235 67.1077 57.7773 68.9077 57.5927C69.6 57.5235 70.3154 57.362 70.4538 57.2466C70.6154 57.1312 71.0308 56.9697 71.4 56.8773C72.0231 56.7158 72.0462 56.7389 71.7692 57.1312C71.0077 58.1235 70.5231 58.3543 69.0462 58.3543C67.8 58.3543 67.5923 58.4004 67.6615 58.7466C67.7538 59.3004 69.4846 59.762 70.4308 59.5081C71.4 59.2081 71.5154 59.3927 70.8462 60.085C70.2231 60.7543 69.2077 60.8235 68.3077 60.3158C67.6385 59.9235 66.9231 59.8773 66.9231 60.2004C66.9231 60.5466 67.6846 61.3543 67.9846 61.3543C68.1462 61.3543 68.4923 61.562 68.7923 61.8158L69.3462 62.2543L68.3769 62.2773C67.6154 62.2773 67.2923 62.1389 66.7615 61.585C66.4154 61.2158 65.9769 60.8927 65.8385 60.8927C65.3308 60.8927 65.5154 61.9543 66.1154 62.6004C66.8077 63.3389 66.8538 63.662 66.2769 63.662C65.6769 63.662 65.0769 62.9466 65.0769 62.2081C65.0769 61.5158 64.7769 61.262 64.1769 61.4697C63.3462 61.7235 63.3 64.3543 64.1308 64.3543C65.2615 64.3773 65.6538 65.6466 64.8462 66.662C64.5923 66.985 64.3846 67.3081 64.3846 67.3773C64.3846 67.7697 66 68.1389 67.5462 68.0697C69.2077 68.0235 69.5077 68.1389 68.9538 68.6927C68.4 69.2466 66.2308 68.9235 63.7615 67.9081C63.1154 67.6312 63 67.4697 63 66.8004C63 66.2235 62.8385 65.9004 62.4923 65.6466C61.8231 65.162 61.7308 65.185 61.1538 65.785C60.3462 66.662 60.5308 67.285 61.8231 67.862C63.0231 68.3697 63.6231 69.1312 63.3692 69.8235C63.2077 70.2158 63.1846 70.2158 62.9538 69.8004C62.5385 69.085 61.4077 68.0466 61.0154 68.0466C60.7385 68.0466 60.7846 68.2081 61.2462 68.762C61.9154 69.5466 62.1923 70.4004 61.9846 70.9312C61.7538 71.5543 61.3846 71.3004 61.3846 70.5389C61.3846 70.1235 61.1769 69.4773 60.9231 69.085C60.4154 68.3235 60.3923 68.3466 60.4615 69.9389C60.5077 71.1389 60.3 71.9697 60 71.9697C59.8846 71.9697 59.7231 71.762 59.6538 71.5081ZM60.4615 64.8389C60.6231 64.4927 60.9923 64.3543 61.8 64.3081L62.8846 64.2389L62.9538 61.3081L63.0231 58.3543H60H56.9769L57.0462 61.3081L57.1154 64.2389L58.2 64.3081C59.0077 64.3543 59.3769 64.4927 59.5385 64.8389C59.6769 65.0697 59.8846 65.2773 60 65.2773C60.1154 65.2773 60.3231 65.0697 60.4615 64.8389Z" fill="#2D536E"></path> <path d="M59.0532 63.4773C59.1917 63.4311 59.307 63.2696 59.307 63.1081C59.307 62.9004 59.6532 62.8081 60.3455 62.8311C60.9224 62.8311 61.384 62.9234 61.384 63.0158C61.384 63.1081 61.2224 63.2004 61.0378 63.2004C60.8532 63.2004 60.6917 63.2927 60.6917 63.4081C60.6917 63.5465 60.2763 63.6158 59.7455 63.5927C59.2147 63.5696 58.9147 63.5234 59.0532 63.4773Z" fill="#2D536E"></path> <path d="M59.076 61.6082C59.076 61.2851 59.1914 61.1697 59.4222 61.262C59.6299 61.3543 59.7683 61.262 59.7683 61.0543C59.7683 60.8697 59.4452 60.5928 59.0529 60.4543C58.4299 60.2466 58.3606 60.1543 58.6145 59.8543C58.776 59.6466 59.0529 59.5312 59.1914 59.6005C59.3529 59.6466 59.6068 59.5774 59.7452 59.4389C59.9299 59.2543 59.9991 59.2774 59.9991 59.5774C59.9991 60.0158 60.2529 60.0851 60.5991 59.7389C60.7145 59.6235 60.9452 59.6005 61.1529 59.7389C61.4299 59.9005 61.4299 60.0158 61.1991 60.2466C60.8529 60.5928 60.8299 61.3543 61.1529 61.3543C61.3145 61.3543 61.2914 61.4697 61.1299 61.6543C60.9914 61.7928 60.4606 61.9543 59.976 62.0005C59.2145 62.0466 59.076 61.9774 59.076 61.6082ZM60.2529 60.362C60.0683 60.1774 59.9991 60.2928 59.9991 60.8005C60.0222 61.3774 60.0452 61.4235 60.2529 61.0543C60.4376 60.7312 60.4376 60.5466 60.2529 60.362Z" fill="#2D536E"></path> <path d="M66.9468 67.1469C66.693 66.9854 66.7391 66.893 67.1314 66.6854C67.5468 66.4546 67.6161 66.4777 67.6161 66.893C67.6161 67.4007 67.4545 67.47 66.9468 67.1469Z" fill="#2D536E"></path> <path d="M68.6066 67.0085C68.5374 66.8008 68.5374 66.5931 68.6066 66.5239C68.8143 66.3162 69.2297 66.6623 69.2297 67.0316C69.2297 67.47 68.7912 67.4469 68.6066 67.0085Z" fill="#2D536E"></path> <path d="M52.43 52.1928C52.5454 51.8005 52.4761 51.662 52.1992 51.662C51.9223 51.662 51.8992 51.5928 52.1069 51.3851C52.2915 51.2005 52.2915 50.9928 52.1069 50.6697C51.9454 50.3236 51.9454 50.162 52.1761 50.0236C52.6377 49.7236 52.8454 49.7697 52.7069 50.139C52.6377 50.3005 52.7531 50.6005 52.9377 50.8082C53.4454 51.2928 53.3992 51.7313 52.7992 52.262C52.3146 52.7005 52.3146 52.7005 52.43 52.1928Z" fill="#2D536E"></path> <path d="M67.3848 51.685C67.2233 51.385 67.2233 51.0388 67.3848 50.6234C67.7309 49.7004 67.6617 49.3773 67.0386 49.0773C66.3002 48.7311 66.1386 48.9388 66.1848 50.0234C66.2309 50.5311 66.1617 50.9927 66.0694 51.0388C65.9771 51.108 65.8617 50.6004 65.8386 49.9311C65.7925 48.8465 65.8386 48.6619 66.254 48.5465C66.5771 48.4311 66.9002 48.5465 67.2233 48.8465C67.5002 49.1004 67.8925 49.3542 68.0771 49.4004C68.4925 49.5388 68.5617 51.1542 68.1463 51.3157C67.9848 51.3619 67.9156 51.5696 67.9848 51.7773C68.1925 52.285 67.6848 52.2157 67.3848 51.685Z" fill="#2D536E"></path> <path d="M54.0688 50.3929C54.115 49.5391 54.0688 49.4698 53.538 49.5391C53.0073 49.5852 52.9842 49.5621 53.3303 49.216C53.6303 48.916 53.815 48.8929 54.2073 49.1006C54.6919 49.3775 54.8996 50.2775 54.4842 50.2775C54.3688 50.2775 54.2073 50.5083 54.1611 50.8083C54.0919 51.0852 54.0688 50.9006 54.0688 50.3929Z" fill="#2D536E"></path> <path d="M55.5468 51.0391C55.2007 50.716 55.4084 49.8391 55.8468 49.7006C56.1007 49.6083 56.3314 49.3314 56.3314 49.0544C56.3545 48.5929 56.3776 48.5698 56.4699 49.0083C56.5391 49.2621 56.793 49.6083 57.0468 49.7698C57.3238 49.9775 57.4391 50.2314 57.3468 50.5314C57.2314 50.8775 57.3238 50.9698 57.7853 50.9698C58.593 50.9698 58.9853 50.2314 58.6161 49.3314C58.4545 48.9621 58.3853 48.5006 58.4776 48.2929C58.6853 47.7621 59.3776 47.9929 59.5391 48.6621C59.7238 49.4006 60.2776 49.4006 60.4622 48.6621C60.6238 47.9929 61.3161 47.7621 61.5238 48.2929C61.6161 48.5006 61.5468 48.9621 61.3853 49.3314C61.1776 49.8391 61.1776 50.1391 61.3853 50.4852C61.6853 51.0621 62.8391 51.1775 62.6314 50.6237C62.5391 50.4391 62.6314 50.116 62.793 49.9083C63.0468 49.5852 63.1161 49.6083 63.3007 50.0929C63.4853 50.5775 63.5084 50.6006 63.7853 50.2314C64.2468 49.6083 64.6622 49.7237 64.5699 50.4621C64.5007 51.0621 64.4314 51.0852 63.0699 51.1544C61.7776 51.2237 61.5468 51.1544 61.0391 50.6237C60.2776 49.8852 59.7238 49.8852 58.9853 50.6237C58.5007 51.1083 58.1776 51.2006 57.0468 51.2006C56.3084 51.2006 55.6161 51.1314 55.5468 51.0391Z" fill="#2D536E"></path> <defs> <filter id="filter0_i" x="0" y="0" width="121" height="121" filterUnits="userSpaceOnUse" color-interpolation-filters="sRGB"> <feFlood flood-opacity="0" result="BackgroundImageFix"></feFlood> <feBlend mode="normal" in="SourceGraphic" in2="BackgroundImageFix" result="shape"></feBlend> <feColorMatrix in="SourceAlpha" type="matrix" values="0 0 0 0 0 0 0 0 0 0 0 0 0 0 0 0 0 0 127 0" result="hardAlpha"></feColorMatrix> <feOffset dx="1" dy="1"></feOffset> <feGaussianBlur stdDeviation="2"></feGaussianBlur> <feComposite in2="hardAlpha" operator="arithmetic" k2="-1" k3="1"></feComposite> <feColorMatrix type="matrix" values="0 0 0 0 1 0 0 0 0 1 0 0 0 0 1 0 0 0 0.05 0"></feColorMatrix> <feBlend mode="normal" in2="shape" result="effect1_innerShadow"></feBlend> </filter> <filter id="filter1_d" x="11" y="4" width="99" height="112" filterUnits="userSpaceOnUse" color-interpolation-filters="sRGB"> <feFlood flood-opacity="0" result="BackgroundImageFix"></feFlood> <feColorMatrix in="SourceAlpha" type="matrix" values="0 0 0 0 0 0 0 0 0 0 0 0 0 0 0 0 0 0 127 0"></feColorMatrix> <feOffset></feOffset> <feGaussianBlur stdDeviation="15"></feGaussianBlur> <feColorMatrix type="matrix" values="0 0 0 0 0.148125 0 0 0 0 0.634962 0 0 0 0 0.9875 0 0 0 0.49 0"></feColorMatrix> <feBlend mode="normal" in2="BackgroundImageFix" result="effect1_dropShadow"></feBlend> <feBlend mode="normal" in="SourceGraphic" in2="effect1_dropShadow" result="shape"></feBlend> </filter> <linearGradient id="paint0_linear" x1="60" y1="0" x2="60" y2="120" gradientUnits="userSpaceOnUse"> <stop stop-color="#00A3FF"></stop> <stop offset="1" stop-color="#26A2FC" stop-opacity="0"></stop> </linearGradient> </defs> </svg> 