<?xml version="1.0" encoding="UTF-8"?> <svg xmlns="http://www.w3.org/2000/svg" width="380" height="542" viewBox="0 0 380 542" fill="none"> <g clip-path="url(#clip0)"> <rect width="380" height="542" rx="40" fill="#384E59" fill-opacity="0.48"></rect> <rect x="20" y="204" width="340" height="318" rx="30" fill="white" fill-opacity="0.04"></rect> <path d="M46.18 120.36V125.9H43.18V123H33.3V125.9H30.3L30.32 120.36H30.88C31.72 120.333 32.3133 119.72 32.66 118.52C33.0067 117.32 33.22 115.607 33.3 113.38L33.46 109H44.22V120.36H46.18ZM36.16 113.68C36.0933 115.347 35.9533 116.747 35.74 117.88C35.5267 119 35.2 119.827 34.76 120.36H41.02V111.64H36.22L36.16 113.68ZM58.4411 112.24V123H55.3211V114.8H51.9211L51.8211 116.7C51.7678 118.113 51.6344 119.287 51.4211 120.22C51.2078 121.153 50.8611 121.887 50.3811 122.42C49.9011 122.953 49.2344 123.22 48.3811 123.22C47.9278 123.22 47.3878 123.14 46.7611 122.98L46.9211 120.42C47.1344 120.447 47.2878 120.46 47.3811 120.46C47.8478 120.46 48.1944 120.293 48.4211 119.96C48.6611 119.613 48.8211 119.18 48.9011 118.66C48.9811 118.127 49.0411 117.427 49.0811 116.56L49.2411 112.24H58.4411ZM71.0014 112.24V123H68.2214V119.92H65.9214L63.8814 123H60.5614L63.0214 119.48C62.2747 119.187 61.7014 118.767 61.3014 118.22C60.9147 117.66 60.7214 116.987 60.7214 116.2C60.7214 114.933 61.1747 113.96 62.0814 113.28C63.0014 112.587 64.2614 112.24 65.8614 112.24H71.0014ZM65.9214 114.78C65.2547 114.78 64.7481 114.9 64.4014 115.14C64.0681 115.38 63.9014 115.767 63.9014 116.3C63.9014 116.833 64.0614 117.227 64.3814 117.48C64.7147 117.72 65.2147 117.84 65.8814 117.84H68.2214V114.78H65.9214ZM90.3641 112.24V123H87.2441V114.8H82.7641V123H79.6641V112.24H90.3641ZM98.3955 123.16C97.2621 123.16 96.2421 122.927 95.3355 122.46C94.4421 121.98 93.7421 121.32 93.2355 120.48C92.7288 119.64 92.4755 118.687 92.4755 117.62C92.4755 116.553 92.7288 115.6 93.2355 114.76C93.7421 113.92 94.4421 113.267 95.3355 112.8C96.2421 112.32 97.2621 112.08 98.3955 112.08C99.5288 112.08 100.542 112.32 101.435 112.8C102.329 113.267 103.029 113.92 103.535 114.76C104.042 115.6 104.295 116.553 104.295 117.62C104.295 118.687 104.042 119.64 103.535 120.48C103.029 121.32 102.329 121.98 101.435 122.46C100.542 122.927 99.5288 123.16 98.3955 123.16ZM98.3955 120.6C99.1955 120.6 99.8488 120.333 100.355 119.8C100.875 119.253 101.135 118.527 101.135 117.62C101.135 116.713 100.875 115.993 100.355 115.46C99.8488 114.913 99.1955 114.64 98.3955 114.64C97.5955 114.64 96.9355 114.913 96.4155 115.46C95.8955 115.993 95.6355 116.713 95.6355 117.62C95.6355 118.527 95.8955 119.253 96.4155 119.8C96.9355 120.333 97.5955 120.6 98.3955 120.6ZM116.605 112.24V123H113.485V114.8H110.085L109.985 116.7C109.932 118.113 109.798 119.287 109.585 120.22C109.372 121.153 109.025 121.887 108.545 122.42C108.065 122.953 107.398 123.22 106.545 123.22C106.092 123.22 105.552 123.14 104.925 122.98L105.085 120.42C105.298 120.447 105.452 120.46 105.545 120.46C106.012 120.46 106.358 120.293 106.585 119.96C106.825 119.613 106.985 119.18 107.065 118.66C107.145 118.127 107.205 117.427 107.245 116.56L107.405 112.24H116.605ZM130.385 112.24L125.525 123.66C125.032 124.9 124.419 125.773 123.685 126.28C122.965 126.787 122.092 127.04 121.065 127.04C120.505 127.04 119.952 126.953 119.405 126.78C118.859 126.607 118.412 126.367 118.065 126.06L119.205 123.84C119.445 124.053 119.719 124.22 120.025 124.34C120.345 124.46 120.659 124.52 120.965 124.52C121.392 124.52 121.739 124.413 122.005 124.2C122.272 124 122.512 123.66 122.725 123.18L122.765 123.08L118.105 112.24H121.325L124.345 119.54L127.385 112.24H130.385ZM141.571 112.24V123H138.451V119C137.544 119.453 136.544 119.68 135.451 119.68C133.997 119.68 132.897 119.353 132.151 118.7C131.417 118.033 131.051 117.007 131.051 115.62V112.24H134.171V115.42C134.171 116.073 134.337 116.547 134.671 116.84C135.017 117.133 135.511 117.28 136.151 117.28C136.964 117.28 137.731 117.107 138.451 116.76V112.24H141.571ZM155.026 117.66C155.026 117.7 155.006 117.98 154.966 118.5H146.826C146.973 119.167 147.32 119.693 147.866 120.08C148.413 120.467 149.093 120.66 149.906 120.66C150.466 120.66 150.96 120.58 151.386 120.42C151.826 120.247 152.233 119.98 152.606 119.62L154.266 121.42C153.253 122.58 151.773 123.16 149.826 123.16C148.613 123.16 147.54 122.927 146.606 122.46C145.673 121.98 144.953 121.32 144.446 120.48C143.94 119.64 143.686 118.687 143.686 117.62C143.686 116.567 143.933 115.62 144.426 114.78C144.933 113.927 145.62 113.267 146.486 112.8C147.366 112.32 148.346 112.08 149.426 112.08C150.48 112.08 151.433 112.307 152.286 112.76C153.14 113.213 153.806 113.867 154.286 114.72C154.78 115.56 155.026 116.54 155.026 117.66ZM149.446 114.44C148.74 114.44 148.146 114.64 147.666 115.04C147.186 115.44 146.893 115.987 146.786 116.68H152.086C151.98 116 151.686 115.46 151.206 115.06C150.726 114.647 150.14 114.44 149.446 114.44ZM157.418 112.24H160.518V116.44H165.198V112.24H168.318V123H165.198V118.98H160.518V123H157.418V112.24ZM171.305 112.24H174.405V118.64L179.645 112.24H182.505V123H179.405V116.6L174.185 123H171.305V112.24ZM195.064 112.24V123H192.284V119.92H189.984L187.944 123H184.624L187.084 119.48C186.337 119.187 185.764 118.767 185.364 118.22C184.977 117.66 184.784 116.987 184.784 116.2C184.784 114.933 185.237 113.96 186.144 113.28C187.064 112.587 188.324 112.24 189.924 112.24H195.064ZM189.984 114.78C189.317 114.78 188.811 114.9 188.464 115.14C188.131 115.38 187.964 115.767 187.964 116.3C187.964 116.833 188.124 117.227 188.444 117.48C188.777 117.72 189.277 117.84 189.944 117.84H192.284V114.78H189.984ZM210.707 117.4C211.347 117.6 211.84 117.907 212.187 118.32C212.547 118.733 212.727 119.227 212.727 119.8C212.727 120.48 212.493 121.08 212.027 121.6C211.56 122.107 210.92 122.5 210.107 122.78C209.293 123.06 208.373 123.2 207.347 123.2C206.507 123.2 205.68 123.113 204.867 122.94C204.053 122.767 203.3 122.507 202.607 122.16L203.447 119.98C204.58 120.527 205.833 120.8 207.207 120.8C207.94 120.8 208.513 120.693 208.927 120.48C209.353 120.253 209.567 119.94 209.567 119.54C209.567 119.193 209.42 118.933 209.127 118.76C208.833 118.573 208.407 118.48 207.847 118.48H205.647V116.54H207.567C208.113 116.54 208.533 116.453 208.827 116.28C209.12 116.107 209.267 115.853 209.267 115.52C209.267 115.173 209.08 114.907 208.707 114.72C208.347 114.533 207.827 114.44 207.147 114.44C206.107 114.44 204.973 114.687 203.747 115.18L202.987 113.02C204.48 112.367 205.933 112.04 207.347 112.04C208.32 112.04 209.187 112.16 209.947 112.4C210.72 112.64 211.327 112.993 211.767 113.46C212.207 113.913 212.427 114.447 212.427 115.06C212.427 115.567 212.273 116.027 211.967 116.44C211.66 116.84 211.24 117.16 210.707 117.4ZM219.176 112.08C220.843 112.08 222.123 112.48 223.016 113.28C223.909 114.067 224.356 115.26 224.356 116.86V123H221.436V121.66C220.849 122.66 219.756 123.16 218.156 123.16C217.329 123.16 216.609 123.02 215.996 122.74C215.396 122.46 214.936 122.073 214.616 121.58C214.296 121.087 214.136 120.527 214.136 119.9C214.136 118.9 214.509 118.113 215.256 117.54C216.016 116.967 217.183 116.68 218.756 116.68H221.236C221.236 116 221.029 115.48 220.616 115.12C220.203 114.747 219.583 114.56 218.756 114.56C218.183 114.56 217.616 114.653 217.056 114.84C216.509 115.013 216.043 115.253 215.656 115.56L214.536 113.38C215.123 112.967 215.823 112.647 216.636 112.42C217.463 112.193 218.309 112.08 219.176 112.08ZM218.936 121.06C219.469 121.06 219.943 120.94 220.356 120.7C220.769 120.447 221.063 120.08 221.236 119.6V118.5H219.096C217.816 118.5 217.176 118.92 217.176 119.76C217.176 120.16 217.329 120.48 217.636 120.72C217.956 120.947 218.389 121.06 218.936 121.06ZM227.066 112.24H230.166V118.64L235.406 112.24H238.266V123H235.166V116.6L229.946 123H227.066V112.24ZM232.466 111.08C230.12 111.08 228.94 110.047 228.926 107.98H230.966C230.98 108.447 231.106 108.813 231.346 109.08C231.6 109.333 231.966 109.46 232.446 109.46C232.926 109.46 233.293 109.333 233.546 109.08C233.813 108.813 233.946 108.447 233.946 107.98H236.026C236.013 110.047 234.826 111.08 232.466 111.08ZM251.766 123V116.56L248.546 121.96H247.226L244.086 116.54V123H241.266V112.24H244.526L247.966 118.46L251.626 112.24H254.546L254.586 123H251.766ZM261.754 112.08C263.421 112.08 264.701 112.48 265.594 113.28C266.488 114.067 266.934 115.26 266.934 116.86V123H264.014V121.66C263.428 122.66 262.334 123.16 260.734 123.16C259.908 123.16 259.188 123.02 258.574 122.74C257.974 122.46 257.514 122.073 257.194 121.58C256.874 121.087 256.714 120.527 256.714 119.9C256.714 118.9 257.088 118.113 257.834 117.54C258.594 116.967 259.761 116.68 261.334 116.68H263.814C263.814 116 263.608 115.48 263.194 115.12C262.781 114.747 262.161 114.56 261.334 114.56C260.761 114.56 260.194 114.653 259.634 114.84C259.088 115.013 258.621 115.253 258.234 115.56L257.114 113.38C257.701 112.967 258.401 112.647 259.214 112.42C260.041 112.193 260.888 112.08 261.754 112.08ZM261.514 121.06C262.048 121.06 262.521 120.94 262.934 120.7C263.348 120.447 263.641 120.08 263.814 119.6V118.5H261.674C260.394 118.5 259.754 118.92 259.754 119.76C259.754 120.16 259.908 120.48 260.214 120.72C260.534 120.947 260.968 121.06 261.514 121.06ZM286.009 112.24V123H282.889V114.8H278.409V123H275.309V112.24H286.009ZM294.04 123.16C292.907 123.16 291.887 122.927 290.98 122.46C290.087 121.98 289.387 121.32 288.88 120.48C288.373 119.64 288.12 118.687 288.12 117.62C288.12 116.553 288.373 115.6 288.88 114.76C289.387 113.92 290.087 113.267 290.98 112.8C291.887 112.32 292.907 112.08 294.04 112.08C295.173 112.08 296.187 112.32 297.08 112.8C297.973 113.267 298.673 113.92 299.18 114.76C299.687 115.6 299.94 116.553 299.94 117.62C299.94 118.687 299.687 119.64 299.18 120.48C298.673 121.32 297.973 121.98 297.08 122.46C296.187 122.927 295.173 123.16 294.04 123.16ZM294.04 120.6C294.84 120.6 295.493 120.333 296 119.8C296.52 119.253 296.78 118.527 296.78 117.62C296.78 116.713 296.52 115.993 296 115.46C295.493 114.913 294.84 114.64 294.04 114.64C293.24 114.64 292.58 114.913 292.06 115.46C291.54 115.993 291.28 116.713 291.28 117.62C291.28 118.527 291.54 119.253 292.06 119.8C292.58 120.333 293.24 120.6 294.04 120.6ZM313.99 120.44V125.32H311.09V123H303.53V125.32H300.63V120.44H301.07C301.736 120.427 302.196 120.033 302.45 119.26C302.703 118.487 302.863 117.387 302.93 115.96L303.07 112.24H312.45V120.44H313.99ZM305.75 116.18C305.71 117.273 305.623 118.167 305.49 118.86C305.37 119.553 305.136 120.08 304.79 120.44H309.33V114.8H305.81L305.75 116.18ZM40.12 146.8H34.6V155H31.5V144.24H40.12V146.8ZM46.3642 155.16C45.2309 155.16 44.2109 154.927 43.3042 154.46C42.4109 153.98 41.7109 153.32 41.2042 152.48C40.6976 151.64 40.4442 150.687 40.4442 149.62C40.4442 148.553 40.6976 147.6 41.2042 146.76C41.7109 145.92 42.4109 145.267 43.3042 144.8C44.2109 144.32 45.2309 144.08 46.3642 144.08C47.4976 144.08 48.5109 144.32 49.4042 144.8C50.2976 145.267 50.9976 145.92 51.5042 146.76C52.0109 147.6 52.2642 148.553 52.2642 149.62C52.2642 150.687 52.0109 151.64 51.5042 152.48C50.9976 153.32 50.2976 153.98 49.4042 154.46C48.5109 154.927 47.4976 155.16 46.3642 155.16ZM46.3642 152.6C47.1642 152.6 47.8176 152.333 48.3242 151.8C48.8442 151.253 49.1042 150.527 49.1042 149.62C49.1042 148.713 48.8442 147.993 48.3242 147.46C47.8176 146.913 47.1642 146.64 46.3642 146.64C45.5642 146.64 44.9042 146.913 44.3842 147.46C43.8642 147.993 43.6042 148.713 43.6042 149.62C43.6042 150.527 43.8642 151.253 44.3842 151.8C44.9042 152.333 45.5642 152.6 46.3642 152.6ZM59.5302 155.16C58.3835 155.16 57.3502 154.927 56.4302 154.46C55.5235 153.98 54.8102 153.32 54.2902 152.48C53.7835 151.64 53.5302 150.687 53.5302 149.62C53.5302 148.553 53.7835 147.6 54.2902 146.76C54.8102 145.92 55.5235 145.267 56.4302 144.8C57.3502 144.32 58.3835 144.08 59.5302 144.08C60.6635 144.08 61.6502 144.32 62.4902 144.8C63.3435 145.267 63.9635 145.94 64.3502 146.82L61.9302 148.12C61.3702 147.133 60.5635 146.64 59.5102 146.64C58.6968 146.64 58.0235 146.907 57.4902 147.44C56.9568 147.973 56.6902 148.7 56.6902 149.62C56.6902 150.54 56.9568 151.267 57.4902 151.8C58.0235 152.333 58.6968 152.6 59.5102 152.6C60.5768 152.6 61.3835 152.107 61.9302 151.12L64.3502 152.44C63.9635 153.293 63.3435 153.96 62.4902 154.44C61.6502 154.92 60.6635 155.16 59.5302 155.16ZM70.9861 150.92H69.3661V155H66.2461V144.24H69.3661V148.42H71.0461L73.9661 144.24H77.2861L73.5261 149.4L77.5461 155H73.8661L70.9861 150.92ZM83.7861 155.16C82.6528 155.16 81.6328 154.927 80.7261 154.46C79.8328 153.98 79.1328 153.32 78.6261 152.48C78.1194 151.64 77.8661 150.687 77.8661 149.62C77.8661 148.553 78.1194 147.6 78.6261 146.76C79.1328 145.92 79.8328 145.267 80.7261 144.8C81.6328 144.32 82.6528 144.08 83.7861 144.08C84.9194 144.08 85.9328 144.32 86.8261 144.8C87.7194 145.267 88.4194 145.92 88.9261 146.76C89.4328 147.6 89.6861 148.553 89.6861 149.62C89.6861 150.687 89.4328 151.64 88.9261 152.48C88.4194 153.32 87.7194 153.98 86.8261 154.46C85.9328 154.927 84.9194 155.16 83.7861 155.16ZM83.7861 152.6C84.5861 152.6 85.2394 152.333 85.7461 151.8C86.2661 151.253 86.5261 150.527 86.5261 149.62C86.5261 148.713 86.2661 147.993 85.7461 147.46C85.2394 146.913 84.5861 146.64 83.7861 146.64C82.9861 146.64 82.3261 146.913 81.8061 147.46C81.2861 147.993 81.0261 148.713 81.0261 149.62C81.0261 150.527 81.2861 151.253 81.8061 151.8C82.3261 152.333 82.9861 152.6 83.7861 152.6ZM91.832 144.24H94.932V148.44H99.612V144.24H102.732V155H99.612V150.98H94.932V155H91.832V144.24ZM114.759 146.8H111.119V155H108.019V146.8H104.379V144.24H114.759V146.8ZM122.762 144.08C123.762 144.08 124.669 144.313 125.482 144.78C126.309 145.233 126.955 145.88 127.422 146.72C127.889 147.547 128.122 148.513 128.122 149.62C128.122 150.727 127.889 151.7 127.422 152.54C126.955 153.367 126.309 154.013 125.482 154.48C124.669 154.933 123.762 155.16 122.762 155.16C121.389 155.16 120.309 154.727 119.522 153.86V158.88H116.402V144.24H119.382V145.48C120.155 144.547 121.282 144.08 122.762 144.08ZM122.222 152.6C123.022 152.6 123.675 152.333 124.182 151.8C124.702 151.253 124.962 150.527 124.962 149.62C124.962 148.713 124.702 147.993 124.182 147.46C123.675 146.913 123.022 146.64 122.222 146.64C121.422 146.64 120.762 146.913 120.242 147.46C119.735 147.993 119.482 148.713 119.482 149.62C119.482 150.527 119.735 151.253 120.242 151.8C120.762 152.333 121.422 152.6 122.222 152.6ZM134.313 144.08C135.979 144.08 137.259 144.48 138.153 145.28C139.046 146.067 139.493 147.26 139.493 148.86V155H136.573V153.66C135.986 154.66 134.893 155.16 133.293 155.16C132.466 155.16 131.746 155.02 131.133 154.74C130.533 154.46 130.073 154.073 129.753 153.58C129.433 153.087 129.273 152.527 129.273 151.9C129.273 150.9 129.646 150.113 130.393 149.54C131.153 148.967 132.319 148.68 133.893 148.68H136.373C136.373 148 136.166 147.48 135.753 147.12C135.339 146.747 134.719 146.56 133.893 146.56C133.319 146.56 132.753 146.653 132.193 146.84C131.646 147.013 131.179 147.253 130.793 147.56L129.673 145.38C130.259 144.967 130.959 144.647 131.773 144.42C132.599 144.193 133.446 144.08 134.313 144.08ZM134.073 153.06C134.606 153.06 135.079 152.94 135.493 152.7C135.906 152.447 136.199 152.08 136.373 151.6V150.5H134.233C132.953 150.5 132.313 150.92 132.313 151.76C132.313 152.16 132.466 152.48 132.773 152.72C133.093 152.947 133.526 153.06 134.073 153.06ZM146.943 150.92H145.323V155H142.203V144.24H145.323V148.42H147.003L149.923 144.24H153.243L149.483 149.4L153.503 155H149.823L146.943 150.92ZM163.978 146.8H160.338V155H157.238V146.8H153.598V144.24H163.978V146.8ZM182.005 144.24V155H178.885V146.8H174.405V155H171.305V144.24H182.005ZM190.036 155.16C188.903 155.16 187.883 154.927 186.976 154.46C186.083 153.98 185.383 153.32 184.876 152.48C184.369 151.64 184.116 150.687 184.116 149.62C184.116 148.553 184.369 147.6 184.876 146.76C185.383 145.92 186.083 145.267 186.976 144.8C187.883 144.32 188.903 144.08 190.036 144.08C191.169 144.08 192.183 144.32 193.076 144.8C193.969 145.267 194.669 145.92 195.176 146.76C195.683 147.6 195.936 148.553 195.936 149.62C195.936 150.687 195.683 151.64 195.176 152.48C194.669 153.32 193.969 153.98 193.076 154.46C192.183 154.927 191.169 155.16 190.036 155.16ZM190.036 152.6C190.836 152.6 191.489 152.333 191.996 151.8C192.516 151.253 192.776 150.527 192.776 149.62C192.776 148.713 192.516 147.993 191.996 147.46C191.489 146.913 190.836 146.64 190.036 146.64C189.236 146.64 188.576 146.913 188.056 147.46C187.536 147.993 187.276 148.713 187.276 149.62C187.276 150.527 187.536 151.253 188.056 151.8C188.576 152.333 189.236 152.6 190.036 152.6ZM209.986 152.44V157.32H207.086V155H199.526V157.32H196.626V152.44H197.066C197.732 152.427 198.192 152.033 198.446 151.26C198.699 150.487 198.859 149.387 198.926 147.96L199.066 144.24H208.446V152.44H209.986ZM201.746 148.18C201.706 149.273 201.619 150.167 201.486 150.86C201.366 151.553 201.132 152.08 200.786 152.44H205.326V146.8H201.806L201.746 148.18ZM216.129 144.08C217.796 144.08 219.076 144.48 219.969 145.28C220.863 146.067 221.309 147.26 221.309 148.86V155H218.389V153.66C217.803 154.66 216.709 155.16 215.109 155.16C214.283 155.16 213.563 155.02 212.949 154.74C212.349 154.46 211.889 154.073 211.569 153.58C211.249 153.087 211.089 152.527 211.089 151.9C211.089 150.9 211.463 150.113 212.209 149.54C212.969 148.967 214.136 148.68 215.709 148.68H218.189C218.189 148 217.983 147.48 217.569 147.12C217.156 146.747 216.536 146.56 215.709 146.56C215.136 146.56 214.569 146.653 214.009 146.84C213.463 147.013 212.996 147.253 212.609 147.56L211.489 145.38C212.076 144.967 212.776 144.647 213.589 144.42C214.416 144.193 215.263 144.08 216.129 144.08ZM215.889 153.06C216.423 153.06 216.896 152.94 217.309 152.7C217.723 152.447 218.016 152.08 218.189 151.6V150.5H216.049C214.769 150.5 214.129 150.92 214.129 151.76C214.129 152.16 214.283 152.48 214.589 152.72C214.909 152.947 215.343 153.06 215.889 153.06ZM224.02 144.24H227.12V150.64L232.36 144.24H235.22V155H232.12V148.6L226.9 155H224.02V144.24ZM229.42 143.08C227.073 143.08 225.893 142.047 225.88 139.98H227.92C227.933 140.447 228.06 140.813 228.3 141.08C228.553 141.333 228.92 141.46 229.4 141.46C229.88 141.46 230.246 141.333 230.5 141.08C230.766 140.813 230.9 140.447 230.9 139.98H232.98C232.966 142.047 231.78 143.08 229.42 143.08ZM247.259 146.8H243.619V155H240.519V146.8H236.879V144.24H247.259V146.8ZM258.933 149.66C258.933 149.7 258.913 149.98 258.873 150.5H250.733C250.879 151.167 251.226 151.693 251.773 152.08C252.319 152.467 252.999 152.66 253.813 152.66C254.373 152.66 254.866 152.58 255.293 152.42C255.733 152.247 256.139 151.98 256.513 151.62L258.173 153.42C257.159 154.58 255.679 155.16 253.733 155.16C252.519 155.16 251.446 154.927 250.513 154.46C249.579 153.98 248.859 153.32 248.353 152.48C247.846 151.64 247.593 150.687 247.593 149.62C247.593 148.567 247.839 147.62 248.333 146.78C248.839 145.927 249.526 145.267 250.393 144.8C251.273 144.32 252.253 144.08 253.333 144.08C254.386 144.08 255.339 144.307 256.193 144.76C257.046 145.213 257.713 145.867 258.193 146.72C258.686 147.56 258.933 148.54 258.933 149.66ZM253.353 146.44C252.646 146.44 252.053 146.64 251.573 147.04C251.093 147.44 250.799 147.987 250.693 148.68H255.993C255.886 148 255.593 147.46 255.113 147.06C254.633 146.647 254.046 146.44 253.353 146.44ZM273.968 149.4C274.608 149.6 275.102 149.907 275.448 150.32C275.808 150.733 275.988 151.227 275.988 151.8C275.988 152.48 275.755 153.08 275.288 153.6C274.822 154.107 274.182 154.5 273.368 154.78C272.555 155.06 271.635 155.2 270.608 155.2C269.768 155.2 268.942 155.113 268.128 154.94C267.315 154.767 266.562 154.507 265.868 154.16L266.708 151.98C267.842 152.527 269.095 152.8 270.468 152.8C271.202 152.8 271.775 152.693 272.188 152.48C272.615 152.253 272.828 151.94 272.828 151.54C272.828 151.193 272.682 150.933 272.388 150.76C272.095 150.573 271.668 150.48 271.108 150.48H268.908V148.54H270.828C271.375 148.54 271.795 148.453 272.088 148.28C272.382 148.107 272.528 147.853 272.528 147.52C272.528 147.173 272.342 146.907 271.968 146.72C271.608 146.533 271.088 146.44 270.408 146.44C269.368 146.44 268.235 146.687 267.008 147.18L266.248 145.02C267.742 144.367 269.195 144.04 270.608 144.04C271.582 144.04 272.448 144.16 273.208 144.4C273.982 144.64 274.588 144.993 275.028 145.46C275.468 145.913 275.688 146.447 275.688 147.06C275.688 147.567 275.535 148.027 275.228 148.44C274.922 148.84 274.502 149.16 273.968 149.4ZM282.438 144.08C284.104 144.08 285.384 144.48 286.278 145.28C287.171 146.067 287.618 147.26 287.618 148.86V155H284.698V153.66C284.111 154.66 283.018 155.16 281.418 155.16C280.591 155.16 279.871 155.02 279.258 154.74C278.658 154.46 278.198 154.073 277.878 153.58C277.558 153.087 277.398 152.527 277.398 151.9C277.398 150.9 277.771 150.113 278.518 149.54C279.278 148.967 280.444 148.68 282.018 148.68H284.498C284.498 148 284.291 147.48 283.878 147.12C283.464 146.747 282.844 146.56 282.018 146.56C281.444 146.56 280.878 146.653 280.318 146.84C279.771 147.013 279.304 147.253 278.918 147.56L277.798 145.38C278.384 144.967 279.084 144.647 279.898 144.42C280.724 144.193 281.571 144.08 282.438 144.08ZM282.198 153.06C282.731 153.06 283.204 152.94 283.618 152.7C284.031 152.447 284.324 152.08 284.498 151.6V150.5H282.358C281.078 150.5 280.438 150.92 280.438 151.76C280.438 152.16 280.591 152.48 280.898 152.72C281.218 152.947 281.651 153.06 282.198 153.06ZM299.888 144.24V155H297.108V151.92H294.808L292.768 155H289.448L291.908 151.48C291.161 151.187 290.588 150.767 290.188 150.22C289.801 149.66 289.608 148.987 289.608 148.2C289.608 146.933 290.061 145.96 290.968 145.28C291.888 144.587 293.148 144.24 294.748 144.24H299.888ZM294.808 146.78C294.141 146.78 293.635 146.9 293.288 147.14C292.955 147.38 292.788 147.767 292.788 148.3C292.788 148.833 292.948 149.227 293.268 149.48C293.601 149.72 294.101 149.84 294.768 149.84H297.108V146.78H294.808ZM311.107 149.38C312.373 149.807 313.007 150.66 313.007 151.94C313.007 152.913 312.64 153.667 311.907 154.2C311.173 154.733 310.08 155 308.627 155H302.887V144.24H308.387C309.733 144.24 310.787 144.487 311.547 144.98C312.307 145.46 312.687 146.14 312.687 147.02C312.687 147.553 312.547 148.027 312.267 148.44C312 148.84 311.613 149.153 311.107 149.38ZM305.747 148.66H308.107C309.2 148.66 309.747 148.273 309.747 147.5C309.747 146.74 309.2 146.36 308.107 146.36H305.747V148.66ZM308.367 152.88C309.513 152.88 310.087 152.487 310.087 151.7C310.087 151.287 309.953 150.987 309.687 150.8C309.42 150.6 309 150.5 308.427 150.5H305.747V152.88H308.367ZM320.068 150.92H318.448V155H315.328V144.24H318.448V148.42H320.128L323.048 144.24H326.368L322.608 149.4L326.628 155H322.948L320.068 150.92ZM338.335 144.24L333.475 155.66C332.981 156.9 332.368 157.773 331.635 158.28C330.915 158.787 330.041 159.04 329.015 159.04C328.455 159.04 327.901 158.953 327.355 158.78C326.808 158.607 326.361 158.367 326.015 158.06L327.155 155.84C327.395 156.053 327.668 156.22 327.975 156.34C328.295 156.46 328.608 156.52 328.915 156.52C329.341 156.52 329.688 156.413 329.955 156.2C330.221 156 330.461 155.66 330.675 155.18L330.715 155.08L326.055 144.24H329.275L332.295 151.54L335.335 144.24H338.335Z" fill="white"></path> <g filter="url(#filter0_i)"> <rect x="30" y="30" width="50" height="50" rx="15" fill="#384E59" fill-opacity="0.48"></rect> <rect x="30" y="30" width="50" height="50" rx="15" fill="url(#paint0_linear)" fill-opacity="0.1"></rect> <path d="M57.107 46.9V63H53.381V49.89H50.161V46.9H57.107Z" fill="#26A2FC"></path> </g> <g opacity="0.7" filter="url(#filter1_f)"> <path d="M189 293L201.35 308.319L218.505 295.947L225.21 313.17L246 304.589L246.601 322.541L269.61 318.335L264.067 335.794L287.727 336.25L276.417 352.025L299.116 357.112L282.811 370.129L303 379.5L282.811 388.871L299.116 401.888L276.417 406.975L287.727 422.75L264.067 423.206L269.61 440.665L246.601 436.459L246 454.411L225.21 445.83L218.505 463.053L201.35 450.681L189 466L176.65 450.681L159.495 463.053L152.79 445.83L132 454.411L131.399 436.459L108.39 440.665L113.933 423.206L90.2731 422.75L101.583 406.975L78.8845 401.888L95.1895 388.871L75 379.5L95.1895 370.129L78.8845 357.112L101.583 352.025L90.2731 336.25L113.933 335.794L108.39 318.335L131.399 322.541L132 304.589L152.79 313.17L159.495 295.947L176.65 308.319L189 293Z" fill="#0089D7"></path> </g> </g> <defs> <filter id="filter0_i" x="30" y="30" width="51" height="51" filterUnits="userSpaceOnUse" color-interpolation-filters="sRGB"> <feFlood flood-opacity="0" result="BackgroundImageFix"></feFlood> <feBlend mode="normal" in="SourceGraphic" in2="BackgroundImageFix" result="shape"></feBlend> <feColorMatrix in="SourceAlpha" type="matrix" values="0 0 0 0 0 0 0 0 0 0 0 0 0 0 0 0 0 0 127 0" result="hardAlpha"></feColorMatrix> <feOffset dx="1" dy="1"></feOffset> <feGaussianBlur stdDeviation="2"></feGaussianBlur> <feComposite in2="hardAlpha" operator="arithmetic" k2="-1" k3="1"></feComposite> <feColorMatrix type="matrix" values="0 0 0 0 1 0 0 0 0 1 0 0 0 0 1 0 0 0 0.05 0"></feColorMatrix> <feBlend mode="normal" in2="shape" result="effect1_innerShadow"></feBlend> </filter> <filter id="filter1_f" x="-25" y="193" width="428" height="373" filterUnits="userSpaceOnUse" color-interpolation-filters="sRGB"> <feFlood flood-opacity="0" result="BackgroundImageFix"></feFlood> <feBlend mode="normal" in="SourceGraphic" in2="BackgroundImageFix" result="shape"></feBlend> <feGaussianBlur stdDeviation="50" result="effect1_foregroundBlur"></feGaussianBlur> </filter> <linearGradient id="paint0_linear" x1="55" y1="30" x2="55" y2="80" gradientUnits="userSpaceOnUse"> <stop stop-color="#00A3FF"></stop> <stop offset="1" stop-color="#26A2FC" stop-opacity="0"></stop> </linearGradient> <clipPath id="clip0"> <rect width="380" height="542" fill="white"></rect> </clipPath> </defs> </svg> 