<?xml version="1.0" encoding="UTF-8"?> <svg xmlns="http://www.w3.org/2000/svg" width="380" height="542" viewBox="0 0 380 542" fill="none"> <g clip-path="url(#clip0)"> <rect width="380" height="542" rx="40" fill="#384E59" fill-opacity="0.48"></rect> <rect x="20" y="204" width="340" height="318" rx="30" fill="white" fill-opacity="0.04"></rect> <path d="M37.8 109C39.04 109 40.1133 109.207 41.02 109.62C41.94 110.033 42.6467 110.62 43.14 111.38C43.6333 112.14 43.88 113.04 43.88 114.08C43.88 115.107 43.6333 116.007 43.14 116.78C42.6467 117.54 41.94 118.127 41.02 118.54C40.1133 118.94 39.04 119.14 37.8 119.14H34.98V123H31.74V109H37.8ZM37.62 116.5C38.5933 116.5 39.3333 116.293 39.84 115.88C40.3467 115.453 40.6 114.853 40.6 114.08C40.6 113.293 40.3467 112.693 39.84 112.28C39.3333 111.853 38.5933 111.64 37.62 111.64H34.98V116.5H37.62ZM49.8597 112.08C51.5264 112.08 52.8064 112.48 53.6997 113.28C54.593 114.067 55.0397 115.26 55.0397 116.86V123H52.1197V121.66C51.533 122.66 50.4397 123.16 48.8397 123.16C48.013 123.16 47.293 123.02 46.6797 122.74C46.0797 122.46 45.6197 122.073 45.2997 121.58C44.9797 121.087 44.8197 120.527 44.8197 119.9C44.8197 118.9 45.193 118.113 45.9397 117.54C46.6997 116.967 47.8664 116.68 49.4397 116.68H51.9197C51.9197 116 51.713 115.48 51.2997 115.12C50.8864 114.747 50.2664 114.56 49.4397 114.56C48.8664 114.56 48.2997 114.653 47.7397 114.84C47.193 115.013 46.7264 115.253 46.3397 115.56L45.2197 113.38C45.8064 112.967 46.5064 112.647 47.3197 112.42C48.1464 112.193 48.993 112.08 49.8597 112.08ZM49.6197 121.06C50.153 121.06 50.6264 120.94 51.0397 120.7C51.453 120.447 51.7464 120.08 51.9197 119.6V118.5H49.7797C48.4997 118.5 47.8597 118.92 47.8597 119.76C47.8597 120.16 48.013 120.48 48.3197 120.72C48.6397 120.947 49.073 121.06 49.6197 121.06ZM62.87 123.16C61.7233 123.16 60.69 122.927 59.77 122.46C58.8633 121.98 58.15 121.32 57.63 120.48C57.1233 119.64 56.87 118.687 56.87 117.62C56.87 116.553 57.1233 115.6 57.63 114.76C58.15 113.92 58.8633 113.267 59.77 112.8C60.69 112.32 61.7233 112.08 62.87 112.08C64.0033 112.08 64.99 112.32 65.83 112.8C66.6833 113.267 67.3033 113.94 67.69 114.82L65.27 116.12C64.71 115.133 63.9033 114.64 62.85 114.64C62.0367 114.64 61.3633 114.907 60.83 115.44C60.2967 115.973 60.03 116.7 60.03 117.62C60.03 118.54 60.2967 119.267 60.83 119.8C61.3633 120.333 62.0367 120.6 62.85 120.6C63.9167 120.6 64.7233 120.107 65.27 119.12L67.69 120.44C67.3033 121.293 66.6833 121.96 65.83 122.44C64.99 122.92 64.0033 123.16 62.87 123.16ZM74.5692 123.16C73.4226 123.16 72.3892 122.927 71.4692 122.46C70.5626 121.98 69.8492 121.32 69.3292 120.48C68.8226 119.64 68.5692 118.687 68.5692 117.62C68.5692 116.553 68.8226 115.6 69.3292 114.76C69.8492 113.92 70.5626 113.267 71.4692 112.8C72.3892 112.32 73.4226 112.08 74.5692 112.08C75.7026 112.08 76.6892 112.32 77.5292 112.8C78.3826 113.267 79.0026 113.94 79.3892 114.82L76.9692 116.12C76.4092 115.133 75.6026 114.64 74.5492 114.64C73.7359 114.64 73.0626 114.907 72.5292 115.44C71.9959 115.973 71.7292 116.7 71.7292 117.62C71.7292 118.54 71.9959 119.267 72.5292 119.8C73.0626 120.333 73.7359 120.6 74.5492 120.6C75.6159 120.6 76.4226 120.107 76.9692 119.12L79.3892 120.44C79.0026 121.293 78.3826 121.96 77.5292 122.44C76.6892 122.92 75.7026 123.16 74.5692 123.16ZM91.7852 123V116.56L88.5652 121.96H87.2452L84.1052 116.54V123H81.2852V112.24H84.5452L87.9852 118.46L91.6452 112.24H94.5652L94.6052 123H91.7852ZM102.634 123.16C101.5 123.16 100.48 122.927 99.5738 122.46C98.6804 121.98 97.9804 121.32 97.4738 120.48C96.9671 119.64 96.7138 118.687 96.7138 117.62C96.7138 116.553 96.9671 115.6 97.4738 114.76C97.9804 113.92 98.6804 113.267 99.5738 112.8C100.48 112.32 101.5 112.08 102.634 112.08C103.767 112.08 104.78 112.32 105.674 112.8C106.567 113.267 107.267 113.92 107.774 114.76C108.28 115.6 108.534 116.553 108.534 117.62C108.534 118.687 108.28 119.64 107.774 120.48C107.267 121.32 106.567 121.98 105.674 122.46C104.78 122.927 103.767 123.16 102.634 123.16ZM102.634 120.6C103.434 120.6 104.087 120.333 104.594 119.8C105.114 119.253 105.374 118.527 105.374 117.62C105.374 116.713 105.114 115.993 104.594 115.46C104.087 114.913 103.434 114.64 102.634 114.64C101.834 114.64 101.174 114.913 100.654 115.46C100.134 115.993 99.8738 116.713 99.8738 117.62C99.8738 118.527 100.134 119.253 100.654 119.8C101.174 120.333 101.834 120.6 102.634 120.6ZM119.329 114.8H115.689V123H112.589V114.8H108.949V112.24H119.329V114.8ZM127.332 112.08C128.332 112.08 129.239 112.313 130.052 112.78C130.879 113.233 131.526 113.88 131.992 114.72C132.459 115.547 132.692 116.513 132.692 117.62C132.692 118.727 132.459 119.7 131.992 120.54C131.526 121.367 130.879 122.013 130.052 122.48C129.239 122.933 128.332 123.16 127.332 123.16C125.959 123.16 124.879 122.727 124.092 121.86V126.88H120.972V112.24H123.952V113.48C124.726 112.547 125.852 112.08 127.332 112.08ZM126.792 120.6C127.592 120.6 128.246 120.333 128.752 119.8C129.272 119.253 129.532 118.527 129.532 117.62C129.532 116.713 129.272 115.993 128.752 115.46C128.246 114.913 127.592 114.64 126.792 114.64C125.992 114.64 125.332 114.913 124.812 115.46C124.306 115.993 124.052 116.713 124.052 117.62C124.052 118.527 124.306 119.253 124.812 119.8C125.332 120.333 125.992 120.6 126.792 120.6ZM145.339 117.66C145.339 117.7 145.319 117.98 145.279 118.5H137.139C137.286 119.167 137.632 119.693 138.179 120.08C138.726 120.467 139.406 120.66 140.219 120.66C140.779 120.66 141.272 120.58 141.699 120.42C142.139 120.247 142.546 119.98 142.919 119.62L144.579 121.42C143.566 122.58 142.086 123.16 140.139 123.16C138.926 123.16 137.852 122.927 136.919 122.46C135.986 121.98 135.266 121.32 134.759 120.48C134.252 119.64 133.999 118.687 133.999 117.62C133.999 116.567 134.246 115.62 134.739 114.78C135.246 113.927 135.932 113.267 136.799 112.8C137.679 112.32 138.659 112.08 139.739 112.08C140.792 112.08 141.746 112.307 142.599 112.76C143.452 113.213 144.119 113.867 144.599 114.72C145.092 115.56 145.339 116.54 145.339 117.66ZM139.759 114.44C139.052 114.44 138.459 114.64 137.979 115.04C137.499 115.44 137.206 115.987 137.099 116.68H142.399C142.292 116 141.999 115.46 141.519 115.06C141.039 114.647 140.452 114.44 139.759 114.44ZM147.73 112.24H150.83V116.44H155.51V112.24H158.63V123H155.51V118.98H150.83V123H147.73V112.24ZM161.617 112.24H164.717V118.64L169.957 112.24H172.817V123H169.717V116.6L164.497 123H161.617V112.24ZM186.276 117.66C186.276 117.7 186.256 117.98 186.216 118.5H178.076C178.223 119.167 178.57 119.693 179.116 120.08C179.663 120.467 180.343 120.66 181.156 120.66C181.716 120.66 182.21 120.58 182.636 120.42C183.076 120.247 183.483 119.98 183.856 119.62L185.516 121.42C184.503 122.58 183.023 123.16 181.076 123.16C179.863 123.16 178.79 122.927 177.856 122.46C176.923 121.98 176.203 121.32 175.696 120.48C175.19 119.64 174.936 118.687 174.936 117.62C174.936 116.567 175.183 115.62 175.676 114.78C176.183 113.927 176.87 113.267 177.736 112.8C178.616 112.32 179.596 112.08 180.676 112.08C181.73 112.08 182.683 112.307 183.536 112.76C184.39 113.213 185.056 113.867 185.536 114.72C186.03 115.56 186.276 116.54 186.276 117.66ZM180.696 114.44C179.99 114.44 179.396 114.64 178.916 115.04C178.436 115.44 178.143 115.987 178.036 116.68H183.336C183.23 116 182.936 115.46 182.456 115.06C181.976 114.647 181.39 114.44 180.696 114.44ZM201.312 117.4C201.952 117.6 202.445 117.907 202.792 118.32C203.152 118.733 203.332 119.227 203.332 119.8C203.332 120.48 203.099 121.08 202.632 121.6C202.165 122.107 201.525 122.5 200.712 122.78C199.899 123.06 198.979 123.2 197.952 123.2C197.112 123.2 196.285 123.113 195.472 122.94C194.659 122.767 193.905 122.507 193.212 122.16L194.052 119.98C195.185 120.527 196.439 120.8 197.812 120.8C198.545 120.8 199.119 120.693 199.532 120.48C199.959 120.253 200.172 119.94 200.172 119.54C200.172 119.193 200.025 118.933 199.732 118.76C199.439 118.573 199.012 118.48 198.452 118.48H196.252V116.54H198.172C198.719 116.54 199.139 116.453 199.432 116.28C199.725 116.107 199.872 115.853 199.872 115.52C199.872 115.173 199.685 114.907 199.312 114.72C198.952 114.533 198.432 114.44 197.752 114.44C196.712 114.44 195.579 114.687 194.352 115.18L193.592 113.02C195.085 112.367 196.539 112.04 197.952 112.04C198.925 112.04 199.792 112.16 200.552 112.4C201.325 112.64 201.932 112.993 202.372 113.46C202.812 113.913 203.032 114.447 203.032 115.06C203.032 115.567 202.879 116.027 202.572 116.44C202.265 116.84 201.845 117.16 201.312 117.4ZM209.782 112.08C211.448 112.08 212.728 112.48 213.622 113.28C214.515 114.067 214.962 115.26 214.962 116.86V123H212.042V121.66C211.455 122.66 210.362 123.16 208.762 123.16C207.935 123.16 207.215 123.02 206.602 122.74C206.002 122.46 205.542 122.073 205.222 121.58C204.902 121.087 204.742 120.527 204.742 119.9C204.742 118.9 205.115 118.113 205.862 117.54C206.622 116.967 207.788 116.68 209.362 116.68H211.842C211.842 116 211.635 115.48 211.222 115.12C210.808 114.747 210.188 114.56 209.362 114.56C208.788 114.56 208.222 114.653 207.662 114.84C207.115 115.013 206.648 115.253 206.262 115.56L205.142 113.38C205.728 112.967 206.428 112.647 207.242 112.42C208.068 112.193 208.915 112.08 209.782 112.08ZM209.542 121.06C210.075 121.06 210.548 120.94 210.962 120.7C211.375 120.447 211.668 120.08 211.842 119.6V118.5H209.702C208.422 118.5 207.782 118.92 207.782 119.76C207.782 120.16 207.935 120.48 208.242 120.72C208.562 120.947 208.995 121.06 209.542 121.06ZM227.232 112.24V123H224.452V119.92H222.152L220.112 123H216.792L219.252 119.48C218.505 119.187 217.932 118.767 217.532 118.22C217.145 117.66 216.952 116.987 216.952 116.2C216.952 114.933 217.405 113.96 218.312 113.28C219.232 112.587 220.492 112.24 222.092 112.24H227.232ZM222.152 114.78C221.485 114.78 220.979 114.9 220.632 115.14C220.299 115.38 220.132 115.767 220.132 116.3C220.132 116.833 220.292 117.227 220.612 117.48C220.945 117.72 221.445 117.84 222.112 117.84H224.452V114.78H222.152ZM238.45 117.38C239.717 117.807 240.35 118.66 240.35 119.94C240.35 120.913 239.984 121.667 239.25 122.2C238.517 122.733 237.424 123 235.97 123H230.23V112.24H235.73C237.077 112.24 238.13 112.487 238.89 112.98C239.65 113.46 240.03 114.14 240.03 115.02C240.03 115.553 239.89 116.027 239.61 116.44C239.344 116.84 238.957 117.153 238.45 117.38ZM233.09 116.66H235.45C236.544 116.66 237.09 116.273 237.09 115.5C237.09 114.74 236.544 114.36 235.45 114.36H233.09V116.66ZM235.71 120.88C236.857 120.88 237.43 120.487 237.43 119.7C237.43 119.287 237.297 118.987 237.03 118.8C236.764 118.6 236.344 118.5 235.77 118.5H233.09V120.88H235.71ZM247.412 118.92H245.792V123H242.672V112.24H245.792V116.42H247.472L250.392 112.24H253.712L249.952 117.4L253.972 123H250.292L247.412 118.92ZM255.504 112.24H258.604V118.64L263.844 112.24H266.704V123H263.604V116.6L258.384 123H255.504V112.24ZM38.48 149.4C39.12 149.6 39.6133 149.907 39.96 150.32C40.32 150.733 40.5 151.227 40.5 151.8C40.5 152.48 40.2667 153.08 39.8 153.6C39.3333 154.107 38.6933 154.5 37.88 154.78C37.0667 155.06 36.1467 155.2 35.12 155.2C34.28 155.2 33.4533 155.113 32.64 154.94C31.8267 154.767 31.0733 154.507 30.38 154.16L31.22 151.98C32.3533 152.527 33.6067 152.8 34.98 152.8C35.7133 152.8 36.2867 152.693 36.7 152.48C37.1267 152.253 37.34 151.94 37.34 151.54C37.34 151.193 37.1933 150.933 36.9 150.76C36.6067 150.573 36.18 150.48 35.62 150.48H33.42V148.54H35.34C35.8867 148.54 36.3067 148.453 36.6 148.28C36.8933 148.107 37.04 147.853 37.04 147.52C37.04 147.173 36.8533 146.907 36.48 146.72C36.12 146.533 35.6 146.44 34.92 146.44C33.88 146.44 32.7467 146.687 31.52 147.18L30.76 145.02C32.2533 144.367 33.7067 144.04 35.12 144.04C36.0933 144.04 36.96 144.16 37.72 144.4C38.4933 144.64 39.1 144.993 39.54 145.46C39.98 145.913 40.2 146.447 40.2 147.06C40.2 147.567 40.0467 148.027 39.74 148.44C39.4333 148.84 39.0133 149.16 38.48 149.4ZM46.9495 144.08C48.6162 144.08 49.8962 144.48 50.7895 145.28C51.6829 146.067 52.1295 147.26 52.1295 148.86V155H49.2095V153.66C48.6229 154.66 47.5295 155.16 45.9295 155.16C45.1029 155.16 44.3829 155.02 43.7695 154.74C43.1695 154.46 42.7095 154.073 42.3895 153.58C42.0695 153.087 41.9095 152.527 41.9095 151.9C41.9095 150.9 42.2829 150.113 43.0295 149.54C43.7895 148.967 44.9562 148.68 46.5295 148.68H49.0095C49.0095 148 48.8029 147.48 48.3895 147.12C47.9762 146.747 47.3562 146.56 46.5295 146.56C45.9562 146.56 45.3895 146.653 44.8295 146.84C44.2829 147.013 43.8162 147.253 43.4295 147.56L42.3095 145.38C42.8962 144.967 43.5962 144.647 44.4095 144.42C45.2362 144.193 46.0829 144.08 46.9495 144.08ZM46.7095 153.06C47.2429 153.06 47.7162 152.94 48.1295 152.7C48.5429 152.447 48.8362 152.08 49.0095 151.6V150.5H46.8695C45.5895 150.5 44.9495 150.92 44.9495 151.76C44.9495 152.16 45.1029 152.48 45.4095 152.72C45.7295 152.947 46.1629 153.06 46.7095 153.06ZM65.1839 141V155H61.9439V143.6H59.1439V141H65.1839ZM86.06 152.44V157.32H83.16V155H75.6V157.32H72.7V152.44H73.14C73.8067 152.427 74.2667 152.033 74.52 151.26C74.7733 150.487 74.9333 149.387 75 147.96L75.14 144.24H84.52V152.44H86.06ZM77.82 148.18C77.78 149.273 77.6933 150.167 77.56 150.86C77.44 151.553 77.2067 152.08 76.86 152.44H81.4V146.8H77.88L77.82 148.18ZM98.4834 149.66C98.4834 149.7 98.4634 149.98 98.4234 150.5H90.2834C90.4301 151.167 90.7768 151.693 91.3234 152.08C91.8701 152.467 92.5501 152.66 93.3634 152.66C93.9234 152.66 94.4168 152.58 94.8434 152.42C95.2834 152.247 95.6901 151.98 96.0634 151.62L97.7234 153.42C96.7101 154.58 95.2301 155.16 93.2834 155.16C92.0701 155.16 90.9968 154.927 90.0634 154.46C89.1301 153.98 88.4101 153.32 87.9034 152.48C87.3968 151.64 87.1434 150.687 87.1434 149.62C87.1434 148.567 87.3901 147.62 87.8834 146.78C88.3901 145.927 89.0768 145.267 89.9434 144.8C90.8234 144.32 91.8034 144.08 92.8834 144.08C93.9368 144.08 94.8901 144.307 95.7434 144.76C96.5968 145.213 97.2634 145.867 97.7434 146.72C98.2368 147.56 98.4834 148.54 98.4834 149.66ZM92.9034 146.44C92.1968 146.44 91.6034 146.64 91.1234 147.04C90.6434 147.44 90.3501 147.987 90.2434 148.68H95.5434C95.4368 148 95.1434 147.46 94.6634 147.06C94.1834 146.647 93.5968 146.44 92.9034 146.44ZM100.875 144.24H103.975V148.44H108.655V144.24H111.775V155H108.655V150.98H103.975V155H100.875V144.24ZM120.582 147.68C121.982 147.693 123.055 148.013 123.802 148.64C124.548 149.253 124.922 150.127 124.922 151.26C124.922 152.447 124.502 153.373 123.662 154.04C122.835 154.693 121.668 155.02 120.162 155.02L114.762 155V144.24H117.862V147.68H120.582ZM119.882 152.8C120.482 152.813 120.942 152.687 121.262 152.42C121.582 152.153 121.742 151.753 121.742 151.22C121.742 150.7 121.582 150.32 121.262 150.08C120.955 149.84 120.495 149.713 119.882 149.7L117.862 149.68V152.8H119.882Z" fill="white"></path> <g filter="url(#filter0_i)"> <rect x="30" y="30" width="50" height="50" rx="15" fill="#384E59" fill-opacity="0.48"></rect> <rect x="30" y="30" width="50" height="50" rx="15" fill="url(#paint0_linear)" fill-opacity="0.1"></rect> <path d="M60.926 59.964V63H48.759V60.585L54.969 54.72C55.6283 54.0913 56.073 53.5547 56.303 53.11C56.533 52.65 56.648 52.1977 56.648 51.753C56.648 51.109 56.4257 50.6183 55.981 50.281C55.5517 49.9283 54.9153 49.752 54.072 49.752C53.3667 49.752 52.7303 49.89 52.163 50.166C51.5957 50.4267 51.1203 50.8253 50.737 51.362L48.023 49.614C48.6517 48.6787 49.518 47.9503 50.622 47.429C51.726 46.8923 52.991 46.624 54.417 46.624C55.613 46.624 56.6557 46.8233 57.545 47.222C58.4497 47.6053 59.1473 48.1573 59.638 48.878C60.144 49.5833 60.397 50.419 60.397 51.385C60.397 52.259 60.213 53.0793 59.845 53.846C59.477 54.6127 58.764 55.4867 57.706 56.468L54.003 59.964H60.926Z" fill="#26A2FC"></path> </g> <g opacity="0.7" filter="url(#filter1_f)"> <path d="M188 293L200.35 308.319L217.505 295.947L224.21 313.17L245 304.589L245.601 322.541L268.61 318.335L263.067 335.794L286.727 336.25L275.417 352.025L298.116 357.112L281.811 370.129L302 379.5L281.811 388.871L298.116 401.888L275.417 406.975L286.727 422.75L263.067 423.206L268.61 440.665L245.601 436.459L245 454.411L224.21 445.83L217.505 463.053L200.35 450.681L188 466L175.65 450.681L158.495 463.053L151.79 445.83L131 454.411L130.399 436.459L107.39 440.665L112.933 423.206L89.2731 422.75L100.583 406.975L77.8845 401.888L94.1895 388.871L74 379.5L94.1895 370.129L77.8845 357.112L100.583 352.025L89.2731 336.25L112.933 335.794L107.39 318.335L130.399 322.541L131 304.589L151.79 313.17L158.495 295.947L175.65 308.319L188 293Z" fill="#0089D7"></path> </g> </g> <defs> <filter id="filter0_i" x="30" y="30" width="51" height="51" filterUnits="userSpaceOnUse" color-interpolation-filters="sRGB"> <feFlood flood-opacity="0" result="BackgroundImageFix"></feFlood> <feBlend mode="normal" in="SourceGraphic" in2="BackgroundImageFix" result="shape"></feBlend> <feColorMatrix in="SourceAlpha" type="matrix" values="0 0 0 0 0 0 0 0 0 0 0 0 0 0 0 0 0 0 127 0" result="hardAlpha"></feColorMatrix> <feOffset dx="1" dy="1"></feOffset> <feGaussianBlur stdDeviation="2"></feGaussianBlur> <feComposite in2="hardAlpha" operator="arithmetic" k2="-1" k3="1"></feComposite> <feColorMatrix type="matrix" values="0 0 0 0 1 0 0 0 0 1 0 0 0 0 1 0 0 0 0.05 0"></feColorMatrix> <feBlend mode="normal" in2="shape" result="effect1_innerShadow"></feBlend> </filter> <filter id="filter1_f" x="-26" y="193" width="428" height="373" filterUnits="userSpaceOnUse" color-interpolation-filters="sRGB"> <feFlood flood-opacity="0" result="BackgroundImageFix"></feFlood> <feBlend mode="normal" in="SourceGraphic" in2="BackgroundImageFix" result="shape"></feBlend> <feGaussianBlur stdDeviation="50" result="effect1_foregroundBlur"></feGaussianBlur> </filter> <linearGradient id="paint0_linear" x1="55" y1="30" x2="55" y2="80" gradientUnits="userSpaceOnUse"> <stop stop-color="#00A3FF"></stop> <stop offset="1" stop-color="#26A2FC" stop-opacity="0"></stop> </linearGradient> <clipPath id="clip0"> <rect width="380" height="542" fill="white"></rect> </clipPath> </defs> </svg> 