<?xml version="1.0" encoding="UTF-8"?> <svg xmlns="http://www.w3.org/2000/svg" width="300" height="110" viewBox="0 0 300 110" fill="none"> <rect x="0.374899" y="0.374899" width="299.25" height="109.25" rx="14.621" fill="black" fill-opacity="0.14"></rect> <rect x="0.374899" y="0.374899" width="299.25" height="109.25" rx="14.621" stroke="white" stroke-width="0.749797"></rect> <path d="M25.936 27.084C24.9653 27.084 24.088 26.8693 23.304 26.44C22.5293 26.0107 21.918 25.418 21.47 24.662C21.0313 23.8967 20.812 23.0427 20.812 22.1C20.812 21.1573 21.0313 20.308 21.47 19.552C21.918 18.7867 22.534 18.1893 23.318 17.76C24.102 17.3307 24.9793 17.116 25.95 17.116C26.678 17.116 27.35 17.2373 27.966 17.48C28.582 17.7227 29.1047 18.0773 29.534 18.544L28.876 19.202C28.1107 18.4273 27.1447 18.04 25.978 18.04C25.2033 18.04 24.4987 18.2173 23.864 18.572C23.2293 18.9267 22.73 19.412 22.366 20.028C22.0113 20.644 21.834 21.3347 21.834 22.1C21.834 22.8653 22.0113 23.556 22.366 24.172C22.73 24.788 23.2293 25.2733 23.864 25.628C24.4987 25.9827 25.2033 26.16 25.978 26.16C27.154 26.16 28.12 25.768 28.876 24.984L29.534 25.642C29.1047 26.1087 28.5773 26.468 27.952 26.72C27.336 26.9627 26.664 27.084 25.936 27.084ZM37.6935 19.636L34.0115 27.882C33.7128 28.5727 33.3675 29.0627 32.9755 29.352C32.5835 29.6413 32.1122 29.786 31.5615 29.786C31.2068 29.786 30.8755 29.73 30.5675 29.618C30.2595 29.506 29.9935 29.338 29.7695 29.114L30.2315 28.372C30.6048 28.7453 31.0528 28.932 31.5755 28.932C31.9115 28.932 32.1962 28.8387 32.4295 28.652C32.6722 28.4653 32.8962 28.148 33.1015 27.7L33.4235 26.986L30.1335 19.636H31.1695L33.9415 25.894L36.7135 19.636H37.6935ZM47.4741 19.636V27H46.5641V21.176L43.5821 26.104H43.1341L40.1521 21.162V27H39.2421V19.636H40.2501L43.3721 24.942L46.5501 19.636H47.4741ZM58.5347 19.636V27H57.6247V21.176L54.6427 26.104H54.1947L51.2127 21.162V27H50.3027V19.636H51.3107L54.4327 24.942L57.6107 19.636H58.5347ZM63.8972 19.58C64.8586 19.58 65.5959 19.8227 66.1092 20.308C66.6226 20.784 66.8792 21.4933 66.8792 22.436V27H65.9272V25.852C65.7032 26.2347 65.3719 26.5333 64.9332 26.748C64.5039 26.9627 63.9906 27.07 63.3932 27.07C62.5719 27.07 61.9186 26.874 61.4332 26.482C60.9479 26.09 60.7052 25.572 60.7052 24.928C60.7052 24.3027 60.9292 23.7987 61.3772 23.416C61.8346 23.0333 62.5579 22.842 63.5472 22.842H65.8852V22.394C65.8852 21.7593 65.7079 21.2787 65.3532 20.952C64.9986 20.616 64.4806 20.448 63.7992 20.448C63.3326 20.448 62.8846 20.5273 62.4552 20.686C62.0259 20.8353 61.6572 21.0453 61.3492 21.316L60.9012 20.574C61.2746 20.2567 61.7226 20.014 62.2452 19.846C62.7679 19.6687 63.3186 19.58 63.8972 19.58ZM63.5472 26.286C64.1072 26.286 64.5879 26.16 64.9892 25.908C65.3906 25.6467 65.6892 25.2733 65.8852 24.788V23.584H63.5752C62.3152 23.584 61.6852 24.0227 61.6852 24.9C61.6852 25.3293 61.8486 25.67 62.1752 25.922C62.5019 26.1647 62.9592 26.286 63.5472 26.286ZM76.7734 23.164C77.2961 23.2853 77.6974 23.4953 77.9774 23.794C78.2667 24.0927 78.4114 24.4567 78.4114 24.886C78.4114 25.3153 78.2621 25.698 77.9634 26.034C77.6741 26.37 77.2774 26.6313 76.7734 26.818C76.2694 26.9953 75.7141 27.084 75.1074 27.084C74.5754 27.084 74.0527 27.0093 73.5394 26.86C73.0261 26.7013 72.5781 26.4727 72.1954 26.174L72.5314 25.432C72.8674 25.684 73.2594 25.88 73.7074 26.02C74.1554 26.16 74.6081 26.23 75.0654 26.23C75.7467 26.23 76.3021 26.104 76.7314 25.852C77.1701 25.5907 77.3894 25.2407 77.3894 24.802C77.3894 24.41 77.2121 24.1067 76.8574 23.892C76.5027 23.668 76.0174 23.556 75.4014 23.556H74.1414V22.828H75.3454C75.8961 22.828 76.3394 22.7253 76.6754 22.52C77.0114 22.3053 77.1794 22.0207 77.1794 21.666C77.1794 21.274 76.9881 20.966 76.6054 20.742C76.2321 20.518 75.7421 20.406 75.1354 20.406C74.3421 20.406 73.5581 20.6067 72.7834 21.008L72.5034 20.238C73.3807 19.7807 74.2907 19.552 75.2334 19.552C75.7934 19.552 76.2974 19.636 76.7454 19.804C77.2027 19.9627 77.5574 20.1913 77.8094 20.49C78.0707 20.7887 78.2014 21.134 78.2014 21.526C78.2014 21.8993 78.0707 22.2307 77.8094 22.52C77.5574 22.8093 77.2121 23.024 76.7734 23.164ZM83.2019 19.58C84.1632 19.58 84.9006 19.8227 85.4139 20.308C85.9272 20.784 86.1839 21.4933 86.1839 22.436V27H85.2319V25.852C85.0079 26.2347 84.6766 26.5333 84.2379 26.748C83.8086 26.9627 83.2952 27.07 82.6979 27.07C81.8766 27.07 81.2232 26.874 80.7379 26.482C80.2526 26.09 80.0099 25.572 80.0099 24.928C80.0099 24.3027 80.2339 23.7987 80.6819 23.416C81.1392 23.0333 81.8626 22.842 82.8519 22.842H85.1899V22.394C85.1899 21.7593 85.0126 21.2787 84.6579 20.952C84.3032 20.616 83.7852 20.448 83.1039 20.448C82.6372 20.448 82.1892 20.5273 81.7599 20.686C81.3306 20.8353 80.9619 21.0453 80.6539 21.316L80.2059 20.574C80.5792 20.2567 81.0272 20.014 81.5499 19.846C82.0726 19.6687 82.6232 19.58 83.2019 19.58ZM82.8519 26.286C83.4119 26.286 83.8926 26.16 84.2939 25.908C84.6952 25.6467 84.9939 25.2733 85.1899 24.788V23.584H82.8799C81.6199 23.584 80.9899 24.0227 80.9899 24.9C80.9899 25.3293 81.1532 25.67 81.4799 25.922C81.8066 26.1647 82.2639 26.286 82.8519 26.286ZM88.83 19.636H89.824V25.488L94.738 19.636H95.62V27H94.626V21.148L89.726 27H88.83V19.636ZM92.176 18.572C91.5413 18.572 91.0373 18.4133 90.664 18.096C90.2907 17.7787 90.0993 17.3307 90.09 16.752H90.804C90.8133 17.116 90.944 17.41 91.196 17.634C91.448 17.8487 91.7747 17.956 92.176 17.956C92.5773 17.956 92.904 17.8487 93.156 17.634C93.4173 17.41 93.5527 17.116 93.562 16.752H94.276C94.2667 17.3307 94.0707 17.7787 93.688 18.096C93.3147 18.4133 92.8107 18.572 92.176 18.572ZM106.701 19.636V27H105.791V21.176L102.809 26.104H102.361L99.3787 21.162V27H98.4687V19.636H99.4767L102.599 24.942L105.777 19.636H106.701ZM112.063 19.58C113.025 19.58 113.762 19.8227 114.275 20.308C114.789 20.784 115.045 21.4933 115.045 22.436V27H114.093V25.852C113.869 26.2347 113.538 26.5333 113.099 26.748C112.67 26.9627 112.157 27.07 111.559 27.07C110.738 27.07 110.085 26.874 109.599 26.482C109.114 26.09 108.871 25.572 108.871 24.928C108.871 24.3027 109.095 23.7987 109.543 23.416C110.001 23.0333 110.724 22.842 111.713 22.842H114.051V22.394C114.051 21.7593 113.874 21.2787 113.519 20.952C113.165 20.616 112.647 20.448 111.965 20.448C111.499 20.448 111.051 20.5273 110.621 20.686C110.192 20.8353 109.823 21.0453 109.515 21.316L109.067 20.574C109.441 20.2567 109.889 20.014 110.411 19.846C110.934 19.6687 111.485 19.58 112.063 19.58ZM111.713 26.286C112.273 26.286 112.754 26.16 113.155 25.908C113.557 25.6467 113.855 25.2733 114.051 24.788V23.584H111.741C110.481 23.584 109.851 24.0227 109.851 24.9C109.851 25.3293 110.015 25.67 110.341 25.922C110.668 26.1647 111.125 26.286 111.713 26.286ZM117.761 21.106C117.556 21.106 117.379 21.0313 117.229 20.882C117.089 20.7327 117.019 20.5507 117.019 20.336C117.019 20.1213 117.089 19.944 117.229 19.804C117.379 19.6547 117.556 19.58 117.761 19.58C117.967 19.58 118.144 19.6547 118.293 19.804C118.443 19.944 118.517 20.1213 118.517 20.336C118.517 20.5507 118.443 20.7327 118.293 20.882C118.144 21.0313 117.967 21.106 117.761 21.106ZM117.761 27.07C117.556 27.07 117.379 26.9953 117.229 26.846C117.089 26.6967 117.019 26.5147 117.019 26.3C117.019 26.0853 117.089 25.908 117.229 25.768C117.379 25.6187 117.556 25.544 117.761 25.544C117.967 25.544 118.144 25.6187 118.293 25.768C118.443 25.908 118.517 26.0853 118.517 26.3C118.517 26.5147 118.443 26.6967 118.293 26.846C118.144 26.9953 117.967 27.07 117.761 27.07Z" fill="white"></path> <path d="M23.8314 90.045C25.0472 90.045 25.931 90.265 26.4829 90.7049C27.0428 91.1368 27.3227 91.7447 27.3227 92.5285C27.3227 93.0164 27.2067 93.4523 26.9748 93.8362C26.7508 94.2202 26.4109 94.5241 25.955 94.7481C25.4991 94.964 24.9392 95.072 24.2753 95.072C23.6755 95.072 23.1036 94.976 22.5597 94.784C22.0238 94.5841 21.5919 94.3201 21.2639 93.9922L21.6839 93.3083C21.9638 93.5963 22.3317 93.8322 22.7876 94.0162C23.2435 94.1922 23.7354 94.2801 24.2633 94.2801C24.9592 94.2801 25.4951 94.1242 25.871 93.8122C26.2549 93.5003 26.4469 93.0844 26.4469 92.5645C26.4469 91.9886 26.2309 91.5527 25.799 91.2568C25.3751 90.9608 24.6553 90.8128 23.6395 90.8128H21.8518L22.2837 86.6017H26.8788V87.3695H23.0396L22.7516 90.045H23.8314ZM31.7667 95.072C31.1188 95.072 30.5389 94.9 30.027 94.5561C29.5231 94.2122 29.1272 93.7203 28.8393 93.0804C28.5593 92.4325 28.4194 91.6727 28.4194 90.8009C28.4194 89.929 28.5593 89.1732 28.8393 88.5333C29.1272 87.8854 29.5231 87.3895 30.027 87.0456C30.5389 86.7017 31.1188 86.5297 31.7667 86.5297C32.4146 86.5297 32.9904 86.7017 33.4943 87.0456C34.0062 87.3895 34.4062 87.8854 34.6941 88.5333C34.982 89.1732 35.126 89.929 35.126 90.8009C35.126 91.6727 34.982 92.4325 34.6941 93.0804C34.4062 93.7203 34.0062 94.2122 33.4943 94.5561C32.9904 94.9 32.4146 95.072 31.7667 95.072ZM31.7667 94.2801C32.2546 94.2801 32.6825 94.1442 33.0504 93.8722C33.4264 93.6003 33.7183 93.2044 33.9263 92.6845C34.1342 92.1646 34.2382 91.5367 34.2382 90.8009C34.2382 90.065 34.1342 89.4371 33.9263 88.9172C33.7183 88.3973 33.4264 88.0014 33.0504 87.7295C32.6825 87.4575 32.2546 87.3216 31.7667 87.3216C31.2788 87.3216 30.8469 87.4575 30.471 87.7295C30.103 88.0014 29.8151 88.3973 29.6071 88.9172C29.3992 89.4371 29.2952 90.065 29.2952 90.8009C29.2952 91.5367 29.3992 92.1646 29.6071 92.6845C29.8151 93.2044 30.103 93.6003 30.471 93.8722C30.8469 94.1442 31.2788 94.2801 31.7667 94.2801ZM39.7104 95.072C39.0625 95.072 38.4826 94.9 37.9707 94.5561C37.4669 94.2122 37.0709 93.7203 36.783 93.0804C36.503 92.4325 36.3631 91.6727 36.3631 90.8009C36.3631 89.929 36.503 89.1732 36.783 88.5333C37.0709 87.8854 37.4669 87.3895 37.9707 87.0456C38.4826 86.7017 39.0625 86.5297 39.7104 86.5297C40.3583 86.5297 40.9341 86.7017 41.438 87.0456C41.9499 87.3895 42.3499 87.8854 42.6378 88.5333C42.9257 89.1732 43.0697 89.929 43.0697 90.8009C43.0697 91.6727 42.9257 92.4325 42.6378 93.0804C42.3499 93.7203 41.9499 94.2122 41.438 94.5561C40.9341 94.9 40.3583 95.072 39.7104 95.072ZM39.7104 94.2801C40.1983 94.2801 40.6262 94.1442 40.9941 93.8722C41.3701 93.6003 41.662 93.2044 41.87 92.6845C42.0779 92.1646 42.1819 91.5367 42.1819 90.8009C42.1819 90.065 42.0779 89.4371 41.87 88.9172C41.662 88.3973 41.3701 88.0014 40.9941 87.7295C40.6262 87.4575 40.1983 87.3216 39.7104 87.3216C39.2225 87.3216 38.7906 87.4575 38.4147 87.7295C38.0467 88.0014 37.7588 88.3973 37.5508 88.9172C37.3429 89.4371 37.2389 90.065 37.2389 90.8009C37.2389 91.5367 37.3429 92.1646 37.5508 92.6845C37.7588 93.2044 38.0467 93.6003 38.4147 93.8722C38.7906 94.1442 39.2225 94.2801 39.7104 94.2801ZM50.7941 95.072C50.1462 95.072 49.5663 94.9 49.0544 94.5561C48.5505 94.2122 48.1546 93.7203 47.8667 93.0804C47.5867 92.4325 47.4468 91.6727 47.4468 90.8009C47.4468 89.929 47.5867 89.1732 47.8667 88.5333C48.1546 87.8854 48.5505 87.3895 49.0544 87.0456C49.5663 86.7017 50.1462 86.5297 50.7941 86.5297C51.442 86.5297 52.0178 86.7017 52.5217 87.0456C53.0336 87.3895 53.4336 87.8854 53.7215 88.5333C54.0094 89.1732 54.1534 89.929 54.1534 90.8009C54.1534 91.6727 54.0094 92.4325 53.7215 93.0804C53.4336 93.7203 53.0336 94.2122 52.5217 94.5561C52.0178 94.9 51.442 95.072 50.7941 95.072ZM50.7941 94.2801C51.282 94.2801 51.7099 94.1442 52.0778 93.8722C52.4538 93.6003 52.7457 93.2044 52.9537 92.6845C53.1616 92.1646 53.2656 91.5367 53.2656 90.8009C53.2656 90.065 53.1616 89.4371 52.9537 88.9172C52.7457 88.3973 52.4538 88.0014 52.0778 87.7295C51.7099 87.4575 51.282 87.3216 50.7941 87.3216C50.3062 87.3216 49.8743 87.4575 49.4984 87.7295C49.1304 88.0014 48.8425 88.3973 48.6345 88.9172C48.4266 89.4371 48.3226 90.065 48.3226 90.8009C48.3226 91.5367 48.4266 92.1646 48.6345 92.6845C48.8425 93.2044 49.1304 93.6003 49.4984 93.8722C49.8743 94.1442 50.3062 94.2801 50.7941 94.2801ZM58.7378 95.072C58.0899 95.072 57.51 94.9 56.9981 94.5561C56.4942 94.2122 56.0983 93.7203 55.8104 93.0804C55.5304 92.4325 55.3905 91.6727 55.3905 90.8009C55.3905 89.929 55.5304 89.1732 55.8104 88.5333C56.0983 87.8854 56.4942 87.3895 56.9981 87.0456C57.51 86.7017 58.0899 86.5297 58.7378 86.5297C59.3857 86.5297 59.9615 86.7017 60.4654 87.0456C60.9773 87.3895 61.3773 87.8854 61.6652 88.5333C61.9531 89.1732 62.0971 89.929 62.0971 90.8009C62.0971 91.6727 61.9531 92.4325 61.6652 93.0804C61.3773 93.7203 60.9773 94.2122 60.4654 94.5561C59.9615 94.9 59.3857 95.072 58.7378 95.072ZM58.7378 94.2801C59.2257 94.2801 59.6536 94.1442 60.0215 93.8722C60.3975 93.6003 60.6894 93.2044 60.8974 92.6845C61.1053 92.1646 61.2093 91.5367 61.2093 90.8009C61.2093 90.065 61.1053 89.4371 60.8974 88.9172C60.6894 88.3973 60.3975 88.0014 60.0215 87.7295C59.6536 87.4575 59.2257 87.3216 58.7378 87.3216C58.2499 87.3216 57.818 87.4575 57.4421 87.7295C57.0741 88.0014 56.7862 88.3973 56.5782 88.9172C56.3703 89.4371 56.2663 90.065 56.2663 90.8009C56.2663 91.5367 56.3703 92.1646 56.5782 92.6845C56.7862 93.2044 57.0741 93.6003 57.4421 93.8722C57.818 94.1442 58.2499 94.2801 58.7378 94.2801ZM66.6815 95.072C66.0336 95.072 65.4537 94.9 64.9418 94.5561C64.438 94.2122 64.042 93.7203 63.7541 93.0804C63.4741 92.4325 63.3342 91.6727 63.3342 90.8009C63.3342 89.929 63.4741 89.1732 63.7541 88.5333C64.042 87.8854 64.438 87.3895 64.9418 87.0456C65.4537 86.7017 66.0336 86.5297 66.6815 86.5297C67.3294 86.5297 67.9052 86.7017 68.4091 87.0456C68.921 87.3895 69.321 87.8854 69.6089 88.5333C69.8968 89.1732 70.0408 89.929 70.0408 90.8009C70.0408 91.6727 69.8968 92.4325 69.6089 93.0804C69.321 93.7203 68.921 94.2122 68.4091 94.5561C67.9052 94.9 67.3294 95.072 66.6815 95.072ZM66.6815 94.2801C67.1694 94.2801 67.5973 94.1442 67.9652 93.8722C68.3412 93.6003 68.6331 93.2044 68.8411 92.6845C69.049 92.1646 69.153 91.5367 69.153 90.8009C69.153 90.065 69.049 89.4371 68.8411 88.9172C68.6331 88.3973 68.3412 88.0014 67.9652 87.7295C67.5973 87.4575 67.1694 87.3216 66.6815 87.3216C66.1936 87.3216 65.7617 87.4575 65.3858 87.7295C65.0178 88.0014 64.7299 88.3973 64.5219 88.9172C64.314 89.4371 64.21 90.065 64.21 90.8009C64.21 91.5367 64.314 92.1646 64.5219 92.6845C64.7299 93.2044 65.0178 93.6003 65.3858 93.8722C65.7617 94.1442 66.1936 94.2801 66.6815 94.2801ZM76.3015 92.1806V92.9124H79.0009V93.4403H76.3015V95H75.4137V93.4403H74.1539V92.9124H75.4137V86.6017H78.557C79.6368 86.6017 80.4766 86.8457 81.0765 87.3336C81.6844 87.8135 81.9883 88.4973 81.9883 89.3851C81.9883 90.281 81.6844 90.9728 81.0765 91.4607C80.4766 91.9406 79.6368 92.1806 78.557 92.1806H76.3015ZM76.3015 87.3695V91.4247H78.569C79.3849 91.4247 80.0087 91.2488 80.4406 90.8968C80.8806 90.5449 81.1005 90.045 81.1005 89.3971C81.1005 88.7493 80.8806 88.2494 80.4406 87.8974C80.0087 87.5455 79.3849 87.3695 78.569 87.3695H76.3015Z" fill="white"></path> <path d="M209.359 94.2322V95H203.468V94.3881L206.959 90.9688C207.399 90.5369 207.695 90.165 207.847 89.853C208.007 89.5331 208.087 89.2132 208.087 88.8932C208.087 88.3973 207.915 88.0134 207.571 87.7415C207.235 87.4615 206.751 87.3216 206.119 87.3216C205.136 87.3216 204.372 87.6335 203.828 88.2574L203.216 87.7295C203.544 87.3456 203.96 87.0496 204.464 86.8417C204.976 86.6337 205.551 86.5297 206.191 86.5297C207.047 86.5297 207.723 86.7337 208.219 87.1416C208.723 87.5415 208.975 88.0934 208.975 88.7973C208.975 89.2292 208.879 89.6451 208.687 90.045C208.495 90.4449 208.131 90.9048 207.595 91.4247L204.74 94.2322H209.359ZM213.743 95.072C213.095 95.072 212.516 94.9 212.004 94.5561C211.5 94.2122 211.104 93.7203 210.816 93.0804C210.536 92.4325 210.396 91.6727 210.396 90.8009C210.396 89.929 210.536 89.1732 210.816 88.5333C211.104 87.8854 211.5 87.3895 212.004 87.0456C212.516 86.7017 213.095 86.5297 213.743 86.5297C214.391 86.5297 214.967 86.7017 215.471 87.0456C215.983 87.3895 216.383 87.8854 216.671 88.5333C216.959 89.1732 217.103 89.929 217.103 90.8009C217.103 91.6727 216.959 92.4325 216.671 93.0804C216.383 93.7203 215.983 94.2122 215.471 94.5561C214.967 94.9 214.391 95.072 213.743 95.072ZM213.743 94.2801C214.231 94.2801 214.659 94.1442 215.027 93.8722C215.403 93.6003 215.695 93.2044 215.903 92.6845C216.111 92.1646 216.215 91.5367 216.215 90.8009C216.215 90.065 216.111 89.4371 215.903 88.9172C215.695 88.3973 215.403 88.0014 215.027 87.7295C214.659 87.4575 214.231 87.3216 213.743 87.3216C213.255 87.3216 212.823 87.4575 212.448 87.7295C212.08 88.0014 211.792 88.3973 211.584 88.9172C211.376 89.4371 211.272 90.065 211.272 90.8009C211.272 91.5367 211.376 92.1646 211.584 92.6845C211.792 93.2044 212.08 93.6003 212.448 93.8722C212.823 94.1442 213.255 94.2801 213.743 94.2801ZM224.827 95.072C224.179 95.072 223.599 94.9 223.087 94.5561C222.583 94.2122 222.187 93.7203 221.9 93.0804C221.62 92.4325 221.48 91.6727 221.48 90.8009C221.48 89.929 221.62 89.1732 221.9 88.5333C222.187 87.8854 222.583 87.3895 223.087 87.0456C223.599 86.7017 224.179 86.5297 224.827 86.5297C225.475 86.5297 226.051 86.7017 226.555 87.0456C227.066 87.3895 227.466 87.8854 227.754 88.5333C228.042 89.1732 228.186 89.929 228.186 90.8009C228.186 91.6727 228.042 92.4325 227.754 93.0804C227.466 93.7203 227.066 94.2122 226.555 94.5561C226.051 94.9 225.475 95.072 224.827 95.072ZM224.827 94.2801C225.315 94.2801 225.743 94.1442 226.111 93.8722C226.487 93.6003 226.779 93.2044 226.987 92.6845C227.194 92.1646 227.298 91.5367 227.298 90.8009C227.298 90.065 227.194 89.4371 226.987 88.9172C226.779 88.3973 226.487 88.0014 226.111 87.7295C225.743 87.4575 225.315 87.3216 224.827 87.3216C224.339 87.3216 223.907 87.4575 223.531 87.7295C223.163 88.0014 222.875 88.3973 222.667 88.9172C222.459 89.4371 222.355 90.065 222.355 90.8009C222.355 91.5367 222.459 92.1646 222.667 92.6845C222.875 93.2044 223.163 93.6003 223.531 93.8722C223.907 94.1442 224.339 94.2801 224.827 94.2801ZM232.771 95.072C232.123 95.072 231.543 94.9 231.031 94.5561C230.527 94.2122 230.131 93.7203 229.843 93.0804C229.563 92.4325 229.423 91.6727 229.423 90.8009C229.423 89.929 229.563 89.1732 229.843 88.5333C230.131 87.8854 230.527 87.3895 231.031 87.0456C231.543 86.7017 232.123 86.5297 232.771 86.5297C233.419 86.5297 233.994 86.7017 234.498 87.0456C235.01 87.3895 235.41 87.8854 235.698 88.5333C235.986 89.1732 236.13 89.929 236.13 90.8009C236.13 91.6727 235.986 92.4325 235.698 93.0804C235.41 93.7203 235.01 94.2122 234.498 94.5561C233.994 94.9 233.419 95.072 232.771 95.072ZM232.771 94.2801C233.259 94.2801 233.686 94.1442 234.054 93.8722C234.43 93.6003 234.722 93.2044 234.93 92.6845C235.138 92.1646 235.242 91.5367 235.242 90.8009C235.242 90.065 235.138 89.4371 234.93 88.9172C234.722 88.3973 234.43 88.0014 234.054 87.7295C233.686 87.4575 233.259 87.3216 232.771 87.3216C232.283 87.3216 231.851 87.4575 231.475 87.7295C231.107 88.0014 230.819 88.3973 230.611 88.9172C230.403 89.4371 230.299 90.065 230.299 90.8009C230.299 91.5367 230.403 92.1646 230.611 92.6845C230.819 93.2044 231.107 93.6003 231.475 93.8722C231.851 94.1442 232.283 94.2801 232.771 94.2801ZM240.714 95.072C240.066 95.072 239.487 94.9 238.975 94.5561C238.471 94.2122 238.075 93.7203 237.787 93.0804C237.507 92.4325 237.367 91.6727 237.367 90.8009C237.367 89.929 237.507 89.1732 237.787 88.5333C238.075 87.8854 238.471 87.3895 238.975 87.0456C239.487 86.7017 240.066 86.5297 240.714 86.5297C241.362 86.5297 241.938 86.7017 242.442 87.0456C242.954 87.3895 243.354 87.8854 243.642 88.5333C243.93 89.1732 244.074 89.929 244.074 90.8009C244.074 91.6727 243.93 92.4325 243.642 93.0804C243.354 93.7203 242.954 94.2122 242.442 94.5561C241.938 94.9 241.362 95.072 240.714 95.072ZM240.714 94.2801C241.202 94.2801 241.63 94.1442 241.998 93.8722C242.374 93.6003 242.666 93.2044 242.874 92.6845C243.082 92.1646 243.186 91.5367 243.186 90.8009C243.186 90.065 243.082 89.4371 242.874 88.9172C242.666 88.3973 242.374 88.0014 241.998 87.7295C241.63 87.4575 241.202 87.3216 240.714 87.3216C240.226 87.3216 239.795 87.4575 239.419 87.7295C239.051 88.0014 238.763 88.3973 238.555 88.9172C238.347 89.4371 238.243 90.065 238.243 90.8009C238.243 91.5367 238.347 92.1646 238.555 92.6845C238.763 93.2044 239.051 93.6003 239.419 93.8722C239.795 94.1442 240.226 94.2801 240.714 94.2801ZM251.798 95.072C251.15 95.072 250.57 94.9 250.058 94.5561C249.555 94.2122 249.159 93.7203 248.871 93.0804C248.591 92.4325 248.451 91.6727 248.451 90.8009C248.451 89.929 248.591 89.1732 248.871 88.5333C249.159 87.8854 249.555 87.3895 250.058 87.0456C250.57 86.7017 251.15 86.5297 251.798 86.5297C252.446 86.5297 253.022 86.7017 253.526 87.0456C254.038 87.3895 254.438 87.8854 254.725 88.5333C255.013 89.1732 255.157 89.929 255.157 90.8009C255.157 91.6727 255.013 92.4325 254.725 93.0804C254.438 93.7203 254.038 94.2122 253.526 94.5561C253.022 94.9 252.446 95.072 251.798 95.072ZM251.798 94.2801C252.286 94.2801 252.714 94.1442 253.082 93.8722C253.458 93.6003 253.75 93.2044 253.958 92.6845C254.166 92.1646 254.27 91.5367 254.27 90.8009C254.27 90.065 254.166 89.4371 253.958 88.9172C253.75 88.3973 253.458 88.0014 253.082 87.7295C252.714 87.4575 252.286 87.3216 251.798 87.3216C251.31 87.3216 250.878 87.4575 250.502 87.7295C250.134 88.0014 249.846 88.3973 249.638 88.9172C249.431 89.4371 249.327 90.065 249.327 90.8009C249.327 91.5367 249.431 92.1646 249.638 92.6845C249.846 93.2044 250.134 93.6003 250.502 93.8722C250.878 94.1442 251.31 94.2801 251.798 94.2801ZM259.742 95.072C259.094 95.072 258.514 94.9 258.002 94.5561C257.498 94.2122 257.102 93.7203 256.814 93.0804C256.534 92.4325 256.394 91.6727 256.394 90.8009C256.394 89.929 256.534 89.1732 256.814 88.5333C257.102 87.8854 257.498 87.3895 258.002 87.0456C258.514 86.7017 259.094 86.5297 259.742 86.5297C260.39 86.5297 260.966 86.7017 261.469 87.0456C261.981 87.3895 262.381 87.8854 262.669 88.5333C262.957 89.1732 263.101 89.929 263.101 90.8009C263.101 91.6727 262.957 92.4325 262.669 93.0804C262.381 93.7203 261.981 94.2122 261.469 94.5561C260.966 94.9 260.39 95.072 259.742 95.072ZM259.742 94.2801C260.23 94.2801 260.658 94.1442 261.025 93.8722C261.401 93.6003 261.693 93.2044 261.901 92.6845C262.109 92.1646 262.213 91.5367 262.213 90.8009C262.213 90.065 262.109 89.4371 261.901 88.9172C261.693 88.3973 261.401 88.0014 261.025 87.7295C260.658 87.4575 260.23 87.3216 259.742 87.3216C259.254 87.3216 258.822 87.4575 258.446 87.7295C258.078 88.0014 257.79 88.3973 257.582 88.9172C257.374 89.4371 257.27 90.065 257.27 90.8009C257.27 91.5367 257.374 92.1646 257.582 92.6845C257.79 93.2044 258.078 93.6003 258.446 93.8722C258.822 94.1442 259.254 94.2801 259.742 94.2801ZM267.685 95.072C267.038 95.072 266.458 94.9 265.946 94.5561C265.442 94.2122 265.046 93.7203 264.758 93.0804C264.478 92.4325 264.338 91.6727 264.338 90.8009C264.338 89.929 264.478 89.1732 264.758 88.5333C265.046 87.8854 265.442 87.3895 265.946 87.0456C266.458 86.7017 267.038 86.5297 267.685 86.5297C268.333 86.5297 268.909 86.7017 269.413 87.0456C269.925 87.3895 270.325 87.8854 270.613 88.5333C270.901 89.1732 271.045 89.929 271.045 90.8009C271.045 91.6727 270.901 92.4325 270.613 93.0804C270.325 93.7203 269.925 94.2122 269.413 94.5561C268.909 94.9 268.333 95.072 267.685 95.072ZM267.685 94.2801C268.173 94.2801 268.601 94.1442 268.969 93.8722C269.345 93.6003 269.637 93.2044 269.845 92.6845C270.053 92.1646 270.157 91.5367 270.157 90.8009C270.157 90.065 270.053 89.4371 269.845 88.9172C269.637 88.3973 269.345 88.0014 268.969 87.7295C268.601 87.4575 268.173 87.3216 267.685 87.3216C267.198 87.3216 266.766 87.4575 266.39 87.7295C266.022 88.0014 265.734 88.3973 265.526 88.9172C265.318 89.4371 265.214 90.065 265.214 90.8009C265.214 91.5367 265.318 92.1646 265.526 92.6845C265.734 93.2044 266.022 93.6003 266.39 93.8722C266.766 94.1442 267.198 94.2801 267.685 94.2801ZM277.305 92.1806V92.9124H280.005V93.4403H277.305V95H276.418V93.4403H275.158V92.9124H276.418V86.6017H279.561C280.641 86.6017 281.481 86.8457 282.08 87.3336C282.688 87.8135 282.992 88.4973 282.992 89.3851C282.992 90.281 282.688 90.9728 282.08 91.4607C281.481 91.9406 280.641 92.1806 279.561 92.1806H277.305ZM277.305 87.3695V91.4247H279.573C280.389 91.4247 281.013 91.2488 281.445 90.8968C281.885 90.5449 282.104 90.045 282.104 89.3971C282.104 88.7493 281.885 88.2494 281.445 87.8974C281.013 87.5455 280.389 87.3695 279.573 87.3695H277.305Z" fill="white"></path> </svg> 