<?xml version="1.0" encoding="UTF-8"?> <svg xmlns="http://www.w3.org/2000/svg" width="380" height="542" viewBox="0 0 380 542" fill="none"> <g clip-path="url(#clip0)"> <path d="M340 0H40C17.9086 0 0 17.9086 0 40V502C0 524.091 17.9086 542 40 542H340C362.091 542 380 524.091 380 502V40C380 17.9086 362.091 0 340 0Z" fill="#384E59" fill-opacity="0.48"></path> <path d="M330 204H50C33.4315 204 20 217.431 20 234V492C20 508.569 33.4315 522 50 522H330C346.569 522 360 508.569 360 492V234C360 217.431 346.569 204 330 204Z" fill="white" fill-opacity="0.04"></path> <path d="M40.4386 115.701C41.2918 115.954 41.9451 116.367 42.3984 116.941C42.8517 117.514 43.0783 118.221 43.0783 119.06C43.0783 120.3 42.605 121.267 41.6585 121.96C40.7252 122.653 39.3854 123 37.639 123H30.7398V109.002H37.259C38.8855 109.002 40.152 109.315 41.0585 109.942C41.9651 110.568 42.4184 111.461 42.4184 112.621C42.4184 113.315 42.2451 113.928 41.8984 114.461C41.5518 114.981 41.0652 115.394 40.4386 115.701ZM33.9594 114.801H36.979C37.6856 114.801 38.2189 114.661 38.5788 114.381C38.9388 114.088 39.1188 113.661 39.1188 113.101C39.1188 112.555 38.9321 112.135 38.5588 111.841C38.1989 111.548 37.6723 111.401 36.979 111.401H33.9594V114.801ZM37.519 120.6C39.0388 120.6 39.7987 120 39.7987 118.801C39.7987 117.641 39.0388 117.061 37.519 117.061H33.9594V120.6H37.519ZM50.4397 123.16C49.3065 123.16 48.2867 122.927 47.3801 122.46C46.4869 121.98 45.787 121.32 45.2804 120.48C44.7738 119.64 44.5205 118.687 44.5205 117.621C44.5205 116.554 44.7738 115.601 45.2804 114.761C45.787 113.921 46.4869 113.268 47.3801 112.801C48.2867 112.321 49.3065 112.081 50.4397 112.081C51.5729 112.081 52.5861 112.321 53.4794 112.801C54.3726 113.268 55.0725 113.921 55.5791 114.761C56.0857 115.601 56.339 116.554 56.339 117.621C56.339 118.687 56.0857 119.64 55.5791 120.48C55.0725 121.32 54.3726 121.98 53.4794 122.46C52.5861 122.927 51.5729 123.16 50.4397 123.16ZM50.4397 120.6C51.2396 120.6 51.8929 120.334 52.3995 119.8C52.9194 119.254 53.1794 118.527 53.1794 117.621C53.1794 116.714 52.9194 115.994 52.3995 115.461C51.8929 114.914 51.2396 114.641 50.4397 114.641C49.6398 114.641 48.9799 114.914 48.46 115.461C47.94 115.994 47.6801 116.714 47.6801 117.621C47.6801 118.527 47.94 119.254 48.46 119.8C48.9799 120.334 49.6398 120.6 50.4397 120.6ZM65.2686 117.401C65.9085 117.601 66.4018 117.907 66.7484 118.321C67.1083 118.734 67.2883 119.227 67.2883 119.8C67.2883 120.48 67.055 121.08 66.5884 121.6C66.1218 122.107 65.4819 122.5 64.6686 122.78C63.8554 123.06 62.9355 123.2 61.909 123.2C61.0691 123.2 60.2425 123.113 59.4293 122.94C58.616 122.767 57.8628 122.507 57.1695 122.16L58.0094 119.98C59.1426 120.527 60.3958 120.8 61.769 120.8C62.5022 120.8 63.0755 120.694 63.4888 120.48C63.9154 120.254 64.1287 119.94 64.1287 119.54C64.1287 119.194 63.9821 118.934 63.6888 118.761C63.3955 118.574 62.9688 118.481 62.4089 118.481H60.2092V116.541H62.1289C62.6755 116.541 63.0955 116.454 63.3888 116.281C63.6821 116.108 63.8287 115.854 63.8287 115.521C63.8287 115.174 63.6421 114.908 63.2688 114.721C62.9088 114.534 62.3889 114.441 61.709 114.441C60.6691 114.441 59.5359 114.688 58.3094 115.181L57.5495 113.021C59.0427 112.368 60.4958 112.041 61.909 112.041C62.8822 112.041 63.7487 112.161 64.5087 112.401C65.2819 112.641 65.8885 112.995 66.3284 113.461C66.7684 113.914 66.9884 114.448 66.9884 115.061C66.9884 115.568 66.835 116.028 66.5284 116.441C66.2218 116.841 65.8018 117.161 65.2686 117.401ZM77.7766 117.381C79.0431 117.807 79.6763 118.661 79.6763 119.94C79.6763 120.914 79.3097 121.667 78.5765 122.2C77.8432 122.733 76.75 123 75.2969 123H69.5576V112.241H75.0569C76.4034 112.241 77.4566 112.488 78.2165 112.981C78.9764 113.461 79.3564 114.141 79.3564 115.021C79.3564 115.554 79.2164 116.028 78.9364 116.441C78.6698 116.841 78.2832 117.154 77.7766 117.381ZM72.4172 116.661H74.7769C75.8701 116.661 76.4167 116.274 76.4167 115.501C76.4167 114.741 75.8701 114.361 74.7769 114.361H72.4172V116.661ZM75.0369 120.88C76.1834 120.88 76.7567 120.487 76.7567 119.7C76.7567 119.287 76.6234 118.987 76.3567 118.801C76.0901 118.601 75.6702 118.501 75.0969 118.501H72.4172V120.88H75.0369ZM88.3367 112.081C89.3366 112.081 90.2431 112.315 91.0564 112.781C91.8829 113.235 92.5295 113.881 92.9961 114.721C93.4627 115.548 93.696 116.514 93.696 117.621C93.696 118.727 93.4627 119.7 92.9961 120.54C92.5295 121.367 91.8829 122.013 91.0564 122.48C90.2431 122.933 89.3366 123.16 88.3367 123.16C86.9635 123.16 85.8837 122.727 85.0971 121.86V126.88H81.9775V112.241H84.9571V113.481C85.7303 112.548 86.8569 112.081 88.3367 112.081ZM87.7968 120.6C88.5967 120.6 89.2499 120.334 89.7565 119.8C90.2765 119.254 90.5364 118.527 90.5364 117.621C90.5364 116.714 90.2765 115.994 89.7565 115.461C89.2499 114.914 88.5967 114.641 87.7968 114.641C86.9969 114.641 86.3369 114.914 85.817 115.461C85.3104 115.994 85.0571 116.714 85.0571 117.621C85.0571 118.527 85.3104 119.254 85.817 119.8C86.3369 120.334 86.9969 120.6 87.7968 120.6ZM99.8862 112.081C101.553 112.081 102.833 112.481 103.726 113.281C104.619 114.068 105.066 115.261 105.066 116.861V123H102.146V121.66C101.559 122.66 100.466 123.16 98.8664 123.16C98.0398 123.16 97.3199 123.02 96.7066 122.74C96.1067 122.46 95.6467 122.073 95.3268 121.58C95.0068 121.087 94.8468 120.527 94.8468 119.9C94.8468 118.9 95.2201 118.114 95.9667 117.541C96.7266 116.967 97.8931 116.681 99.4663 116.681H101.946C101.946 116.001 101.739 115.481 101.326 115.121C100.913 114.748 100.293 114.561 99.4663 114.561C98.893 114.561 98.3264 114.654 97.7665 114.841C97.2199 115.014 96.7533 115.254 96.3667 115.561L95.2468 113.381C95.8334 112.968 96.5333 112.648 97.3465 112.421C98.1731 112.195 99.0197 112.081 99.8862 112.081ZM99.6463 121.06C100.18 121.06 100.653 120.94 101.066 120.7C101.479 120.447 101.773 120.08 101.946 119.6V118.501H99.8062C98.5264 118.501 97.8865 118.92 97.8865 119.76C97.8865 120.16 98.0398 120.48 98.3464 120.72C98.6664 120.947 99.0997 121.06 99.6463 121.06ZM116.814 114.801H113.175V123H110.075V114.801H106.436V112.241H116.814V114.801ZM131.12 117.401C131.76 117.601 132.253 117.907 132.6 118.321C132.96 118.734 133.14 119.227 133.14 119.8C133.14 120.48 132.906 121.08 132.44 121.6C131.973 122.107 131.333 122.5 130.52 122.78C129.707 123.06 128.787 123.2 127.76 123.2C126.92 123.2 126.094 123.113 125.281 122.94C124.467 122.767 123.714 122.507 123.021 122.16L123.861 119.98C124.994 120.527 126.247 120.8 127.62 120.8C128.354 120.8 128.927 120.694 129.34 120.48C129.767 120.254 129.98 119.94 129.98 119.54C129.98 119.194 129.833 118.934 129.54 118.761C129.247 118.574 128.82 118.481 128.26 118.481H126.061V116.541H127.98C128.527 116.541 128.947 116.454 129.24 116.281C129.533 116.108 129.68 115.854 129.68 115.521C129.68 115.174 129.493 114.908 129.12 114.721C128.76 114.534 128.24 114.441 127.56 114.441C126.52 114.441 125.387 114.688 124.161 115.181L123.401 113.021C124.894 112.368 126.347 112.041 127.76 112.041C128.734 112.041 129.6 112.161 130.36 112.401C131.133 112.641 131.74 112.995 132.18 113.461C132.62 113.914 132.84 114.448 132.84 115.061C132.84 115.568 132.686 116.028 132.38 116.441C132.073 116.841 131.653 117.161 131.12 117.401ZM139.588 112.081C141.255 112.081 142.535 112.481 143.428 113.281C144.321 114.068 144.768 115.261 144.768 116.861V123H141.848V121.66C141.262 122.66 140.168 123.16 138.569 123.16C137.742 123.16 137.022 123.02 136.409 122.74C135.809 122.46 135.349 122.073 135.029 121.58C134.709 121.087 134.549 120.527 134.549 119.9C134.549 118.9 134.922 118.114 135.669 117.541C136.429 116.967 137.595 116.681 139.168 116.681H141.648C141.648 116.001 141.442 115.481 141.028 115.121C140.615 114.748 139.995 114.561 139.168 114.561C138.595 114.561 138.029 114.654 137.469 114.841C136.922 115.014 136.455 115.254 136.069 115.561L134.949 113.381C135.536 112.968 136.236 112.648 137.049 112.421C137.875 112.195 138.722 112.081 139.588 112.081ZM139.348 121.06C139.882 121.06 140.355 120.94 140.768 120.7C141.182 120.447 141.475 120.08 141.648 119.6V118.501H139.508C138.229 118.501 137.589 118.92 137.589 119.76C137.589 120.16 137.742 120.48 138.049 120.72C138.369 120.947 138.802 121.06 139.348 121.06ZM147.478 112.241H150.577V118.641L155.817 112.241H158.676V123H155.577V116.601L150.357 123H147.478V112.241ZM152.877 111.081C150.531 111.081 149.351 110.048 149.338 107.982H151.377C151.391 108.448 151.517 108.815 151.757 109.082C152.011 109.335 152.377 109.462 152.857 109.462C153.337 109.462 153.704 109.335 153.957 109.082C154.224 108.815 154.357 108.448 154.357 107.982H156.437C156.423 110.048 155.237 111.081 152.877 111.081ZM172.174 123V116.561L168.954 121.96H167.635L164.495 116.541V123H161.675V112.241H164.935L168.374 118.461L172.034 112.241H174.954L174.994 123H172.174ZM182.161 112.081C183.828 112.081 185.108 112.481 186.001 113.281C186.894 114.068 187.341 115.261 187.341 116.861V123H184.421V121.66C183.835 122.66 182.741 123.16 181.142 123.16C180.315 123.16 179.595 123.02 178.982 122.74C178.382 122.46 177.922 122.073 177.602 121.58C177.282 121.087 177.122 120.527 177.122 119.9C177.122 118.9 177.495 118.114 178.242 117.541C179.002 116.967 180.168 116.681 181.741 116.681H184.221C184.221 116.001 184.014 115.481 183.601 115.121C183.188 114.748 182.568 114.561 181.741 114.561C181.168 114.561 180.602 114.654 180.042 114.841C179.495 115.014 179.028 115.254 178.642 115.561L177.522 113.381C178.109 112.968 178.808 112.648 179.622 112.421C180.448 112.195 181.295 112.081 182.161 112.081ZM181.921 121.06C182.455 121.06 182.928 120.94 183.341 120.7C183.755 120.447 184.048 120.08 184.221 119.6V118.501H182.081C180.802 118.501 180.162 118.92 180.162 119.76C180.162 120.16 180.315 120.48 180.622 120.72C180.942 120.947 181.375 121.06 181.921 121.06ZM206.413 112.241V123H203.293V114.801H198.814V123H195.714V112.241H206.413ZM215.743 112.081C216.743 112.081 217.65 112.315 218.463 112.781C219.289 113.235 219.936 113.881 220.403 114.721C220.869 115.548 221.102 116.514 221.102 117.621C221.102 118.727 220.869 119.7 220.403 120.54C219.936 121.367 219.289 122.013 218.463 122.48C217.65 122.933 216.743 123.16 215.743 123.16C214.37 123.16 213.29 122.727 212.503 121.86V126.88H209.384V112.241H212.363V113.481C213.137 112.548 214.263 112.081 215.743 112.081ZM215.203 120.6C216.003 120.6 216.656 120.334 217.163 119.8C217.683 119.254 217.943 118.527 217.943 117.621C217.943 116.714 217.683 115.994 217.163 115.461C216.656 114.914 216.003 114.641 215.203 114.641C214.403 114.641 213.743 114.914 213.223 115.461C212.717 115.994 212.463 116.714 212.463 117.621C212.463 118.527 212.717 119.254 213.223 119.8C213.743 120.334 214.403 120.6 215.203 120.6ZM228.328 123.16C227.195 123.16 226.175 122.927 225.269 122.46C224.375 121.98 223.676 121.32 223.169 120.48C222.662 119.64 222.409 118.687 222.409 117.621C222.409 116.554 222.662 115.601 223.169 114.761C223.676 113.921 224.375 113.268 225.269 112.801C226.175 112.321 227.195 112.081 228.328 112.081C229.461 112.081 230.475 112.321 231.368 112.801C232.261 113.268 232.961 113.921 233.468 114.761C233.974 115.601 234.228 116.554 234.228 117.621C234.228 118.687 233.974 119.64 233.468 120.48C232.961 121.32 232.261 121.98 231.368 122.46C230.475 122.927 229.461 123.16 228.328 123.16ZM228.328 120.6C229.128 120.6 229.781 120.334 230.288 119.8C230.808 119.254 231.068 118.527 231.068 117.621C231.068 116.714 230.808 115.994 230.288 115.461C229.781 114.914 229.128 114.641 228.328 114.641C227.528 114.641 226.868 114.914 226.349 115.461C225.829 115.994 225.569 116.714 225.569 117.621C225.569 118.527 225.829 119.254 226.349 119.8C226.868 120.334 227.528 120.6 228.328 120.6ZM236.373 112.241H239.473V118.641L244.712 112.241H247.572V123H244.472V116.601L239.253 123H236.373V112.241ZM255.69 123.16C254.544 123.16 253.51 122.927 252.59 122.46C251.684 121.98 250.971 121.32 250.451 120.48C249.944 119.64 249.691 118.687 249.691 117.621C249.691 116.554 249.944 115.601 250.451 114.761C250.971 113.921 251.684 113.268 252.59 112.801C253.51 112.321 254.544 112.081 255.69 112.081C256.823 112.081 257.81 112.321 258.65 112.801C259.503 113.268 260.123 113.941 260.51 114.821L258.09 116.121C257.53 115.134 256.723 114.641 255.67 114.641C254.857 114.641 254.184 114.908 253.65 115.441C253.117 115.974 252.85 116.701 252.85 117.621C252.85 118.541 253.117 119.267 253.65 119.8C254.184 120.334 254.857 120.6 255.67 120.6C256.737 120.6 257.543 120.107 258.09 119.12L260.51 120.44C260.123 121.294 259.503 121.96 258.65 122.44C257.81 122.92 256.823 123.16 255.69 123.16ZM268.891 123L266.531 119.7L264.092 123H260.692L264.831 117.581L260.832 112.241H264.332L266.611 115.381L268.951 112.241H272.271L268.271 117.501L272.431 123H268.891ZM278.674 123.16C277.541 123.16 276.521 122.927 275.614 122.46C274.721 121.98 274.021 121.32 273.514 120.48C273.008 119.64 272.754 118.687 272.754 117.621C272.754 116.554 273.008 115.601 273.514 114.761C274.021 113.921 274.721 113.268 275.614 112.801C276.521 112.321 277.541 112.081 278.674 112.081C279.807 112.081 280.82 112.321 281.713 112.801C282.607 113.268 283.306 113.921 283.813 114.761C284.32 115.601 284.573 116.554 284.573 117.621C284.573 118.687 284.32 119.64 283.813 120.48C283.306 121.32 282.607 121.98 281.713 122.46C280.82 122.927 279.807 123.16 278.674 123.16ZM278.674 120.6C279.474 120.6 280.127 120.334 280.633 119.8C281.153 119.254 281.413 118.527 281.413 117.621C281.413 116.714 281.153 115.994 280.633 115.461C280.127 114.914 279.474 114.641 278.674 114.641C277.874 114.641 277.214 114.914 276.694 115.461C276.174 115.994 275.914 116.714 275.914 117.621C275.914 118.527 276.174 119.254 276.694 119.8C277.214 120.334 277.874 120.6 278.674 120.6ZM298.621 120.44V125.32H295.721V123H288.162V125.32H285.263V120.44H285.703C286.369 120.427 286.829 120.034 287.082 119.26C287.336 118.487 287.496 117.387 287.562 115.961L287.702 112.241H297.081V120.44H298.621ZM290.382 116.181C290.342 117.274 290.255 118.167 290.122 118.861C290.002 119.554 289.769 120.08 289.422 120.44H293.962V114.801H290.442L290.382 116.181ZM300.584 112.241H303.684V118.641L308.923 112.241H311.783V123H308.683V116.601L303.464 123H300.584V112.241ZM323.821 114.801H320.181V123H317.081V114.801H313.442V112.241H323.821V114.801ZM41.1985 144.241V155H38.0789V146.801H33.5994V155H30.4998V144.241H41.1985ZM49.2289 155.16C48.0958 155.16 47.0759 154.927 46.1693 154.46C45.2761 153.98 44.5762 153.32 44.0696 152.48C43.563 151.64 43.3097 150.687 43.3097 149.621C43.3097 148.554 43.563 147.601 44.0696 146.761C44.5762 145.921 45.2761 145.268 46.1693 144.801C47.0759 144.321 48.0958 144.081 49.2289 144.081C50.3621 144.081 51.3754 144.321 52.2686 144.801C53.1618 145.268 53.8617 145.921 54.3683 146.761C54.8749 147.601 55.1282 148.554 55.1282 149.621C55.1282 150.687 54.8749 151.64 54.3683 152.48C53.8617 153.32 53.1618 153.98 52.2686 154.46C51.3754 154.927 50.3621 155.16 49.2289 155.16ZM49.2289 152.6C50.0289 152.6 50.6821 152.334 51.1887 151.8C51.7086 151.254 51.9686 150.527 51.9686 149.621C51.9686 148.714 51.7086 147.994 51.1887 147.461C50.6821 146.914 50.0289 146.641 49.2289 146.641C48.429 146.641 47.7691 146.914 47.2492 147.461C46.7293 147.994 46.4693 148.714 46.4693 149.621C46.4693 150.527 46.7293 151.254 47.2492 151.8C47.7691 152.334 48.429 152.6 49.2289 152.6ZM62.3933 155.16C61.2468 155.16 60.2136 154.927 59.2937 154.46C58.3871 153.98 57.6739 153.32 57.1539 152.48C56.6473 151.64 56.394 150.687 56.394 149.621C56.394 148.554 56.6473 147.601 57.1539 146.761C57.6739 145.921 58.3871 145.268 59.2937 144.801C60.2136 144.321 61.2468 144.081 62.3933 144.081C63.5265 144.081 64.513 144.321 65.3529 144.801C66.2062 145.268 66.8261 145.941 67.2127 146.821L64.793 148.121C64.2331 147.134 63.4265 146.641 62.3733 146.641C61.5601 146.641 60.8868 146.908 60.3535 147.441C59.8203 147.974 59.5536 148.701 59.5536 149.621C59.5536 150.541 59.8203 151.267 60.3535 151.8C60.8868 152.334 61.5601 152.6 62.3733 152.6C63.4398 152.6 64.2464 152.107 64.793 151.12L67.2127 152.44C66.8261 153.294 66.2062 153.96 65.3529 154.44C64.513 154.92 63.5265 155.16 62.3933 155.16ZM79.2709 144.241V155H76.1513V146.801H72.7517L72.6517 148.701C72.5984 150.114 72.4651 151.287 72.2518 152.22C72.0385 153.154 71.6918 153.887 71.2119 154.42C70.732 154.953 70.0654 155.22 69.2121 155.22C68.7589 155.22 68.2189 155.14 67.5923 154.98L67.7523 152.42C67.9656 152.447 68.1189 152.46 68.2123 152.46C68.6789 152.46 69.0255 152.294 69.2521 151.96C69.4921 151.614 69.6521 151.18 69.7321 150.661C69.8121 150.127 69.8721 149.427 69.9121 148.561L70.072 144.241H79.2709ZM92.7296 149.661C92.7296 149.701 92.7096 149.981 92.6696 150.501H84.5306C84.6772 151.167 85.0239 151.694 85.5705 152.08C86.1171 152.467 86.797 152.66 87.6102 152.66C88.1702 152.66 88.6634 152.58 89.09 152.42C89.53 152.247 89.9366 151.98 90.3099 151.62L91.9697 153.42C90.9565 154.58 89.4767 155.16 87.5302 155.16C86.317 155.16 85.2438 154.927 84.3106 154.46C83.3774 153.98 82.6575 153.32 82.1509 152.48C81.6443 151.64 81.391 150.687 81.391 149.621C81.391 148.567 81.6376 147.621 82.1309 146.781C82.6375 145.928 83.3241 145.268 84.1906 144.801C85.0705 144.321 86.0504 144.081 87.1303 144.081C88.1835 144.081 89.1367 144.308 89.9899 144.761C90.8432 145.215 91.5097 145.868 91.9897 146.721C92.483 147.561 92.7296 148.541 92.7296 149.661ZM87.1503 146.441C86.4437 146.441 85.8504 146.641 85.3705 147.041C84.8906 147.441 84.5973 147.988 84.4906 148.681H89.79C89.6833 148.001 89.39 147.461 88.9101 147.061C88.4301 146.648 87.8435 146.441 87.1503 146.441ZM100.784 144.241H103.884V150.641L109.123 144.241H111.983V155H108.883V148.601L103.664 155H100.784V144.241ZM120.101 155.16C118.955 155.16 117.921 154.927 117.001 154.46C116.095 153.98 115.382 153.32 114.862 152.48C114.355 151.64 114.102 150.687 114.102 149.621C114.102 148.554 114.355 147.601 114.862 146.761C115.382 145.921 116.095 145.268 117.001 144.801C117.921 144.321 118.955 144.081 120.101 144.081C121.234 144.081 122.221 144.321 123.061 144.801C123.914 145.268 124.534 145.941 124.921 146.821L122.501 148.121C121.941 147.134 121.134 146.641 120.081 146.641C119.268 146.641 118.595 146.908 118.061 147.441C117.528 147.974 117.261 148.701 117.261 149.621C117.261 150.541 117.528 151.267 118.061 151.8C118.595 152.334 119.268 152.6 120.081 152.6C121.148 152.6 121.954 152.107 122.501 151.12L124.921 152.44C124.534 153.294 123.914 153.96 123.061 154.44C122.221 154.92 121.234 155.16 120.101 155.16ZM137.515 144.241V155H134.395V146.801H129.916V155H126.816V144.241H137.515ZM145.545 155.16C144.412 155.16 143.392 154.927 142.486 154.46C141.593 153.98 140.893 153.32 140.386 152.48C139.879 151.64 139.626 150.687 139.626 149.621C139.626 148.554 139.879 147.601 140.386 146.761C140.893 145.921 141.593 145.268 142.486 144.801C143.392 144.321 144.412 144.081 145.545 144.081C146.679 144.081 147.692 144.321 148.585 144.801C149.478 145.268 150.178 145.921 150.685 146.761C151.191 147.601 151.445 148.554 151.445 149.621C151.445 150.687 151.191 151.64 150.685 152.48C150.178 153.32 149.478 153.98 148.585 154.46C147.692 154.927 146.679 155.16 145.545 155.16ZM145.545 152.6C146.345 152.6 146.999 152.334 147.505 151.8C148.025 151.254 148.285 150.527 148.285 149.621C148.285 148.714 148.025 147.994 147.505 147.461C146.999 146.914 146.345 146.641 145.545 146.641C144.745 146.641 144.086 146.914 143.566 147.461C143.046 147.994 142.786 148.714 142.786 149.621C142.786 150.527 143.046 151.254 143.566 151.8C144.086 152.334 144.745 152.6 145.545 152.6ZM163.753 144.241V155H160.633V146.801H157.234L157.134 148.701C157.08 150.114 156.947 151.287 156.734 152.22C156.52 153.154 156.174 153.887 155.694 154.42C155.214 154.953 154.547 155.22 153.694 155.22C153.241 155.22 152.701 155.14 152.074 154.98L152.234 152.42C152.448 152.447 152.601 152.46 152.694 152.46C153.161 152.46 153.507 152.294 153.734 151.96C153.974 151.614 154.134 151.18 154.214 150.661C154.294 150.127 154.354 149.427 154.394 148.561L154.554 144.241H163.753ZM166.753 144.241H169.852V148.441H174.532V144.241H177.651V155H174.532V150.98H169.852V155H166.753V144.241ZM191.097 149.661C191.097 149.701 191.077 149.981 191.037 150.501H182.898C183.044 151.167 183.391 151.694 183.937 152.08C184.484 152.467 185.164 152.66 185.977 152.66C186.537 152.66 187.03 152.58 187.457 152.42C187.897 152.247 188.304 151.98 188.677 151.62L190.337 153.42C189.323 154.58 187.844 155.16 185.897 155.16C184.684 155.16 183.611 154.927 182.678 154.46C181.744 153.98 181.024 153.32 180.518 152.48C180.011 151.64 179.758 150.687 179.758 149.621C179.758 148.567 180.005 147.621 180.498 146.781C181.004 145.928 181.691 145.268 182.558 144.801C183.437 144.321 184.417 144.081 185.497 144.081C186.55 144.081 187.504 144.308 188.357 144.761C189.21 145.215 189.877 145.868 190.357 146.721C190.85 147.561 191.097 148.541 191.097 149.661ZM185.517 146.441C184.811 146.441 184.217 146.641 183.737 147.041C183.258 147.441 182.964 147.988 182.858 148.681H188.157C188.05 148.001 187.757 147.461 187.277 147.061C186.797 146.648 186.21 146.441 185.517 146.441ZM193.488 144.241H196.587V148.441H201.267V144.241H204.387V155H201.267V150.98H196.587V155H193.488V144.241ZM207.373 144.241H210.472V150.641L215.712 144.241H218.572V155H215.472V148.601L210.253 155H207.373V144.241ZM231.129 144.241V155H228.35V151.92H226.05L224.01 155H220.69L223.15 151.48C222.404 151.187 221.83 150.767 221.43 150.221C221.044 149.661 220.85 148.987 220.85 148.201C220.85 146.934 221.304 145.961 222.21 145.281C223.13 144.588 224.39 144.241 225.99 144.241H231.129ZM226.05 146.781C225.383 146.781 224.877 146.901 224.53 147.141C224.197 147.381 224.03 147.768 224.03 148.301C224.03 148.834 224.19 149.227 224.51 149.481C224.843 149.721 225.343 149.841 226.01 149.841H228.35V146.781H226.05ZM244.53 150.92H242.91V155H239.791V144.241H242.91V148.421H244.59L247.51 144.241H250.829L247.07 149.401L251.089 155H247.41L244.53 150.92ZM257.329 155.16C256.195 155.16 255.176 154.927 254.269 154.46C253.376 153.98 252.676 153.32 252.169 152.48C251.663 151.64 251.409 150.687 251.409 149.621C251.409 148.554 251.663 147.601 252.169 146.761C252.676 145.921 253.376 145.268 254.269 144.801C255.176 144.321 256.195 144.081 257.329 144.081C258.462 144.081 259.475 144.321 260.368 144.801C261.262 145.268 261.961 145.921 262.468 146.761C262.975 147.601 263.228 148.554 263.228 149.621C263.228 150.687 262.975 151.64 262.468 152.48C261.961 153.32 261.262 153.98 260.368 154.46C259.475 154.927 258.462 155.16 257.329 155.16ZM257.329 152.6C258.129 152.6 258.782 152.334 259.288 151.8C259.808 151.254 260.068 150.527 260.068 149.621C260.068 148.714 259.808 147.994 259.288 147.461C258.782 146.914 258.129 146.641 257.329 146.641C256.529 146.641 255.869 146.914 255.349 147.461C254.829 147.994 254.569 148.714 254.569 149.621C254.569 150.527 254.829 151.254 255.349 151.8C255.869 152.334 256.529 152.6 257.329 152.6ZM265.374 144.241H268.473V148.441H273.153V144.241H276.272V155H273.153V150.98H268.473V155H265.374V144.241ZM288.298 146.801H284.658V155H281.558V146.801H277.919V144.241H288.298V146.801ZM296.3 144.081C297.3 144.081 298.206 144.315 299.019 144.781C299.846 145.235 300.493 145.881 300.959 146.721C301.426 147.548 301.659 148.514 301.659 149.621C301.659 150.727 301.426 151.7 300.959 152.54C300.493 153.367 299.846 154.013 299.019 154.48C298.206 154.933 297.3 155.16 296.3 155.16C294.927 155.16 293.847 154.727 293.06 153.86V158.88H289.94V144.241H292.92V145.481C293.693 144.548 294.82 144.081 296.3 144.081ZM295.76 152.6C296.56 152.6 297.213 152.334 297.72 151.8C298.239 151.254 298.499 150.527 298.499 149.621C298.499 148.714 298.239 147.994 297.72 147.461C297.213 146.914 296.56 146.641 295.76 146.641C294.96 146.641 294.3 146.914 293.78 147.461C293.273 147.994 293.02 148.714 293.02 149.621C293.02 150.527 293.273 151.254 293.78 151.8C294.3 152.334 294.96 152.6 295.76 152.6ZM307.849 144.081C309.516 144.081 310.796 144.481 311.689 145.281C312.582 146.068 313.029 147.261 313.029 148.861V155H310.109V153.66C309.522 154.66 308.429 155.16 306.829 155.16C306.003 155.16 305.283 155.02 304.67 154.74C304.07 154.46 303.61 154.073 303.29 153.58C302.97 153.087 302.81 152.527 302.81 151.9C302.81 150.9 303.183 150.114 303.93 149.541C304.69 148.967 305.856 148.681 307.429 148.681H309.909C309.909 148.001 309.702 147.481 309.289 147.121C308.876 146.748 308.256 146.561 307.429 146.561C306.856 146.561 306.289 146.654 305.729 146.841C305.183 147.014 304.716 147.254 304.33 147.561L303.21 145.381C303.796 144.968 304.496 144.648 305.31 144.421C306.136 144.195 306.983 144.081 307.849 144.081ZM307.609 153.06C308.143 153.06 308.616 152.94 309.029 152.7C309.442 152.447 309.736 152.08 309.909 151.6V150.501H307.769C306.489 150.501 305.849 150.92 305.849 151.76C305.849 152.16 306.003 152.48 306.309 152.72C306.629 152.947 307.063 153.06 307.609 153.06ZM320.478 150.92H318.858V155H315.739V144.241H318.858V148.421H320.538L323.458 144.241H326.777L323.018 149.401L327.037 155H323.358L320.478 150.92ZM337.51 146.801H333.871V155H330.771V146.801H327.132V144.241H337.51V146.801ZM343.353 144.081C345.019 144.081 346.299 144.481 347.192 145.281C348.086 146.068 348.532 147.261 348.532 148.861V155H345.612V153.66C345.026 154.66 343.933 155.16 342.333 155.16C341.506 155.16 340.786 155.02 340.173 154.74C339.573 154.46 339.113 154.073 338.793 153.58C338.473 153.087 338.313 152.527 338.313 151.9C338.313 150.9 338.687 150.114 339.433 149.541C340.193 148.967 341.36 148.681 342.933 148.681H345.412C345.412 148.001 345.206 147.481 344.793 147.121C344.379 146.748 343.759 146.561 342.933 146.561C342.36 146.561 341.793 146.654 341.233 146.841C340.686 147.014 340.22 147.254 339.833 147.561L338.713 145.381C339.3 144.968 340 144.648 340.813 144.421C341.64 144.195 342.486 144.081 343.353 144.081ZM343.113 153.06C343.646 153.06 344.119 152.94 344.533 152.7C344.946 152.447 345.239 152.08 345.412 151.6V150.501H343.273C341.993 150.501 341.353 150.92 341.353 151.76C341.353 152.16 341.506 152.48 341.813 152.72C342.133 152.947 342.566 153.06 343.113 153.06Z" fill="white"></path> <g filter="url(#filter0_i)"> <path d="M64 30H44C35.7157 30 29 36.7157 29 45V65C29 73.2843 35.7157 80 44 80H64C72.2843 80 79 73.2843 79 65V45C79 36.7157 72.2843 30 64 30Z" fill="#384E59" fill-opacity="0.48"></path> <path d="M64 30H44C35.7157 30 29 36.7157 29 45V65C29 73.2843 35.7157 80 44 80H64C72.2843 80 79 73.2843 79 65V45C79 36.7157 72.2843 30 64 30Z" fill="url(#paint0_linear)" fill-opacity="0.1"></path> </g> <g opacity="0.7" filter="url(#filter1_f)"> <path opacity="0.7" d="M182 299L194.35 313.434L211.505 301.777L218.21 318.004L239 309.919L239.601 326.834L262.61 322.871L257.067 339.32L280.727 339.75L269.417 354.613L292.116 359.406L275.811 371.671L296 380.5L275.811 389.329L292.116 401.594L269.417 406.387L280.727 421.25L257.067 421.68L262.61 438.129L239.601 434.166L239 451.081L218.21 442.996L211.505 459.223L194.35 447.566L182 462L169.65 447.566L152.495 459.223L145.79 442.996L125 451.081L124.399 434.166L101.39 438.129L106.933 421.68L83.2731 421.25L94.5825 406.387L71.8845 401.594L88.1895 389.329L68 380.5L88.1895 371.671L71.8845 359.406L94.5825 354.613L83.2731 339.75L106.933 339.32L101.39 322.871L124.399 326.834L125 309.919L145.79 318.004L152.495 301.777L169.65 313.434L182 299Z" fill="#0089D7"></path> </g> <path d="M53.4175 52.9489C55.6868 52.9489 57.3581 53.4012 58.4315 54.3059C59.5201 55.2106 60.0645 56.4219 60.0645 57.9399C60.0645 58.9212 59.8191 59.8182 59.3285 60.6309C58.8378 61.4282 58.0865 62.0722 57.0745 62.5629C56.0778 63.0382 54.8435 63.2759 53.3715 63.2759C52.2368 63.2759 51.1175 63.1302 50.0135 62.8389C48.9248 62.5322 47.9971 62.1029 47.2305 61.5509L48.7025 58.6989C49.3158 59.1589 50.0211 59.5192 50.8185 59.7799C51.6158 60.0252 52.4361 60.1479 53.2795 60.1479C54.2148 60.1479 54.9508 59.9639 55.4875 59.5959C56.0241 59.2279 56.2925 58.7142 56.2925 58.0549C56.2925 57.3649 56.0088 56.8436 55.4415 56.4909C54.8895 56.1382 53.9235 55.9619 52.5435 55.9619H48.4265L49.2545 46.8999H59.0755V49.8899H52.3595L52.1065 52.9489H53.4175Z" fill="#26A2FC"></path> </g> <defs> <filter id="filter0_i" x="29" y="30" width="51" height="51" filterUnits="userSpaceOnUse" color-interpolation-filters="sRGB"> <feFlood flood-opacity="0" result="BackgroundImageFix"></feFlood> <feBlend mode="normal" in="SourceGraphic" in2="BackgroundImageFix" result="shape"></feBlend> <feColorMatrix in="SourceAlpha" type="matrix" values="0 0 0 0 0 0 0 0 0 0 0 0 0 0 0 0 0 0 127 0" result="hardAlpha"></feColorMatrix> <feOffset dx="1" dy="1"></feOffset> <feGaussianBlur stdDeviation="2"></feGaussianBlur> <feComposite in2="hardAlpha" operator="arithmetic" k2="-1" k3="1"></feComposite> <feColorMatrix type="matrix" values="0 0 0 0 1 0 0 0 0 1 0 0 0 0 1 0 0 0 0.05 0"></feColorMatrix> <feBlend mode="normal" in2="shape" result="effect1_innerShadow"></feBlend> </filter> <filter id="filter1_f" x="-32" y="199" width="428" height="363" filterUnits="userSpaceOnUse" color-interpolation-filters="sRGB"> <feFlood flood-opacity="0" result="BackgroundImageFix"></feFlood> <feBlend mode="normal" in="SourceGraphic" in2="BackgroundImageFix" result="shape"></feBlend> <feGaussianBlur stdDeviation="50" result="effect1_foregroundBlur"></feGaussianBlur> </filter> <linearGradient id="paint0_linear" x1="54" y1="30" x2="54" y2="80" gradientUnits="userSpaceOnUse"> <stop stop-color="#00A3FF"></stop> <stop offset="1" stop-color="#26A2FC" stop-opacity="0"></stop> </linearGradient> <clipPath id="clip0"> <rect width="380" height="542" fill="white"></rect> </clipPath> </defs> </svg> 