<?xml version="1.0" encoding="UTF-8"?> <svg xmlns="http://www.w3.org/2000/svg" width="300" height="110" viewBox="0 0 300 110" fill="none"> <rect x="0.374899" y="0.374899" width="299.25" height="109.25" rx="14.621" fill="black" fill-opacity="0.14"></rect> <rect x="0.374899" y="0.374899" width="299.25" height="109.25" rx="14.621" stroke="white" stroke-width="0.749797"></rect> <path d="M25.936 27.084C24.9653 27.084 24.088 26.8693 23.304 26.44C22.5293 26.0107 21.918 25.418 21.47 24.662C21.0313 23.8967 20.812 23.0427 20.812 22.1C20.812 21.1573 21.0313 20.308 21.47 19.552C21.918 18.7867 22.534 18.1893 23.318 17.76C24.102 17.3307 24.9793 17.116 25.95 17.116C26.678 17.116 27.35 17.2373 27.966 17.48C28.582 17.7227 29.1047 18.0773 29.534 18.544L28.876 19.202C28.1107 18.4273 27.1447 18.04 25.978 18.04C25.2033 18.04 24.4987 18.2173 23.864 18.572C23.2293 18.9267 22.73 19.412 22.366 20.028C22.0113 20.644 21.834 21.3347 21.834 22.1C21.834 22.8653 22.0113 23.556 22.366 24.172C22.73 24.788 23.2293 25.2733 23.864 25.628C24.4987 25.9827 25.2033 26.16 25.978 26.16C27.154 26.16 28.12 25.768 28.876 24.984L29.534 25.642C29.1047 26.1087 28.5773 26.468 27.952 26.72C27.336 26.9627 26.664 27.084 25.936 27.084ZM35.2295 19.58C35.9202 19.58 36.5455 19.7387 37.1055 20.056C37.6655 20.364 38.1042 20.8027 38.4215 21.372C38.7388 21.9413 38.8975 22.59 38.8975 23.318C38.8975 24.0553 38.7388 24.7087 38.4215 25.278C38.1042 25.8473 37.6655 26.2907 37.1055 26.608C36.5548 26.916 35.9295 27.07 35.2295 27.07C34.6322 27.07 34.0908 26.9487 33.6055 26.706C33.1295 26.454 32.7375 26.09 32.4295 25.614V29.716H31.4355V19.636H32.3875V21.092C32.6862 20.6067 33.0782 20.2333 33.5635 19.972C34.0582 19.7107 34.6135 19.58 35.2295 19.58ZM35.1595 26.188C35.6728 26.188 36.1395 26.0713 36.5595 25.838C36.9795 25.5953 37.3062 25.2547 37.5395 24.816C37.7822 24.3773 37.9035 23.878 37.9035 23.318C37.9035 22.758 37.7822 22.2633 37.5395 21.834C37.3062 21.3953 36.9795 21.0547 36.5595 20.812C36.1395 20.5693 35.6728 20.448 35.1595 20.448C34.6368 20.448 34.1655 20.5693 33.7455 20.812C33.3348 21.0547 33.0082 21.3953 32.7655 21.834C32.5322 22.2633 32.4155 22.758 32.4155 23.318C32.4155 23.878 32.5322 24.3773 32.7655 24.816C33.0082 25.2547 33.3348 25.5953 33.7455 25.838C34.1655 26.0713 34.6368 26.188 35.1595 26.188ZM44.0711 27.07C43.3618 27.07 42.7225 26.9113 42.1531 26.594C41.5838 26.2673 41.1358 25.8193 40.8091 25.25C40.4825 24.6807 40.3191 24.0367 40.3191 23.318C40.3191 22.5993 40.4825 21.9553 40.8091 21.386C41.1358 20.8167 41.5838 20.3733 42.1531 20.056C42.7225 19.7387 43.3618 19.58 44.0711 19.58C44.7805 19.58 45.4198 19.7387 45.9891 20.056C46.5585 20.3733 47.0018 20.8167 47.3191 21.386C47.6458 21.9553 47.8091 22.5993 47.8091 23.318C47.8091 24.0367 47.6458 24.6807 47.3191 25.25C47.0018 25.8193 46.5585 26.2673 45.9891 26.594C45.4198 26.9113 44.7805 27.07 44.0711 27.07ZM44.0711 26.188C44.5938 26.188 45.0605 26.0713 45.4711 25.838C45.8911 25.5953 46.2178 25.2547 46.4511 24.816C46.6845 24.3773 46.8011 23.878 46.8011 23.318C46.8011 22.758 46.6845 22.2587 46.4511 21.82C46.2178 21.3813 45.8911 21.0453 45.4711 20.812C45.0605 20.5693 44.5938 20.448 44.0711 20.448C43.5485 20.448 43.0771 20.5693 42.6571 20.812C42.2465 21.0453 41.9198 21.3813 41.6771 21.82C41.4438 22.2587 41.3271 22.758 41.3271 23.318C41.3271 23.878 41.4438 24.3773 41.6771 24.816C41.9198 25.2547 42.2465 25.5953 42.6571 25.838C43.0771 26.0713 43.5485 26.188 44.0711 26.188ZM52.6075 23.724H50.9275V27H49.9335V19.636H50.9275V22.87H52.6215L55.2115 19.636H56.2895L53.3915 23.206L56.4995 27H55.3235L52.6075 23.724ZM65.3164 23.164C65.839 23.2853 66.2404 23.4953 66.5204 23.794C66.8097 24.0927 66.9544 24.4567 66.9544 24.886C66.9544 25.3153 66.805 25.698 66.5064 26.034C66.217 26.37 65.8204 26.6313 65.3164 26.818C64.8124 26.9953 64.257 27.084 63.6504 27.084C63.1184 27.084 62.5957 27.0093 62.0824 26.86C61.569 26.7013 61.121 26.4727 60.7384 26.174L61.0744 25.432C61.4104 25.684 61.8024 25.88 62.2504 26.02C62.6984 26.16 63.151 26.23 63.6084 26.23C64.2897 26.23 64.845 26.104 65.2744 25.852C65.713 25.5907 65.9324 25.2407 65.9324 24.802C65.9324 24.41 65.755 24.1067 65.4004 23.892C65.0457 23.668 64.5604 23.556 63.9444 23.556H62.6844V22.828H63.8884C64.439 22.828 64.8824 22.7253 65.2184 22.52C65.5544 22.3053 65.7224 22.0207 65.7224 21.666C65.7224 21.274 65.531 20.966 65.1484 20.742C64.775 20.518 64.285 20.406 63.6784 20.406C62.885 20.406 62.101 20.6067 61.3264 21.008L61.0464 20.238C61.9237 19.7807 62.8337 19.552 63.7764 19.552C64.3364 19.552 64.8404 19.636 65.2884 19.804C65.7457 19.9627 66.1004 20.1913 66.3524 20.49C66.6137 20.7887 66.7444 21.134 66.7444 21.526C66.7444 21.8993 66.6137 22.2307 66.3524 22.52C66.1004 22.8093 65.755 23.024 65.3164 23.164ZM71.7449 19.58C72.7062 19.58 73.4435 19.8227 73.9569 20.308C74.4702 20.784 74.7269 21.4933 74.7269 22.436V27H73.7749V25.852C73.5509 26.2347 73.2195 26.5333 72.7809 26.748C72.3515 26.9627 71.8382 27.07 71.2409 27.07C70.4195 27.07 69.7662 26.874 69.2809 26.482C68.7955 26.09 68.5529 25.572 68.5529 24.928C68.5529 24.3027 68.7769 23.7987 69.2249 23.416C69.6822 23.0333 70.4055 22.842 71.3949 22.842H73.7329V22.394C73.7329 21.7593 73.5555 21.2787 73.2009 20.952C72.8462 20.616 72.3282 20.448 71.6469 20.448C71.1802 20.448 70.7322 20.5273 70.3029 20.686C69.8735 20.8353 69.5049 21.0453 69.1969 21.316L68.7489 20.574C69.1222 20.2567 69.5702 20.014 70.0929 19.846C70.6155 19.6687 71.1662 19.58 71.7449 19.58ZM71.3949 26.286C71.9549 26.286 72.4355 26.16 72.8369 25.908C73.2382 25.6467 73.5369 25.2733 73.7329 24.788V23.584H71.4229C70.1629 23.584 69.5329 24.0227 69.5329 24.9C69.5329 25.3293 69.6962 25.67 70.0229 25.922C70.3495 26.1647 70.8069 26.286 71.3949 26.286ZM77.373 19.636H78.367V25.488L83.281 19.636H84.163V27H83.169V21.148L78.269 27H77.373V19.636ZM80.719 18.572C80.0843 18.572 79.5803 18.4133 79.207 18.096C78.8337 17.7787 78.6423 17.3307 78.633 16.752H79.347C79.3563 17.116 79.487 17.41 79.739 17.634C79.991 17.8487 80.3177 17.956 80.719 17.956C81.1203 17.956 81.447 17.8487 81.699 17.634C81.9603 17.41 82.0957 17.116 82.105 16.752H82.819C82.8097 17.3307 82.6137 17.7787 82.231 18.096C81.8577 18.4133 81.3537 18.572 80.719 18.572ZM95.2437 19.636V27H94.3337V21.176L91.3517 26.104H90.9037L87.9217 21.162V27H87.0117V19.636H88.0197L91.1417 24.942L94.3197 19.636H95.2437ZM100.606 19.58C101.568 19.58 102.305 19.8227 102.818 20.308C103.332 20.784 103.588 21.4933 103.588 22.436V27H102.636V25.852C102.412 26.2347 102.081 26.5333 101.642 26.748C101.213 26.9627 100.7 27.07 100.102 27.07C99.2809 27.07 98.6275 26.874 98.1422 26.482C97.6569 26.09 97.4142 25.572 97.4142 24.928C97.4142 24.3027 97.6382 23.7987 98.0862 23.416C98.5435 23.0333 99.2669 22.842 100.256 22.842H102.594V22.394C102.594 21.7593 102.417 21.2787 102.062 20.952C101.708 20.616 101.19 20.448 100.508 20.448C100.042 20.448 99.5935 20.5273 99.1642 20.686C98.7349 20.8353 98.3662 21.0453 98.0582 21.316L97.6102 20.574C97.9835 20.2567 98.4315 20.014 98.9542 19.846C99.4769 19.6687 100.028 19.58 100.606 19.58ZM100.256 26.286C100.816 26.286 101.297 26.16 101.698 25.908C102.1 25.6467 102.398 25.2733 102.594 24.788V23.584H100.284C99.0242 23.584 98.3942 24.0227 98.3942 24.9C98.3942 25.3293 98.5575 25.67 98.8842 25.922C99.2109 26.1647 99.6682 26.286 100.256 26.286Z" fill="white"></path> <path d="M23.9514 86.6017V95H23.0876V87.3695H21.108V86.6017H23.9514ZM36.7414 88.6893V95H35.9615V90.009L33.406 94.2322H33.0221L30.4666 89.997V95H29.6868V88.6893H30.5506L33.2261 93.2364L35.9495 88.6893H36.7414ZM44.6842 92.1086H39.4053C39.4533 92.7645 39.7052 93.2963 40.1611 93.7043C40.6171 94.1042 41.1929 94.3041 41.8888 94.3041C42.2807 94.3041 42.6406 94.2362 42.9686 94.1002C43.2965 93.9562 43.5805 93.7483 43.8204 93.4763L44.3003 94.0282C44.0204 94.3641 43.6684 94.6201 43.2445 94.796C42.8286 94.972 42.3687 95.06 41.8648 95.06C41.2169 95.06 40.6411 94.924 40.1372 94.6521C39.6413 94.3721 39.2533 93.9882 38.9734 93.5003C38.6934 93.0124 38.5535 92.4605 38.5535 91.8446C38.5535 91.2288 38.6854 90.6769 38.9494 90.189C39.2213 89.7011 39.5893 89.3212 40.0532 89.0492C40.5251 88.7773 41.053 88.6413 41.6368 88.6413C42.2207 88.6413 42.7446 88.7773 43.2085 89.0492C43.6724 89.3212 44.0364 89.7011 44.3003 90.189C44.5643 90.6689 44.6962 91.2208 44.6962 91.8446L44.6842 92.1086ZM41.6368 89.3731C41.029 89.3731 40.5171 89.5691 40.1012 89.961C39.6932 90.3449 39.4613 90.8488 39.4053 91.4727H43.8804C43.8244 90.8488 43.5885 90.3449 43.1725 89.961C42.7646 89.5691 42.2527 89.3731 41.6368 89.3731ZM49.2213 95.06C48.5974 95.06 48.0375 94.924 47.5416 94.6521C47.0537 94.3801 46.6698 94.0002 46.3899 93.5123C46.1099 93.0164 45.9699 92.4605 45.9699 91.8446C45.9699 91.2288 46.1099 90.6769 46.3899 90.189C46.6698 89.7011 47.0537 89.3212 47.5416 89.0492C48.0375 88.7773 48.5974 88.6413 49.2213 88.6413C49.7652 88.6413 50.2491 88.7493 50.673 88.9652C51.1049 89.1732 51.4448 89.4811 51.6928 89.889L51.0569 90.3209C50.849 90.009 50.585 89.7771 50.2651 89.6251C49.9451 89.4651 49.5972 89.3851 49.2213 89.3851C48.7654 89.3851 48.3535 89.4891 47.9855 89.6971C47.6256 89.897 47.3417 90.185 47.1337 90.5609C46.9337 90.9368 46.8338 91.3647 46.8338 91.8446C46.8338 92.3325 46.9337 92.7645 47.1337 93.1404C47.3417 93.5083 47.6256 93.7962 47.9855 94.0042C48.3535 94.2042 48.7654 94.3041 49.2213 94.3041C49.5972 94.3041 49.9451 94.2282 50.2651 94.0762C50.585 93.9242 50.849 93.6923 51.0569 93.3803L51.6928 93.8122C51.4448 94.2202 51.1049 94.5321 50.673 94.7481C50.2411 94.956 49.7572 95.06 49.2213 95.06ZM53.6365 95.06C53.4605 95.06 53.3085 94.996 53.1806 94.868C53.0606 94.7401 53.0006 94.5841 53.0006 94.4001C53.0006 94.2162 53.0606 94.0642 53.1806 93.9442C53.3085 93.8162 53.4605 93.7523 53.6365 93.7523C53.8124 93.7523 53.9644 93.8162 54.0924 93.9442C54.2204 94.0642 54.2843 94.2162 54.2843 94.4001C54.2843 94.5841 54.2204 94.7401 54.0924 94.868C53.9644 94.996 53.8124 95.06 53.6365 95.06Z" fill="white"></path> <path d="M245.951 86.6017V95H245.088V87.3695H243.108V86.6017H245.951ZM253.694 94.2322V95H247.803V94.3881L251.294 90.9688C251.734 90.5369 252.03 90.165 252.182 89.853C252.342 89.5331 252.422 89.2132 252.422 88.8932C252.422 88.3973 252.25 88.0134 251.906 87.7415C251.57 87.4615 251.086 87.3216 250.454 87.3216C249.471 87.3216 248.707 87.6335 248.163 88.2574L247.551 87.7295C247.879 87.3456 248.295 87.0496 248.799 86.8417C249.311 86.6337 249.887 86.5297 250.526 86.5297C251.382 86.5297 252.058 86.7337 252.554 87.1416C253.058 87.5415 253.31 88.0934 253.31 88.7973C253.31 89.2292 253.214 89.6451 253.022 90.045C252.83 90.4449 252.466 90.9048 251.93 91.4247L249.075 94.2322H253.694ZM265.56 88.6893V95H264.78V90.009L262.225 94.2322H261.841L259.286 89.997V95H258.506V88.6893H259.37L262.045 93.2364L264.768 88.6893H265.56ZM273.503 92.1086H268.224C268.272 92.7645 268.524 93.2963 268.98 93.7043C269.436 94.1042 270.012 94.3041 270.708 94.3041C271.1 94.3041 271.46 94.2362 271.788 94.1002C272.115 93.9562 272.399 93.7483 272.639 93.4763L273.119 94.0282C272.839 94.3641 272.487 94.6201 272.063 94.796C271.648 94.972 271.188 95.06 270.684 95.06C270.036 95.06 269.46 94.924 268.956 94.6521C268.46 94.3721 268.072 93.9882 267.792 93.5003C267.512 93.0124 267.372 92.4605 267.372 91.8446C267.372 91.2288 267.504 90.6769 267.768 90.189C268.04 89.7011 268.408 89.3212 268.872 89.0492C269.344 88.7773 269.872 88.6413 270.456 88.6413C271.04 88.6413 271.564 88.7773 272.027 89.0492C272.491 89.3212 272.855 89.7011 273.119 90.189C273.383 90.6689 273.515 91.2208 273.515 91.8446L273.503 92.1086ZM270.456 89.3731C269.848 89.3731 269.336 89.5691 268.92 89.961C268.512 90.3449 268.28 90.8488 268.224 91.4727H272.699C272.643 90.8488 272.407 90.3449 271.991 89.961C271.584 89.5691 271.072 89.3731 270.456 89.3731ZM278.04 95.06C277.416 95.06 276.856 94.924 276.361 94.6521C275.873 94.3801 275.489 94.0002 275.209 93.5123C274.929 93.0164 274.789 92.4605 274.789 91.8446C274.789 91.2288 274.929 90.6769 275.209 90.189C275.489 89.7011 275.873 89.3212 276.361 89.0492C276.856 88.7773 277.416 88.6413 278.04 88.6413C278.584 88.6413 279.068 88.7493 279.492 88.9652C279.924 89.1732 280.264 89.4811 280.512 89.889L279.876 90.3209C279.668 90.009 279.404 89.7771 279.084 89.6251C278.764 89.4651 278.416 89.3851 278.04 89.3851C277.584 89.3851 277.172 89.4891 276.804 89.6971C276.445 89.897 276.161 90.185 275.953 90.5609C275.753 90.9368 275.653 91.3647 275.653 91.8446C275.653 92.3325 275.753 92.7645 275.953 93.1404C276.161 93.5083 276.445 93.7962 276.804 94.0042C277.172 94.2042 277.584 94.3041 278.04 94.3041C278.416 94.3041 278.764 94.2282 279.084 94.0762C279.404 93.9242 279.668 93.6923 279.876 93.3803L280.512 93.8122C280.264 94.2202 279.924 94.5321 279.492 94.7481C279.06 94.956 278.576 95.06 278.04 95.06ZM282.455 95.06C282.279 95.06 282.127 94.996 282 94.868C281.88 94.7401 281.82 94.5841 281.82 94.4001C281.82 94.2162 281.88 94.0642 282 93.9442C282.127 93.8162 282.279 93.7523 282.455 93.7523C282.631 93.7523 282.783 93.8162 282.911 93.9442C283.039 94.0642 283.103 94.2162 283.103 94.4001C283.103 94.5841 283.039 94.7401 282.911 94.868C282.783 94.996 282.631 95.06 282.455 95.06Z" fill="white"></path> </svg> 