<?xml version="1.0" encoding="UTF-8"?> <svg xmlns="http://www.w3.org/2000/svg" width="300" height="110" viewBox="0 0 300 110" fill="none"> <rect x="0.374899" y="0.374899" width="299.25" height="109.25" rx="14.621" fill="black" fill-opacity="0.14"></rect> <rect x="0.374899" y="0.374899" width="299.25" height="109.25" rx="14.621" stroke="white" stroke-width="0.749797"></rect> <path d="M27.462 21.946C28.1433 22.086 28.6613 22.3613 29.016 22.772C29.3707 23.1733 29.548 23.7007 29.548 24.354C29.548 25.2033 29.2447 25.8567 28.638 26.314C28.0407 26.7713 27.1587 27 25.992 27H21.652V17.2H25.726C26.7713 17.2 27.588 17.4147 28.176 17.844C28.764 18.2733 29.058 18.894 29.058 19.706C29.058 20.2567 28.918 20.7233 28.638 21.106C28.358 21.4793 27.966 21.7593 27.462 21.946ZM22.674 21.638H25.67C26.426 21.638 27.0047 21.484 27.406 21.176C27.8167 20.868 28.022 20.42 28.022 19.832C28.022 19.244 27.8167 18.796 27.406 18.488C27.0047 18.18 26.426 18.026 25.67 18.026H22.674V21.638ZM25.992 26.174C27.6813 26.174 28.526 25.544 28.526 24.284C28.526 23.052 27.6813 22.436 25.992 22.436H22.674V26.174H25.992ZM34.9383 27.07C34.229 27.07 33.5897 26.9113 33.0203 26.594C32.451 26.2673 32.003 25.8193 31.6763 25.25C31.3497 24.6807 31.1863 24.0367 31.1863 23.318C31.1863 22.5993 31.3497 21.9553 31.6763 21.386C32.003 20.8167 32.451 20.3733 33.0203 20.056C33.5897 19.7387 34.229 19.58 34.9383 19.58C35.6477 19.58 36.287 19.7387 36.8563 20.056C37.4257 20.3733 37.869 20.8167 38.1863 21.386C38.513 21.9553 38.6763 22.5993 38.6763 23.318C38.6763 24.0367 38.513 24.6807 38.1863 25.25C37.869 25.8193 37.4257 26.2673 36.8563 26.594C36.287 26.9113 35.6477 27.07 34.9383 27.07ZM34.9383 26.188C35.461 26.188 35.9277 26.0713 36.3383 25.838C36.7583 25.5953 37.085 25.2547 37.3183 24.816C37.5517 24.3773 37.6683 23.878 37.6683 23.318C37.6683 22.758 37.5517 22.2587 37.3183 21.82C37.085 21.3813 36.7583 21.0453 36.3383 20.812C35.9277 20.5693 35.461 20.448 34.9383 20.448C34.4157 20.448 33.9443 20.5693 33.5243 20.812C33.1137 21.0453 32.787 21.3813 32.5443 21.82C32.311 22.2587 32.1943 22.758 32.1943 23.318C32.1943 23.878 32.311 24.3773 32.5443 24.816C32.787 25.2547 33.1137 25.5953 33.5243 25.838C33.9443 26.0713 34.4157 26.188 34.9383 26.188ZM44.33 23.164C44.8527 23.2853 45.254 23.4953 45.534 23.794C45.8234 24.0927 45.968 24.4567 45.968 24.886C45.968 25.3153 45.8187 25.698 45.52 26.034C45.2307 26.37 44.834 26.6313 44.33 26.818C43.826 26.9953 43.2707 27.084 42.664 27.084C42.132 27.084 41.6094 27.0093 41.096 26.86C40.5827 26.7013 40.1347 26.4727 39.752 26.174L40.088 25.432C40.424 25.684 40.816 25.88 41.264 26.02C41.712 26.16 42.1647 26.23 42.622 26.23C43.3034 26.23 43.8587 26.104 44.288 25.852C44.7267 25.5907 44.946 25.2407 44.946 24.802C44.946 24.41 44.7687 24.1067 44.414 23.892C44.0594 23.668 43.574 23.556 42.958 23.556H41.698V22.828H42.902C43.4527 22.828 43.896 22.7253 44.232 22.52C44.568 22.3053 44.736 22.0207 44.736 21.666C44.736 21.274 44.5447 20.966 44.162 20.742C43.7887 20.518 43.2987 20.406 42.692 20.406C41.8987 20.406 41.1147 20.6067 40.34 21.008L40.06 20.238C40.9374 19.7807 41.8474 19.552 42.79 19.552C43.35 19.552 43.854 19.636 44.302 19.804C44.7594 19.9627 45.114 20.1913 45.366 20.49C45.6274 20.7887 45.758 21.134 45.758 21.526C45.758 21.8993 45.6274 22.2307 45.366 22.52C45.114 22.8093 44.7687 23.024 44.33 23.164ZM52.9145 23.192C53.9132 23.4253 54.4125 24.0273 54.4125 24.998C54.4125 25.642 54.1745 26.1367 53.6985 26.482C53.2225 26.8273 52.5132 27 51.5705 27H48.2245V19.636H51.4725C52.3125 19.636 52.9705 19.7993 53.4465 20.126C53.9225 20.4527 54.1605 20.9193 54.1605 21.526C54.1605 21.9273 54.0485 22.2727 53.8245 22.562C53.6099 22.842 53.3065 23.052 52.9145 23.192ZM49.1905 22.912H51.4025C51.9719 22.912 52.4059 22.8047 52.7045 22.59C53.0125 22.3753 53.1665 22.0627 53.1665 21.652C53.1665 21.2413 53.0125 20.9333 52.7045 20.728C52.4059 20.5227 51.9719 20.42 51.4025 20.42H49.1905V22.912ZM51.5285 26.216C52.1632 26.216 52.6392 26.1133 52.9565 25.908C53.2739 25.7027 53.4325 25.3807 53.4325 24.942C53.4325 24.5033 53.2879 24.1813 52.9985 23.976C52.7092 23.7613 52.2519 23.654 51.6265 23.654H49.1905V26.216H51.5285ZM60.5361 19.58C61.2268 19.58 61.8521 19.7387 62.4121 20.056C62.9721 20.364 63.4108 20.8027 63.7281 21.372C64.0455 21.9413 64.2041 22.59 64.2041 23.318C64.2041 24.0553 64.0455 24.7087 63.7281 25.278C63.4108 25.8473 62.9721 26.2907 62.4121 26.608C61.8615 26.916 61.2361 27.07 60.5361 27.07C59.9388 27.07 59.3975 26.9487 58.9121 26.706C58.4361 26.454 58.0441 26.09 57.7361 25.614V29.716H56.7421V19.636H57.6941V21.092C57.9928 20.6067 58.3848 20.2333 58.8701 19.972C59.3648 19.7107 59.9201 19.58 60.5361 19.58ZM60.4661 26.188C60.9795 26.188 61.4461 26.0713 61.8661 25.838C62.2861 25.5953 62.6128 25.2547 62.8461 24.816C63.0888 24.3773 63.2101 23.878 63.2101 23.318C63.2101 22.758 63.0888 22.2633 62.8461 21.834C62.6128 21.3953 62.2861 21.0547 61.8661 20.812C61.4461 20.5693 60.9795 20.448 60.4661 20.448C59.9435 20.448 59.4721 20.5693 59.0521 20.812C58.6415 21.0547 58.3148 21.3953 58.0721 21.834C57.8388 22.2633 57.7221 22.758 57.7221 23.318C57.7221 23.878 57.8388 24.3773 58.0721 24.816C58.3148 25.2547 58.6415 25.5953 59.0521 25.838C59.4721 26.0713 59.9435 26.188 60.4661 26.188ZM68.8328 19.58C69.7941 19.58 70.5314 19.8227 71.0448 20.308C71.5581 20.784 71.8148 21.4933 71.8148 22.436V27H70.8628V25.852C70.6388 26.2347 70.3074 26.5333 69.8688 26.748C69.4394 26.9627 68.9261 27.07 68.3288 27.07C67.5074 27.07 66.8541 26.874 66.3688 26.482C65.8834 26.09 65.6408 25.572 65.6408 24.928C65.6408 24.3027 65.8648 23.7987 66.3128 23.416C66.7701 23.0333 67.4934 22.842 68.4828 22.842H70.8208V22.394C70.8208 21.7593 70.6434 21.2787 70.2888 20.952C69.9341 20.616 69.4161 20.448 68.7348 20.448C68.2681 20.448 67.8201 20.5273 67.3908 20.686C66.9614 20.8353 66.5928 21.0453 66.2848 21.316L65.8368 20.574C66.2101 20.2567 66.6581 20.014 67.1808 19.846C67.7034 19.6687 68.2541 19.58 68.8328 19.58ZM68.4828 26.286C69.0428 26.286 69.5234 26.16 69.9248 25.908C70.3261 25.6467 70.6248 25.2733 70.8208 24.788V23.584H68.5108C67.2508 23.584 66.6208 24.0227 66.6208 24.9C66.6208 25.3293 66.7841 25.67 67.1108 25.922C67.4374 26.1647 67.8948 26.286 68.4828 26.286ZM84.6249 19.636V27H74.4609V19.636H75.4549V26.132H79.0669V19.636H80.0609V26.132H83.6309V19.636H84.6249ZM85.7589 26.132V28.61H84.8209V27H83.5749V26.132H85.7589ZM93.9028 23.626H87.7428C87.7988 24.3913 88.0928 25.012 88.6248 25.488C89.1568 25.9547 89.8288 26.188 90.6408 26.188C91.0982 26.188 91.5182 26.1087 91.9008 25.95C92.2835 25.782 92.6148 25.5393 92.8948 25.222L93.4548 25.866C93.1282 26.258 92.7175 26.5567 92.2228 26.762C91.7375 26.9673 91.2008 27.07 90.6128 27.07C89.8568 27.07 89.1848 26.9113 88.5968 26.594C88.0182 26.2673 87.5655 25.8193 87.2388 25.25C86.9122 24.6807 86.7488 24.0367 86.7488 23.318C86.7488 22.5993 86.9028 21.9553 87.2108 21.386C87.5282 20.8167 87.9575 20.3733 88.4988 20.056C89.0495 19.7387 89.6655 19.58 90.3468 19.58C91.0282 19.58 91.6395 19.7387 92.1808 20.056C92.7222 20.3733 93.1468 20.8167 93.4548 21.386C93.7628 21.946 93.9168 22.59 93.9168 23.318L93.9028 23.626ZM90.3468 20.434C89.6375 20.434 89.0402 20.6627 88.5548 21.12C88.0788 21.568 87.8082 22.156 87.7428 22.884H92.9648C92.8995 22.156 92.6242 21.568 92.1388 21.12C91.6628 20.6627 91.0655 20.434 90.3468 20.434ZM96.1171 19.636H97.1111V22.898H101.745V19.636H102.739V27H101.745V23.752H97.1111V27H96.1171V19.636ZM108.602 27.07C107.893 27.07 107.254 26.9113 106.684 26.594C106.115 26.2673 105.667 25.8193 105.34 25.25C105.014 24.6807 104.85 24.0367 104.85 23.318C104.85 22.5993 105.014 21.9553 105.34 21.386C105.667 20.8167 106.115 20.3733 106.684 20.056C107.254 19.7387 107.893 19.58 108.602 19.58C109.312 19.58 109.951 19.7387 110.52 20.056C111.09 20.3733 111.533 20.8167 111.85 21.386C112.177 21.9553 112.34 22.5993 112.34 23.318C112.34 24.0367 112.177 24.6807 111.85 25.25C111.533 25.8193 111.09 26.2673 110.52 26.594C109.951 26.9113 109.312 27.07 108.602 27.07ZM108.602 26.188C109.125 26.188 109.592 26.0713 110.002 25.838C110.422 25.5953 110.749 25.2547 110.982 24.816C111.216 24.3773 111.332 23.878 111.332 23.318C111.332 22.758 111.216 22.2587 110.982 21.82C110.749 21.3813 110.422 21.0453 110.002 20.812C109.592 20.5693 109.125 20.448 108.602 20.448C108.08 20.448 107.608 20.5693 107.188 20.812C106.778 21.0453 106.451 21.3813 106.208 21.82C105.975 22.2587 105.858 22.758 105.858 23.318C105.858 23.878 105.975 24.3773 106.208 24.816C106.451 25.2547 106.778 25.5953 107.188 25.838C107.608 26.0713 108.08 26.188 108.602 26.188ZM121.713 23.164C122.236 23.2853 122.637 23.4953 122.917 23.794C123.206 24.0927 123.351 24.4567 123.351 24.886C123.351 25.3153 123.202 25.698 122.903 26.034C122.614 26.37 122.217 26.6313 121.713 26.818C121.209 26.9953 120.654 27.084 120.047 27.084C119.515 27.084 118.992 27.0093 118.479 26.86C117.966 26.7013 117.518 26.4727 117.135 26.174L117.471 25.432C117.807 25.684 118.199 25.88 118.647 26.02C119.095 26.16 119.548 26.23 120.005 26.23C120.686 26.23 121.242 26.104 121.671 25.852C122.11 25.5907 122.329 25.2407 122.329 24.802C122.329 24.41 122.152 24.1067 121.797 23.892C121.442 23.668 120.957 23.556 120.341 23.556H119.081V22.828H120.285C120.836 22.828 121.279 22.7253 121.615 22.52C121.951 22.3053 122.119 22.0207 122.119 21.666C122.119 21.274 121.928 20.966 121.545 20.742C121.172 20.518 120.682 20.406 120.075 20.406C119.282 20.406 118.498 20.6067 117.723 21.008L117.443 20.238C118.32 19.7807 119.23 19.552 120.173 19.552C120.733 19.552 121.237 19.636 121.685 19.804C122.142 19.9627 122.497 20.1913 122.749 20.49C123.01 20.7887 123.141 21.134 123.141 21.526C123.141 21.8993 123.01 22.2307 122.749 22.52C122.497 22.8093 122.152 23.024 121.713 23.164ZM128.141 19.58C129.103 19.58 129.84 19.8227 130.353 20.308C130.867 20.784 131.123 21.4933 131.123 22.436V27H130.171V25.852C129.947 26.2347 129.616 26.5333 129.177 26.748C128.748 26.9627 128.235 27.07 127.637 27.07C126.816 27.07 126.163 26.874 125.677 26.482C125.192 26.09 124.949 25.572 124.949 24.928C124.949 24.3027 125.173 23.7987 125.621 23.416C126.079 23.0333 126.802 22.842 127.791 22.842H130.129V22.394C130.129 21.7593 129.952 21.2787 129.597 20.952C129.243 20.616 128.725 20.448 128.043 20.448C127.577 20.448 127.129 20.5273 126.699 20.686C126.27 20.8353 125.901 21.0453 125.593 21.316L125.145 20.574C125.519 20.2567 125.967 20.014 126.489 19.846C127.012 19.6687 127.563 19.58 128.141 19.58ZM127.791 26.286C128.351 26.286 128.832 26.16 129.233 25.908C129.635 25.6467 129.933 25.2733 130.129 24.788V23.584H127.819C126.559 23.584 125.929 24.0227 125.929 24.9C125.929 25.3293 126.093 25.67 126.419 25.922C126.746 26.1647 127.203 26.286 127.791 26.286ZM133.769 19.636H134.763V25.488L139.677 19.636H140.559V27H139.565V21.148L134.665 27H133.769V19.636ZM137.115 18.572C136.481 18.572 135.977 18.4133 135.603 18.096C135.23 17.7787 135.039 17.3307 135.029 16.752H135.743C135.753 17.116 135.883 17.41 136.135 17.634C136.387 17.8487 136.714 17.956 137.115 17.956C137.517 17.956 137.843 17.8487 138.095 17.634C138.357 17.41 138.492 17.116 138.501 16.752H139.215C139.206 17.3307 139.01 17.7787 138.627 18.096C138.254 18.4133 137.75 18.572 137.115 18.572ZM151.64 19.636V27H150.73V21.176L147.748 26.104H147.3L144.318 21.162V27H143.408V19.636H144.416L147.538 24.942L150.716 19.636H151.64ZM157.507 27.07C156.797 27.07 156.158 26.9113 155.589 26.594C155.019 26.2673 154.571 25.8193 154.245 25.25C153.918 24.6807 153.755 24.0367 153.755 23.318C153.755 22.5993 153.918 21.9553 154.245 21.386C154.571 20.8167 155.019 20.3733 155.589 20.056C156.158 19.7387 156.797 19.58 157.507 19.58C158.216 19.58 158.855 19.7387 159.425 20.056C159.994 20.3733 160.437 20.8167 160.755 21.386C161.081 21.9553 161.245 22.5993 161.245 23.318C161.245 24.0367 161.081 24.6807 160.755 25.25C160.437 25.8193 159.994 26.2673 159.425 26.594C158.855 26.9113 158.216 27.07 157.507 27.07ZM157.507 26.188C158.029 26.188 158.496 26.0713 158.907 25.838C159.327 25.5953 159.653 25.2547 159.887 24.816C160.12 24.3773 160.237 23.878 160.237 23.318C160.237 22.758 160.12 22.2587 159.887 21.82C159.653 21.3813 159.327 21.0453 158.907 20.812C158.496 20.5693 158.029 20.448 157.507 20.448C156.984 20.448 156.513 20.5693 156.093 20.812C155.682 21.0453 155.355 21.3813 155.113 21.82C154.879 22.2587 154.763 22.758 154.763 23.318C154.763 23.878 154.879 24.3773 155.113 24.816C155.355 25.2547 155.682 25.5953 156.093 25.838C156.513 26.0713 156.984 26.188 157.507 26.188ZM168.059 23.192C169.058 23.4253 169.557 24.0273 169.557 24.998C169.557 25.642 169.319 26.1367 168.843 26.482C168.367 26.8273 167.658 27 166.715 27H163.369V19.636H166.617C167.457 19.636 168.115 19.7993 168.591 20.126C169.067 20.4527 169.305 20.9193 169.305 21.526C169.305 21.9273 169.193 22.2727 168.969 22.562C168.754 22.842 168.451 23.052 168.059 23.192ZM164.335 22.912H166.547C167.116 22.912 167.55 22.8047 167.849 22.59C168.157 22.3753 168.311 22.0627 168.311 21.652C168.311 21.2413 168.157 20.9333 167.849 20.728C167.55 20.5227 167.116 20.42 166.547 20.42H164.335V22.912ZM166.673 26.216C167.308 26.216 167.784 26.1133 168.101 25.908C168.418 25.7027 168.577 25.3807 168.577 24.942C168.577 24.5033 168.432 24.1813 168.143 23.976C167.854 23.7613 167.396 23.654 166.771 23.654H164.335V26.216H166.673ZM175.551 19.636H176.545V22.898H181.179V19.636H182.173V27H181.179V23.752H176.545V27H175.551V19.636ZM187.532 19.58C188.493 19.58 189.231 19.8227 189.744 20.308C190.257 20.784 190.514 21.4933 190.514 22.436V27H189.562V25.852C189.338 26.2347 189.007 26.5333 188.568 26.748C188.139 26.9627 187.625 27.07 187.028 27.07C186.207 27.07 185.553 26.874 185.068 26.482C184.583 26.09 184.34 25.572 184.34 24.928C184.34 24.3027 184.564 23.7987 185.012 23.416C185.469 23.0333 186.193 22.842 187.182 22.842H189.52V22.394C189.52 21.7593 189.343 21.2787 188.988 20.952C188.633 20.616 188.115 20.448 187.434 20.448C186.967 20.448 186.519 20.5273 186.09 20.686C185.661 20.8353 185.292 21.0453 184.984 21.316L184.536 20.574C184.909 20.2567 185.357 20.014 185.88 19.846C186.403 19.6687 186.953 19.58 187.532 19.58ZM187.182 26.286C187.742 26.286 188.223 26.16 188.624 25.908C189.025 25.6467 189.324 25.2733 189.52 24.788V23.584H187.21C185.95 23.584 185.32 24.0227 185.32 24.9C185.32 25.3293 185.483 25.67 185.81 25.922C186.137 26.1647 186.594 26.286 187.182 26.286ZM203.432 19.636V27H202.438V20.518H197.818V27H196.824V19.636H203.432ZM212.278 19.636V27H211.284V20.518H207.756L207.658 22.338C207.583 23.8687 207.406 25.0447 207.126 25.866C206.846 26.6873 206.346 27.098 205.628 27.098C205.432 27.098 205.194 27.0607 204.914 26.986L204.984 26.132C205.152 26.1693 205.268 26.188 205.334 26.188C205.716 26.188 206.006 26.0107 206.202 25.656C206.398 25.3013 206.528 24.8627 206.594 24.34C206.659 23.8173 206.715 23.1267 206.762 22.268L206.888 19.636H212.278ZM217.637 19.58C218.599 19.58 219.336 19.8227 219.849 20.308C220.363 20.784 220.619 21.4933 220.619 22.436V27H219.667V25.852C219.443 26.2347 219.112 26.5333 218.673 26.748C218.244 26.9627 217.731 27.07 217.133 27.07C216.312 27.07 215.659 26.874 215.173 26.482C214.688 26.09 214.445 25.572 214.445 24.928C214.445 24.3027 214.669 23.7987 215.117 23.416C215.575 23.0333 216.298 22.842 217.287 22.842H219.625V22.394C219.625 21.7593 219.448 21.2787 219.093 20.952C218.739 20.616 218.221 20.448 217.539 20.448C217.073 20.448 216.625 20.5273 216.195 20.686C215.766 20.8353 215.397 21.0453 215.089 21.316L214.641 20.574C215.015 20.2567 215.463 20.014 215.985 19.846C216.508 19.6687 217.059 19.58 217.637 19.58ZM217.287 26.286C217.847 26.286 218.328 26.16 218.729 25.908C219.131 25.6467 219.429 25.2733 219.625 24.788V23.584H217.315C216.055 23.584 215.425 24.0227 215.425 24.9C215.425 25.3293 215.589 25.67 215.915 25.922C216.242 26.1647 216.699 26.286 217.287 26.286ZM228.446 20.518H225.66V27H224.666V20.518H221.88V19.636H228.446V20.518ZM238.431 23.304C238.431 24.452 238.053 25.3527 237.297 26.006C236.541 26.6593 235.472 27.014 234.091 27.07V29.716H233.125V27.084C231.753 27.028 230.689 26.6733 229.933 26.02C229.186 25.3573 228.813 24.452 228.813 23.304C228.813 22.1653 229.186 21.274 229.933 20.63C230.689 19.986 231.753 19.636 233.125 19.58V16.612H234.091V19.58C235.472 19.6453 236.541 20 237.297 20.644C238.053 21.288 238.431 22.1747 238.431 23.304ZM229.793 23.304C229.793 24.1813 230.073 24.8673 230.633 25.362C231.202 25.8567 232.033 26.1367 233.125 26.202V20.462C232.042 20.518 231.216 20.7933 230.647 21.288C230.078 21.7733 229.793 22.4453 229.793 23.304ZM234.091 26.202C235.183 26.146 236.014 25.8707 236.583 25.376C237.162 24.8813 237.451 24.1907 237.451 23.304C237.451 22.436 237.162 21.7593 236.583 21.274C236.014 20.7887 235.183 20.518 234.091 20.462V26.202ZM243.571 27.07C242.862 27.07 242.222 26.9113 241.653 26.594C241.084 26.2673 240.636 25.8193 240.309 25.25C239.982 24.6807 239.819 24.0367 239.819 23.318C239.819 22.5993 239.982 21.9553 240.309 21.386C240.636 20.8167 241.084 20.3733 241.653 20.056C242.222 19.7387 242.862 19.58 243.571 19.58C244.28 19.58 244.92 19.7387 245.489 20.056C246.058 20.3733 246.502 20.8167 246.819 21.386C247.146 21.9553 247.309 22.5993 247.309 23.318C247.309 24.0367 247.146 24.6807 246.819 25.25C246.502 25.8193 246.058 26.2673 245.489 26.594C244.92 26.9113 244.28 27.07 243.571 27.07ZM243.571 26.188C244.094 26.188 244.56 26.0713 244.971 25.838C245.391 25.5953 245.718 25.2547 245.951 24.816C246.184 24.3773 246.301 23.878 246.301 23.318C246.301 22.758 246.184 22.2587 245.951 21.82C245.718 21.3813 245.391 21.0453 244.971 20.812C244.56 20.5693 244.094 20.448 243.571 20.448C243.048 20.448 242.577 20.5693 242.157 20.812C241.746 21.0453 241.42 21.3813 241.177 21.82C240.944 22.2587 240.827 22.758 240.827 23.318C240.827 23.878 240.944 24.3773 241.177 24.816C241.42 25.2547 241.746 25.5953 242.157 25.838C242.577 26.0713 243.048 26.188 243.571 26.188ZM253.228 19.58C253.918 19.58 254.544 19.7387 255.104 20.056C255.664 20.364 256.102 20.8027 256.42 21.372C256.737 21.9413 256.896 22.59 256.896 23.318C256.896 24.0553 256.737 24.7087 256.42 25.278C256.102 25.8473 255.664 26.2907 255.104 26.608C254.553 26.916 253.928 27.07 253.228 27.07C252.63 27.07 252.089 26.9487 251.604 26.706C251.128 26.454 250.736 26.09 250.428 25.614V29.716H249.434V19.636H250.386V21.092C250.684 20.6067 251.076 20.2333 251.562 19.972C252.056 19.7107 252.612 19.58 253.228 19.58ZM253.158 26.188C253.671 26.188 254.138 26.0713 254.558 25.838C254.978 25.5953 255.304 25.2547 255.538 24.816C255.78 24.3773 255.902 23.878 255.902 23.318C255.902 22.758 255.78 22.2633 255.538 21.834C255.304 21.3953 254.978 21.0547 254.558 20.812C254.138 20.5693 253.671 20.448 253.158 20.448C252.635 20.448 252.164 20.5693 251.744 20.812C251.333 21.0547 251.006 21.3953 250.764 21.834C250.53 22.2633 250.414 22.758 250.414 23.318C250.414 23.878 250.53 24.3773 250.764 24.816C251.006 25.2547 251.333 25.5953 251.744 25.838C252.164 26.0713 252.635 26.188 253.158 26.188ZM267.263 19.636V27H266.353V21.176L263.371 26.104H262.923L259.941 21.162V27H259.031V19.636H260.039L263.161 24.942L266.339 19.636H267.263ZM276.532 23.626H270.372C270.428 24.3913 270.722 25.012 271.254 25.488C271.786 25.9547 272.458 26.188 273.27 26.188C273.727 26.188 274.147 26.1087 274.53 25.95C274.912 25.782 275.244 25.5393 275.524 25.222L276.084 25.866C275.757 26.258 275.346 26.5567 274.852 26.762C274.366 26.9673 273.83 27.07 273.242 27.07C272.486 27.07 271.814 26.9113 271.226 26.594C270.647 26.2673 270.194 25.8193 269.868 25.25C269.541 24.6807 269.378 24.0367 269.378 23.318C269.378 22.5993 269.532 21.9553 269.84 21.386C270.157 20.8167 270.586 20.3733 271.128 20.056C271.678 19.7387 272.294 19.58 272.976 19.58C273.657 19.58 274.268 19.7387 274.81 20.056C275.351 20.3733 275.776 20.8167 276.084 21.386C276.392 21.946 276.546 22.59 276.546 23.318L276.532 23.626ZM272.976 20.434C272.266 20.434 271.669 20.6627 271.184 21.12C270.708 21.568 270.437 22.156 270.372 22.884H275.594C275.528 22.156 275.253 21.568 274.768 21.12C274.292 20.6627 273.694 20.434 272.976 20.434ZM278.816 21.106C278.611 21.106 278.433 21.0313 278.284 20.882C278.144 20.7327 278.074 20.5507 278.074 20.336C278.074 20.1213 278.144 19.944 278.284 19.804C278.433 19.6547 278.611 19.58 278.816 19.58C279.021 19.58 279.199 19.6547 279.348 19.804C279.497 19.944 279.572 20.1213 279.572 20.336C279.572 20.5507 279.497 20.7327 279.348 20.882C279.199 21.0313 279.021 21.106 278.816 21.106ZM278.816 27.07C278.611 27.07 278.433 26.9953 278.284 26.846C278.144 26.6967 278.074 26.5147 278.074 26.3C278.074 26.0853 278.144 25.908 278.284 25.768C278.433 25.6187 278.611 25.544 278.816 25.544C279.021 25.544 279.199 25.6187 279.348 25.768C279.497 25.908 279.572 26.0853 279.572 26.3C279.572 26.5147 279.497 26.6967 279.348 26.846C279.199 26.9953 279.021 27.07 278.816 27.07Z" fill="white"></path> <path d="M24.9712 95.072C24.3233 95.072 23.7434 94.9 23.2315 94.5561C22.7276 94.2122 22.3317 93.7203 22.0438 93.0804C21.7638 92.4325 21.6239 91.6727 21.6239 90.8009C21.6239 89.929 21.7638 89.1732 22.0438 88.5333C22.3317 87.8854 22.7276 87.3895 23.2315 87.0456C23.7434 86.7017 24.3233 86.5297 24.9712 86.5297C25.6191 86.5297 26.1949 86.7017 26.6988 87.0456C27.2107 87.3895 27.6107 87.8854 27.8986 88.5333C28.1865 89.1732 28.3305 89.929 28.3305 90.8009C28.3305 91.6727 28.1865 92.4325 27.8986 93.0804C27.6107 93.7203 27.2107 94.2122 26.6988 94.5561C26.1949 94.9 25.6191 95.072 24.9712 95.072ZM24.9712 94.2801C25.4591 94.2801 25.887 94.1442 26.2549 93.8722C26.6309 93.6003 26.9228 93.2044 27.1308 92.6845C27.3387 92.1646 27.4427 91.5367 27.4427 90.8009C27.4427 90.065 27.3387 89.4371 27.1308 88.9172C26.9228 88.3973 26.6309 88.0014 26.2549 87.7295C25.887 87.4575 25.4591 87.3216 24.9712 87.3216C24.4833 87.3216 24.0514 87.4575 23.6755 87.7295C23.3075 88.0014 23.0196 88.3973 22.8116 88.9172C22.6037 89.4371 22.4997 90.065 22.4997 90.8009C22.4997 91.5367 22.6037 92.1646 22.8116 92.6845C23.0196 93.2044 23.3075 93.6003 23.6755 93.8722C24.0514 94.1442 24.4833 94.2801 24.9712 94.2801Z" fill="white"></path> <path d="M272.951 86.6017V95H272.088V87.3695H270.108V86.6017H272.951ZM278.306 95.072C277.658 95.072 277.079 94.9 276.567 94.5561C276.063 94.2122 275.667 93.7203 275.379 93.0804C275.099 92.4325 274.959 91.6727 274.959 90.8009C274.959 89.929 275.099 89.1732 275.379 88.5333C275.667 87.8854 276.063 87.3895 276.567 87.0456C277.079 86.7017 277.658 86.5297 278.306 86.5297C278.954 86.5297 279.53 86.7017 280.034 87.0456C280.546 87.3895 280.946 87.8854 281.234 88.5333C281.522 89.1732 281.666 89.929 281.666 90.8009C281.666 91.6727 281.522 92.4325 281.234 93.0804C280.946 93.7203 280.546 94.2122 280.034 94.5561C279.53 94.9 278.954 95.072 278.306 95.072ZM278.306 94.2801C278.794 94.2801 279.222 94.1442 279.59 93.8722C279.966 93.6003 280.258 93.2044 280.466 92.6845C280.674 92.1646 280.778 91.5367 280.778 90.8009C280.778 90.065 280.674 89.4371 280.466 88.9172C280.258 88.3973 279.966 88.0014 279.59 87.7295C279.222 87.4575 278.794 87.3216 278.306 87.3216C277.818 87.3216 277.386 87.4575 277.011 87.7295C276.643 88.0014 276.355 88.3973 276.147 88.9172C275.939 89.4371 275.835 90.065 275.835 90.8009C275.835 91.5367 275.939 92.1646 276.147 92.6845C276.355 93.2044 276.643 93.6003 277.011 93.8722C277.386 94.1442 277.818 94.2801 278.306 94.2801ZM288.431 91.1608H286.2V93.3443H285.444V91.1608H283.212V90.4529H285.444V88.2574H286.2V90.4529H288.431V91.1608Z" fill="white"></path> </svg> 