<?xml version="1.0" encoding="UTF-8"?> <svg xmlns="http://www.w3.org/2000/svg" width="340" height="110" viewBox="0 0 340 110" fill="none"> <rect x="0.374899" y="0.374899" width="339.25" height="109.25" rx="14.621" fill="black" fill-opacity="0.14"></rect> <rect x="0.374899" y="0.374899" width="339.25" height="109.25" rx="14.621" stroke="white" stroke-width="0.749797"></rect> <path d="M27.9937 22.5859C28.7236 22.7359 29.2785 23.0308 29.6584 23.4707C30.0384 23.9007 30.2283 24.4656 30.2283 25.1655C30.2283 26.0753 29.9034 26.7752 29.2535 27.2651C28.6136 27.755 27.6688 28 26.419 28H21.7697V17.5017H26.134C27.2538 17.5017 28.1287 17.7317 28.7586 18.1916C29.3885 18.6515 29.7034 19.3164 29.7034 20.1863C29.7034 20.7762 29.5535 21.2761 29.2535 21.686C28.9535 22.086 28.5336 22.3859 27.9937 22.5859ZM22.8645 22.2559H26.074C26.8839 22.2559 27.5038 22.091 27.9337 21.761C28.3736 21.4311 28.5936 20.9511 28.5936 20.3212C28.5936 19.6913 28.3736 19.2114 27.9337 18.8815C27.5038 18.5515 26.8839 18.3866 26.074 18.3866H22.8645V22.2559ZM26.419 27.1151C28.2287 27.1151 29.1335 26.4403 29.1335 25.0905C29.1335 23.7707 28.2287 23.1108 26.419 23.1108H22.8645V27.1151H26.419ZM36.0028 28.075C35.2429 28.075 34.558 27.905 33.9481 27.5651C33.3382 27.2151 32.8583 26.7352 32.5083 26.1253C32.1584 25.5154 31.9834 24.8255 31.9834 24.0556C31.9834 23.2858 32.1584 22.5959 32.5083 21.986C32.8583 21.3761 33.3382 20.9012 33.9481 20.5612C34.558 20.2213 35.2429 20.0513 36.0028 20.0513C36.7626 20.0513 37.4475 20.2213 38.0574 20.5612C38.6673 20.9012 39.1422 21.3761 39.4822 21.986C39.8321 22.5959 40.0071 23.2858 40.0071 24.0556C40.0071 24.8255 39.8321 25.5154 39.4822 26.1253C39.1422 26.7352 38.6673 27.2151 38.0574 27.5651C37.4475 27.905 36.7626 28.075 36.0028 28.075ZM36.0028 27.1301C36.5627 27.1301 37.0626 27.0052 37.5025 26.7552C37.9524 26.4952 38.3024 26.1303 38.5523 25.6604C38.8023 25.1905 38.9273 24.6555 38.9273 24.0556C38.9273 23.4557 38.8023 22.9208 38.5523 22.4509C38.3024 21.981 37.9524 21.621 37.5025 21.3711C37.0626 21.1111 36.5627 20.9811 36.0028 20.9811C35.4428 20.9811 34.9379 21.1111 34.488 21.3711C34.0481 21.621 33.6981 21.981 33.4382 22.4509C33.1882 22.9208 33.0632 23.4557 33.0632 24.0556C33.0632 24.6555 33.1882 25.1905 33.4382 25.6604C33.6981 26.1303 34.0481 26.4952 34.488 26.7552C34.9379 27.0052 35.4428 27.1301 36.0028 27.1301ZM46.0637 23.8907C46.6236 24.0206 47.0535 24.2456 47.3535 24.5656C47.6634 24.8855 47.8184 25.2754 47.8184 25.7354C47.8184 26.1953 47.6584 26.6052 47.3385 26.9652C47.0285 27.3251 46.6036 27.6051 46.0637 27.805C45.5238 27.995 44.9288 28.09 44.279 28.09C43.709 28.09 43.1491 28.01 42.5992 27.85C42.0493 27.6801 41.5694 27.4351 41.1595 27.1151L41.5194 26.3203C41.8793 26.5902 42.2993 26.8002 42.7792 26.9502C43.2591 27.1001 43.744 27.1751 44.234 27.1751C44.9638 27.1751 45.5587 27.0402 46.0187 26.7702C46.4886 26.4902 46.7236 26.1153 46.7236 25.6454C46.7236 25.2254 46.5336 24.9005 46.1537 24.6705C45.7737 24.4306 45.2538 24.3106 44.5939 24.3106H43.2441V23.5307H44.5339C45.1238 23.5307 45.5987 23.4207 45.9587 23.2008C46.3186 22.9708 46.4986 22.6659 46.4986 22.2859C46.4986 21.866 46.2936 21.536 45.8837 21.2961C45.4838 21.0561 44.9588 20.9361 44.309 20.9361C43.4591 20.9361 42.6192 21.1511 41.7894 21.581L41.4894 20.7562C42.4293 20.2663 43.4041 20.0213 44.4139 20.0213C45.0138 20.0213 45.5537 20.1113 46.0337 20.2912C46.5236 20.4612 46.9035 20.7062 47.1735 21.0261C47.4534 21.3461 47.5934 21.716 47.5934 22.136C47.5934 22.5359 47.4534 22.8908 47.1735 23.2008C46.9035 23.5107 46.5336 23.7407 46.0637 23.8907ZM54.3 20.0513C55.0399 20.0513 55.7098 20.2213 56.3097 20.5612C56.9096 20.8912 57.3795 21.3611 57.7195 21.971C58.0594 22.5809 58.2294 23.2758 58.2294 24.0556C58.2294 24.8455 58.0594 25.5454 57.7195 26.1553C57.3795 26.7652 56.9096 27.2401 56.3097 27.5801C55.7198 27.91 55.0499 28.075 54.3 28.075C53.6601 28.075 53.0802 27.945 52.5603 27.6851C52.0504 27.4151 51.6305 27.0252 51.3005 26.5152V30.9095H50.2357V20.1113H51.2555V21.671C51.5755 21.1511 51.9954 20.7512 52.5153 20.4712C53.0452 20.1913 53.6401 20.0513 54.3 20.0513ZM54.225 27.1301C54.7749 27.1301 55.2749 27.0052 55.7248 26.7552C56.1747 26.4952 56.5247 26.1303 56.7746 25.6604C57.0346 25.1905 57.1646 24.6555 57.1646 24.0556C57.1646 23.4557 57.0346 22.9258 56.7746 22.4659C56.5247 21.996 56.1747 21.631 55.7248 21.3711C55.2749 21.1111 54.7749 20.9811 54.225 20.9811C53.6651 20.9811 53.1602 21.1111 52.7103 21.3711C52.2704 21.631 51.9204 21.996 51.6605 22.4659C51.4105 22.9258 51.2855 23.4557 51.2855 24.0556C51.2855 24.6555 51.4105 25.1905 51.6605 25.6604C51.9204 26.1303 52.2704 26.4952 52.7103 26.7552C53.1602 27.0052 53.6651 27.1301 54.225 27.1301ZM63.1878 20.0513C64.2177 20.0513 65.0075 20.3112 65.5575 20.8312C66.1074 21.3411 66.3823 22.101 66.3823 23.1108V28H65.3625V26.7702C65.1225 27.1801 64.7676 27.5001 64.2977 27.73C63.8377 27.96 63.2878 28.075 62.6479 28.075C61.7681 28.075 61.0682 27.865 60.5483 27.4451C60.0284 27.0252 59.7684 26.4702 59.7684 25.7804C59.7684 25.1105 60.0084 24.5706 60.4883 24.1606C60.9782 23.7507 61.7531 23.5457 62.8129 23.5457H65.3175V23.0658C65.3175 22.3859 65.1275 21.871 64.7476 21.521C64.3677 21.1611 63.8127 20.9811 63.0829 20.9811C62.5829 20.9811 62.103 21.0661 61.6431 21.2361C61.1832 21.3961 60.7882 21.621 60.4583 21.911L59.9784 21.1161C60.3783 20.7762 60.8582 20.5162 61.4181 20.3362C61.978 20.1463 62.5679 20.0513 63.1878 20.0513ZM62.8129 27.2351C63.4128 27.2351 63.9277 27.1001 64.3577 26.8302C64.7876 26.5502 65.1075 26.1503 65.3175 25.6304V24.3406H62.8429C61.4931 24.3406 60.8182 24.8105 60.8182 25.7504C60.8182 26.2103 60.9932 26.5752 61.3431 26.8452C61.6931 27.1051 62.183 27.2351 62.8129 27.2351ZM72.5164 28.075C71.7366 28.075 71.0367 27.905 70.4168 27.5651C69.8069 27.2251 69.327 26.7502 68.977 26.1403C68.6271 25.5204 68.4521 24.8255 68.4521 24.0556C68.4521 23.2858 68.6271 22.5959 68.977 21.986C69.327 21.3761 69.8069 20.9012 70.4168 20.5612C71.0367 20.2213 71.7366 20.0513 72.5164 20.0513C73.1963 20.0513 73.8012 20.1863 74.3312 20.4562C74.8711 20.7162 75.296 21.1011 75.6059 21.611L74.8111 22.1509C74.5511 21.761 74.2212 21.4711 73.8212 21.2811C73.4213 21.0811 72.9864 20.9811 72.5164 20.9811C71.9465 20.9811 71.4316 21.1111 70.9717 21.3711C70.5218 21.621 70.1668 21.981 69.9069 22.4509C69.6569 22.9208 69.5319 23.4557 69.5319 24.0556C69.5319 24.6655 69.6569 25.2055 69.9069 25.6754C70.1668 26.1353 70.5218 26.4952 70.9717 26.7552C71.4316 27.0052 71.9465 27.1301 72.5164 27.1301C72.9864 27.1301 73.4213 27.0352 73.8212 26.8452C74.2212 26.6552 74.5511 26.3653 74.8111 25.9753L75.6059 26.5152C75.296 27.0252 74.8711 27.4151 74.3312 27.6851C73.7912 27.945 73.1863 28.075 72.5164 28.075ZM83.0704 21.0561H80.0859V28H79.0211V21.0561H76.0365V20.1113H83.0704V21.0561ZM91.3997 24.4906H89.6V28H88.5351V20.1113H89.6V23.5757H91.4147L94.1892 20.1113H95.344L92.2395 23.9357L95.569 28H94.3092L91.3997 24.4906ZM100.226 28.075C99.4659 28.075 98.781 27.905 98.1711 27.5651C97.5612 27.2151 97.0813 26.7352 96.7313 26.1253C96.3814 25.5154 96.2064 24.8255 96.2064 24.0556C96.2064 23.2858 96.3814 22.5959 96.7313 21.986C97.0813 21.3761 97.5612 20.9012 98.1711 20.5612C98.781 20.2213 99.4659 20.0513 100.226 20.0513C100.986 20.0513 101.671 20.2213 102.28 20.5612C102.89 20.9012 103.365 21.3761 103.705 21.986C104.055 22.5959 104.23 23.2858 104.23 24.0556C104.23 24.8255 104.055 25.5154 103.705 26.1253C103.365 26.7352 102.89 27.2151 102.28 27.5651C101.671 27.905 100.986 28.075 100.226 28.075ZM100.226 27.1301C100.786 27.1301 101.286 27.0052 101.726 26.7552C102.175 26.4952 102.525 26.1303 102.775 25.6604C103.025 25.1905 103.15 24.6555 103.15 24.0556C103.15 23.4557 103.025 22.9208 102.775 22.4509C102.525 21.981 102.175 21.621 101.726 21.3711C101.286 21.1111 100.786 20.9811 100.226 20.9811C99.6658 20.9811 99.1609 21.1111 98.711 21.3711C98.2711 21.621 97.9211 21.981 97.6612 22.4509C97.4112 22.9208 97.2862 23.4557 97.2862 24.0556C97.2862 24.6555 97.4112 25.1905 97.6612 25.6604C97.9211 26.1303 98.2711 26.4952 98.711 26.7552C99.1609 27.0052 99.6658 27.1301 100.226 27.1301ZM115.324 20.1113V28H114.35V21.761L111.155 27.0402H110.675L107.481 21.746V28H106.506V20.1113H107.586L110.93 25.7954L114.335 20.1113H115.324ZM125.433 20.1113V28H124.369V21.0561H119.419V28H118.355V20.1113H125.433ZM131.175 20.0513C132.205 20.0513 132.995 20.3112 133.544 20.8312C134.094 21.3411 134.369 22.101 134.369 23.1108V28H133.35V26.7702C133.11 27.1801 132.755 27.5001 132.285 27.73C131.825 27.96 131.275 28.075 130.635 28.075C129.755 28.075 129.055 27.865 128.535 27.4451C128.015 27.0252 127.755 26.4702 127.755 25.7804C127.755 25.1105 127.995 24.5706 128.475 24.1606C128.965 23.7507 129.74 23.5457 130.8 23.5457H133.305V23.0658C133.305 22.3859 133.115 21.871 132.735 21.521C132.355 21.1611 131.8 20.9811 131.07 20.9811C130.57 20.9811 130.09 21.0661 129.63 21.2361C129.17 21.3961 128.775 21.621 128.445 21.911L127.965 21.1161C128.365 20.7762 128.845 20.5162 129.405 20.3362C129.965 20.1463 130.555 20.0513 131.175 20.0513ZM130.8 27.2351C131.4 27.2351 131.915 27.1001 132.345 26.8302C132.775 26.5502 133.095 26.1503 133.305 25.6304V24.3406H130.83C129.48 24.3406 128.805 24.8105 128.805 25.7504C128.805 26.2103 128.98 26.5752 129.33 26.8452C129.68 27.1051 130.17 27.2351 130.8 27.2351ZM137.204 20.1113H138.269V23.6057H143.233V20.1113H144.298V28H143.233V24.5206H138.269V28H137.204V20.1113ZM147.324 20.1113H148.389V26.3803L153.653 20.1113H154.598V28H153.533V21.731L148.284 28H147.324V20.1113ZM157.65 20.1113H158.715V26.3803L163.979 20.1113H164.924V28H163.859V21.731L158.61 28H157.65V20.1113ZM168.05 21.686C167.83 21.686 167.64 21.606 167.48 21.4461C167.33 21.2861 167.256 21.0911 167.256 20.8612C167.256 20.6312 167.33 20.4412 167.48 20.2912C167.64 20.1313 167.83 20.0513 168.05 20.0513C168.27 20.0513 168.46 20.1313 168.62 20.2912C168.78 20.4412 168.86 20.6312 168.86 20.8612C168.86 21.0911 168.78 21.2861 168.62 21.4461C168.46 21.606 168.27 21.686 168.05 21.686ZM168.05 28.075C167.83 28.075 167.64 27.995 167.48 27.835C167.33 27.6751 167.256 27.4801 167.256 27.2501C167.256 27.0202 167.33 26.8302 167.48 26.6802C167.64 26.5202 167.83 26.4403 168.05 26.4403C168.27 26.4403 168.46 26.5202 168.62 26.6802C168.78 26.8302 168.86 27.0202 168.86 27.2501C168.86 27.4801 168.78 27.6751 168.62 27.835C168.46 27.995 168.27 28.075 168.05 28.075Z" fill="white"></path> <path d="M23.9514 86.6017V95H23.0876V87.3695H21.108V86.6017H23.9514ZM34.1499 89.4451H30.5386V95H29.6868V88.6893H34.1499V89.4451ZM37.6915 95.06C37.0836 95.06 36.5358 94.924 36.0479 94.6521C35.56 94.3721 35.176 93.9882 34.8961 93.5003C34.6161 93.0124 34.4762 92.4605 34.4762 91.8446C34.4762 91.2288 34.6161 90.6769 34.8961 90.189C35.176 89.7011 35.56 89.3212 36.0479 89.0492C36.5358 88.7773 37.0836 88.6413 37.6915 88.6413C38.2994 88.6413 38.8473 88.7773 39.3352 89.0492C39.8231 89.3212 40.203 89.7011 40.475 90.189C40.7549 90.6769 40.8949 91.2288 40.8949 91.8446C40.8949 92.4605 40.7549 93.0124 40.475 93.5003C40.203 93.9882 39.8231 94.3721 39.3352 94.6521C38.8473 94.924 38.2994 95.06 37.6915 95.06ZM37.6915 94.3041C38.1394 94.3041 38.5394 94.2042 38.8913 94.0042C39.2512 93.7962 39.5312 93.5043 39.7311 93.1284C39.9311 92.7525 40.0311 92.3245 40.0311 91.8446C40.0311 91.3647 39.9311 90.9368 39.7311 90.5609C39.5312 90.185 39.2512 89.897 38.8913 89.6971C38.5394 89.4891 38.1394 89.3851 37.6915 89.3851C37.2436 89.3851 36.8397 89.4891 36.4798 89.6971C36.1278 89.897 35.8479 90.185 35.6399 90.5609C35.44 90.9368 35.34 91.3647 35.34 91.8446C35.34 92.3245 35.44 92.7525 35.6399 93.1284C35.8479 93.5043 36.1278 93.7962 36.4798 94.0042C36.8397 94.2042 37.2436 94.3041 37.6915 94.3041ZM48.835 94.2562V96.5237H48.0312V95H42.3803V96.5237H41.5765V94.2562H41.9364C42.3603 94.2322 42.6483 93.9202 42.8002 93.3203C42.9522 92.7205 43.0562 91.8806 43.1122 90.8009L43.1962 88.6893H47.8512V94.2562H48.835ZM43.892 90.8488C43.852 91.7447 43.776 92.4845 43.6641 93.0684C43.5521 93.6443 43.3521 94.0402 43.0642 94.2562H46.9994V89.4451H43.964L43.892 90.8488Z" fill="white"></path> <path d="M282.951 86.6017V95H282.088V87.3695H280.108V86.6017H282.951ZM288.306 95.072C287.658 95.072 287.079 94.9 286.567 94.5561C286.063 94.2122 285.667 93.7203 285.379 93.0804C285.099 92.4325 284.959 91.6727 284.959 90.8009C284.959 89.929 285.099 89.1732 285.379 88.5333C285.667 87.8854 286.063 87.3895 286.567 87.0456C287.079 86.7017 287.658 86.5297 288.306 86.5297C288.954 86.5297 289.53 86.7017 290.034 87.0456C290.546 87.3895 290.946 87.8854 291.234 88.5333C291.522 89.1732 291.666 89.929 291.666 90.8009C291.666 91.6727 291.522 92.4325 291.234 93.0804C290.946 93.7203 290.546 94.2122 290.034 94.5561C289.53 94.9 288.954 95.072 288.306 95.072ZM288.306 94.2801C288.794 94.2801 289.222 94.1442 289.59 93.8722C289.966 93.6003 290.258 93.2044 290.466 92.6845C290.674 92.1646 290.778 91.5367 290.778 90.8009C290.778 90.065 290.674 89.4371 290.466 88.9172C290.258 88.3973 289.966 88.0014 289.59 87.7295C289.222 87.4575 288.794 87.3216 288.306 87.3216C287.818 87.3216 287.386 87.4575 287.011 87.7295C286.643 88.0014 286.355 88.3973 286.147 88.9172C285.939 89.4371 285.835 90.065 285.835 90.8009C285.835 91.5367 285.939 92.1646 286.147 92.6845C286.355 93.2044 286.643 93.6003 287.011 93.8722C287.386 94.1442 287.818 94.2801 288.306 94.2801ZM298.431 91.1608H296.2V93.3443H295.444V91.1608H293.212V90.4529H295.444V88.2574H296.2V90.4529H298.431V91.1608ZM308.784 88.6893V95H307.932V89.4451H304.909L304.825 91.0048C304.761 92.3165 304.609 93.3243 304.369 94.0282C304.129 94.7321 303.701 95.084 303.085 95.084C302.917 95.084 302.713 95.052 302.473 94.988L302.533 94.2562C302.677 94.2881 302.777 94.3041 302.833 94.3041C303.161 94.3041 303.409 94.1522 303.577 93.8482C303.745 93.5443 303.857 93.1684 303.913 92.7205C303.969 92.2726 304.017 91.6807 304.057 90.9448L304.165 88.6893H308.784ZM316.725 92.1086H311.446C311.494 92.7645 311.746 93.2963 312.201 93.7043C312.657 94.1042 313.233 94.3041 313.929 94.3041C314.321 94.3041 314.681 94.2362 315.009 94.1002C315.337 93.9562 315.621 93.7483 315.861 93.4763L316.341 94.0282C316.061 94.3641 315.709 94.6201 315.285 94.796C314.869 94.972 314.409 95.06 313.905 95.06C313.257 95.06 312.681 94.924 312.177 94.6521C311.682 94.3721 311.294 93.9882 311.014 93.5003C310.734 93.0124 310.594 92.4605 310.594 91.8446C310.594 91.2288 310.726 90.6769 310.99 90.189C311.262 89.7011 311.63 89.3212 312.093 89.0492C312.565 88.7773 313.093 88.6413 313.677 88.6413C314.261 88.6413 314.785 88.7773 315.249 89.0492C315.713 89.3212 316.077 89.7011 316.341 90.189C316.605 90.6689 316.737 91.2208 316.737 91.8446L316.725 92.1086ZM313.677 89.3731C313.069 89.3731 312.557 89.5691 312.141 89.961C311.734 90.3449 311.502 90.8488 311.446 91.4727H315.921C315.865 90.8488 315.629 90.3449 315.213 89.961C314.805 89.5691 314.293 89.3731 313.677 89.3731ZM322.78 89.4451H320.393V95H319.541V89.4451H317.153V88.6893H322.78V89.4451Z" fill="white"></path> </svg> 