<svg width="18" height="18" viewBox="0 0 18 18" version="1.1" xmlns="http://www.w3.org/2000/svg" xmlns:xlink="http://www.w3.org/1999/xlink">
<title>Fill 4</title>
<desc>Created using Figma</desc>
<g id="Canvas" transform="translate(-1497 -10707)">
<g id="Fill 4" opacity="0.54">
<use xlink:href="#path0_fill" transform="translate(1497 10707)"/>
</g>
</g>
<defs>
<path id="path0_fill" fill-rule="evenodd" d="M 9.0002 14.2992C 8.28419 14.2992 7.7002 13.7192 7.7002 13.0002C 7.7002 12.2832 8.28419 11.7012 9.0002 11.7012C 9.7172 11.7012 10.3002 12.2832 10.3002 13.0002C 10.3002 13.7192 9.7172 14.2992 9.0002 14.2992ZM 7.99902 4L 9.99902 4L 9.99902 9.999L 7.99902 9.999L 7.99902 4ZM 12.728 0L 5.271 0L 0 5.272L 0 12.728L 5.271 17.999L 12.728 17.999L 18.001 12.728L 18.001 5.272L 12.728 0Z"/>
</defs>
</svg>
