<svg width="27" height="26" viewBox="0 0 27 26" version="1.1" xmlns="http://www.w3.org/2000/svg" xmlns:xlink="http://www.w3.org/1999/xlink">
<title>Vector</title>
<desc>Created using Figma</desc>
<g id="Canvas" transform="translate(-1662 -5694)">
<g id="Vector">
<use xlink:href="#path0_fill" transform="translate(1662 5694)" fill="#FFFFFF"/>
<use xlink:href="#path1_fill" transform="translate(1662 5694)" fill="#FFFFFF"/>
<use xlink:href="#path2_fill" transform="translate(1662 5694)" fill="#FFFFFF"/>
</g>
</g>
<defs>
<path id="path0_fill" d="M 22.7911 0L 4.20891 0C 1.88971 0 0 1.89404 0 4.21854L 0 5.05077C 0 5.50993 0.372215 5.883 0.830327 5.883L 16.0626 5.883C 16.5207 5.883 16.8929 5.50993 16.8929 5.05077C 16.8929 4.59161 16.5207 4.21854 16.0626 4.21854L 1.66066 4.21854C 1.66066 2.81236 2.80594 1.69315 4.18027 1.69315L 22.7625 1.69315C 24.1654 1.69315 25.2821 2.84106 25.2821 4.21854L 25.2821 21.7528C 25.2821 23.1589 24.1368 24.2781 22.7625 24.2781L 4.18027 24.2781C 2.77731 24.2781 1.66066 23.1302 1.66066 21.7528L 1.66066 12.5695L 22.4189 12.5695L 19.6416 15.3532C 19.298 15.6976 19.298 16.2141 19.6416 16.5585C 19.8134 16.7307 20.0138 16.8168 20.2428 16.8168C 20.4719 16.8168 20.6723 16.7307 20.8441 16.5585L 25.053 12.34C 25.2248 12.1678 25.3107 11.9669 25.3107 11.7373C 25.3107 11.5077 25.2248 11.3068 25.053 11.1347L 20.8441 6.91611C 20.5005 6.57174 19.9851 6.57174 19.6416 6.91611C 19.298 7.26048 19.298 7.77704 19.6416 8.12141L 22.4189 10.9051L 0.830327 10.9051C 0.372215 10.9051 0 11.2781 0 11.7373L 0 21.7815C 0 24.106 1.88971 26 4.20891 26L 22.7911 26C 25.1103 26 27 24.106 27 21.7815L 27 4.21854C 27 1.89404 25.1103 0 22.7911 0Z"/>
<path id="path1_fill" d="M 17.0648 14.3199L 2.54835 14.3199L 2.54835 15.9557L 17.0648 15.9557L 17.0648 14.3199Z"/>
<path id="path2_fill" d="M 17.0648 18.9115L 2.54835 18.9115L 2.54835 20.5473L 17.0648 20.5473L 17.0648 18.9115Z"/>
</defs>
</svg>
