<svg width="40" height="32" viewBox="0 0 40 32" version="1.1" xmlns="http://www.w3.org/2000/svg" xmlns:xlink="http://www.w3.org/1999/xlink">
<title>icons8-briefcase</title>
<desc>Created using Figma</desc>
<g id="Canvas" transform="translate(-4095 -42)">
<g id="icons8-briefcase">
<g id="surface1">
<g id="Vector">
<use xlink:href="#path0_fill" transform="translate(4095 42)" fill="#717D83"/>
</g>
</g>
</g>
</g>
<defs>
<path id="path0_fill" d="M 16.0433 0C 15.4255 0 14.8486 0.307692 14.5072 0.822116L 12.5937 3.69231L 1.84615 3.69231C 0.826923 3.69231 0 4.51923 0 5.53846L 0 11.5697C 0 12.5697 0.475962 13.4567 1.23077 14.0216L 1.23077 29.5385C 1.23077 30.899 2.33173 32 3.69231 32L 35.6923 32C 37.0529 32 38.1538 30.899 38.1538 29.5385L 38.1538 14.0216C 38.9087 13.4567 39.3846 12.5697 39.3846 11.5697L 39.3846 5.53846C 39.3846 4.51923 38.5577 3.69231 37.5385 3.69231L 26.7909 3.69231L 24.8774 0.822116C 24.5361 0.307692 23.9591 0 23.3413 0L 16.0433 0ZM 16.0433 1.23077L 23.3413 1.23077C 23.5481 1.23077 23.738 1.33413 23.8534 1.50481L 25.3101 3.69231L 14.0745 3.69231L 15.5312 1.50481C 15.6466 1.33413 15.8365 1.23077 16.0433 1.23077ZM 1.84615 4.92308L 37.5385 4.92308C 37.8774 4.92308 38.1538 5.19952 38.1538 5.53846L 38.1538 6.15385C 37.8149 6.15385 37.5385 6.42789 37.5385 6.76923L 37.5385 8C 37.5385 8.34135 37.8149 8.61539 38.1538 8.61539L 38.1538 11.5697C 38.1538 12.4399 37.5625 13.1803 36.7139 13.3726L 22.1538 16.6587L 22.1538 16.6154C 22.1538 15.9375 21.601 15.3846 20.9231 15.3846L 18.4615 15.3846C 17.7837 15.3846 17.2308 15.9375 17.2308 16.6154L 17.2308 16.6587L 2.67067 13.3726C 1.82212 13.1803 1.23077 12.4399 1.23077 11.5697L 1.23077 8.61539C 1.56971 8.61539 1.84615 8.34135 1.84615 8L 1.84615 6.76923C 1.84615 6.42789 1.56971 6.15385 1.23077 6.15385L 1.23077 5.53846C 1.23077 5.19952 1.50721 4.92308 1.84615 4.92308ZM 4.30769 6.15385C 3.96875 6.15385 3.69231 6.42789 3.69231 6.76923L 3.69231 8C 3.69231 8.34135 3.96875 8.61539 4.30769 8.61539C 4.64663 8.61539 4.92308 8.34135 4.92308 8L 4.92308 6.76923C 4.92308 6.42789 4.64663 6.15385 4.30769 6.15385ZM 7.38461 6.15385C 7.04567 6.15385 6.76923 6.42789 6.76923 6.76923L 6.76923 8C 6.76923 8.34135 7.04567 8.61539 7.38461 8.61539C 7.72356 8.61539 8 8.34135 8 8L 8 6.76923C 8 6.42789 7.72356 6.15385 7.38461 6.15385ZM 10.4615 6.15385C 10.1226 6.15385 9.84615 6.42789 9.84615 6.76923L 9.84615 8C 9.84615 8.34135 10.1226 8.61539 10.4615 8.61539C 10.8005 8.61539 11.0769 8.34135 11.0769 8L 11.0769 6.76923C 11.0769 6.42789 10.8005 6.15385 10.4615 6.15385ZM 13.5385 6.15385C 13.1995 6.15385 12.9231 6.42789 12.9231 6.76923L 12.9231 8C 12.9231 8.34135 13.1995 8.61539 13.5385 8.61539C 13.8774 8.61539 14.1538 8.34135 14.1538 8L 14.1538 6.76923C 14.1538 6.42789 13.8774 6.15385 13.5385 6.15385ZM 16.6154 6.15385C 16.2764 6.15385 16 6.42789 16 6.76923L 16 8C 16 8.34135 16.2764 8.61539 16.6154 8.61539C 16.9543 8.61539 17.2308 8.34135 17.2308 8L 17.2308 6.76923C 17.2308 6.42789 16.9543 6.15385 16.6154 6.15385ZM 19.6923 6.15385C 19.3534 6.15385 19.0769 6.42789 19.0769 6.76923L 19.0769 8C 19.0769 8.34135 19.3534 8.61539 19.6923 8.61539C 20.0312 8.61539 20.3077 8.34135 20.3077 8L 20.3077 6.76923C 20.3077 6.42789 20.0312 6.15385 19.6923 6.15385ZM 22.7692 6.15385C 22.4303 6.15385 22.1538 6.42789 22.1538 6.76923L 22.1538 8C 22.1538 8.34135 22.4303 8.61539 22.7692 8.61539C 23.1082 8.61539 23.3846 8.34135 23.3846 8L 23.3846 6.76923C 23.3846 6.42789 23.1082 6.15385 22.7692 6.15385ZM 25.8462 6.15385C 25.5072 6.15385 25.2308 6.42789 25.2308 6.76923L 25.2308 8C 25.2308 8.34135 25.5072 8.61539 25.8462 8.61539C 26.1851 8.61539 26.4615 8.34135 26.4615 8L 26.4615 6.76923C 26.4615 6.42789 26.1851 6.15385 25.8462 6.15385ZM 28.9231 6.15385C 28.5841 6.15385 28.3077 6.42789 28.3077 6.76923L 28.3077 8C 28.3077 8.34135 28.5841 8.61539 28.9231 8.61539C 29.262 8.61539 29.5385 8.34135 29.5385 8L 29.5385 6.76923C 29.5385 6.42789 29.262 6.15385 28.9231 6.15385ZM 32 6.15385C 31.6611 6.15385 31.3846 6.42789 31.3846 6.76923L 31.3846 8C 31.3846 8.34135 31.6611 8.61539 32 8.61539C 32.3389 8.61539 32.6154 8.34135 32.6154 8L 32.6154 6.76923C 32.6154 6.42789 32.3389 6.15385 32 6.15385ZM 35.0769 6.15385C 34.738 6.15385 34.4615 6.42789 34.4615 6.76923L 34.4615 8C 34.4615 8.34135 34.738 8.61539 35.0769 8.61539C 35.4159 8.61539 35.6923 8.34135 35.6923 8L 35.6923 6.76923C 35.6923 6.42789 35.4159 6.15385 35.0769 6.15385ZM 36.9231 14.5865L 36.9231 29.5385C 36.9231 30.2188 36.3726 30.7692 35.6923 30.7692L 3.69231 30.7692C 3.01202 30.7692 2.46154 30.2188 2.46154 29.5385L 2.46154 14.5865L 17.2308 17.9231L 17.2308 20.3077C 17.2308 20.988 17.7812 21.5385 18.4615 21.5385L 20.9231 21.5385C 21.6034 21.5385 22.1538 20.988 22.1538 20.3077L 22.1538 17.9207L 36.9231 14.5865ZM 18.4615 16.6154L 20.9231 16.6154L 20.9231 20.3077L 18.4615 20.3077L 18.4615 16.6154ZM 4.30769 27.0769C 3.96875 27.0769 3.69231 27.351 3.69231 27.6923C 3.69231 28.0337 3.96875 28.3077 4.30769 28.3077L 30.1538 28.3077C 30.4928 28.3077 30.7692 28.0337 30.7692 27.6923C 30.7692 27.351 30.4928 27.0769 30.1538 27.0769L 4.30769 27.0769ZM 32.6154 27.0769C 32.2764 27.0769 32 27.351 32 27.6923C 32 28.0337 32.2764 28.3077 32.6154 28.3077L 35.0769 28.3077C 35.4159 28.3077 35.6923 28.0337 35.6923 27.6923C 35.6923 27.351 35.4159 27.0769 35.0769 27.0769L 32.6154 27.0769Z"/>
</defs>
</svg>
