<svg width="14" height="14" viewBox="0 0 14 14" version="1.1" xmlns="http://www.w3.org/2000/svg" xmlns:xlink="http://www.w3.org/1999/xlink">
<g id="Canvas" fill="none">
<g id="Imported Layers">
<path fill-rule="evenodd" clip-rule="evenodd" d="M 7.33337 11.2L 11.3334 11.2L 11.3334 7L 7.33337 7L 7.33337 11.2ZM 8.66663 8.39844L 9.99996 8.39844L 9.99996 9.79844L 8.66663 9.79844L 8.66663 8.39844ZM 12.6667 1.4L 12 1.4L 12 0L 10.6667 0L 10.6667 1.4L 3.33333 1.4L 3.33333 0L 2 0L 2 1.4L 1.33333 1.4C 0.596667 1.4 0.00666666 2.0272 0.00666666 2.8L 0 12.6C 0 13.3735 0.596667 14 1.33333 14L 12.6667 14C 13.4027 14 14 13.3735 14 12.6L 14 2.8C 14 2.0272 13.4027 1.4 12.6667 1.4ZM 1 4L 13 4L 13 13L 1 13L 1 4Z" fill="#454E59" fill-opacity="0.8"/>
</g>
</g>
</svg>

