<svg width="14" height="14" viewBox="0 0 14 14" version="1.1" xmlns="http://www.w3.org/2000/svg" xmlns:xlink="http://www.w3.org/1999/xlink">
<title>Group</title>
<desc>Created using Figma</desc>
<g id="Canvas" transform="translate(-3821 -3015)">
<g id="Group">
<g id="Vector">
<use xlink:href="#path0_fill" transform="translate(3821 3016.21)" fill="#0382CE"/>
</g>
<g id="Vector">
<use xlink:href="#path1_fill" transform="translate(3823.6 3015)" fill="#0382CE"/>
</g>
<g id="Vector">
<use xlink:href="#path2_fill" transform="translate(3831.07 3015)" fill="#0382CE"/>
</g>
</g>
</g>
<defs>
<path id="path0_fill" d="M 12.0667 6.41896e-08L 12.0667 2.1875L 9.4 2.1875L 9.4 6.41896e-08L 4.6 6.41896e-08L 4.6 2.1875L 1.93333 2.1875L 1.93333 6.41896e-08L 0 6.41896e-08L 0 12.7885L 14 12.7885L 14 6.41896e-08L 12.0667 6.41896e-08ZM 13 4.03846L 13 5.92308L 9.83333 5.92308L 9.83333 4.03846L 13 4.03846ZM 5.06667 8.88462L 5.06667 6.93269L 8.8 6.93269L 8.8 8.88462L 5.06667 8.88462ZM 8.83333 9.89423L 8.83333 11.7788L 5.06667 11.7788L 5.06667 9.89423L 8.83333 9.89423ZM 4.06667 8.88462L 1 8.88462L 1 6.93269L 4.06667 6.93269L 4.06667 8.88462ZM 9.83333 6.89904L 13 6.89904L 13 8.85096L 9.83333 8.85096L 9.83333 6.89904ZM 8.83333 4.03846L 8.83333 5.92308L 5.06667 5.92308L 5.06667 4.03846L 8.83333 4.03846ZM 4.06667 4.03846L 4.06667 5.92308L 1 5.92308L 1 4.03846L 4.06667 4.03846ZM 1 9.89423L 4.06667 9.89423L 4.06667 11.7788L 1 11.7788L 1 9.89423ZM 9.83333 11.7788L 9.83333 9.89423L 13 9.89423L 13 11.7788L 9.83333 11.7788Z"/>
<path id="path1_fill" d="M 1.33333 0L 0 0L 0 2.69231L 1.33333 2.69231L 1.33333 0Z"/>
<path id="path2_fill" d="M 1.33333 0L 0 0L 0 2.69231L 1.33333 2.69231L 1.33333 0Z"/>
</defs>
</svg>
