<svg width="31" height="22" viewBox="0 0 31 22" version="1.1" xmlns="http://www.w3.org/2000/svg" xmlns:xlink="http://www.w3.org/1999/xlink">
<title>Vector</title>
<desc>Created using Figma</desc>
<g id="Canvas" transform="translate(-1689 -5770)">
<g id="Vector">
<use xlink:href="#path0_fill" transform="translate(1689 5770)" fill="#FFFFFF"/>
</g>
</g>
<defs>
<path id="path0_fill" d="M 26.1675 -9.90246e-07L 4.83245 -9.90246e-07C 2.16967 -9.90246e-07 1.00323e-06 2.14159 1.00323e-06 4.76991L 1.00323e-06 5.71091C 1.00323e-06 6.23009 0.427358 6.65192 0.953339 6.65192L 15.4836 6.65192C 16.0095 6.65192 16.4369 6.23009 16.4369 5.71091C 16.4369 5.19174 16.0095 4.76991 15.4836 4.76991L 1.90668 4.76991C 1.90668 3.17994 3.22163 1.91446 4.79958 1.91446L 26.1347 1.91446C 27.7455 1.91446 29.0276 3.21239 29.0276 4.76991L 29.0276 9.53982L 29.0276 17.1976C 29.0276 18.7876 27.7126 20.0531 26.1347 20.0531L 4.79958 20.0531C 3.18876 20.0531 1.90668 18.7552 1.90668 17.1976L 1.90668 10.5133L 25.7402 10.5133L 22.5514 13.6608C 22.1569 14.0501 22.1569 14.6342 22.5514 15.0236C 22.7487 15.2183 22.9788 15.3156 23.2418 15.3156C 23.5048 15.3156 23.7349 15.2183 23.9321 15.0236L 28.7646 10.2537C 28.9618 10.059 29.0604 9.83186 29.0604 9.57227C 29.0604 9.31268 28.9618 9.08555 28.7646 8.89086L 23.9321 4.12094C 23.5376 3.73156 22.9459 3.73156 22.5514 4.12094C 22.1569 4.51032 22.1569 5.0944 22.5514 5.48378L 25.7402 8.63127L 0.953339 8.63127C 0.427358 8.63127 1.00323e-06 9.0531 1.00323e-06 9.57227L 1.00323e-06 17.2301C 1.00323e-06 19.8584 2.16967 22 4.83245 22L 26.1675 22C 28.8303 22 31 19.8584 31 17.2301L 31 4.80236C 31 2.14159 28.8303 -9.90246e-07 26.1675 -9.90246e-07Z"/>
</defs>
</svg>
