<svg xmlns="http://www.w3.org/2000/svg" viewBox="0 0 1000 1000">
  <path fill="#fff" d="M762.2 789.6C855 737.7 916.4 648 916.4 545.9c0-64.6-24.8-124-66.3-172.3 2.8-18.8 4.7-37.9 4.7-57.4 0-8.9-1-17.6-1.6-26.4 76.7 63.5 124.8 153 124.8 252.3 0 111.5-60.5 210.4-154.2 274.2V990L651 884.3c-24 3.9-48.6 6.2-73.9 6.2-118.8 0-194.3-45.1-267.7-116.4 12.1.7 24.1 1.6 36.4 1.6 17.2 0 34.2-.9 51-2.2 58 39.6 100.4 63.4 180.3 63.4 27.5 0 54.2-3.1 79.8-8.4l105.3 69.7V789.6zm-339.3-75.2c-25.3 0-79.8-4.2-103.7-8.1l-173.8 99.9V632.6C64.7 564.4 22 469.8 22 358.4 22 166 201.2 10 422.9 10 607.2 10 793 166 793 358.4c0 192.4-148.7 356-370.1 356zm-110.6-69.7c25.6 5.3 83.1 8.4 110.6 8.4 187.4 0 308.4-130.3 308.4-290.9 0-160.7-155.1-290.9-308.4-290.9-192.7 0-339.3 130.3-339.3 290.9 0 102.1 48.1 183 123.4 243.7v108.5l105.3-69.7zm280.2-236.6c-25.6 0-46.3-20.6-46.3-45.9 0-25.4 20.7-45.9 46.3-45.9 25.6 0 46.3 20.6 46.3 45.9 0 25.4-20.7 45.9-46.3 45.9zm-185 0c-25.6 0-46.3-20.6-46.3-45.9 0-25.4 20.7-45.9 46.3-45.9 25.6 0 46.3 20.6 46.3 45.9-.1 25.4-20.8 45.9-46.3 45.9zm-185.1 0c-25.6 0-46.3-20.6-46.3-45.9 0-25.4 20.7-45.9 46.3-45.9s46.3 20.6 46.3 45.9c0 25.4-20.7 45.9-46.3 45.9z"/>
</svg>
