<svg width="17" height="17" viewBox="0 0 17 17" version="1.1" xmlns="http://www.w3.org/2000/svg" xmlns:xlink="http://www.w3.org/1999/xlink">
<title>Shape</title>
<desc>Created using Figma</desc>
<g id="Canvas" transform="translate(-3635 358)">
<!-- <rect x="3635" y="-358" width="17" height="17" fill="#9DA6AA"/> -->
<clipPath id="clip-0" clip-rule="evenodd">
<path d="M 2622 -379L 3902 -379L 3902 844L 2622 844L 2622 -379Z" fill="#FFFFFF"/>
</clipPath>
<g id="&#208;&#152;&#208;&#189;&#208;&#178;&#208;&#181;&#209;&#129;&#209;&#130;&#208;&#190;&#209;&#128;-&#208;&#183;&#208;&#176;&#209;&#145;&#208;&#188;&#209;&#137;&#208;&#184;&#208;&#186;" clip-path="url(#clip-0)">
<!-- <path d="M 2622 -379L 3902 -379L 3902 844L 2622 844L 2622 -379Z" fill="#EDEFF1"/> -->
<g id="Header">
<g id="Rectangle 1" filter="url(#filter0_d)">
<use xlink:href="#path0_fill" transform="translate(2622 -379)" fill="url(#paint0_linear)"/>
</g>
</g>
<g id="&#208;&#191;&#209;&#128;&#208;&#190;&#209;&#132;&#208;&#184;&#208;&#187;&#209;&#140;">
<g id="Shape">
<use xlink:href="#path1_fill" transform="translate(3635 -358)" fill="#FFFFFF"/>
</g>
</g>
</g>
</g>
<defs>
<!-- <filter id="filter0_d" filterUnits="userSpaceOnUse" x="2610" y="-389" width="1304" height="84" color-interpolation-filters="sRGB">
<feFlood flood-opacity="0" result="BackgroundImageFix"/>
<feColorMatrix in="SourceAlpha" type="matrix" values="0 0 0 0 0 0 0 0 0 0 0 0 0 0 0 0 0 0 255 0"/>
<feOffset dx="0" dy="2"/>
<feGaussianBlur stdDeviation="6"/>
<feColorMatrix type="matrix" values="0 0 0 0 0.142718 0 0 0 0 0.187838 0 0 0 0 0.213621 0 0 0 0.16 0"/>
<feBlend mode="normal" in2="BackgroundImageFix" result="effect1_dropShadow"/>
<feBlend mode="normal" in="SourceGraphic" in2="effect1_dropShadow" result="shape"/>
</filter>
<linearGradient id="paint0_linear" x1="0" y1="0" x2="1" y2="0" gradientUnits="userSpaceOnUse" gradientTransform="matrix(1280 0 0 60 0 30)">
<stop offset="0" stop-color="#005180"/>
<stop offset="0.502583" stop-color="#00639C"/>
<stop offset="1" stop-color="#11BAB2"/>
</linearGradient> -->
<path id="path0_fill" fill-rule="evenodd" d="M 0 0L 1280 0L 1280 60L 0 60L 0 0Z"/>
<path id="path1_fill" fill-rule="evenodd" d="M 8.5 0L 8.32292 0.0442133L 0.53125 2.16645L 0 2.3212L 0 2.85176L 0 16.2926L 0 17L 0.708333 17L 7.08333 17L 7.79167 17L 7.79167 16.2926L 7.79167 14.1704L 9.20833 14.1704L 9.20833 16.2926L 9.20833 17L 9.91667 17L 16.2917 17L 17 17L 17 16.2926L 17 2.85176L 17 2.3212L 16.4688 2.16645L 8.67708 0.0442133L 8.5 0ZM 8.50008 1.45905L 15.5834 3.38232L 15.5834 15.5852L 10.6251 15.5852L 10.6251 13.4629L 10.6251 12.7555L 9.91675 12.7555L 7.08341 12.7555L 6.37508 12.7555L 6.37508 13.4629L 6.37508 15.5852L 1.41675 15.5852L 1.41675 3.38232L 8.50008 1.45905ZM 3.54175 4.26657L 3.54175 5.6814L 4.95841 5.6814L 4.95841 4.26657L 3.54175 4.26657ZM 6.375 4.26657L 6.375 5.6814L 7.79167 5.6814L 7.79167 4.26657L 6.375 4.26657ZM 9.20825 4.26657L 9.20825 5.6814L 10.6249 5.6814L 10.6249 4.26657L 9.20825 4.26657ZM 12.0417 4.26657L 12.0417 5.6814L 13.4584 5.6814L 13.4584 4.26657L 12.0417 4.26657ZM 3.54175 7.09622L 3.54175 8.51105L 4.95841 8.51105L 4.95841 7.09622L 3.54175 7.09622ZM 6.375 7.09622L 6.375 8.51105L 7.79167 8.51105L 7.79167 7.09622L 6.375 7.09622ZM 9.20825 7.09622L 9.20825 8.51105L 10.6249 8.51105L 10.6249 7.09622L 9.20825 7.09622ZM 12.0417 7.09622L 12.0417 8.51105L 13.4584 8.51105L 13.4584 7.09622L 12.0417 7.09622ZM 3.54175 9.92587L 3.54175 11.3407L 4.95841 11.3407L 4.95841 9.92587L 3.54175 9.92587ZM 6.375 9.92587L 6.375 11.3407L 7.79167 11.3407L 7.79167 9.92587L 6.375 9.92587ZM 9.20825 9.92587L 9.20825 11.3407L 10.6249 11.3407L 10.6249 9.92587L 9.20825 9.92587ZM 12.0417 9.92587L 12.0417 11.3407L 13.4584 11.3407L 13.4584 9.92587L 12.0417 9.92587ZM 3.54175 12.7555L 3.54175 14.1703L 4.95841 14.1703L 4.95841 12.7555L 3.54175 12.7555ZM 12.0417 12.7555L 12.0417 14.1703L 13.4584 14.1703L 13.4584 12.7555L 12.0417 12.7555Z"/>
</defs>
</svg>
