<svg width="29" height="37" viewBox="0 0 29 37" fill="none" xmlns="http://www.w3.org/2000/svg">
<path d="M2.31929 37H26.6807C27.957 37 29 35.9587 29 34.6884V2.31162C29 1.03952 27.9553 0 26.6807 0H2.31929C1.04297 0 -1.21382e-07 1.04129 -1.21382e-07 2.31162V34.6866C-1.21382e-07 35.9587 1.04474 37 2.31929 37ZM1.76775 2.31162C1.76775 2.01386 2.02054 1.7619 2.31929 1.7619H26.6807C26.9795 1.7619 27.2322 2.01386 27.2322 2.31162V34.6866C27.2322 34.9844 26.9795 35.2363 26.6807 35.2363H2.31929C2.02054 35.2363 1.76775 34.9844 1.76775 34.6866V2.31162Z" fill="#88BD1F"/>
<path fill-rule="evenodd" clip-rule="evenodd" d="M11.7273 21.8244L7.43182 17.5355L6 18.9651L11.7273 24.6836L24 12.4296L22.5682 11L11.7273 21.8244Z" fill="#88BD1F"/>
</svg>
