<svg width="12" height="12" viewBox="0 0 12 12" version="1.1" xmlns="http://www.w3.org/2000/svg" xmlns:xlink="http://www.w3.org/1999/xlink">
<g id="Canvas" fill="none">
<g id="Vector">
<path d="M 8.95469 0.00264101C 8.85423 0.0147016 8.75831 0.0617932 8.68736 0.133898L 0.883137 7.93431C 0.8235 7.99299 0.780736 8.06862 0.761196 8.14995L 0.0107897 11.4501C -0.023021 11.5979 0.0241169 11.7616 0.13134 11.8687C 0.238563 11.9759 0.402325 12.023 0.550144 11.9892L 3.85193 11.2392C 3.93495 11.2205 4.01239 11.1776 4.07236 11.1173L 11.8766 3.31688C 12.0411 3.15052 12.0411 2.8504 11.8766 2.68403L 9.3252 0.133898C 9.22999 0.0374031 9.08945 -0.012383 8.95469 0.00264101ZM 9.00628 1.08551L 10.9198 3.0028L 10.0568 3.86535L 8.14331 1.95274L 9.00628 1.08551ZM 7.50547 2.58559L 9.419 4.50288L 3.90352 10.0157L 1.98999 8.10307L 7.50547 2.58559ZM 1.51629 8.89999L 3.10621 10.4891L 1.05198 10.9532L 1.51629 8.89999Z" fill="#757575"/>
</g>
</g>
</svg>

