<svg width="27" height="26" viewBox="0 0 27 26" version="1.1" xmlns="http://www.w3.org/2000/svg" xmlns:xlink="http://www.w3.org/1999/xlink">
<title>Vector</title>
<desc>Created using Figma</desc>
<g id="Canvas" transform="translate(-2803 -27408)">
<g id="Vector" opacity="0.8">
<use xlink:href="#path1_fill" transform="matrix(1 -1.60812e-16 1.60812e-16 1 2803 27413)" fill="#FFFFFF"/>
<use xlink:href="#path0_fill" transform="translate(2803 27408)" fill="#FFFFFF"/>
</g>
</g>

<defs>
<path id="path1_fill" fill-rule="evenodd" d="M 8 0L 6.6 1.4L 12.2 7L 0 7L 0 9L 12.2 9L 6.6 14.6L 8 16L 16 8L 8 0Z"/>
<path id="path0_fill" d="M 23.9898 0L 3 0C 1.35254 0 0 1.30294 0 2.88998L 0 8.28787C 0 8.4936 0.183051 8.66014 0.386441 8.66014L 1.6339 8.66014C 1.84746 8.66014 2.02034 8.4838 2.02034 8.28787L 2.02034 3.07536C 2.02034 2.4092 2.55932 1.88998 3.25085 1.88998L 23.7797 1.88998C 24.4712 1.88998 25.0102 2.4092 25.0102 3.07536L 25.0102 22.9246C 25.0102 23.5908 24.4712 24.11 23.7797 24.11L 3.23051 24.11C 2.53898 24.11 2 23.5908 2 22.9246L 2 17.7121C 2 17.5064 1.81695 17.3399 1.61356 17.3399L 0.39661 17.3399C 0.183051 17.3399 0.0101695 17.5162 0.0101695 17.7121L 0.0101695 23.11C 0.0101695 24.6971 1.36271 26 3.01017 26L 24 26C 25.6475 26 27 24.6971 27 23.11L 27 2.88998C 26.9898 1.30294 25.6373 0 23.9898 0Z"/>
</defs>
</svg>
