<svg width="14" height="14" viewBox="0 0 14 14" version="1.1" xmlns="http://www.w3.org/2000/svg" xmlns:xlink="http://www.w3.org/1999/xlink">
<title>info</title>
<desc>Created using Figma</desc>
<g id="Canvas" transform="translate(-4185 -437)">
<g id="icons/info">
<g id="Mask">
<use xlink:href="#path0_fill" transform="translate(4185.7 437.7)" fill="#717D83"/>
</g>
</g>
</g>
<defs>
<path id="path0_fill" fill-rule="evenodd" d="M 0 6.29999C 0 2.82629 2.82617 0 6.2998 0C 9.77393 0 12.6001 2.82629 12.6001 6.29999C 12.6001 9.77371 9.77393 12.6 6.2998 12.6C 2.82617 12.6 0 9.77371 0 6.29999ZM 11.6309 6.30002C 11.6309 3.35068 9.24951 0.969238 6.2998 0.969238C 3.35059 0.969238 0.969238 3.35068 0.969238 6.30002C 0.969238 9.24936 3.35059 11.6308 6.2998 11.6308C 9.24951 11.6308 11.6309 9.24936 11.6309 6.30002ZM 5.81543 3.3923L 5.81543 4.36154L 6.78467 4.36154L 6.78467 3.3923L 5.81543 3.3923ZM 5.81543 9.2077L 5.81543 5.33078L 6.78467 5.33078L 6.78467 9.2077L 5.81543 9.2077Z"/>
</defs>
</svg>
