<svg width="27" height="27" viewBox="0 0 27 27" fill="none" xmlns="http://www.w3.org/2000/svg">
<path d="M12.1435 1.25208C12.9096 0.544948 14.0904 0.544948 14.8565 1.25208L15.6282 1.96439C16.1115 2.41045 16.7832 2.59042 17.4247 2.44575L18.4492 2.21473C19.4662 1.9854 20.4888 2.5758 20.7987 3.57124L21.1109 4.57399C21.3064 5.20191 21.7981 5.6936 22.426 5.88909L23.4288 6.20127C24.4242 6.51117 25.0146 7.53378 24.7853 8.55081L24.5542 9.57531C24.4096 10.2168 24.5896 10.8885 25.0356 11.3718L25.7479 12.1435C26.4551 12.9096 26.4551 14.0904 25.7479 14.8565L25.0356 15.6282C24.5896 16.1115 24.4096 16.7832 24.5542 17.4247L24.7853 18.4492C25.0146 19.4662 24.4242 20.4888 23.4288 20.7987L22.426 21.1109C21.7981 21.3064 21.3064 21.7981 21.1109 22.426L20.7987 23.4288C20.4888 24.4242 19.4662 25.0146 18.4492 24.7853L17.4247 24.5542C16.7832 24.4096 16.1115 24.5896 15.6282 25.0356L14.8565 25.7479C14.0904 26.4551 12.9096 26.4551 12.1435 25.7479L11.3718 25.0356C10.8885 24.5896 10.2168 24.4096 9.57531 24.5542L8.55081 24.7853C7.53378 25.0146 6.51117 24.4242 6.20127 23.4288L5.88909 22.426C5.6936 21.7981 5.20191 21.3064 4.57399 21.1109L3.57124 20.7987C2.5758 20.4888 1.9854 19.4662 2.21473 18.4492L2.44575 17.4247C2.59042 16.7832 2.41045 16.1115 1.96439 15.6282L1.25208 14.8565C0.544948 14.0904 0.544948 12.9096 1.25208 12.1435L1.96439 11.3718C2.41045 10.8885 2.59042 10.2168 2.44575 9.57531L2.21473 8.55081C1.9854 7.53378 2.5758 6.51117 3.57124 6.20127L4.57399 5.88909C5.20191 5.6936 5.6936 5.20191 5.88909 4.57399L6.20127 3.57124C6.51117 2.5758 7.53378 1.9854 8.55081 2.21473L9.57531 2.44575C10.2168 2.59042 10.8885 2.41045 11.3718 1.96439L12.1435 1.25208Z" fill="#0382CE"/>
<path d="M13.5 6C9.3625 6 6 9.3625 6 13.5C6 17.6375 9.3625 21 13.5 21C17.6375 21 21 17.6375 21 13.5C21 9.3625 17.6375 6 13.5 6ZM13.5 19.75C10.0562 19.75 7.25 16.9438 7.25 13.5C7.25 10.0562 10.0562 7.25 13.5 7.25C16.9438 7.25 19.75 10.0562 19.75 13.5C19.75 16.9438 16.9438 19.75 13.5 19.75Z" fill="white"/>
<path d="M16.8063 11.1812L12.875 15.1187L10.8188 13.0625C10.575 12.8187 10.1813 12.8187 9.93754 13.0625C9.69379 13.3062 9.69379 13.7 9.93754 13.9437L12.4375 16.4437C12.5563 16.5625 12.7125 16.625 12.875 16.625C13.0375 16.625 13.1938 16.5625 13.3188 16.4437L17.6938 12.0687C17.9375 11.825 17.9375 11.4312 17.6938 11.1875C17.45 10.9437 17.05 10.9375 16.8063 11.1812Z" fill="white"/>
</svg>
