<svg width="22" height="28" viewBox="0 0 22 28" fill="none" xmlns="http://www.w3.org/2000/svg">
<path d="M1.75946 28H20.2405C21.2088 28 22 27.212 22 26.2507V1.74933C22 0.786666 21.2074 0 20.2405 0H1.75946C0.791222 0 -9.20829e-08 0.788 -9.20829e-08 1.74933V26.2493C-9.20829e-08 27.212 0.792563 28 1.75946 28ZM1.34105 1.74933C1.34105 1.524 1.53283 1.33333 1.75946 1.33333H20.2405C20.4672 1.33333 20.6589 1.524 20.6589 1.74933V26.2493C20.6589 26.4747 20.4672 26.6653 20.2405 26.6653H1.75946C1.53283 26.6653 1.34105 26.4747 1.34105 26.2493V1.74933Z" fill="#243036" fill-opacity="0.9"/>
<path d="M17.5949 22.125H4.40698V23.4583H17.5949V22.125Z" fill="#243036" fill-opacity="0.9"/>
<path d="M17.5949 18.1445H4.40698V19.4779H17.5949V18.1445Z" fill="#243036" fill-opacity="0.9"/>
<path d="M6.17879 10.1252H6.75947C7.16178 10.1252 7.47023 10.1039 7.68211 10.0625C7.83902 10.0292 7.9919 9.95853 8.14344 9.85453C8.29497 9.75053 8.41969 9.6052 8.51759 9.42253C8.61549 9.23986 8.66511 9.01186 8.66511 8.74386C8.66511 8.39453 8.58062 8.1092 8.4103 7.8892C8.23999 7.66786 8.0281 7.52653 7.77599 7.45986C7.61104 7.41586 7.25834 7.39453 6.71655 7.39453H5.28833V11.7785H6.17879V10.1252ZM6.17879 8.1372H6.60927C6.92978 8.1372 7.14301 8.14653 7.25029 8.1652C7.39379 8.19186 7.51314 8.25586 7.60835 8.35986C7.70357 8.46386 7.74916 8.59453 7.74916 8.75453C7.74916 8.88386 7.71564 8.99853 7.64859 9.09453C7.58153 9.1932 7.489 9.2652 7.36965 9.31053C7.25163 9.35586 7.01695 9.37986 6.66559 9.37986H6.17879V8.1372Z" fill="#243036" fill-opacity="0.9"/>
<path d="M11.8578 11.6852C12.1207 11.6012 12.3299 11.4852 12.4827 11.3345C12.6866 11.1372 12.8448 10.8785 12.9561 10.5599C13.046 10.2999 13.0916 9.98786 13.0916 9.62786C13.0916 9.21586 13.0433 8.87186 12.9481 8.59186C12.8515 8.31053 12.7107 8.0732 12.527 7.8812C12.3433 7.68786 12.122 7.5532 11.8632 7.4772C11.6701 7.4212 11.3911 7.39453 11.0237 7.39453H9.39697V11.7785H11.0733C11.3992 11.7772 11.662 11.7465 11.8578 11.6852ZM10.2848 11.0385V8.13453H10.6844C11.0478 8.13453 11.2905 8.14786 11.4153 8.17586C11.5816 8.21053 11.7197 8.27986 11.827 8.3812C11.9356 8.48253 12.0201 8.6252 12.0791 8.8052C12.1394 8.98786 12.1689 9.24653 12.1689 9.58653C12.1689 9.9252 12.1394 10.1932 12.0791 10.3892C12.0187 10.5852 11.941 10.7279 11.8457 10.8119C11.7505 10.8972 11.6312 10.9585 11.4863 10.9959C11.3764 11.0239 11.1967 11.0372 10.9486 11.0372H10.2848V11.0385Z" fill="#243036" fill-opacity="0.9"/>
<path d="M14.7425 9.91586H16.5838V9.1732H14.7425V8.1372H16.8748V7.39453H13.8521V11.7785H14.7425V9.91586Z" fill="#243036" fill-opacity="0.9"/>
</svg>
