<svg width="29" height="37" viewBox="0 0 29 37" version="1.1" xmlns="http://www.w3.org/2000/svg" xmlns:xlink="http://www.w3.org/1999/xlink">
<title>Group 2.1</title>
<desc>Created using Figma</desc>
<g id="Canvas" transform="translate(-3253 -38581)">
<g id="Group 2.1">
<g id="Group">
<g id="Group">
<g id="Vector">
<use xlink:href="#path0_fill" transform="translate(3253 38581)" fill="#0382CE"/>
</g>
<g id="Vector">
<use xlink:href="#path1_fill" transform="translate(3258.81 38610.2)" fill="#0382CE"/>
</g>
<g id="Vector">
<use xlink:href="#path2_fill" transform="translate(3258.81 38605)" fill="#0382CE"/>
</g>
<g id="Vector">
<use xlink:href="#path3_fill" transform="translate(3259.97 38590.8)" fill="#0382CE"/>
</g>
<g id="Vector">
<use xlink:href="#path4_fill" transform="translate(3265.39 38590.8)" fill="#0382CE"/>
</g>
<g id="Vector">
<use xlink:href="#path5_fill" transform="translate(3271.26 38590.8)" fill="#0382CE"/>
</g>
</g>
</g>
</g>
</g>
<defs>
<path id="path0_fill" d="M 2.31929 37L 26.6807 37C 27.957 37 29 35.9587 29 34.6884L 29 2.31162C 29 1.03952 27.9553 0 26.6807 0L 2.31929 0C 1.04297 0 -1.21382e-07 1.04129 -1.21382e-07 2.31162L -1.21382e-07 34.6866C -1.21382e-07 35.9587 1.04474 37 2.31929 37ZM 1.76775 2.31162C 1.76775 2.01386 2.02054 1.7619 2.31929 1.7619L 26.6807 1.7619C 26.9795 1.7619 27.2322 2.01386 27.2322 2.31162L 27.2322 34.6866C 27.2322 34.9844 26.9795 35.2363 26.6807 35.2363L 2.31929 35.2363C 2.02054 35.2363 1.76775 34.9844 1.76775 34.6866L 1.76775 2.31162Z"/>
<path id="path1_fill" d="M 17.3841 0L 0 0L 0 1.7619L 17.3841 1.7619L 17.3841 0Z"/>
<path id="path2_fill" d="M 17.3841 0L 0 0L 0 1.7619L 17.3841 1.7619L 17.3841 0Z"/>
<path id="path3_fill" d="M 1.17379 3.60838L 1.93923 3.60838C 2.46955 3.60838 2.87613 3.58019 3.15544 3.52557C 3.36227 3.48152 3.56379 3.38814 3.76355 3.25071C 3.9633 3.11329 4.1277 2.92124 4.25675 2.67986C 4.3858 2.43848 4.4512 2.13719 4.4512 1.78305C 4.4512 1.32143 4.33983 0.944381 4.11533 0.653667C 3.89083 0.361191 3.61152 0.174428 3.27918 0.0863328C 3.06175 0.02819 2.59683 -1.2098e-07 1.88266 -1.2098e-07L -4.04607e-07 -1.2098e-07L -4.04607e-07 5.79314L 1.17379 5.79314L 1.17379 3.60838ZM 1.17379 0.981381L 1.74124 0.981381C 2.16373 0.981381 2.4448 0.993714 2.58622 1.01838C 2.77537 1.05362 2.9327 1.13819 3.05821 1.27562C 3.18372 1.41305 3.24383 1.58571 3.24383 1.79714C 3.24383 1.96805 3.19963 2.11957 3.11125 2.24643C 3.02286 2.37681 2.90088 2.47195 2.74355 2.53186C 2.58799 2.59176 2.27863 2.62348 1.81548 2.62348L 1.17379 2.62348L 1.17379 0.981381Z"/>
<path id="path4_fill" d="M 3.24383 5.66981C 3.59031 5.55881 3.86608 5.40552 4.0676 5.20643C 4.3363 4.94567 4.5449 4.60386 4.69162 4.18276C 4.81006 3.83919 4.87016 3.4269 4.87016 2.95119C 4.87016 2.40676 4.80652 1.95219 4.68101 1.58219C 4.55373 1.21043 4.36812 0.89681 4.12594 0.643095C 3.88376 0.387619 3.59207 0.209666 3.2509 0.109237C 2.99634 0.0352375 2.62865 5.9146e-07 2.14429 5.9146e-07L -1.7533e-07 5.9146e-07L -1.7533e-07 5.79314L 2.20969 5.79314C 2.63926 5.79138 2.98574 5.75086 3.24383 5.66981ZM 1.17025 4.81529L 1.17025 0.977857L 1.69704 0.977857C 2.1761 0.977857 2.49607 0.995476 2.66047 1.03248C 2.87967 1.07829 3.06175 1.1699 3.20317 1.30381C 3.34636 1.43771 3.45773 1.62624 3.53551 1.8641C 3.61506 2.10548 3.65395 2.44729 3.65395 2.89657C 3.65395 3.3441 3.61506 3.69824 3.53551 3.95724C 3.45596 4.21624 3.35343 4.40476 3.22792 4.51576C 3.10241 4.62852 2.94508 4.70957 2.75416 4.7589C 2.6092 4.7959 2.37233 4.81352 2.04529 4.81352L 1.17025 4.81352L 1.17025 4.81529Z"/>
<path id="path5_fill" d="M 1.17379 3.33176L 3.60091 3.33176L 3.60091 2.35038L 1.17379 2.35038L 1.17379 0.981381L 3.98452 0.981381L 3.98452 -1.2098e-07L -9.71056e-07 -1.2098e-07L -9.71056e-07 5.79314L 1.17379 5.79314L 1.17379 3.33176Z"/>
</defs>
</svg>
