<svg width="20" height="20" viewBox="0 0 20 20" version="1.1" xmlns="http://www.w3.org/2000/svg" xmlns:xlink="http://www.w3.org/1999/xlink">
<title>Mask</title>
<desc>Created using Figma</desc>
<g id="Canvas" transform="translate(-3818 360)">
<g id="Mask">
<use xlink:href="#path0_fill" transform="translate(3818.26 -360)" fill="#FFFFFF"/>
</g>
</g>
<defs>
<path id="path0_fill" fill-rule="evenodd" d="M 7.4519 0.625L 7.57202 0L 11.8989 0L 12.0193 0.625L 12.4761 2.90866C 13.2092 3.19711 13.8701 3.60275 14.4712 4.08655L 16.7068 3.31732L 17.3076 3.125L 17.6201 3.67789L 19.1587 6.32211L 19.4712 6.875L 19.0144 7.28366L 17.2837 8.79807L 17.3184 9.00784C 17.373 9.33215 17.428 9.65897 17.428 10C 17.428 10.341 17.373 10.6678 17.3184 10.9922L 17.2837 11.2019L 19.0144 12.7163L 19.4712 13.125L 19.1587 13.6779L 17.6201 16.3221L 17.3076 16.875L 16.7068 16.6827L 14.4712 15.9135C 13.8701 16.3972 13.2092 16.8029 12.4761 17.0913L 12.0193 19.375L 11.8989 20L 7.57202 20L 7.4519 19.375L 6.99512 17.0913C 6.26196 16.8029 5.60107 16.3972 5 15.9135L 2.7644 16.6827L 2.16357 16.875L 1.85107 16.3221L 0.3125 13.6779L 0 13.125L 0.456787 12.7163L 2.1875 11.2019L 2.15283 10.9922C 2.09814 10.6678 2.04321 10.341 2.04321 10C 2.04321 9.65897 2.09814 9.33215 2.15283 9.00784L 2.1875 8.79807L 0.456787 7.28366L 0 6.875L 0.3125 6.32211L 1.85107 3.67789L 2.16357 3.125L 2.7644 3.31732L 5 4.08655C 5.60107 3.60275 6.26196 3.19711 6.99512 2.90866L 7.4519 0.625ZM 10.6489 1.53845L 8.82202 1.53845L 8.4375 3.53363L 8.34131 3.99039L 7.90845 4.13461C 7.03418 4.40805 6.24097 4.87079 5.5769 5.48077L 5.24023 5.79327L 4.80762 5.64902L 2.8606 4.97595L 1.94702 6.53845L 3.4856 7.90863L 3.84595 8.19711L 3.72583 8.65384C 3.62671 9.09253 3.58154 9.54025 3.58154 10C 3.58154 10.4597 3.62671 10.9074 3.72583 11.3461L 3.84595 11.8029L 3.4856 12.0913L 1.94702 13.4615L 2.8606 15.024L 4.80762 14.351L 5.24023 14.2067L 5.5769 14.5192C 6.24097 15.1292 7.03418 15.5919 7.90845 15.8654L 8.34131 16.0096L 8.4375 16.4663L 8.82202 18.4615L 10.6489 18.4615L 11.0334 16.4663L 11.1296 16.0096L 11.5625 15.8654C 12.4368 15.5919 13.23 15.1292 13.894 14.5192L 14.2307 14.2067L 14.6633 14.351L 16.6106 15.024L 17.5239 13.4615L 15.9856 12.0913L 15.6489 11.8029L 15.7451 11.3461C 15.8442 10.9074 15.8894 10.4597 15.8894 10C 15.8894 9.54025 15.8442 9.09253 15.7451 8.65384L 15.625 8.19711L 15.9856 7.90863L 17.5239 6.53845L 16.6106 4.97595L 14.6633 5.64902L 14.2307 5.79327L 13.894 5.48077C 13.23 4.87079 12.4368 4.40805 11.5625 4.13461L 11.1296 3.99039L 11.0334 3.53363L 10.6489 1.53845ZM 9.7356 13.8462C 11.8508 13.8462 13.5818 12.1154 13.5818 10C 13.5818 7.88461 11.8508 6.15384 9.7356 6.15384C 7.62012 6.15384 5.8894 7.88461 5.8894 10C 5.8894 12.1154 7.62012 13.8462 9.7356 13.8462ZM 12.0435 10C 12.0435 8.71695 11.0188 7.69232 9.7356 7.69232C 8.45264 7.69232 7.42798 8.71695 7.42798 10C 7.42798 11.2831 8.45264 12.3077 9.7356 12.3077C 11.0188 12.3077 12.0435 11.2831 12.0435 10Z"/>
</defs>
</svg>
