<svg width="15" height="19" viewBox="0 0 15 19" fill="none" xmlns="http://www.w3.org/2000/svg">
<path d="M7.53333 0.0259095V0H7.50556H7.47778V0.0259095L0 3.26749V10.1767C0 14.5612 5.93056 18.7586 7.41111 18.9975C7.43229 19.0008 7.45382 19.0008 7.475 18.9975H7.53056C7.55173 19.0008 7.57327 19.0008 7.59444 18.9975C9.07778 18.7586 15 14.5583 15 10.1767C15 8.49548 15 3.26749 15 3.26749L7.53333 0.0259095Z" fill="#88BD1F"/>
<path d="M2.5 4.89803L7.50393 2.56278L12.5 4.89783V4.90312V4.9102V4.91735V4.92457V4.93185V4.9392V4.94661V4.95409V4.96163V4.96924V4.97692V4.98465V4.99246V5.00032V5.00825V5.01625V5.0243V5.03242V5.0406V5.04885V5.05715V5.06552V5.07394V5.08243V5.09098V5.09959V5.10826V5.11698V5.12577V5.13461V5.14352V5.15248V5.1615V5.17058V5.17971V5.18891V5.19815V5.20746V5.21682V5.22624V5.23571V5.24524V5.25482V5.26446V5.27415V5.28389V5.29369V5.30354V5.31345V5.32341V5.33342V5.34348V5.35359V5.36376V5.37397V5.38424V5.39456V5.40492V5.41534V5.42581V5.43632V5.44689V5.4575V5.46817V5.47888V5.48963V5.50044V5.51129V5.52219V5.53314V5.54413V5.55517V5.56625V5.57738V5.58855V5.59977V5.61103V5.62234V5.63369V5.64508V5.65652V5.668V5.67952V5.69108V5.70269V5.71433V5.72602V5.73775V5.74952V5.76133V5.77318V5.78507V5.797V5.80897V5.82097V5.83302V5.8451V5.85722V5.86938V5.88158V5.89381V5.90608V5.91838V5.93073V5.9431V5.95552V5.96796V5.98044V5.99296V6.00551V6.0181V6.03071V6.04336V6.05605V6.06876V6.08151V6.09429V6.1071V6.11995V6.13282V6.14573V6.15866V6.17163V6.18462V6.19765V6.2107V6.22378V6.23689V6.25003V6.2632V6.27639V6.28962V6.30286V6.31614V6.32944V6.34277V6.35612V6.3695V6.38291V6.39633V6.40979V6.42327V6.43677V6.45029V6.46384V6.47741V6.491V6.50462V6.51826V6.53192V6.5456V6.5593V6.57302V6.58677V6.60053V6.61431V6.62812V6.64194V6.65578V6.66964V6.68352V6.69741V6.71133V6.72526V6.73921V6.75317V6.76715V6.78115V6.79516V6.80919V6.82323V6.83729V6.85137V6.86545V6.87955V6.89367V6.9078V6.92194V6.93609V6.95026V6.96444V6.97863V6.99283V7.00704V7.02127V7.0355V7.04975V7.064V7.07827V7.09254V7.10682V7.12111V7.13541V7.14972V7.16403V7.17836V7.19269V7.20702V7.22137V7.23572V7.25007V7.26443V7.2788V7.29317V7.30755V7.32193V7.33631V7.3507V7.36509V7.37949V7.39388V7.40828V7.42268V7.43709V7.45149V7.4659V7.48031V7.49472V7.50913V7.52353V7.53794V7.55235V7.56676V7.58116V7.59557V7.60997V7.62437V7.63877V7.65316V7.66755V7.68194V7.69633V7.71071V7.72508V7.73945V7.75382V7.76818V7.78254V7.79689V7.81123V7.82557V7.8399V7.85422V7.86854V7.88285V7.89715V7.91144V7.92572V7.94V7.95426V7.96852V7.98277V7.997V8.01123V8.02544V8.03964V8.05383V8.06801V8.08218V8.09634V8.11048V8.12461V8.13873V8.15283V8.16692V8.18099V8.19505V8.2091V8.22313V8.23714V8.25114V8.26512V8.27909V8.29304V8.30697V8.32089V8.33478V8.34866V8.36253V8.37637V8.39019V8.404V8.41778V8.43155V8.44529V8.45902V8.47272V8.48641V8.50007V8.51371V8.52733V8.54092V8.55449V8.56805V8.58157V8.59508V8.60856V8.62201V8.63544V8.64885V8.66223V8.67559V8.68892V8.70222V8.7155V8.72875V8.74198V8.75517V8.76834V8.78149V8.7946V8.80768V8.82074V8.83377V8.84677V8.85973V8.87267V8.88558V8.89846V8.9113V8.92412V8.9369V8.94965V8.96237V8.97506V8.98771V9.00034V9.01292V9.02548V9.038V9.05048V9.06293V9.07535V9.08773V9.10007V9.11238V9.12465V9.13689V9.14909V9.16125V9.17338V9.18546V9.19751V9.20952V9.2215V9.23343V9.24532V9.25718V9.26899V9.28076V9.2925V9.30419V9.31584V9.32745V9.33902V9.35054V9.36203V9.37347V9.38487V9.39622V9.40753V9.4188V9.43002V9.4412V9.45233V9.46342V9.47446V9.48546V9.49641V9.50731V9.51817V9.52898V9.53974V9.55046V9.56112V9.57174V9.58231V9.59283V9.6033V9.61373V9.6241V9.63442V9.64469V9.65491V9.66508V9.6752V9.68527V9.69529V9.70525V9.71516V9.72502V9.73482V9.74457V9.75427V9.76391V9.7735V9.78303V9.79251V9.80193V9.8113V9.82061V9.82986V9.83906V9.8482V9.85728V9.86631V9.87528V9.88419V9.89304V9.90183V9.91056V9.91924V9.92785V9.93641V9.9449V9.95333V9.9617V9.97002V9.97826V9.98645V9.99458V10.0026V10.0106V10.0186V10.0264V10.0343C12.5 11.5691 11.5236 13.1428 10.3302 14.3981C9.74259 15.0161 9.12322 15.5345 8.5903 15.907C8.32378 16.0932 8.0839 16.2395 7.88488 16.3426C7.70875 16.4339 7.58661 16.4798 7.51679 16.498H7.48738C7.41766 16.4797 7.29561 16.4339 7.11953 16.3427C6.92048 16.2395 6.68049 16.0934 6.41381 15.9072C5.88057 15.5349 5.26062 15.0166 4.6724 14.3987C3.47768 13.1437 2.5 11.57 2.5 10.0343V4.89803Z" fill="#88BD1F" stroke="white"/>
</svg>
