<svg width="15" height="19" viewBox="0 0 15 19" fill="none" xmlns="http://www.w3.org/2000/svg">
<path d="M7.53333 0.0259095V0H7.50556H7.47778V0.0259095L0 3.26749V10.1767C0 14.5612 5.93056 18.7586 7.41111 18.9975C7.43229 19.0008 7.45382 19.0008 7.475 18.9975H7.53056C7.55173 19.0008 7.57327 19.0008 7.59444 18.9975C9.07778 18.7586 15 14.5583 15 10.1767C15 8.49548 15 3.26749 15 3.26749L7.53333 0.0259095ZM13.3333 10.1767C13.3333 11.5298 12.4361 13.1678 10.8083 14.7829C9.841 15.7785 8.72357 16.604 7.5 17.227V1.89428L13.3333 4.41903V10.1767Z" fill="#88BD1F"/>
</svg>
