<svg width="32" height="41" viewBox="0 0 32 41" fill="none" xmlns="http://www.w3.org/2000/svg">
<path d="M16.0711 0.05591V0H16.0119H15.9526V0.05591L0 7.0509V21.9603C0 31.4216 12.6519 40.479 15.8104 40.9946C15.8555 41.0018 15.9015 41.0018 15.9467 40.9946H16.0652C16.1104 41.0018 16.1563 41.0018 16.2015 40.9946C19.3659 40.479 32 31.4153 32 21.9603C32 18.3323 32 7.0509 32 7.0509L16.0711 0.05591ZM28.4444 21.9603C28.4444 24.8801 26.5304 28.4148 23.0578 31.8999C20.9941 34.0482 18.6103 35.8297 16 37.1741V4.08766L28.4444 9.5358V21.9603Z" fill="white"/>
</svg>
