<svg width="22" height="28" viewBox="0 0 22 28" fill="none" xmlns="http://www.w3.org/2000/svg">
<path d="M1.75946 28H20.2405C21.2088 28 22 27.212 22 26.2507V1.74933C22 0.786666 21.2074 0 20.2405 0H1.75946C0.791222 0 -9.20829e-08 0.788 -9.20829e-08 1.74933V26.2493C-9.20829e-08 27.212 0.792563 28 1.75946 28ZM1.34105 1.74933C1.34105 1.524 1.53283 1.33333 1.75946 1.33333H20.2405C20.4672 1.33333 20.6589 1.524 20.6589 1.74933V26.2493C20.6589 26.4747 20.4672 26.6653 20.2405 26.6653H1.75946C1.53283 26.6653 1.34105 26.4747 1.34105 26.2493V1.74933Z" fill="#88BD1F"/>
<path d="M11.0311 5.02455V5H11.0052H10.9793V5.02455L4 8.09552V14.6411C4 18.7948 9.53518 22.7713 10.917 22.9976C10.9368 23.0008 10.9569 23.0008 10.9767 22.9976H11.0285C11.0483 23.0008 11.0684 23.0008 11.0881 22.9976C12.4726 22.7713 18 18.7921 18 14.6411C18 13.0483 18 8.09552 18 8.09552L11.0311 5.02455Z" fill="#88BD1F"/>
<path d="M6.5 9.72249L11.0036 7.56472L15.5 9.72229V9.72286V9.7296V9.73639V9.74325V9.75017V9.75715V9.76419V9.77129V9.77846V9.78568V9.79296V9.8003V9.8077V9.81516V9.82268V9.83026V9.8379V9.84559V9.85334V9.86115V9.86901V9.87694V9.88491V9.89295V9.90104V9.90918V9.91738V9.92564V9.93395V9.94232V9.95073V9.95921V9.96773V9.97631V9.98494V9.99363V10.0024V10.0112V10.02V10.0289V10.0378V10.0468V10.0559V10.065V10.0741V10.0833V10.0926V10.1018V10.1112V10.1206V10.13V10.1395V10.149V10.1586V10.1683V10.1779V10.1877V10.1974V10.2072V10.2171V10.227V10.237V10.247V10.257V10.2671V10.2772V10.2874V10.2976V10.3079V10.3182V10.3285V10.3389V10.3493V10.3598V10.3703V10.3808V10.3914V10.4021V10.4127V10.4235V10.4342V10.445V10.4558V10.4667V10.4776V10.4886V10.4996V10.5106V10.5216V10.5327V10.5439V10.555V10.5662V10.5775V10.5888V10.6001V10.6114V10.6228V10.6342V10.6457V10.6572V10.6687V10.6802V10.6918V10.7034V10.7151V10.7268V10.7385V10.7502V10.762V10.7738V10.7856V10.7975V10.8094V10.8213V10.8333V10.8453V10.8573V10.8693V10.8814V10.8935V10.9056V10.9178V10.93V10.9422V10.9544V10.9667V10.979V10.9913V11.0036V11.016V11.0284V11.0408V11.0533V11.0657V11.0782V11.0907V11.1032V11.1158V11.1284V11.141V11.1536V11.1663V11.1789V11.1916V11.2043V11.217V11.2298V11.2426V11.2553V11.2682V11.281V11.2938V11.3067V11.3196V11.3325V11.3454V11.3583V11.3713V11.3843V11.3972V11.4102V11.4233V11.4363V11.4493V11.4624V11.4755V11.4886V11.5017V11.5148V11.5279V11.5411V11.5543V11.5674V11.5806V11.5938V11.607V11.6202V11.6335V11.6467V11.66V11.6732V11.6865V11.6998V11.7131V11.7264V11.7397V11.753V11.7664V11.7797V11.7931V11.8064V11.8198V11.8331V11.8465V11.8599V11.8733V11.8867V11.9001V11.9135V11.9269V11.9403V11.9537V11.9671V11.9806V11.994V12.0074V12.0209V12.0343V12.0477V12.0612V12.0746V12.0881V12.1015V12.115V12.1284V12.1418V12.1553V12.1687V12.1822V12.1956V12.2091V12.2225V12.236V12.2494V12.2628V12.2763V12.2897V12.3031V12.3166V12.33V12.3434V12.3568V12.3702V12.3836V12.397V12.4104V12.4238V12.4372V12.4506V12.4639V12.4773V12.4907V12.504V12.5173V12.5307V12.544V12.5573V12.5706V12.5839V12.5972V12.6105V12.6237V12.637V12.6502V12.6635V12.6767V12.6899V12.7031V12.7163V12.7295V12.7426V12.7558V12.7689V12.782V12.7952V12.8083V12.8213V12.8344V12.8474V12.8605V12.8735V12.8865V12.8995V12.9125V12.9254V12.9384V12.9513V12.9642V12.9771V12.9899V13.0028V13.0156V13.0284V13.0412V13.054V13.0667V13.0795V13.0922V13.1049V13.1175V13.1302V13.1428V13.1554V13.168V13.1805V13.1931V13.2056V13.2181V13.2305V13.243V13.2554V13.2678V13.2802V13.2925V13.3048V13.3171V13.3294V13.3416V13.3538V13.366V13.3782V13.3903V13.4024V13.4145V13.4265V13.4386V13.4506V13.4625V13.4744V13.4863V13.4982V13.5101V13.5219V13.5336V13.5454V13.5571V13.5688V13.5804V13.5921V13.6037V13.6152V13.6267V13.6382V13.6497V13.6611V13.6725V13.6838V13.6952V13.7064V13.7177V13.7289V13.7401V13.7512V13.7623V13.7734V13.7844V13.7954V13.8063V13.8172V13.8281V13.839V13.8498V13.8605V13.8712V13.8819V13.8925V13.9031V13.9137V13.9242V13.9347V13.9451V13.9555V13.9659V13.9762V13.9864V13.9966V14.0068V14.017V14.027V14.0371V14.0471V14.057V14.067V14.0768V14.0866V14.0964V14.1061V14.1158V14.1255V14.135V14.1446V14.1541V14.1635V14.1729V14.1823V14.1916V14.2008V14.21V14.2192V14.2283V14.2373V14.2463V14.2553V14.2642V14.273V14.2818V14.2905V14.2992V14.3079V14.3165V14.325V14.3335V14.3419V14.3503V14.3586V14.3668V14.375V14.3832V14.3913V14.3993V14.4073V14.4152V14.4231V14.4309V14.4387V14.4464V14.454V14.4616V14.4691V14.4766V14.484V14.4914V14.4986C15.5 15.923 14.6171 17.3853 13.5355 18.5534C13.003 19.1283 12.4421 19.6103 11.9601 19.9561C11.719 20.1291 11.5027 20.2643 11.3242 20.3593C11.1706 20.441 11.0659 20.4816 11.0076 20.4982H10.9962C10.938 20.4816 10.8333 20.441 10.6798 20.3594C10.5012 20.2644 10.2849 20.1292 10.0436 19.9563C9.56135 19.6106 8.99986 19.1287 8.46687 18.5539C7.38403 17.3861 6.5 15.9238 6.5 14.4986V9.72249Z" fill="#88BD1F" stroke="white"/>
</svg>
