<svg width="14" height="14" viewBox="0 0 14 14" fill="none" xmlns="http://www.w3.org/2000/svg">
<path d="M10.3928 2.39714C9.73698 2.39714 9.20725 2.92686 9.20725 3.58272C9.20725 4.23858 9.73698 4.76831 10.3928 4.76831C11.0487 4.76831 11.5784 4.23858 11.5784 3.58272C11.5784 2.92686 11.0487 2.39714 10.3928 2.39714ZM10.3928 3.83497C10.2415 3.83497 10.1406 3.70885 10.1406 3.58272C10.1406 3.45659 10.2667 3.33047 10.3928 3.33047C10.5442 3.33047 10.6451 3.45659 10.6451 3.58272C10.6451 3.70885 10.519 3.83497 10.3928 3.83497Z" fill="#0382CE"/>
<path d="M9.38378 0C6.83604 0 4.76757 2.06847 4.76757 4.61622C4.76757 5.01982 4.81802 5.3982 4.91892 5.8018L0 10.6955V14H3.58198V11.982H5.6V9.96396H7.34054L8.22342 9.08108C8.6018 9.18198 9.00541 9.23243 9.38378 9.23243C11.9315 9.23243 14 7.16396 14 4.61622C14 2.06847 11.9315 0 9.38378 0ZM9.38378 8.2991C8.98018 8.2991 8.6018 8.22342 8.22342 8.12252L7.94595 8.02162L6.93694 9.03063H4.64144V11.0486H2.62342V13.0667H0.933333V11.0991L5.97838 6.05405L5.87748 5.77658C5.75135 5.3982 5.7009 5.01982 5.7009 4.61622C5.7009 2.57297 7.36577 0.933333 9.38378 0.933333C11.427 0.933333 13.0667 2.5982 13.0667 4.61622C13.0667 6.63423 11.427 8.2991 9.38378 8.2991Z" fill="#0382CE"/>
</svg>
