<svg width="29" height="37" viewBox="0 0 29 37" version="1.1" xmlns="http://www.w3.org/2000/svg" xmlns:xlink="http://www.w3.org/1999/xlink">
<title>Vector</title>
<desc>Created using Figma</desc>
<g id="Canvas" transform="translate(-6206 -38640)">
<g id="Vector">
<use xlink:href="#path0_fill" transform="translate(6206 38640)" fill="#0382CE"/>
<use xlink:href="#path1_fill" transform="translate(6206 38640)" fill="#0382CE"/>
<use xlink:href="#path2_fill" transform="translate(6206 38640)" fill="#0382CE"/>
</g>
</g>
<defs>
<path id="path0_fill" d="M 19.3622 12.082C 18.519 12.082 17.8379 12.7631 17.8379 13.6064C 17.8379 14.4496 18.519 15.1307 19.3622 15.1307C 20.2055 15.1307 20.8865 14.4496 20.8865 13.6064C 20.8865 12.7631 20.2055 12.082 19.3622 12.082ZM 19.3622 13.9307C 19.1676 13.9307 19.0379 13.7685 19.0379 13.6064C 19.0379 13.4442 19.2001 13.282 19.3622 13.282C 19.5568 13.282 19.6865 13.4442 19.6865 13.6064C 19.6865 13.7685 19.5244 13.9307 19.3622 13.9307Z"/>
<path id="path1_fill" d="M 18.0649 9C 14.7892 9 12.1297 11.6595 12.1297 14.9351C 12.1297 15.4541 12.1946 15.9405 12.3243 16.4595L 6 22.7514L 6 27L 10.6054 27L 10.6054 24.4054L 13.2 24.4054L 13.2 21.8108L 15.4378 21.8108L 16.573 20.6757C 17.0595 20.8054 17.5784 20.8703 18.0649 20.8703C 21.3405 20.8703 24 18.2108 24 14.9351C 24 11.6595 21.3405 9 18.0649 9ZM 18.0649 19.6703C 17.5459 19.6703 17.0595 19.573 16.573 19.4432L 16.2162 19.3135L 14.9189 20.6108L 11.9676 20.6108L 11.9676 23.2054L 9.37297 23.2054L 9.37297 25.8L 7.2 25.8L 7.2 23.2703L 13.6865 16.7838L 13.5568 16.427C 13.3946 15.9405 13.3297 15.4541 13.3297 14.9351C 13.3297 12.3081 15.4703 10.2 18.0649 10.2C 20.6919 10.2 22.8 12.3405 22.8 14.9351C 22.8 17.5297 20.6919 19.6703 18.0649 19.6703Z"/>
<path id="path2_fill" d="M 2.31929 37L 26.6807 37C 27.957 37 29 35.9587 29 34.6884L 29 2.31162C 29 1.03952 27.9553 0 26.6807 0L 2.31929 0C 1.04297 0 0 1.04129 0 2.31162L 0 34.6866C 0 35.9587 1.04474 37 2.31929 37ZM 1.76775 2.31162C 1.76775 2.01386 2.02054 1.7619 2.31929 1.7619L 26.6807 1.7619C 26.9795 1.7619 27.2322 2.01386 27.2322 2.31162L 27.2322 34.6866C 27.2322 34.9844 26.9795 35.2363 26.6807 35.2363L 2.31929 35.2363C 2.02054 35.2363 1.76775 34.9844 1.76775 34.6866L 1.76775 2.31162Z"/>
</defs>
</svg>
