<svg width="58" height="60" viewBox="0 0 58 60" version="1.1" xmlns="http://www.w3.org/2000/svg" xmlns:xlink="http://www.w3.org/1999/xlink">
<title>Star</title>
<desc>Created using Figma</desc>
<g id="Canvas" transform="translate(-14525 -34582)">
<g id="Star">
<mask id="mask0_outline_ins">
<use xlink:href="#path0_fill" fill="white" transform="translate(14525 34582)"/>
</mask>
<use xlink:href="#path3_fill" transform="translate(14546 34603)" fill="#828282" fill-opacity="0.8"/>
<g mask="url(#mask0_outline_ins)">
<use xlink:href="#path1_stroke_2x" transform="translate(14525 34582)" fill="#828282" fill-opacity="0.8"/>
</g>
</g>
</g>
<defs>
	<path id="path3_fill" fill-rule="evenodd" d="M 6.36364 11.8657L 1.59091 7.16418L 0 8.73134L 6.36364 15L 20 1.56716L 18.4091 0L 6.36364 11.8657Z"/>
<path id="path0_fill" d="M 29 0L 34.5878 12.5801L 46.923 5.72949L 46.3772 16.7428L 58 20.7295L 49.2645 30L 58 39.2705L 46.3772 43.2572L 46.923 54.2705L 34.5878 47.4199L 29 60L 23.4122 47.4199L 11.077 54.2705L 11.6228 43.2572L 0 39.2705L 8.73552 30L 0 20.7295L 12.9485 18.0472L 11.077 5.72949L 23.4122 12.5801L 29 0Z"/>
<path id="path1_stroke_2x" d="M 29 0L 30.8278 -0.811866L 29 -4.92692L 27.1722 -0.811866L 29 0ZM 34.5878 12.5801L 32.76 13.392L 33.6475 15.3901L 35.5588 14.3286L 34.5878 12.5801ZM 46.923 5.72949L 48.9205 5.82848L 49.0987 2.23342L 45.952 3.98104L 46.923 5.72949ZM 46.3772 16.7428L 44.3797 16.6439L 44.3052 18.1465L 45.7283 18.6346L 46.3772 16.7428ZM 58 20.7295L 59.4556 22.1011L 61.5825 19.8439L 58.6489 18.8377L 58 20.7295ZM 49.2645 30L 47.8089 28.6284L 46.5165 30L 47.8089 31.3716L 49.2645 30ZM 58 39.2705L 58.6489 41.1623L 61.5825 40.1561L 59.4556 37.8989L 58 39.2705ZM 46.3772 43.2572L 45.7283 41.3654L 44.3052 41.8535L 44.3797 43.3562L 46.3772 43.2572ZM 46.923 54.2705L 45.952 56.019L 49.0987 57.7666L 48.9205 54.1715L 46.923 54.2705ZM 34.5878 47.4199L 35.5588 45.6714L 33.6475 44.6099L 32.76 46.608L 34.5878 47.4199ZM 29 60L 27.1722 60.8119L 29 64.9269L 30.8278 60.8119L 29 60ZM 23.4122 47.4199L 25.24 46.608L 24.3525 44.6099L 22.4412 45.6714L 23.4122 47.4199ZM 11.077 54.2705L 9.07947 54.1715L 8.90131 57.7666L 12.0481 56.019L 11.077 54.2705ZM 11.6228 43.2572L 13.6203 43.3562L 13.6948 41.8535L 12.2717 41.3654L 11.6228 43.2572ZM 0 39.2705L -1.45559 37.8989L -3.5825 40.1561L -0.648895 41.1623L 0 39.2705ZM 8.73552 30L 10.1911 31.3716L 11.4835 30L 10.1911 28.6284L 8.73552 30ZM 0 20.7295L -0.405689 18.7711L -3.9095 19.4969L -1.45559 22.1011L 0 20.7295ZM 12.9485 18.0472L 13.3542 20.0056L 15.2106 19.6211L 14.9259 17.7468L 12.9485 18.0472ZM 11.077 5.72949L 12.0481 3.98104L 8.488 2.00388L 9.09971 6.02992L 11.077 5.72949ZM 23.4122 12.5801L 22.4412 14.3286L 24.3525 15.3901L 25.24 13.392L 23.4122 12.5801ZM 27.1722 0.811866L 32.76 13.392L 36.4156 11.7683L 30.8278 -0.811866L 27.1722 0.811866ZM 35.5588 14.3286L 47.894 7.47794L 45.952 3.98104L 33.6167 10.8317L 35.5588 14.3286ZM 44.9254 5.6305L 44.3797 16.6439L 48.3748 16.8418L 48.9205 5.82848L 44.9254 5.6305ZM 45.7283 18.6346L 57.3511 22.6213L 58.6489 18.8377L 47.0261 14.851L 45.7283 18.6346ZM 56.5444 19.3579L 47.8089 28.6284L 50.7201 31.3716L 59.4556 22.1011L 56.5444 19.3579ZM 47.8089 31.3716L 56.5444 40.6421L 59.4556 37.8989L 50.7201 28.6284L 47.8089 31.3716ZM 57.3511 37.3787L 45.7283 41.3654L 47.0261 45.149L 58.6489 41.1623L 57.3511 37.3787ZM 44.3797 43.3562L 44.9254 54.3695L 48.9205 54.1715L 48.3748 43.1582L 44.3797 43.3562ZM 47.894 52.5221L 35.5588 45.6714L 33.6167 49.1683L 45.952 56.019L 47.894 52.5221ZM 32.76 46.608L 27.1722 59.1881L 30.8278 60.8119L 36.4156 48.2317L 32.76 46.608ZM 30.8278 59.1881L 25.24 46.608L 21.5844 48.2317L 27.1722 60.8119L 30.8278 59.1881ZM 22.4412 45.6714L 10.106 52.5221L 12.0481 56.019L 24.3833 49.1683L 22.4412 45.6714ZM 13.0746 54.3695L 13.6203 43.3562L 9.62524 43.1582L 9.07947 54.1715L 13.0746 54.3695ZM 12.2717 41.3654L 0.648895 37.3787L -0.648895 41.1623L 10.9739 45.149L 12.2717 41.3654ZM 1.45559 40.6421L 10.1911 31.3716L 7.27993 28.6284L -1.45559 37.8989L 1.45559 40.6421ZM 10.1911 28.6284L 1.45559 19.3579L -1.45559 22.1011L 7.27993 31.3716L 10.1911 28.6284ZM 0.405689 22.6879L 13.3542 20.0056L 12.5429 16.0888L -0.405689 18.7711L 0.405689 22.6879ZM 14.9259 17.7468L 13.0543 5.42906L 9.09971 6.02992L 10.9712 18.3476L 14.9259 17.7468ZM 10.106 7.47794L 22.4412 14.3286L 24.3833 10.8317L 12.0481 3.98104L 10.106 7.47794ZM 25.24 13.392L 30.8278 0.811866L 27.1722 -0.811866L 21.5844 11.7683L 25.24 13.392Z"/>
</defs>
</svg>
