<svg width="19" height="16" viewBox="0 0 19 16" version="1.1" xmlns="http://www.w3.org/2000/svg" xmlns:xlink="http://www.w3.org/1999/xlink">
<title>Vector</title>
<desc>Created using Figma</desc>
<g id="Canvas" transform="translate(-2915 -10778)">
<g id="Vector" opacity="0.8">
<use xlink:href="#path0_fill" transform="translate(2915 10778)" fill="#FFFFFF"/>
</g>
</g>
<defs>
<path id="path0_fill" d="M 18.8556 0.084295C 18.7744 0.00272246 18.6661 -0.015405 18.5578 0.0117858L 0.201997 5.98471C 0.0937031 6.02096 0.0215072 6.1116 0.00345821 6.22036C -0.0145908 6.32912 0.0395563 6.43789 0.129801 6.50133L 4.45253 9.4742L 5.364 15.3565C 5.364 15.3655 5.364 15.3746 5.37303 15.3746L 5.37303 15.3837C 5.37303 15.3927 5.38205 15.4018 5.38205 15.4018C 5.38205 15.4018 5.38205 15.4109 5.39108 15.4109C 5.39108 15.4199 5.4001 15.4199 5.4001 15.429C 5.4001 15.429 5.4001 15.4381 5.40913 15.4381C 5.40913 15.4471 5.41815 15.4471 5.41815 15.4562L 5.42717 15.4652C 5.42717 15.4743 5.4362 15.4743 5.4362 15.4834C 5.4362 15.4834 5.4362 15.4924 5.44522 15.4924C 5.45425 15.5015 5.45425 15.5106 5.46327 15.5106C 5.46327 15.5106 5.46327 15.5106 5.4723 15.5196C 5.48132 15.5287 5.48132 15.5287 5.49035 15.5378C 5.49035 15.5378 5.49035 15.5378 5.49937 15.5378C 5.50839 15.5468 5.50839 15.5468 5.51742 15.5468L 5.52644 15.5559C 5.53547 15.5559 5.53547 15.5649 5.54449 15.5649C 5.54449 15.5649 5.55352 15.5649 5.55352 15.574C 5.56254 15.5831 5.56254 15.5831 5.57157 15.5831C 5.58059 15.5831 5.58059 15.5921 5.58059 15.5921C 5.58961 15.5921 5.58961 15.6012 5.59864 15.6012C 5.60766 15.6012 5.60766 15.6012 5.60766 15.6103C 5.61669 15.6103 5.61669 15.6103 5.61669 15.6193C 5.62571 15.6193 5.62571 15.6193 5.62571 15.6193C 5.62571 15.6193 5.63474 15.6193 5.64376 15.6193C 5.65279 15.6193 5.65279 15.6193 5.65279 15.6193L 5.66181 15.6193L 5.67084 15.6193C 5.67986 15.6193 5.67986 15.6193 5.67986 15.6193C 5.68888 15.6193 5.68888 15.6193 5.69791 15.6193L 5.70693 15.6193C 5.70693 15.6193 5.70693 15.6193 5.71596 15.6193C 5.72498 15.6193 5.73401 15.6193 5.73401 15.6193L 5.74303 15.6193C 5.75206 15.6193 5.76108 15.6193 5.7701 15.6103L 5.77913 15.6103C 5.78815 15.6103 5.78815 15.6103 5.79718 15.6012C 5.8062 15.6012 5.8062 15.6012 5.8062 15.6012C 5.81523 15.6012 5.81523 15.6012 5.82425 15.5921C 5.83328 15.5921 5.83328 15.5921 5.83328 15.5831C 5.8423 15.5831 5.8423 15.574 5.85133 15.574C 5.86035 15.574 5.86035 15.5649 5.86035 15.5649C 5.86937 15.5649 5.86937 15.5559 5.8784 15.5559L 5.88742 15.5468C 5.89645 15.5378 5.89645 15.5378 5.90547 15.5378L 5.9145 15.5287C 5.92352 15.5196 5.93255 15.5106 5.93255 15.5106L 9.64443 13.0535L 13.9102 15.9456C 13.9553 15.9819 14.0185 16 14.0726 16C 14.1087 16 14.1358 15.9909 14.1719 15.9819C 14.2621 15.9547 14.3253 15.8822 14.3524 15.7915L 19 0.37433C 18.9639 0.274631 18.9278 0.165867 18.8556 0.084295ZM 15.9773 1.68421L 4.45253 8.42105L 1.72727 6.50133L 15.9773 1.68421ZM 7.26817 11.0059C 7.25914 11.015 7.25915 11.015 7.25012 11.0241C 7.2411 11.0331 7.2411 11.0331 7.2411 11.0422L 7.05352 10.9482C 7.0445 10.9573 7.22305 11.0603 7.22305 11.0694L 7.21402 11.0785C 7.205 11.0875 7.205 11.0966 7.205 11.0966C 7.205 11.0966 7.205 11.0966 7.205 11.1056L 7.205 11.1147L 5.77913 14.3051L 5.75807 9.26398L 14.8262 3.36924L 7.26817 11.0059ZM 7.05352 13.4745L 7.60207 11.6676L 8.20671 12.0845L 7.05352 13.4745ZM 13.3864 14.3051L 8.76623 11.1147L 17.4172 2.10609L 13.3864 14.3051Z"/>
</defs>
</svg>
