<?xml version="1.0" encoding="UTF-8"?> <svg xmlns="http://www.w3.org/2000/svg" width="340" height="110" viewBox="0 0 340 110" fill="none"> <rect x="0.374899" y="0.374899" width="339.25" height="109.25" rx="14.621" fill="black" fill-opacity="0.14"></rect> <rect x="0.374899" y="0.374899" width="339.25" height="109.25" rx="14.621" stroke="white" stroke-width="0.749797"></rect> <path d="M26.359 28.09C25.3191 28.09 24.3793 27.86 23.5394 27.4001C22.7096 26.9402 22.0547 26.3053 21.5747 25.4954C21.1048 24.6755 20.8699 23.7607 20.8699 22.7509C20.8699 21.741 21.1048 20.8312 21.5747 20.0213C22.0547 19.2014 22.7146 18.5615 23.5544 18.1016C24.3943 17.6417 25.3341 17.4117 26.374 17.4117C27.1538 17.4117 27.8737 17.5417 28.5336 17.8017C29.1935 18.0616 29.7534 18.4415 30.2133 18.9415L29.5085 19.6464C28.6886 18.8165 27.6538 18.4016 26.404 18.4016C25.5741 18.4016 24.8192 18.5915 24.1393 18.9715C23.4594 19.3514 22.9245 19.8713 22.5346 20.5312C22.1547 21.1911 21.9647 21.931 21.9647 22.7509C21.9647 23.5707 22.1547 24.3106 22.5346 24.9705C22.9245 25.6304 23.4594 26.1503 24.1393 26.5302C24.8192 26.9102 25.5741 27.1001 26.404 27.1001C27.6638 27.1001 28.6986 26.6802 29.5085 25.8403L30.2133 26.5452C29.7534 27.0452 29.1885 27.4301 28.5186 27.7C27.8587 27.96 27.1388 28.09 26.359 28.09ZM38.9542 20.1113L35.0099 28.9448C34.6899 29.6847 34.32 30.2096 33.9001 30.5196C33.4801 30.8295 32.9752 30.9845 32.3853 30.9845C32.0054 30.9845 31.6504 30.9245 31.3205 30.8045C30.9905 30.6846 30.7056 30.5046 30.4656 30.2646L30.9605 29.4698C31.3605 29.8697 31.8404 30.0697 32.4003 30.0697C32.7602 30.0697 33.0652 29.9697 33.3151 29.7697C33.5751 29.5697 33.8151 29.2298 34.035 28.7499L34.38 27.985L30.8555 20.1113H31.9654L34.9349 26.8152L37.9044 20.1113H38.9542ZM49.4318 20.1113V28H48.457V21.761L45.2625 27.0402H44.7825L41.5881 21.746V28H40.6132V20.1113H41.693L45.0375 25.7954L48.442 20.1113H49.4318ZM61.2805 20.1113V28H60.3056V21.761L57.1111 27.0402H56.6312L53.4367 21.746V28H52.4619V20.1113H53.5417L56.8862 25.7954L60.2906 20.1113H61.2805ZM67.0251 20.0513C68.0549 20.0513 68.8448 20.3112 69.3947 20.8312C69.9446 21.3411 70.2196 22.101 70.2196 23.1108V28H69.1998V26.7702C68.9598 27.1801 68.6049 27.5001 68.1349 27.73C67.675 27.96 67.1251 28.075 66.4852 28.075C65.6053 28.075 64.9055 27.865 64.3855 27.4451C63.8656 27.0252 63.6057 26.4702 63.6057 25.7804C63.6057 25.1105 63.8456 24.5706 64.3256 24.1606C64.8155 23.7507 65.5903 23.5457 66.6502 23.5457H69.1548V23.0658C69.1548 22.3859 68.9648 21.871 68.5849 21.521C68.2049 21.1611 67.65 20.9811 66.9201 20.9811C66.4202 20.9811 65.9403 21.0661 65.4804 21.2361C65.0204 21.3961 64.6255 21.621 64.2956 21.911L63.8156 21.1161C64.2156 20.7762 64.6955 20.5162 65.2554 20.3362C65.8153 20.1463 66.4052 20.0513 67.0251 20.0513ZM66.6502 27.2351C67.2501 27.2351 67.765 27.1001 68.1949 26.8302C68.6249 26.5502 68.9448 26.1503 69.1548 25.6304V24.3406H66.6802C65.3304 24.3406 64.6555 24.8105 64.6555 25.7504C64.6555 26.2103 64.8305 26.5752 65.1804 26.8452C65.5304 27.1051 66.0203 27.2351 66.6502 27.2351ZM80.8188 23.8907C81.3787 24.0206 81.8086 24.2456 82.1086 24.5656C82.4185 24.8855 82.5735 25.2754 82.5735 25.7354C82.5735 26.1953 82.4135 26.6052 82.0936 26.9652C81.7836 27.3251 81.3587 27.6051 80.8188 27.805C80.2789 27.995 79.684 28.09 79.0341 28.09C78.4642 28.09 77.9042 28.01 77.3543 27.85C76.8044 27.6801 76.3245 27.4351 75.9146 27.1151L76.2745 26.3203C76.6345 26.5902 77.0544 26.8002 77.5343 26.9502C78.0142 27.1001 78.4991 27.1751 78.9891 27.1751C79.719 27.1751 80.3139 27.0402 80.7738 26.7702C81.2437 26.4902 81.4787 26.1153 81.4787 25.6454C81.4787 25.2254 81.2887 24.9005 80.9088 24.6705C80.5288 24.4306 80.0089 24.3106 79.349 24.3106H77.9992V23.5307H79.289C79.8789 23.5307 80.3538 23.4207 80.7138 23.2008C81.0737 22.9708 81.2537 22.6659 81.2537 22.2859C81.2537 21.866 81.0487 21.536 80.6388 21.2961C80.2389 21.0561 79.714 20.9361 79.0641 20.9361C78.2142 20.9361 77.3743 21.1511 76.5445 21.581L76.2445 20.7562C77.1844 20.2663 78.1592 20.0213 79.169 20.0213C79.7689 20.0213 80.3089 20.1113 80.7888 20.2912C81.2787 20.4612 81.6586 20.7062 81.9286 21.0261C82.2085 21.3461 82.3485 21.716 82.3485 22.136C82.3485 22.5359 82.2085 22.8908 81.9286 23.2008C81.6586 23.5107 81.2887 23.7407 80.8188 23.8907ZM87.7054 20.0513C88.7352 20.0513 89.5251 20.3112 90.075 20.8312C90.6249 21.3411 90.8998 22.101 90.8998 23.1108V28H89.88V26.7702C89.64 27.1801 89.2851 27.5001 88.8152 27.73C88.3552 27.96 87.8053 28.075 87.1654 28.075C86.2856 28.075 85.5857 27.865 85.0658 27.4451C84.5459 27.0252 84.2859 26.4702 84.2859 25.7804C84.2859 25.1105 84.5259 24.5706 85.0058 24.1606C85.4957 23.7507 86.2706 23.5457 87.3304 23.5457H89.835V23.0658C89.835 22.3859 89.645 21.871 89.2651 21.521C88.8852 21.1611 88.3303 20.9811 87.6004 20.9811C87.1005 20.9811 86.6205 21.0661 86.1606 21.2361C85.7007 21.3961 85.3057 21.621 84.9758 21.911L84.4959 21.1161C84.8958 20.7762 85.3757 20.5162 85.9356 20.3362C86.4956 20.1463 87.0855 20.0513 87.7054 20.0513ZM87.3304 27.2351C87.9303 27.2351 88.4452 27.1001 88.8752 26.8302C89.3051 26.5502 89.625 26.1503 89.835 25.6304V24.3406H87.3604C86.0106 24.3406 85.3357 24.8105 85.3357 25.7504C85.3357 26.2103 85.5107 26.5752 85.8607 26.8452C86.2106 27.1051 86.7005 27.2351 87.3304 27.2351ZM93.7345 20.1113H94.7993V26.3803L100.063 20.1113H101.008V28H99.9435V21.731L94.6943 28H93.7345V20.1113ZM97.3189 18.9715C96.639 18.9715 96.0991 18.8015 95.6992 18.4615C95.2992 18.1216 95.0943 17.6417 95.0843 17.0218H95.8492C95.8592 17.4117 95.9991 17.7267 96.2691 17.9666C96.539 18.1966 96.889 18.3116 97.3189 18.3116C97.7488 18.3116 98.0988 18.1966 98.3687 17.9666C98.6487 17.7267 98.7937 17.4117 98.8037 17.0218H99.5686C99.5586 17.6417 99.3486 18.1216 98.9387 18.4615C98.5387 18.8015 97.9988 18.9715 97.3189 18.9715ZM112.879 20.1113V28H111.904V21.761L108.709 27.0402H108.229L105.035 21.746V28H104.06V20.1113H105.14L108.484 25.7954L111.889 20.1113H112.879ZM118.623 20.0513C119.653 20.0513 120.443 20.3112 120.993 20.8312C121.543 21.3411 121.818 22.101 121.818 23.1108V28H120.798V26.7702C120.558 27.1801 120.203 27.5001 119.733 27.73C119.273 27.96 118.723 28.075 118.083 28.075C117.203 28.075 116.504 27.865 115.984 27.4451C115.464 27.0252 115.204 26.4702 115.204 25.7804C115.204 25.1105 115.444 24.5706 115.924 24.1606C116.414 23.7507 117.188 23.5457 118.248 23.5457H120.753V23.0658C120.753 22.3859 120.563 21.871 120.183 21.521C119.803 21.1611 119.248 20.9811 118.518 20.9811C118.018 20.9811 117.538 21.0661 117.078 21.2361C116.619 21.3961 116.224 21.621 115.894 21.911L115.414 21.1161C115.814 20.7762 116.294 20.5162 116.853 20.3362C117.413 20.1463 118.003 20.0513 118.623 20.0513ZM118.248 27.2351C118.848 27.2351 119.363 27.1001 119.793 26.8302C120.223 26.5502 120.543 26.1503 120.753 25.6304V24.3406H118.278C116.928 24.3406 116.254 24.8105 116.254 25.7504C116.254 26.2103 116.429 26.5752 116.778 26.8452C117.128 27.1051 117.618 27.2351 118.248 27.2351ZM124.727 21.686C124.507 21.686 124.317 21.606 124.157 21.4461C124.007 21.2861 123.932 21.0911 123.932 20.8612C123.932 20.6312 124.007 20.4412 124.157 20.2912C124.317 20.1313 124.507 20.0513 124.727 20.0513C124.947 20.0513 125.137 20.1313 125.297 20.2912C125.457 20.4412 125.537 20.6312 125.537 20.8612C125.537 21.0911 125.457 21.2861 125.297 21.4461C125.137 21.606 124.947 21.686 124.727 21.686ZM124.727 28.075C124.507 28.075 124.317 27.995 124.157 27.835C124.007 27.6751 123.932 27.4801 123.932 27.2501C123.932 27.0202 124.007 26.8302 124.157 26.6802C124.317 26.5202 124.507 26.4403 124.727 26.4403C124.947 26.4403 125.137 26.5202 125.297 26.6802C125.457 26.8302 125.537 27.0202 125.537 27.2501C125.537 27.4801 125.457 27.6751 125.297 27.835C125.137 27.995 124.947 28.075 124.727 28.075Z" fill="white"></path> <path d="M23.8314 90.045C25.0472 90.045 25.931 90.265 26.4829 90.7049C27.0428 91.1368 27.3227 91.7447 27.3227 92.5285C27.3227 93.0164 27.2067 93.4523 26.9748 93.8362C26.7508 94.2202 26.4109 94.5241 25.955 94.7481C25.4991 94.964 24.9392 95.072 24.2753 95.072C23.6755 95.072 23.1036 94.976 22.5597 94.784C22.0238 94.5841 21.5919 94.3201 21.2639 93.9922L21.6839 93.3083C21.9638 93.5963 22.3317 93.8322 22.7876 94.0162C23.2435 94.1922 23.7354 94.2801 24.2633 94.2801C24.9592 94.2801 25.4951 94.1242 25.871 93.8122C26.2549 93.5003 26.4469 93.0844 26.4469 92.5645C26.4469 91.9886 26.2309 91.5527 25.799 91.2568C25.3751 90.9608 24.6553 90.8128 23.6395 90.8128H21.8518L22.2837 86.6017H26.8788V87.3695H23.0396L22.7516 90.045H23.8314ZM31.7667 95.072C31.1188 95.072 30.5389 94.9 30.027 94.5561C29.5231 94.2122 29.1272 93.7203 28.8393 93.0804C28.5593 92.4325 28.4194 91.6727 28.4194 90.8009C28.4194 89.929 28.5593 89.1732 28.8393 88.5333C29.1272 87.8854 29.5231 87.3895 30.027 87.0456C30.5389 86.7017 31.1188 86.5297 31.7667 86.5297C32.4146 86.5297 32.9904 86.7017 33.4943 87.0456C34.0062 87.3895 34.4062 87.8854 34.6941 88.5333C34.982 89.1732 35.126 89.929 35.126 90.8009C35.126 91.6727 34.982 92.4325 34.6941 93.0804C34.4062 93.7203 34.0062 94.2122 33.4943 94.5561C32.9904 94.9 32.4146 95.072 31.7667 95.072ZM31.7667 94.2801C32.2546 94.2801 32.6825 94.1442 33.0504 93.8722C33.4264 93.6003 33.7183 93.2044 33.9263 92.6845C34.1342 92.1646 34.2382 91.5367 34.2382 90.8009C34.2382 90.065 34.1342 89.4371 33.9263 88.9172C33.7183 88.3973 33.4264 88.0014 33.0504 87.7295C32.6825 87.4575 32.2546 87.3216 31.7667 87.3216C31.2788 87.3216 30.8469 87.4575 30.471 87.7295C30.103 88.0014 29.8151 88.3973 29.6071 88.9172C29.3992 89.4371 29.2952 90.065 29.2952 90.8009C29.2952 91.5367 29.3992 92.1646 29.6071 92.6845C29.8151 93.2044 30.103 93.6003 30.471 93.8722C30.8469 94.1442 31.2788 94.2801 31.7667 94.2801ZM39.7104 95.072C39.0625 95.072 38.4826 94.9 37.9707 94.5561C37.4669 94.2122 37.0709 93.7203 36.783 93.0804C36.503 92.4325 36.3631 91.6727 36.3631 90.8009C36.3631 89.929 36.503 89.1732 36.783 88.5333C37.0709 87.8854 37.4669 87.3895 37.9707 87.0456C38.4826 86.7017 39.0625 86.5297 39.7104 86.5297C40.3583 86.5297 40.9341 86.7017 41.438 87.0456C41.9499 87.3895 42.3499 87.8854 42.6378 88.5333C42.9257 89.1732 43.0697 89.929 43.0697 90.8009C43.0697 91.6727 42.9257 92.4325 42.6378 93.0804C42.3499 93.7203 41.9499 94.2122 41.438 94.5561C40.9341 94.9 40.3583 95.072 39.7104 95.072ZM39.7104 94.2801C40.1983 94.2801 40.6262 94.1442 40.9941 93.8722C41.3701 93.6003 41.662 93.2044 41.87 92.6845C42.0779 92.1646 42.1819 91.5367 42.1819 90.8009C42.1819 90.065 42.0779 89.4371 41.87 88.9172C41.662 88.3973 41.3701 88.0014 40.9941 87.7295C40.6262 87.4575 40.1983 87.3216 39.7104 87.3216C39.2225 87.3216 38.7906 87.4575 38.4147 87.7295C38.0467 88.0014 37.7588 88.3973 37.5508 88.9172C37.3429 89.4371 37.2389 90.065 37.2389 90.8009C37.2389 91.5367 37.3429 92.1646 37.5508 92.6845C37.7588 93.2044 38.0467 93.6003 38.4147 93.8722C38.7906 94.1442 39.2225 94.2801 39.7104 94.2801ZM50.7941 95.072C50.1462 95.072 49.5663 94.9 49.0544 94.5561C48.5505 94.2122 48.1546 93.7203 47.8667 93.0804C47.5867 92.4325 47.4468 91.6727 47.4468 90.8009C47.4468 89.929 47.5867 89.1732 47.8667 88.5333C48.1546 87.8854 48.5505 87.3895 49.0544 87.0456C49.5663 86.7017 50.1462 86.5297 50.7941 86.5297C51.442 86.5297 52.0178 86.7017 52.5217 87.0456C53.0336 87.3895 53.4336 87.8854 53.7215 88.5333C54.0094 89.1732 54.1534 89.929 54.1534 90.8009C54.1534 91.6727 54.0094 92.4325 53.7215 93.0804C53.4336 93.7203 53.0336 94.2122 52.5217 94.5561C52.0178 94.9 51.442 95.072 50.7941 95.072ZM50.7941 94.2801C51.282 94.2801 51.7099 94.1442 52.0778 93.8722C52.4538 93.6003 52.7457 93.2044 52.9537 92.6845C53.1616 92.1646 53.2656 91.5367 53.2656 90.8009C53.2656 90.065 53.1616 89.4371 52.9537 88.9172C52.7457 88.3973 52.4538 88.0014 52.0778 87.7295C51.7099 87.4575 51.282 87.3216 50.7941 87.3216C50.3062 87.3216 49.8743 87.4575 49.4984 87.7295C49.1304 88.0014 48.8425 88.3973 48.6345 88.9172C48.4266 89.4371 48.3226 90.065 48.3226 90.8009C48.3226 91.5367 48.4266 92.1646 48.6345 92.6845C48.8425 93.2044 49.1304 93.6003 49.4984 93.8722C49.8743 94.1442 50.3062 94.2801 50.7941 94.2801ZM58.7378 95.072C58.0899 95.072 57.51 94.9 56.9981 94.5561C56.4942 94.2122 56.0983 93.7203 55.8104 93.0804C55.5304 92.4325 55.3905 91.6727 55.3905 90.8009C55.3905 89.929 55.5304 89.1732 55.8104 88.5333C56.0983 87.8854 56.4942 87.3895 56.9981 87.0456C57.51 86.7017 58.0899 86.5297 58.7378 86.5297C59.3857 86.5297 59.9615 86.7017 60.4654 87.0456C60.9773 87.3895 61.3773 87.8854 61.6652 88.5333C61.9531 89.1732 62.0971 89.929 62.0971 90.8009C62.0971 91.6727 61.9531 92.4325 61.6652 93.0804C61.3773 93.7203 60.9773 94.2122 60.4654 94.5561C59.9615 94.9 59.3857 95.072 58.7378 95.072ZM58.7378 94.2801C59.2257 94.2801 59.6536 94.1442 60.0215 93.8722C60.3975 93.6003 60.6894 93.2044 60.8974 92.6845C61.1053 92.1646 61.2093 91.5367 61.2093 90.8009C61.2093 90.065 61.1053 89.4371 60.8974 88.9172C60.6894 88.3973 60.3975 88.0014 60.0215 87.7295C59.6536 87.4575 59.2257 87.3216 58.7378 87.3216C58.2499 87.3216 57.818 87.4575 57.4421 87.7295C57.0741 88.0014 56.7862 88.3973 56.5782 88.9172C56.3703 89.4371 56.2663 90.065 56.2663 90.8009C56.2663 91.5367 56.3703 92.1646 56.5782 92.6845C56.7862 93.2044 57.0741 93.6003 57.4421 93.8722C57.818 94.1442 58.2499 94.2801 58.7378 94.2801ZM66.6815 95.072C66.0336 95.072 65.4537 94.9 64.9418 94.5561C64.438 94.2122 64.042 93.7203 63.7541 93.0804C63.4741 92.4325 63.3342 91.6727 63.3342 90.8009C63.3342 89.929 63.4741 89.1732 63.7541 88.5333C64.042 87.8854 64.438 87.3895 64.9418 87.0456C65.4537 86.7017 66.0336 86.5297 66.6815 86.5297C67.3294 86.5297 67.9052 86.7017 68.4091 87.0456C68.921 87.3895 69.321 87.8854 69.6089 88.5333C69.8968 89.1732 70.0408 89.929 70.0408 90.8009C70.0408 91.6727 69.8968 92.4325 69.6089 93.0804C69.321 93.7203 68.921 94.2122 68.4091 94.5561C67.9052 94.9 67.3294 95.072 66.6815 95.072ZM66.6815 94.2801C67.1694 94.2801 67.5973 94.1442 67.9652 93.8722C68.3412 93.6003 68.6331 93.2044 68.8411 92.6845C69.049 92.1646 69.153 91.5367 69.153 90.8009C69.153 90.065 69.049 89.4371 68.8411 88.9172C68.6331 88.3973 68.3412 88.0014 67.9652 87.7295C67.5973 87.4575 67.1694 87.3216 66.6815 87.3216C66.1936 87.3216 65.7617 87.4575 65.3858 87.7295C65.0178 88.0014 64.7299 88.3973 64.5219 88.9172C64.314 89.4371 64.21 90.065 64.21 90.8009C64.21 91.5367 64.314 92.1646 64.5219 92.6845C64.7299 93.2044 65.0178 93.6003 65.3858 93.8722C65.7617 94.1442 66.1936 94.2801 66.6815 94.2801ZM76.3015 92.1806V92.9124H79.0009V93.4403H76.3015V95H75.4137V93.4403H74.1539V92.9124H75.4137V86.6017H78.557C79.6368 86.6017 80.4766 86.8457 81.0765 87.3336C81.6844 87.8135 81.9883 88.4973 81.9883 89.3851C81.9883 90.281 81.6844 90.9728 81.0765 91.4607C80.4766 91.9406 79.6368 92.1806 78.557 92.1806H76.3015ZM76.3015 87.3695V91.4247H78.569C79.3849 91.4247 80.0087 91.2488 80.4406 90.8968C80.8806 90.5449 81.1005 90.045 81.1005 89.3971C81.1005 88.7493 80.8806 88.2494 80.4406 87.8974C80.0087 87.5455 79.3849 87.3695 78.569 87.3695H76.3015Z" fill="white"></path> <path d="M239.359 94.2322V95H233.468V94.3881L236.959 90.9688C237.399 90.5369 237.695 90.165 237.847 89.853C238.007 89.5331 238.087 89.2132 238.087 88.8932C238.087 88.3973 237.915 88.0134 237.571 87.7415C237.235 87.4615 236.751 87.3216 236.119 87.3216C235.136 87.3216 234.372 87.6335 233.828 88.2574L233.216 87.7295C233.544 87.3456 233.96 87.0496 234.464 86.8417C234.976 86.6337 235.551 86.5297 236.191 86.5297C237.047 86.5297 237.723 86.7337 238.219 87.1416C238.723 87.5415 238.975 88.0934 238.975 88.7973C238.975 89.2292 238.879 89.6451 238.687 90.045C238.495 90.4449 238.131 90.9048 237.595 91.4247L234.74 94.2322H239.359ZM243.743 95.072C243.095 95.072 242.516 94.9 242.004 94.5561C241.5 94.2122 241.104 93.7203 240.816 93.0804C240.536 92.4325 240.396 91.6727 240.396 90.8009C240.396 89.929 240.536 89.1732 240.816 88.5333C241.104 87.8854 241.5 87.3895 242.004 87.0456C242.516 86.7017 243.095 86.5297 243.743 86.5297C244.391 86.5297 244.967 86.7017 245.471 87.0456C245.983 87.3895 246.383 87.8854 246.671 88.5333C246.959 89.1732 247.103 89.929 247.103 90.8009C247.103 91.6727 246.959 92.4325 246.671 93.0804C246.383 93.7203 245.983 94.2122 245.471 94.5561C244.967 94.9 244.391 95.072 243.743 95.072ZM243.743 94.2801C244.231 94.2801 244.659 94.1442 245.027 93.8722C245.403 93.6003 245.695 93.2044 245.903 92.6845C246.111 92.1646 246.215 91.5367 246.215 90.8009C246.215 90.065 246.111 89.4371 245.903 88.9172C245.695 88.3973 245.403 88.0014 245.027 87.7295C244.659 87.4575 244.231 87.3216 243.743 87.3216C243.255 87.3216 242.823 87.4575 242.448 87.7295C242.08 88.0014 241.792 88.3973 241.584 88.9172C241.376 89.4371 241.272 90.065 241.272 90.8009C241.272 91.5367 241.376 92.1646 241.584 92.6845C241.792 93.2044 242.08 93.6003 242.448 93.8722C242.823 94.1442 243.255 94.2801 243.743 94.2801ZM254.827 95.072C254.179 95.072 253.599 94.9 253.087 94.5561C252.583 94.2122 252.187 93.7203 251.9 93.0804C251.62 92.4325 251.48 91.6727 251.48 90.8009C251.48 89.929 251.62 89.1732 251.9 88.5333C252.187 87.8854 252.583 87.3895 253.087 87.0456C253.599 86.7017 254.179 86.5297 254.827 86.5297C255.475 86.5297 256.051 86.7017 256.555 87.0456C257.066 87.3895 257.466 87.8854 257.754 88.5333C258.042 89.1732 258.186 89.929 258.186 90.8009C258.186 91.6727 258.042 92.4325 257.754 93.0804C257.466 93.7203 257.066 94.2122 256.555 94.5561C256.051 94.9 255.475 95.072 254.827 95.072ZM254.827 94.2801C255.315 94.2801 255.743 94.1442 256.111 93.8722C256.487 93.6003 256.779 93.2044 256.987 92.6845C257.194 92.1646 257.298 91.5367 257.298 90.8009C257.298 90.065 257.194 89.4371 256.987 88.9172C256.779 88.3973 256.487 88.0014 256.111 87.7295C255.743 87.4575 255.315 87.3216 254.827 87.3216C254.339 87.3216 253.907 87.4575 253.531 87.7295C253.163 88.0014 252.875 88.3973 252.667 88.9172C252.459 89.4371 252.355 90.065 252.355 90.8009C252.355 91.5367 252.459 92.1646 252.667 92.6845C252.875 93.2044 253.163 93.6003 253.531 93.8722C253.907 94.1442 254.339 94.2801 254.827 94.2801ZM262.771 95.072C262.123 95.072 261.543 94.9 261.031 94.5561C260.527 94.2122 260.131 93.7203 259.843 93.0804C259.563 92.4325 259.423 91.6727 259.423 90.8009C259.423 89.929 259.563 89.1732 259.843 88.5333C260.131 87.8854 260.527 87.3895 261.031 87.0456C261.543 86.7017 262.123 86.5297 262.771 86.5297C263.419 86.5297 263.994 86.7017 264.498 87.0456C265.01 87.3895 265.41 87.8854 265.698 88.5333C265.986 89.1732 266.13 89.929 266.13 90.8009C266.13 91.6727 265.986 92.4325 265.698 93.0804C265.41 93.7203 265.01 94.2122 264.498 94.5561C263.994 94.9 263.419 95.072 262.771 95.072ZM262.771 94.2801C263.259 94.2801 263.686 94.1442 264.054 93.8722C264.43 93.6003 264.722 93.2044 264.93 92.6845C265.138 92.1646 265.242 91.5367 265.242 90.8009C265.242 90.065 265.138 89.4371 264.93 88.9172C264.722 88.3973 264.43 88.0014 264.054 87.7295C263.686 87.4575 263.259 87.3216 262.771 87.3216C262.283 87.3216 261.851 87.4575 261.475 87.7295C261.107 88.0014 260.819 88.3973 260.611 88.9172C260.403 89.4371 260.299 90.065 260.299 90.8009C260.299 91.5367 260.403 92.1646 260.611 92.6845C260.819 93.2044 261.107 93.6003 261.475 93.8722C261.851 94.1442 262.283 94.2801 262.771 94.2801ZM270.714 95.072C270.066 95.072 269.487 94.9 268.975 94.5561C268.471 94.2122 268.075 93.7203 267.787 93.0804C267.507 92.4325 267.367 91.6727 267.367 90.8009C267.367 89.929 267.507 89.1732 267.787 88.5333C268.075 87.8854 268.471 87.3895 268.975 87.0456C269.487 86.7017 270.066 86.5297 270.714 86.5297C271.362 86.5297 271.938 86.7017 272.442 87.0456C272.954 87.3895 273.354 87.8854 273.642 88.5333C273.93 89.1732 274.074 89.929 274.074 90.8009C274.074 91.6727 273.93 92.4325 273.642 93.0804C273.354 93.7203 272.954 94.2122 272.442 94.5561C271.938 94.9 271.362 95.072 270.714 95.072ZM270.714 94.2801C271.202 94.2801 271.63 94.1442 271.998 93.8722C272.374 93.6003 272.666 93.2044 272.874 92.6845C273.082 92.1646 273.186 91.5367 273.186 90.8009C273.186 90.065 273.082 89.4371 272.874 88.9172C272.666 88.3973 272.374 88.0014 271.998 87.7295C271.63 87.4575 271.202 87.3216 270.714 87.3216C270.226 87.3216 269.795 87.4575 269.419 87.7295C269.051 88.0014 268.763 88.3973 268.555 88.9172C268.347 89.4371 268.243 90.065 268.243 90.8009C268.243 91.5367 268.347 92.1646 268.555 92.6845C268.763 93.2044 269.051 93.6003 269.419 93.8722C269.795 94.1442 270.226 94.2801 270.714 94.2801ZM281.798 95.072C281.15 95.072 280.57 94.9 280.058 94.5561C279.555 94.2122 279.159 93.7203 278.871 93.0804C278.591 92.4325 278.451 91.6727 278.451 90.8009C278.451 89.929 278.591 89.1732 278.871 88.5333C279.159 87.8854 279.555 87.3895 280.058 87.0456C280.57 86.7017 281.15 86.5297 281.798 86.5297C282.446 86.5297 283.022 86.7017 283.526 87.0456C284.038 87.3895 284.438 87.8854 284.725 88.5333C285.013 89.1732 285.157 89.929 285.157 90.8009C285.157 91.6727 285.013 92.4325 284.725 93.0804C284.438 93.7203 284.038 94.2122 283.526 94.5561C283.022 94.9 282.446 95.072 281.798 95.072ZM281.798 94.2801C282.286 94.2801 282.714 94.1442 283.082 93.8722C283.458 93.6003 283.75 93.2044 283.958 92.6845C284.166 92.1646 284.27 91.5367 284.27 90.8009C284.27 90.065 284.166 89.4371 283.958 88.9172C283.75 88.3973 283.458 88.0014 283.082 87.7295C282.714 87.4575 282.286 87.3216 281.798 87.3216C281.31 87.3216 280.878 87.4575 280.502 87.7295C280.134 88.0014 279.846 88.3973 279.638 88.9172C279.431 89.4371 279.327 90.065 279.327 90.8009C279.327 91.5367 279.431 92.1646 279.638 92.6845C279.846 93.2044 280.134 93.6003 280.502 93.8722C280.878 94.1442 281.31 94.2801 281.798 94.2801ZM289.742 95.072C289.094 95.072 288.514 94.9 288.002 94.5561C287.498 94.2122 287.102 93.7203 286.814 93.0804C286.534 92.4325 286.394 91.6727 286.394 90.8009C286.394 89.929 286.534 89.1732 286.814 88.5333C287.102 87.8854 287.498 87.3895 288.002 87.0456C288.514 86.7017 289.094 86.5297 289.742 86.5297C290.39 86.5297 290.966 86.7017 291.469 87.0456C291.981 87.3895 292.381 87.8854 292.669 88.5333C292.957 89.1732 293.101 89.929 293.101 90.8009C293.101 91.6727 292.957 92.4325 292.669 93.0804C292.381 93.7203 291.981 94.2122 291.469 94.5561C290.966 94.9 290.39 95.072 289.742 95.072ZM289.742 94.2801C290.23 94.2801 290.658 94.1442 291.025 93.8722C291.401 93.6003 291.693 93.2044 291.901 92.6845C292.109 92.1646 292.213 91.5367 292.213 90.8009C292.213 90.065 292.109 89.4371 291.901 88.9172C291.693 88.3973 291.401 88.0014 291.025 87.7295C290.658 87.4575 290.23 87.3216 289.742 87.3216C289.254 87.3216 288.822 87.4575 288.446 87.7295C288.078 88.0014 287.79 88.3973 287.582 88.9172C287.374 89.4371 287.27 90.065 287.27 90.8009C287.27 91.5367 287.374 92.1646 287.582 92.6845C287.79 93.2044 288.078 93.6003 288.446 93.8722C288.822 94.1442 289.254 94.2801 289.742 94.2801ZM297.685 95.072C297.038 95.072 296.458 94.9 295.946 94.5561C295.442 94.2122 295.046 93.7203 294.758 93.0804C294.478 92.4325 294.338 91.6727 294.338 90.8009C294.338 89.929 294.478 89.1732 294.758 88.5333C295.046 87.8854 295.442 87.3895 295.946 87.0456C296.458 86.7017 297.038 86.5297 297.685 86.5297C298.333 86.5297 298.909 86.7017 299.413 87.0456C299.925 87.3895 300.325 87.8854 300.613 88.5333C300.901 89.1732 301.045 89.929 301.045 90.8009C301.045 91.6727 300.901 92.4325 300.613 93.0804C300.325 93.7203 299.925 94.2122 299.413 94.5561C298.909 94.9 298.333 95.072 297.685 95.072ZM297.685 94.2801C298.173 94.2801 298.601 94.1442 298.969 93.8722C299.345 93.6003 299.637 93.2044 299.845 92.6845C300.053 92.1646 300.157 91.5367 300.157 90.8009C300.157 90.065 300.053 89.4371 299.845 88.9172C299.637 88.3973 299.345 88.0014 298.969 87.7295C298.601 87.4575 298.173 87.3216 297.685 87.3216C297.198 87.3216 296.766 87.4575 296.39 87.7295C296.022 88.0014 295.734 88.3973 295.526 88.9172C295.318 89.4371 295.214 90.065 295.214 90.8009C295.214 91.5367 295.318 92.1646 295.526 92.6845C295.734 93.2044 296.022 93.6003 296.39 93.8722C296.766 94.1442 297.198 94.2801 297.685 94.2801ZM307.305 92.1806V92.9124H310.005V93.4403H307.305V95H306.418V93.4403H305.158V92.9124H306.418V86.6017H309.561C310.641 86.6017 311.481 86.8457 312.08 87.3336C312.688 87.8135 312.992 88.4973 312.992 89.3851C312.992 90.281 312.688 90.9728 312.08 91.4607C311.481 91.9406 310.641 92.1806 309.561 92.1806H307.305ZM307.305 87.3695V91.4247H309.573C310.389 91.4247 311.013 91.2488 311.445 90.8968C311.885 90.5449 312.104 90.045 312.104 89.3971C312.104 88.7493 311.885 88.2494 311.445 87.8974C311.013 87.5455 310.389 87.3695 309.573 87.3695H307.305Z" fill="white"></path> </svg> 