<?xml version="1.0" encoding="UTF-8"?> <svg xmlns="http://www.w3.org/2000/svg" width="120" height="120" viewBox="0 0 120 120" fill="none"> <g filter="url(#filter0_i)"> <path d="M105 0H15C6.71573 0 0 6.71573 0 15V105C0 113.284 6.71573 120 15 120H105C113.284 120 120 113.284 120 105V15C120 6.71573 113.284 0 105 0Z" fill="#384E59" fill-opacity="0.48"></path> <path d="M105 0H15C6.71573 0 0 6.71573 0 15V105C0 113.284 6.71573 120 15 120H105C113.284 120 120 113.284 120 105V15C120 6.71573 113.284 0 105 0Z" fill="url(#paint0_linear)" fill-opacity="0.1"></path> </g> <g filter="url(#filter1_d)"> <path d="M60.8945 84.9704C64.718 84.4272 68.0699 80.4366 70.1791 74.5431C67.1301 73.8603 64.0186 73.4938 60.8945 73.4502V84.9704Z" fill="white"></path> <path d="M67.0014 84.0333C67.2274 83.9679 67.4526 83.902 67.676 83.8296C67.8645 83.7689 68.0503 83.7035 68.2362 83.6384C68.4561 83.5625 68.6752 83.4844 68.8933 83.4015C69.0792 83.3308 69.2633 83.2558 69.4479 83.1807C69.6608 83.0913 69.8733 83.0023 70.0836 82.9128C70.2673 82.8321 70.4497 82.7475 70.6321 82.6624C70.8384 82.5651 71.0439 82.466 71.2477 82.3631C71.4266 82.2719 71.6051 82.1789 71.784 82.0834C71.9842 81.976 72.1832 81.8665 72.3808 81.754C72.5597 81.6527 72.7322 81.5511 72.9062 81.4464C73.1 81.3272 73.2928 81.2081 73.4843 81.089C73.6558 80.9799 73.8268 80.8691 73.9957 80.7548C74.1842 80.6278 74.37 80.4956 74.555 80.3634C74.7213 80.2443 74.8866 80.1256 75.049 80.006C75.2279 79.8682 75.4111 79.7255 75.5904 79.5824C75.7497 79.4554 75.9085 79.3293 76.0652 79.1988C76.2436 79.0505 76.4147 78.8969 76.5879 78.7433C76.7397 78.6085 76.8924 78.475 77.0408 78.3367C77.2114 78.1774 77.3776 78.0125 77.5439 77.8489C77.6878 77.7066 77.8336 77.5666 77.9745 77.4208C78.0007 77.3938 78.0256 77.3645 78.0526 77.3366C76.1036 76.33 74.0507 75.5398 71.9297 74.9805C70.8267 78.4981 68.8637 81.6859 66.2188 84.2541C66.2912 84.2353 66.3635 84.2201 66.4359 84.2013C66.627 84.1476 66.8147 84.0887 67.0014 84.0333Z" fill="white"></path> <path d="M85.001 60.9141H74.2866C74.246 65.0975 73.6391 69.2562 72.4824 73.2769C74.8412 73.9069 77.1175 74.8127 79.2642 75.9756C82.7888 71.7275 84.8064 66.431 85.001 60.9141Z" fill="white"></path> <path d="M60.8945 59.1271H72.4995C72.4541 55.0915 71.862 51.0808 70.7402 47.2041C67.5088 47.9411 64.2084 48.3346 60.8945 48.3782V59.1271Z" fill="white"></path> <path d="M60.8945 35.0708V46.591C64.0186 46.5469 67.1301 46.1809 70.1791 45.498C68.0699 39.6046 64.718 35.614 60.8945 35.0708Z" fill="white"></path> <path d="M60.8945 71.6629C64.2084 71.707 67.5088 72.1005 70.7402 72.8375C71.862 68.9607 72.4541 64.9496 72.4995 60.9141H60.8945V71.6629Z" fill="white"></path> <path d="M79.2642 44.0654C77.1175 45.2282 74.8412 46.134 72.4824 46.7641C73.6391 50.7848 74.246 54.9434 74.2866 59.1269H85.001C84.806 53.6105 82.7884 48.3139 79.2642 44.0654Z" fill="white"></path> <path d="M78.0558 42.7097C78.0296 42.6831 78.0048 42.6543 77.979 42.6268C77.8377 42.4811 77.6911 42.3406 77.5471 42.1988C77.3813 42.0352 77.2159 41.8698 77.0449 41.711C76.8969 41.5731 76.7438 41.4426 76.592 41.3052C76.4187 41.1516 76.2455 40.9967 76.0675 40.8484C75.913 40.7179 75.7546 40.5931 75.5976 40.4679C75.4187 40.323 75.2354 40.1791 75.0513 40.0407C74.8899 39.919 74.7262 39.8012 74.5617 39.6834C74.375 39.549 74.1874 39.415 73.9971 39.2872C73.83 39.1746 73.6603 39.0647 73.4906 38.9569C73.2973 38.8326 73.1044 38.7108 72.9076 38.593C72.7353 38.4896 72.5612 38.3875 72.3867 38.2885C72.1868 38.1741 71.9865 38.0633 71.7845 37.9551C71.6056 37.8657 71.4272 37.7684 71.2483 37.6789C71.0428 37.5751 70.8355 37.4752 70.623 37.377C70.4441 37.2919 70.2626 37.209 70.0785 37.1283C69.8669 37.0345 69.6531 36.9498 69.4397 36.8604C69.2556 36.7853 69.0723 36.7111 68.8865 36.6405C68.6696 36.5576 68.4497 36.4799 68.2298 36.404C68.0439 36.3385 67.858 36.2735 67.6696 36.2124C67.4462 36.14 67.2228 36.0741 66.9932 36.0078C66.8074 35.9533 66.6206 35.8978 66.4326 35.8481C66.3606 35.8285 66.2873 35.8132 66.2148 35.7944C68.8598 38.3626 70.8224 41.55 71.9259 45.0681C74.0491 44.5087 76.105 43.7181 78.0558 42.7097Z" fill="white"></path> <path d="M35 59.1269H45.7144C45.7549 54.9434 46.3619 50.7848 47.5181 46.7641C45.1598 46.1345 42.8835 45.2287 40.7368 44.0654C37.2122 48.3135 35.1946 53.6105 35 59.1269Z" fill="white"></path> <path d="M59.1068 84.9704V73.4502C55.9827 73.4942 52.8713 73.8603 49.8223 74.5431C51.931 80.4366 55.2833 84.4272 59.1068 84.9704Z" fill="white"></path> <path d="M59.1069 60.9141H47.502C47.5473 64.9496 48.139 68.9607 49.2612 72.8375C52.4926 72.1001 55.7925 71.7065 59.1069 71.6629V60.9141Z" fill="white"></path> <path d="M59.1068 35.0708C55.2833 35.614 51.931 39.6046 49.8223 45.498C52.8713 46.1813 55.9827 46.5474 59.1068 46.591V35.0708Z" fill="white"></path> <path d="M59.1069 48.3782C55.793 48.3346 52.4926 47.9411 49.2612 47.2041C48.139 51.0808 47.5473 55.0915 47.502 59.1271H59.1069V48.3782Z" fill="white"></path> <path d="M53.7786 35.7939C53.7062 35.8127 53.6338 35.8279 53.5613 35.8467C53.372 35.8973 53.1852 35.9536 52.9967 36.0081C52.7725 36.0736 52.5499 36.1395 52.3248 36.211C52.135 36.2725 51.9483 36.338 51.7615 36.403C51.5429 36.4802 51.3239 36.557 51.1075 36.6391C50.9207 36.7106 50.7366 36.7848 50.5516 36.8607C50.3391 36.9502 50.1262 37.0396 49.9163 37.1286C49.7322 37.2093 49.5502 37.294 49.3678 37.3791C49.1615 37.4764 48.9559 37.5754 48.7522 37.6784C48.5733 37.7696 48.3944 37.8629 48.2159 37.9581C48.0157 38.0654 47.8171 38.1754 47.6199 38.2879C47.441 38.3878 47.2652 38.4904 47.0928 38.5951C46.8987 38.712 46.7067 38.8329 46.5156 38.9524C46.3437 39.0624 46.1731 39.1732 46.0042 39.2875C45.8157 39.4145 45.6298 39.5467 45.4448 39.6789C45.2786 39.798 45.1132 39.9167 44.9505 40.0367C44.7677 40.1742 44.5931 40.3173 44.409 40.4599C44.2502 40.5869 44.0901 40.713 43.9347 40.8443C43.7558 40.9918 43.5861 41.1445 43.4138 41.2973C43.261 41.4334 43.107 41.5656 42.9578 41.7065C42.7881 41.8649 42.6227 42.0294 42.4569 42.1926C42.3129 42.3348 42.1663 42.4753 42.0249 42.6215C41.9992 42.6485 41.9743 42.6782 41.9473 42.7057C43.8959 43.7127 45.9492 44.5029 48.0702 45.0623C49.1732 41.5464 51.1349 38.3608 53.7786 35.7939Z" fill="white"></path> <path d="M42.4525 77.8421C42.6187 78.0058 42.7841 78.1711 42.9547 78.3304C43.1031 78.4678 43.2558 78.5983 43.4081 78.7357C43.5813 78.8897 43.7545 79.0442 43.9325 79.1926C44.087 79.3221 44.2445 79.4474 44.4024 79.573C44.5813 79.7179 44.7598 79.8619 44.9492 80.0011C45.1102 80.1219 45.2738 80.2389 45.4374 80.3588C45.6241 80.4928 45.8126 80.6267 46.0029 80.7555C46.17 80.868 46.3397 80.978 46.5094 81.0862C46.7027 81.2101 46.8956 81.3318 47.0924 81.4497C47.2647 81.5535 47.4388 81.6552 47.6133 81.7546C47.8132 81.869 48.0135 81.9798 48.2155 82.0876C48.3939 82.177 48.5728 82.2743 48.7517 82.3638C48.9572 82.4676 49.1645 82.5675 49.377 82.6661C49.5559 82.7503 49.7374 82.8332 49.9215 82.9144C50.1331 83.0082 50.3465 83.0929 50.5603 83.1823C50.7444 83.2573 50.9277 83.3315 51.1135 83.4022C51.3304 83.4855 51.5503 83.5632 51.7702 83.6391C51.9561 83.7041 52.142 83.7696 52.3304 83.8302C52.5538 83.9027 52.7772 83.969 53.0067 84.0349C53.1926 84.0894 53.3794 84.1448 53.567 84.195C53.6394 84.2146 53.7127 84.2299 53.7851 84.2487C51.1402 81.68 49.1776 78.4927 48.0741 74.9746C45.9531 75.5344 43.8998 76.3246 41.9512 77.3321C41.9774 77.3587 42.0022 77.3875 42.0284 77.415C42.1624 77.5598 42.3068 77.7003 42.4525 77.8421Z" fill="white"></path> <path d="M40.7368 75.9756C42.8835 74.8127 45.1598 73.9069 47.5181 73.2769C46.3619 69.2562 45.7549 65.0975 45.7144 60.9141H35C35.195 66.4305 37.2122 71.7271 40.7368 75.9756Z" fill="white"></path> </g> <defs> <filter id="filter0_i" x="0" y="0" width="121" height="121" filterUnits="userSpaceOnUse" color-interpolation-filters="sRGB"> <feFlood flood-opacity="0" result="BackgroundImageFix"></feFlood> <feBlend mode="normal" in="SourceGraphic" in2="BackgroundImageFix" result="shape"></feBlend> <feColorMatrix in="SourceAlpha" type="matrix" values="0 0 0 0 0 0 0 0 0 0 0 0 0 0 0 0 0 0 127 0" result="hardAlpha"></feColorMatrix> <feOffset dx="1" dy="1"></feOffset> <feGaussianBlur stdDeviation="2"></feGaussianBlur> <feComposite in2="hardAlpha" operator="arithmetic" k2="-1" k3="1"></feComposite> <feColorMatrix type="matrix" values="0 0 0 0 1 0 0 0 0 1 0 0 0 0 1 0 0 0 0.05 0"></feColorMatrix> <feBlend mode="normal" in2="shape" result="effect1_innerShadow"></feBlend> </filter> <filter id="filter1_d" x="5" y="5.0708" width="110.001" height="109.9" filterUnits="userSpaceOnUse" color-interpolation-filters="sRGB"> <feFlood flood-opacity="0" result="BackgroundImageFix"></feFlood> <feColorMatrix in="SourceAlpha" type="matrix" values="0 0 0 0 0 0 0 0 0 0 0 0 0 0 0 0 0 0 127 0"></feColorMatrix> <feOffset></feOffset> <feGaussianBlur stdDeviation="15"></feGaussianBlur> <feColorMatrix type="matrix" values="0 0 0 0 0.148125 0 0 0 0 0.634962 0 0 0 0 0.9875 0 0 0 0.49 0"></feColorMatrix> <feBlend mode="normal" in2="BackgroundImageFix" result="effect1_dropShadow"></feBlend> <feBlend mode="normal" in="SourceGraphic" in2="effect1_dropShadow" result="shape"></feBlend> </filter> <linearGradient id="paint0_linear" x1="60" y1="0" x2="60" y2="120" gradientUnits="userSpaceOnUse"> <stop stop-color="#00A3FF"></stop> <stop offset="1" stop-color="#26A2FC" stop-opacity="0"></stop> </linearGradient> </defs> </svg> 